  0
SECTION
  2
HEADER
  9
$MEASUREMENT
  70
  1
  9
$INSUNITS
  70
  4
  0
ENDSEC
  0
SECTION
  2
TABLES
  0
TABLE
  2
LTYPE
 70
     1
  0
LTYPE
  2
CONTINUOUS
 70
    64
  3
Ausgezogene Linie
 72
    65
 73
     0
 40
0.0
  0
ENDTAB
  0
TABLE
  2
LAYER
 70
     3
  0
LAYER
  2
Contour
 70
    64
 62
     7
  6
CONTINUOUS
  0
LAYER
  2
Engraving
 70
    64
 62
     7
  6
CONTINUOUS
  0
LAYER
  2
Reference_points
 70
    64
 62
     1
  6
CONTINUOUS
  0
ENDTAB
  0
TABLE
  2
STYLE
 70
     1
  0
STYLE
  2
TXT
 70
    64
 40
0.0
 41
1.0
 50
0.0
 71
     0
 42
3.500000
  3
TXT
  0
ENDTAB
  0
ENDSEC
  0
SECTION
  2
BLOCKS
  0
ENDSEC
  0
SECTION
  2
ENTITIES
  0
LINE
  8
Contour
 62
   7
 39
0.100
  6
CONTINUOUS
 10
50.46000
 20
128.40000
 30
 0
 11
50.46000
 21
0.00000
  0
LINE
  8
Contour
 62
   7
 39
0.100
  6
CONTINUOUS
 10
50.46000
 20
0.00000
 30
 0
 11
0.00000
 21
0.00000
  0
LINE
  8
Contour
 62
   7
 39
0.100
  6
CONTINUOUS
 10
0.00000
 20
0.00000
 30
 0
 11
0.00000
 21
128.40000
  0
LINE
  8
Contour
 62
   7
 39
0.100
  6
CONTINUOUS
 10
0.00000
 20
128.40000
 30
 0
 11
50.46000
 21
128.40000
  0
LINE
  8
Engraving
 62
   7
 39
0.600
  6
CONTINUOUS
 10
10.18915
 20
82.31587
 30
 0
 11
10.63330
 21
82.62335
  0
LINE
  8
Engraving
 62
   7
 39
0.600
  6
CONTINUOUS
 10
10.63330
 20
82.62335
 30
 0
 11
11.07745
 21
83.17000
  0
LINE
  8
Engraving
 62
   7
 39
0.600
  6
CONTINUOUS
 10
11.07745
 20
83.17000
 30
 0
 11
11.07745
 21
78.83100
  0
ARC
  8
Engraving
 62
   7
 39
0.600
  6
CONTINUOUS
 10
20.80293
 20
82.23561
 30
 0
 40
0.99646
 50
103.59010
 51
197.25422
  0
ARC
  8
Engraving
 62
   7
 39
0.600
  6
CONTINUOUS
 10
20.83508
 20
82.30665
 30
 0
 40
0.93619
 50
6.85332
 51
106.52541
  0
ARC
  8
Engraving
 62
   7
 39
0.600
  6
CONTINUOUS
 10
19.69495
 20
82.11144
 30
 0
 40
2.09226
 50
-32.62504
 51
8.43552
  0
ARC
  8
Engraving
 62
   7
 39
0.600
  6
CONTINUOUS
 10
17.17542
 20
83.55476
 30
 0
 40
4.99444
 50
312.79903
 51
329.01325
  0
LINE
  8
Engraving
 62
   7
 39
0.600
  6
CONTINUOUS
 10
20.56879
 20
79.89013
 30
 0
 11
19.78298
 21
79.07016
  0
LINE
  8
Engraving
 62
   7
 39
0.600
  6
CONTINUOUS
 10
19.78298
 20
79.07016
 30
 0
 11
19.78298
 21
78.83100
  0
LINE
  8
Engraving
 62
   7
 39
0.600
  6
CONTINUOUS
 10
19.78298
 20
78.83100
 30
 0
 11
21.79874
 21
78.83100
  0
LINE
  8
Engraving
 62
   7
 39
0.600
  6
CONTINUOUS
 10
21.79874
 20
78.83100
 30
 0
 11
19.78298
 21
78.83100
  0
LINE
  8
Engraving
 62
   7
 39
0.600
  6
CONTINUOUS
 10
29.97698
 20
80.09512
 30
 0
 11
29.97698
 21
79.68513
  0
LINE
  8
Engraving
 62
   7
 39
0.600
  6
CONTINUOUS
 10
29.97698
 20
79.68513
 30
 0
 11
30.04531
 21
79.34348
  0
LINE
  8
Engraving
 62
   7
 39
0.600
  6
CONTINUOUS
 10
30.04531
 20
79.34348
 30
 0
 11
30.21614
 21
79.10432
  0
LINE
  8
Engraving
 62
   7
 39
0.600
  6
CONTINUOUS
 10
30.21614
 20
79.10432
 30
 0
 11
30.42113
 21
78.93350
  0
LINE
  8
Engraving
 62
   7
 39
0.600
  6
CONTINUOUS
 10
30.42113
 20
78.93350
 30
 0
 11
30.76279
 21
78.83100
  0
LINE
  8
Engraving
 62
   7
 39
0.600
  6
CONTINUOUS
 10
30.76279
 20
78.83100
 30
 0
 11
30.93361
 21
78.79683
  0
LINE
  8
Engraving
 62
   7
 39
0.600
  6
CONTINUOUS
 10
30.93361
 20
78.79683
 30
 0
 11
31.24110
 21
78.83100
  0
LINE
  8
Engraving
 62
   7
 39
0.600
  6
CONTINUOUS
 10
31.24110
 20
78.83100
 30
 0
 11
31.48026
 21
78.93350
  0
LINE
  8
Engraving
 62
   7
 39
0.600
  6
CONTINUOUS
 10
31.48026
 20
78.93350
 30
 0
 11
31.68525
 21
79.10432
  0
LINE
  8
Engraving
 62
   7
 39
0.600
  6
CONTINUOUS
 10
31.68525
 20
79.10432
 30
 0
 11
31.85608
 21
79.34348
  0
LINE
  8
Engraving
 62
   7
 39
0.600
  6
CONTINUOUS
 10
31.85608
 20
79.34348
 30
 0
 11
31.92441
 21
79.68513
  0
LINE
  8
Engraving
 62
   7
 39
0.600
  6
CONTINUOUS
 10
31.92441
 20
79.68513
 30
 0
 11
31.92441
 21
80.47094
  0
LINE
  8
Engraving
 62
   7
 39
0.600
  6
CONTINUOUS
 10
31.92441
 20
80.47094
 30
 0
 11
31.85608
 21
80.77843
  0
LINE
  8
Engraving
 62
   7
 39
0.600
  6
CONTINUOUS
 10
31.85608
 20
80.77843
 30
 0
 11
31.68525
 21
81.01758
  0
LINE
  8
Engraving
 62
   7
 39
0.600
  6
CONTINUOUS
 10
31.68525
 20
81.01758
 30
 0
 11
31.37776
 21
81.15424
  0
LINE
  8
Engraving
 62
   7
 39
0.600
  6
CONTINUOUS
 10
31.37776
 20
81.15424
 30
 0
 11
30.55780
 21
81.15424
  0
LINE
  8
Engraving
 62
   7
 39
0.600
  6
CONTINUOUS
 10
30.55780
 20
81.15424
 30
 0
 11
31.37776
 21
81.15424
  0
LINE
  8
Engraving
 62
   7
 39
0.600
  6
CONTINUOUS
 10
31.37776
 20
81.15424
 30
 0
 11
31.65109
 21
81.35924
  0
LINE
  8
Engraving
 62
   7
 39
0.600
  6
CONTINUOUS
 10
31.65109
 20
81.35924
 30
 0
 11
31.82191
 21
81.53006
  0
LINE
  8
Engraving
 62
   7
 39
0.600
  6
CONTINUOUS
 10
31.82191
 20
81.53006
 30
 0
 11
31.85608
 21
81.76922
  0
LINE
  8
Engraving
 62
   7
 39
0.600
  6
CONTINUOUS
 10
31.85608
 20
81.76922
 30
 0
 11
31.85608
 21
82.41836
  0
LINE
  8
Engraving
 62
   7
 39
0.600
  6
CONTINUOUS
 10
31.85608
 20
82.41836
 30
 0
 11
31.82191
 21
82.69169
  0
LINE
  8
Engraving
 62
   7
 39
0.600
  6
CONTINUOUS
 10
31.82191
 20
82.69169
 30
 0
 11
31.68525
 21
82.93084
  0
LINE
  8
Engraving
 62
   7
 39
0.600
  6
CONTINUOUS
 10
31.68525
 20
82.93084
 30
 0
 11
31.48026
 21
83.13583
  0
LINE
  8
Engraving
 62
   7
 39
0.600
  6
CONTINUOUS
 10
31.48026
 20
83.13583
 30
 0
 11
31.24110
 21
83.20417
  0
LINE
  8
Engraving
 62
   7
 39
0.600
  6
CONTINUOUS
 10
31.24110
 20
83.20417
 30
 0
 11
31.03611
 21
83.23833
  0
LINE
  8
Engraving
 62
   7
 39
0.600
  6
CONTINUOUS
 10
31.03611
 20
83.23833
 30
 0
 11
30.86528
 21
83.23833
  0
LINE
  8
Engraving
 62
   7
 39
0.600
  6
CONTINUOUS
 10
30.86528
 20
83.23833
 30
 0
 11
30.59196
 21
83.20417
  0
LINE
  8
Engraving
 62
   7
 39
0.600
  6
CONTINUOUS
 10
30.59196
 20
83.20417
 30
 0
 11
30.35280
 21
83.06750
  0
LINE
  8
Engraving
 62
   7
 39
0.600
  6
CONTINUOUS
 10
30.35280
 20
83.06750
 30
 0
 11
30.18198
 21
82.89668
  0
LINE
  8
Engraving
 62
   7
 39
0.600
  6
CONTINUOUS
 10
30.18198
 20
82.89668
 30
 0
 11
30.07948
 21
82.65752
  0
LINE
  8
Engraving
 62
   7
 39
0.600
  6
CONTINUOUS
 10
30.07948
 20
82.65752
 30
 0
 11
30.01115
 21
82.41836
  0
LINE
  8
Engraving
 62
   7
 39
0.600
  6
CONTINUOUS
 10
30.01115
 20
82.41836
 30
 0
 11
30.01115
 21
82.00838
  0
LINE
  8
Engraving
 62
   7
 39
0.600
  6
CONTINUOUS
 10
41.57259
 20
78.83100
 30
 0
 11
41.57259
 21
83.17000
  0
LINE
  8
Engraving
 62
   7
 39
0.600
  6
CONTINUOUS
 10
41.57259
 20
83.17000
 30
 0
 11
41.40176
 21
83.17000
  0
LINE
  8
Engraving
 62
   7
 39
0.600
  6
CONTINUOUS
 10
41.40176
 20
83.17000
 30
 0
 11
40.00098
 21
80.12928
  0
LINE
  8
Engraving
 62
   7
 39
0.600
  6
CONTINUOUS
 10
40.00098
 20
80.12928
 30
 0
 11
42.22173
 21
80.12928
  0
LINE
  8
Engraving
 62
   7
 39
0.400
  6
CONTINUOUS
 10
20.80192
 20
104.52900
 30
 0
 11
20.80192
 21
101.47200
  0
LINE
  8
Engraving
 62
   7
 39
0.400
  6
CONTINUOUS
 10
21.40385
 20
101.47200
 30
 0
 11
21.40385
 21
103.61431
  0
LINE
  8
Engraving
 62
   7
 39
0.400
  6
CONTINUOUS
 10
21.40385
 20
103.61431
 30
 0
 11
21.40385
 21
103.39767
  0
LINE
  8
Engraving
 62
   7
 39
0.400
  6
CONTINUOUS
 10
21.40385
 20
103.39767
 30
 0
 11
21.57235
 21
103.49395
  0
LINE
  8
Engraving
 62
   7
 39
0.400
  6
CONTINUOUS
 10
21.57235
 20
103.49395
 30
 0
 11
21.74084
 21
103.56617
  0
LINE
  8
Engraving
 62
   7
 39
0.400
  6
CONTINUOUS
 10
21.74084
 20
103.56617
 30
 0
 11
21.83713
 21
103.61431
  0
LINE
  8
Engraving
 62
   7
 39
0.400
  6
CONTINUOUS
 10
21.83713
 20
103.61431
 30
 0
 11
22.05376
 21
103.63838
  0
LINE
  8
Engraving
 62
   7
 39
0.400
  6
CONTINUOUS
 10
22.05376
 20
103.63838
 30
 0
 11
22.27040
 21
103.61431
  0
LINE
  8
Engraving
 62
   7
 39
0.400
  6
CONTINUOUS
 10
22.27040
 20
103.61431
 30
 0
 11
22.46297
 21
103.49395
  0
LINE
  8
Engraving
 62
   7
 39
0.400
  6
CONTINUOUS
 10
22.46297
 20
103.49395
 30
 0
 11
22.58332
 21
103.34953
  0
LINE
  8
Engraving
 62
   7
 39
0.400
  6
CONTINUOUS
 10
22.58332
 20
103.34953
 30
 0
 11
22.63146
 21
103.08475
  0
LINE
  8
Engraving
 62
   7
 39
0.400
  6
CONTINUOUS
 10
22.63146
 20
103.08475
 30
 0
 11
22.63146
 21
101.47200
  0
LINE
  8
Engraving
 62
   7
 39
0.400
  6
CONTINUOUS
 10
23.23385
 20
100.67766
 30
 0
 11
23.23385
 21
103.61431
  0
LINE
  8
Engraving
 62
   7
 39
0.400
  6
CONTINUOUS
 10
23.23385
 20
103.61431
 30
 0
 11
23.23385
 21
103.49395
  0
LINE
  8
Engraving
 62
   7
 39
0.400
  6
CONTINUOUS
 10
23.23385
 20
103.49395
 30
 0
 11
23.40235
 21
103.56617
  0
LINE
  8
Engraving
 62
   7
 39
0.400
  6
CONTINUOUS
 10
23.40235
 20
103.56617
 30
 0
 11
23.57084
 21
103.61431
  0
LINE
  8
Engraving
 62
   7
 39
0.400
  6
CONTINUOUS
 10
23.57084
 20
103.61431
 30
 0
 11
23.73934
 21
103.63838
  0
LINE
  8
Engraving
 62
   7
 39
0.400
  6
CONTINUOUS
 10
23.73934
 20
103.63838
 30
 0
 11
23.90783
 21
103.63838
  0
LINE
  8
Engraving
 62
   7
 39
0.400
  6
CONTINUOUS
 10
23.90783
 20
103.63838
 30
 0
 11
24.10040
 21
103.61431
  0
LINE
  8
Engraving
 62
   7
 39
0.400
  6
CONTINUOUS
 10
24.10040
 20
103.61431
 30
 0
 11
24.26890
 21
103.51802
  0
LINE
  8
Engraving
 62
   7
 39
0.400
  6
CONTINUOUS
 10
24.26890
 20
103.51802
 30
 0
 11
24.41332
 21
103.37360
  0
LINE
  8
Engraving
 62
   7
 39
0.400
  6
CONTINUOUS
 10
24.41332
 20
103.37360
 30
 0
 11
24.48554
 21
103.22917
  0
LINE
  8
Engraving
 62
   7
 39
0.400
  6
CONTINUOUS
 10
24.48554
 20
103.22917
 30
 0
 11
24.50961
 21
103.08475
  0
LINE
  8
Engraving
 62
   7
 39
0.400
  6
CONTINUOUS
 10
24.50961
 20
103.08475
 30
 0
 11
24.50961
 21
102.00156
  0
LINE
  8
Engraving
 62
   7
 39
0.400
  6
CONTINUOUS
 10
24.50961
 20
102.00156
 30
 0
 11
24.46146
 21
101.76085
  0
LINE
  8
Engraving
 62
   7
 39
0.400
  6
CONTINUOUS
 10
24.46146
 20
101.76085
 30
 0
 11
24.34111
 21
101.61643
  0
LINE
  8
Engraving
 62
   7
 39
0.400
  6
CONTINUOUS
 10
24.34111
 20
101.61643
 30
 0
 11
24.17261
 21
101.49607
  0
LINE
  8
Engraving
 62
   7
 39
0.400
  6
CONTINUOUS
 10
24.17261
 20
101.49607
 30
 0
 11
23.93191
 21
101.44793
  0
LINE
  8
Engraving
 62
   7
 39
0.400
  6
CONTINUOUS
 10
23.93191
 20
101.44793
 30
 0
 11
23.73934
 21
101.44793
  0
LINE
  8
Engraving
 62
   7
 39
0.400
  6
CONTINUOUS
 10
23.73934
 20
101.44793
 30
 0
 11
23.52270
 21
101.49607
  0
LINE
  8
Engraving
 62
   7
 39
0.400
  6
CONTINUOUS
 10
23.52270
 20
101.49607
 30
 0
 11
23.35420
 21
101.61643
  0
LINE
  8
Engraving
 62
   7
 39
0.400
  6
CONTINUOUS
 10
23.35420
 20
101.61643
 30
 0
 11
23.23385
 21
101.83306
  0
LINE
  8
Engraving
 62
   7
 39
0.400
  6
CONTINUOUS
 10
26.33946
 20
103.61431
 30
 0
 11
26.33946
 21
101.47200
  0
LINE
  8
Engraving
 62
   7
 39
0.400
  6
CONTINUOUS
 10
26.33946
 20
101.47200
 30
 0
 11
26.33946
 21
101.68864
  0
LINE
  8
Engraving
 62
   7
 39
0.400
  6
CONTINUOUS
 10
26.33946
 20
101.68864
 30
 0
 11
26.17097
 21
101.56828
  0
LINE
  8
Engraving
 62
   7
 39
0.400
  6
CONTINUOUS
 10
26.17097
 20
101.56828
 30
 0
 11
26.02654
 21
101.52014
  0
LINE
  8
Engraving
 62
   7
 39
0.400
  6
CONTINUOUS
 10
26.02654
 20
101.52014
 30
 0
 11
25.90619
 21
101.47200
  0
LINE
  8
Engraving
 62
   7
 39
0.400
  6
CONTINUOUS
 10
25.90619
 20
101.47200
 30
 0
 11
25.71362
 21
101.44793
  0
LINE
  8
Engraving
 62
   7
 39
0.400
  6
CONTINUOUS
 10
25.71362
 20
101.44793
 30
 0
 11
25.49698
 21
101.47200
  0
LINE
  8
Engraving
 62
   7
 39
0.400
  6
CONTINUOUS
 10
25.49698
 20
101.47200
 30
 0
 11
25.30442
 21
101.59235
  0
LINE
  8
Engraving
 62
   7
 39
0.400
  6
CONTINUOUS
 10
25.30442
 20
101.59235
 30
 0
 11
25.18406
 21
101.73678
  0
LINE
  8
Engraving
 62
   7
 39
0.400
  6
CONTINUOUS
 10
25.18406
 20
101.73678
 30
 0
 11
25.11185
 21
102.00156
  0
LINE
  8
Engraving
 62
   7
 39
0.400
  6
CONTINUOUS
 10
25.11185
 20
102.00156
 30
 0
 11
25.11185
 21
103.61431
  0
LINE
  8
Engraving
 62
   7
 39
0.400
  6
CONTINUOUS
 10
27.44634
 20
103.97537
 30
 0
 11
27.44634
 21
101.78492
  0
LINE
  8
Engraving
 62
   7
 39
0.400
  6
CONTINUOUS
 10
27.44634
 20
101.78492
 30
 0
 11
27.47041
 21
101.64050
  0
LINE
  8
Engraving
 62
   7
 39
0.400
  6
CONTINUOUS
 10
27.47041
 20
101.64050
 30
 0
 11
27.51855
 21
101.52014
  0
LINE
  8
Engraving
 62
   7
 39
0.400
  6
CONTINUOUS
 10
27.51855
 20
101.52014
 30
 0
 11
27.61483
 21
101.47200
  0
LINE
  8
Engraving
 62
   7
 39
0.400
  6
CONTINUOUS
 10
27.61483
 20
101.47200
 30
 0
 11
27.92776
 21
101.49607
  0
LINE
  8
Engraving
 62
   7
 39
0.400
  6
CONTINUOUS
 10
26.96492
 20
103.63838
 30
 0
 11
27.90369
 21
103.63838
  0
LINE
  8
Engraving
 62
   7
 39
0.400
  6
CONTINUOUS
 10
28.52885
 20
102.21820
 30
 0
 11
28.52885
 21
101.88120
  0
LINE
  8
Engraving
 62
   7
 39
0.400
  6
CONTINUOUS
 10
28.52885
 20
101.88120
 30
 0
 11
28.55292
 21
101.71271
  0
LINE
  8
Engraving
 62
   7
 39
0.400
  6
CONTINUOUS
 10
28.55292
 20
101.71271
 30
 0
 11
28.67328
 21
101.56828
  0
LINE
  8
Engraving
 62
   7
 39
0.400
  6
CONTINUOUS
 10
28.67328
 20
101.56828
 30
 0
 11
28.81770
 21
101.47200
  0
LINE
  8
Engraving
 62
   7
 39
0.400
  6
CONTINUOUS
 10
28.81770
 20
101.47200
 30
 0
 11
28.98620
 21
101.44793
  0
LINE
  8
Engraving
 62
   7
 39
0.400
  6
CONTINUOUS
 10
28.98620
 20
101.44793
 30
 0
 11
29.20283
 21
101.44793
  0
LINE
  8
Engraving
 62
   7
 39
0.400
  6
CONTINUOUS
 10
29.20283
 20
101.44793
 30
 0
 11
29.34726
 21
101.47200
  0
LINE
  8
Engraving
 62
   7
 39
0.400
  6
CONTINUOUS
 10
29.34726
 20
101.47200
 30
 0
 11
29.51576
 21
101.56828
  0
LINE
  8
Engraving
 62
   7
 39
0.400
  6
CONTINUOUS
 10
29.51576
 20
101.56828
 30
 0
 11
29.61204
 21
101.68864
  0
LINE
  8
Engraving
 62
   7
 39
0.400
  6
CONTINUOUS
 10
29.61204
 20
101.68864
 30
 0
 11
29.66018
 21
101.88120
  0
LINE
  8
Engraving
 62
   7
 39
0.400
  6
CONTINUOUS
 10
29.66018
 20
101.88120
 30
 0
 11
29.66018
 21
102.00156
  0
LINE
  8
Engraving
 62
   7
 39
0.400
  6
CONTINUOUS
 10
29.66018
 20
102.00156
 30
 0
 11
29.63611
 21
102.14598
  0
LINE
  8
Engraving
 62
   7
 39
0.400
  6
CONTINUOUS
 10
29.63611
 20
102.14598
 30
 0
 11
29.56390
 21
102.26634
  0
LINE
  8
Engraving
 62
   7
 39
0.400
  6
CONTINUOUS
 10
29.56390
 20
102.26634
 30
 0
 11
29.46761
 21
102.33855
  0
LINE
  8
Engraving
 62
   7
 39
0.400
  6
CONTINUOUS
 10
29.46761
 20
102.33855
 30
 0
 11
29.39540
 21
102.38669
  0
LINE
  8
Engraving
 62
   7
 39
0.400
  6
CONTINUOUS
 10
29.39540
 20
102.38669
 30
 0
 11
28.84177
 21
102.81997
  0
LINE
  8
Engraving
 62
   7
 39
0.400
  6
CONTINUOUS
 10
28.84177
 20
102.81997
 30
 0
 11
28.69735
 21
102.91625
  0
LINE
  8
Engraving
 62
   7
 39
0.400
  6
CONTINUOUS
 10
28.69735
 20
102.91625
 30
 0
 11
28.62513
 21
103.01254
  0
LINE
  8
Engraving
 62
   7
 39
0.400
  6
CONTINUOUS
 10
28.62513
 20
103.01254
 30
 0
 11
28.55292
 21
103.13289
  0
LINE
  8
Engraving
 62
   7
 39
0.400
  6
CONTINUOUS
 10
28.55292
 20
103.13289
 30
 0
 11
28.55292
 21
103.22917
  0
LINE
  8
Engraving
 62
   7
 39
0.400
  6
CONTINUOUS
 10
28.55292
 20
103.22917
 30
 0
 11
28.57699
 21
103.30139
  0
LINE
  8
Engraving
 62
   7
 39
0.400
  6
CONTINUOUS
 10
28.57699
 20
103.30139
 30
 0
 11
28.62513
 21
103.44581
  0
LINE
  8
Engraving
 62
   7
 39
0.400
  6
CONTINUOUS
 10
28.62513
 20
103.44581
 30
 0
 11
28.69735
 21
103.54209
  0
LINE
  8
Engraving
 62
   7
 39
0.400
  6
CONTINUOUS
 10
28.69735
 20
103.54209
 30
 0
 11
28.81770
 21
103.61431
  0
LINE
  8
Engraving
 62
   7
 39
0.400
  6
CONTINUOUS
 10
28.81770
 20
103.61431
 30
 0
 11
29.01027
 21
103.66245
  0
LINE
  8
Engraving
 62
   7
 39
0.400
  6
CONTINUOUS
 10
29.01027
 20
103.66245
 30
 0
 11
29.17876
 21
103.66245
  0
LINE
  8
Engraving
 62
   7
 39
0.400
  6
CONTINUOUS
 10
29.17876
 20
103.66245
 30
 0
 11
29.29912
 21
103.63838
  0
LINE
  8
Engraving
 62
   7
 39
0.400
  6
CONTINUOUS
 10
29.29912
 20
103.63838
 30
 0
 11
29.44354
 21
103.56617
  0
LINE
  8
Engraving
 62
   7
 39
0.400
  6
CONTINUOUS
 10
29.44354
 20
103.56617
 30
 0
 11
29.53983
 21
103.46988
  0
LINE
  8
Engraving
 62
   7
 39
0.400
  6
CONTINUOUS
 10
29.53983
 20
103.46988
 30
 0
 11
29.61204
 21
103.34953
  0
LINE
  8
Engraving
 62
   7
 39
0.400
  6
CONTINUOUS
 10
29.61204
 20
103.34953
 30
 0
 11
29.63611
 21
103.22917
  0
LINE
  8
Engraving
 62
   7
 39
0.400
  6
CONTINUOUS
 10
29.63611
 20
103.22917
 30
 0
 11
29.63611
 21
103.03661
  0
LINE
  8
Engraving
 62
   7
 39
0.400
  6
CONTINUOUS
 10
38.11385
 20
17.01254
 30
 0
 11
38.11385
 21
16.02563
  0
LINE
  8
Engraving
 62
   7
 39
0.400
  6
CONTINUOUS
 10
38.11385
 20
16.02563
 30
 0
 11
38.16199
 21
15.78492
  0
LINE
  8
Engraving
 62
   7
 39
0.400
  6
CONTINUOUS
 10
38.16199
 20
15.78492
 30
 0
 11
38.25828
 21
15.64050
  0
LINE
  8
Engraving
 62
   7
 39
0.400
  6
CONTINUOUS
 10
38.25828
 20
15.64050
 30
 0
 11
38.37863
 21
15.54421
  0
LINE
  8
Engraving
 62
   7
 39
0.400
  6
CONTINUOUS
 10
38.37863
 20
15.54421
 30
 0
 11
38.54713
 21
15.44793
  0
LINE
  8
Engraving
 62
   7
 39
0.400
  6
CONTINUOUS
 10
38.54713
 20
15.44793
 30
 0
 11
38.69155
 21
15.44793
  0
LINE
  8
Engraving
 62
   7
 39
0.400
  6
CONTINUOUS
 10
38.69155
 20
15.44793
 30
 0
 11
39.07669
 21
15.44793
  0
LINE
  8
Engraving
 62
   7
 39
0.400
  6
CONTINUOUS
 10
39.07669
 20
15.44793
 30
 0
 11
39.29332
 21
15.47200
  0
LINE
  8
Engraving
 62
   7
 39
0.400
  6
CONTINUOUS
 10
39.29332
 20
15.47200
 30
 0
 11
39.46182
 21
15.56828
  0
LINE
  8
Engraving
 62
   7
 39
0.400
  6
CONTINUOUS
 10
39.46182
 20
15.56828
 30
 0
 11
39.60624
 21
15.76085
  0
LINE
  8
Engraving
 62
   7
 39
0.400
  6
CONTINUOUS
 10
39.60624
 20
15.76085
 30
 0
 11
39.67846
 21
16.02563
  0
LINE
  8
Engraving
 62
   7
 39
0.400
  6
CONTINUOUS
 10
39.67846
 20
16.02563
 30
 0
 11
39.67846
 21
17.97537
  0
LINE
  8
Engraving
 62
   7
 39
0.400
  6
CONTINUOUS
 10
39.67846
 20
17.97537
 30
 0
 11
39.63031
 21
18.16794
  0
LINE
  8
Engraving
 62
   7
 39
0.400
  6
CONTINUOUS
 10
39.63031
 20
18.16794
 30
 0
 11
39.53403
 21
18.36050
  0
LINE
  8
Engraving
 62
   7
 39
0.400
  6
CONTINUOUS
 10
39.53403
 20
18.36050
 30
 0
 11
39.41368
 21
18.45679
  0
LINE
  8
Engraving
 62
   7
 39
0.400
  6
CONTINUOUS
 10
39.41368
 20
18.45679
 30
 0
 11
39.29332
 21
18.52900
  0
LINE
  8
Engraving
 62
   7
 39
0.400
  6
CONTINUOUS
 10
39.29332
 20
18.52900
 30
 0
 11
39.07669
 21
18.55307
  0
LINE
  8
Engraving
 62
   7
 39
0.400
  6
CONTINUOUS
 10
39.07669
 20
18.55307
 30
 0
 11
38.69155
 21
18.55307
  0
LINE
  8
Engraving
 62
   7
 39
0.400
  6
CONTINUOUS
 10
38.69155
 20
18.55307
 30
 0
 11
38.49898
 21
18.52900
  0
LINE
  8
Engraving
 62
   7
 39
0.400
  6
CONTINUOUS
 10
38.49898
 20
18.52900
 30
 0
 11
38.33049
 21
18.43272
  0
LINE
  8
Engraving
 62
   7
 39
0.400
  6
CONTINUOUS
 10
38.33049
 20
18.43272
 30
 0
 11
38.21013
 21
18.31236
  0
LINE
  8
Engraving
 62
   7
 39
0.400
  6
CONTINUOUS
 10
38.21013
 20
18.31236
 30
 0
 11
38.13792
 21
18.16794
  0
LINE
  8
Engraving
 62
   7
 39
0.400
  6
CONTINUOUS
 10
38.13792
 20
18.16794
 30
 0
 11
38.11385
 21
17.97537
  0
LINE
  8
Engraving
 62
   7
 39
0.400
  6
CONTINUOUS
 10
38.11385
 20
17.97537
 30
 0
 11
38.11385
 21
17.01254
  0
LINE
  8
Engraving
 62
   7
 39
0.400
  6
CONTINUOUS
 10
40.30492
 20
18.53000
 30
 0
 11
40.30492
 21
16.05070
  0
LINE
  8
Engraving
 62
   7
 39
0.400
  6
CONTINUOUS
 10
40.30492
 20
16.05070
 30
 0
 11
40.37713
 21
15.76185
  0
LINE
  8
Engraving
 62
   7
 39
0.400
  6
CONTINUOUS
 10
40.37713
 20
15.76185
 30
 0
 11
40.47342
 21
15.61743
  0
LINE
  8
Engraving
 62
   7
 39
0.400
  6
CONTINUOUS
 10
40.47342
 20
15.61743
 30
 0
 11
40.66598
 21
15.49707
  0
LINE
  8
Engraving
 62
   7
 39
0.400
  6
CONTINUOUS
 10
40.66598
 20
15.49707
 30
 0
 11
40.90669
 21
15.44893
  0
LINE
  8
Engraving
 62
   7
 39
0.400
  6
CONTINUOUS
 10
40.90669
 20
15.44893
 30
 0
 11
41.21961
 21
15.44893
  0
LINE
  8
Engraving
 62
   7
 39
0.400
  6
CONTINUOUS
 10
41.21961
 20
15.44893
 30
 0
 11
41.41218
 21
15.47300
  0
LINE
  8
Engraving
 62
   7
 39
0.400
  6
CONTINUOUS
 10
41.41218
 20
15.47300
 30
 0
 11
41.62882
 21
15.59335
  0
LINE
  8
Engraving
 62
   7
 39
0.400
  6
CONTINUOUS
 10
41.62882
 20
15.59335
 30
 0
 11
41.79731
 21
15.80999
  0
LINE
  8
Engraving
 62
   7
 39
0.400
  6
CONTINUOUS
 10
41.79731
 20
15.80999
 30
 0
 11
41.84546
 21
16.05070
  0
LINE
  8
Engraving
 62
   7
 39
0.400
  6
CONTINUOUS
 10
41.84546
 20
16.05070
 30
 0
 11
41.84546
 21
18.53000
  0
LINE
  8
Engraving
 62
   7
 39
0.400
  6
CONTINUOUS
 10
43.26526
 20
15.47300
 30
 0
 11
43.26526
 21
18.53000
  0
LINE
  8
Engraving
 62
   7
 39
0.400
  6
CONTINUOUS
 10
42.44685
 20
18.53000
 30
 0
 11
44.10774
 21
18.53000
  0
LINE
  8
Engraving
 62
   7
 39
0.400
  6
CONTINUOUS
 10
9.11439
 20
17.71059
 30
 0
 11
9.11439
 21
17.99944
  0
LINE
  8
Engraving
 62
   7
 39
0.400
  6
CONTINUOUS
 10
9.11439
 20
17.99944
 30
 0
 11
9.09031
 21
18.21608
  0
LINE
  8
Engraving
 62
   7
 39
0.400
  6
CONTINUOUS
 10
9.09031
 20
18.21608
 30
 0
 11
8.99403
 21
18.36050
  0
LINE
  8
Engraving
 62
   7
 39
0.400
  6
CONTINUOUS
 10
8.99403
 20
18.36050
 30
 0
 11
8.84961
 21
18.48086
  0
LINE
  8
Engraving
 62
   7
 39
0.400
  6
CONTINUOUS
 10
8.84961
 20
18.48086
 30
 0
 11
8.70518
 21
18.55307
  0
LINE
  8
Engraving
 62
   7
 39
0.400
  6
CONTINUOUS
 10
8.70518
 20
18.55307
 30
 0
 11
8.56076
 21
18.55307
  0
LINE
  8
Engraving
 62
   7
 39
0.400
  6
CONTINUOUS
 10
8.56076
 20
18.55307
 30
 0
 11
8.15155
 21
18.55307
  0
LINE
  8
Engraving
 62
   7
 39
0.400
  6
CONTINUOUS
 10
8.15155
 20
18.55307
 30
 0
 11
7.95898
 21
18.52900
  0
LINE
  8
Engraving
 62
   7
 39
0.400
  6
CONTINUOUS
 10
7.95898
 20
18.52900
 30
 0
 11
7.79049
 21
18.43272
  0
LINE
  8
Engraving
 62
   7
 39
0.400
  6
CONTINUOUS
 10
7.79049
 20
18.43272
 30
 0
 11
7.69420
 21
18.33643
  0
LINE
  8
Engraving
 62
   7
 39
0.400
  6
CONTINUOUS
 10
7.69420
 20
18.33643
 30
 0
 11
7.62199
 21
18.19201
  0
LINE
  8
Engraving
 62
   7
 39
0.400
  6
CONTINUOUS
 10
7.62199
 20
18.19201
 30
 0
 11
7.59792
 21
17.99944
  0
LINE
  8
Engraving
 62
   7
 39
0.400
  6
CONTINUOUS
 10
7.59792
 20
17.99944
 30
 0
 11
7.59792
 21
16.02563
  0
LINE
  8
Engraving
 62
   7
 39
0.400
  6
CONTINUOUS
 10
7.59792
 20
16.02563
 30
 0
 11
7.62199
 21
15.80899
  0
LINE
  8
Engraving
 62
   7
 39
0.400
  6
CONTINUOUS
 10
7.62199
 20
15.80899
 30
 0
 11
7.74235
 21
15.61643
  0
LINE
  8
Engraving
 62
   7
 39
0.400
  6
CONTINUOUS
 10
7.74235
 20
15.61643
 30
 0
 11
7.91084
 21
15.49607
  0
LINE
  8
Engraving
 62
   7
 39
0.400
  6
CONTINUOUS
 10
7.91084
 20
15.49607
 30
 0
 11
8.12748
 21
15.44793
  0
LINE
  8
Engraving
 62
   7
 39
0.400
  6
CONTINUOUS
 10
8.12748
 20
15.44793
 30
 0
 11
8.34412
 21
15.44793
  0
LINE
  8
Engraving
 62
   7
 39
0.400
  6
CONTINUOUS
 10
8.34412
 20
15.44793
 30
 0
 11
8.60890
 21
15.44793
  0
LINE
  8
Engraving
 62
   7
 39
0.400
  6
CONTINUOUS
 10
8.60890
 20
15.44793
 30
 0
 11
8.87368
 21
15.47200
  0
LINE
  8
Engraving
 62
   7
 39
0.400
  6
CONTINUOUS
 10
8.87368
 20
15.47200
 30
 0
 11
9.13846
 21
15.56828
  0
LINE
  8
Engraving
 62
   7
 39
0.400
  6
CONTINUOUS
 10
9.13846
 20
15.56828
 30
 0
 11
9.13846
 21
16.98846
  0
LINE
  8
Engraving
 62
   7
 39
0.400
  6
CONTINUOUS
 10
9.13846
 20
16.98846
 30
 0
 11
8.34412
 21
16.98846
  0
LINE
  8
Engraving
 62
   7
 39
0.400
  6
CONTINUOUS
 10
9.78899
 20
16.89318
 30
 0
 11
9.78899
 21
17.15796
  0
LINE
  8
Engraving
 62
   7
 39
0.400
  6
CONTINUOUS
 10
9.78899
 20
17.15796
 30
 0
 11
9.83713
 21
17.35053
  0
LINE
  8
Engraving
 62
   7
 39
0.400
  6
CONTINUOUS
 10
9.83713
 20
17.35053
 30
 0
 11
9.93342
 21
17.49495
  0
LINE
  8
Engraving
 62
   7
 39
0.400
  6
CONTINUOUS
 10
9.93342
 20
17.49495
 30
 0
 11
10.07784
 21
17.59124
  0
LINE
  8
Engraving
 62
   7
 39
0.400
  6
CONTINUOUS
 10
10.07784
 20
17.59124
 30
 0
 11
10.29448
 21
17.63938
  0
LINE
  8
Engraving
 62
   7
 39
0.400
  6
CONTINUOUS
 10
10.29448
 20
17.63938
 30
 0
 11
10.48705
 21
17.63938
  0
LINE
  8
Engraving
 62
   7
 39
0.400
  6
CONTINUOUS
 10
10.48705
 20
17.63938
 30
 0
 11
10.70369
 21
17.59124
  0
LINE
  8
Engraving
 62
   7
 39
0.400
  6
CONTINUOUS
 10
10.70369
 20
17.59124
 30
 0
 11
10.82404
 21
17.49495
  0
LINE
  8
Engraving
 62
   7
 39
0.400
  6
CONTINUOUS
 10
10.82404
 20
17.49495
 30
 0
 11
10.92032
 21
17.37460
  0
LINE
  8
Engraving
 62
   7
 39
0.400
  6
CONTINUOUS
 10
10.92032
 20
17.37460
 30
 0
 11
10.96846
 21
17.15796
  0
LINE
  8
Engraving
 62
   7
 39
0.400
  6
CONTINUOUS
 10
10.96846
 20
17.15796
 30
 0
 11
10.96846
 21
15.47300
  0
LINE
  8
Engraving
 62
   7
 39
0.400
  6
CONTINUOUS
 10
10.96846
 20
15.47300
 30
 0
 11
10.96846
 21
15.59335
  0
LINE
  8
Engraving
 62
   7
 39
0.400
  6
CONTINUOUS
 10
10.96846
 20
15.59335
 30
 0
 11
10.82404
 21
15.54521
  0
LINE
  8
Engraving
 62
   7
 39
0.400
  6
CONTINUOUS
 10
10.82404
 20
15.54521
 30
 0
 11
10.60740
 21
15.47300
  0
LINE
  8
Engraving
 62
   7
 39
0.400
  6
CONTINUOUS
 10
10.60740
 20
15.47300
 30
 0
 11
10.41483
 21
15.44893
  0
LINE
  8
Engraving
 62
   7
 39
0.400
  6
CONTINUOUS
 10
10.41483
 20
15.44893
 30
 0
 11
10.24634
 21
15.44893
  0
LINE
  8
Engraving
 62
   7
 39
0.400
  6
CONTINUOUS
 10
10.24634
 20
15.44893
 30
 0
 11
10.10191
 21
15.47300
  0
LINE
  8
Engraving
 62
   7
 39
0.400
  6
CONTINUOUS
 10
10.10191
 20
15.47300
 30
 0
 11
9.95749
 21
15.54521
  0
LINE
  8
Engraving
 62
   7
 39
0.400
  6
CONTINUOUS
 10
9.95749
 20
15.54521
 30
 0
 11
9.81306
 21
15.71371
  0
LINE
  8
Engraving
 62
   7
 39
0.400
  6
CONTINUOUS
 10
9.81306
 20
15.71371
 30
 0
 11
9.76492
 21
15.93035
  0
LINE
  8
Engraving
 62
   7
 39
0.400
  6
CONTINUOUS
 10
9.76492
 20
15.93035
 30
 0
 11
9.76492
 21
16.17106
  0
LINE
  8
Engraving
 62
   7
 39
0.400
  6
CONTINUOUS
 10
9.76492
 20
16.17106
 30
 0
 11
9.81306
 21
16.41176
  0
LINE
  8
Engraving
 62
   7
 39
0.400
  6
CONTINUOUS
 10
9.81306
 20
16.41176
 30
 0
 11
9.90935
 21
16.55619
  0
LINE
  8
Engraving
 62
   7
 39
0.400
  6
CONTINUOUS
 10
9.90935
 20
16.55619
 30
 0
 11
10.05377
 21
16.65247
  0
LINE
  8
Engraving
 62
   7
 39
0.400
  6
CONTINUOUS
 10
10.05377
 20
16.65247
 30
 0
 11
10.24634
 21
16.70061
  0
LINE
  8
Engraving
 62
   7
 39
0.400
  6
CONTINUOUS
 10
10.24634
 20
16.70061
 30
 0
 11
10.96846
 21
16.70061
  0
LINE
  8
Engraving
 62
   7
 39
0.400
  6
CONTINUOUS
 10
11.56985
 20
18.26622
 30
 0
 11
11.56985
 21
18.53100
  0
LINE
  8
Engraving
 62
   7
 39
0.400
  6
CONTINUOUS
 10
11.56985
 20
18.53100
 30
 0
 11
11.83463
 21
18.53100
  0
LINE
  8
Engraving
 62
   7
 39
0.400
  6
CONTINUOUS
 10
11.83463
 20
18.53100
 30
 0
 11
11.83463
 21
18.26622
  0
LINE
  8
Engraving
 62
   7
 39
0.400
  6
CONTINUOUS
 10
11.83463
 20
18.26622
 30
 0
 11
11.56985
 21
18.26622
  0
LINE
  8
Engraving
 62
   7
 39
0.400
  6
CONTINUOUS
 10
11.71428
 20
17.61631
 30
 0
 11
11.71428
 21
15.47400
  0
LINE
  8
Engraving
 62
   7
 39
0.400
  6
CONTINUOUS
 10
12.43585
 20
15.47500
 30
 0
 11
12.43585
 21
17.61731
  0
LINE
  8
Engraving
 62
   7
 39
0.400
  6
CONTINUOUS
 10
12.43585
 20
17.61731
 30
 0
 11
12.43585
 21
17.40067
  0
LINE
  8
Engraving
 62
   7
 39
0.400
  6
CONTINUOUS
 10
12.43585
 20
17.40067
 30
 0
 11
12.60435
 21
17.49695
  0
LINE
  8
Engraving
 62
   7
 39
0.400
  6
CONTINUOUS
 10
12.60435
 20
17.49695
 30
 0
 11
12.77284
 21
17.56917
  0
LINE
  8
Engraving
 62
   7
 39
0.400
  6
CONTINUOUS
 10
12.77284
 20
17.56917
 30
 0
 11
12.86913
 21
17.61731
  0
LINE
  8
Engraving
 62
   7
 39
0.400
  6
CONTINUOUS
 10
12.86913
 20
17.61731
 30
 0
 11
13.08576
 21
17.64138
  0
LINE
  8
Engraving
 62
   7
 39
0.400
  6
CONTINUOUS
 10
13.08576
 20
17.64138
 30
 0
 11
13.30240
 21
17.61731
  0
LINE
  8
Engraving
 62
   7
 39
0.400
  6
CONTINUOUS
 10
13.30240
 20
17.61731
 30
 0
 11
13.49497
 21
17.49695
  0
LINE
  8
Engraving
 62
   7
 39
0.400
  6
CONTINUOUS
 10
13.49497
 20
17.49695
 30
 0
 11
13.61532
 21
17.35253
  0
LINE
  8
Engraving
 62
   7
 39
0.400
  6
CONTINUOUS
 10
13.61532
 20
17.35253
 30
 0
 11
13.66346
 21
17.08775
  0
LINE
  8
Engraving
 62
   7
 39
0.400
  6
CONTINUOUS
 10
13.66346
 20
17.08775
 30
 0
 11
13.66346
 21
15.47500
  0
LINE
  8
Engraving
 62
   7
 39
0.200
  6
CONTINUOUS
 10
18.44729
 20
4.34500
 30
 0
 11
17.80383
 21
3.14744
  0
LINE
  8
Engraving
 62
   7
 39
0.200
  6
CONTINUOUS
 10
17.80383
 20
3.14744
 30
 0
 11
17.16036
 21
4.34500
  0
LINE
  8
Engraving
 62
   7
 39
0.200
  6
CONTINUOUS
 10
17.80383
 20
3.14744
 30
 0
 11
17.80383
 21
2.07500
  0
LINE
  8
Engraving
 62
   7
 39
0.200
  6
CONTINUOUS
 10
18.89449
 20
2.87933
 30
 0
 11
18.89449
 21
2.45035
  0
LINE
  8
Engraving
 62
   7
 39
0.200
  6
CONTINUOUS
 10
18.89449
 20
2.45035
 30
 0
 11
18.93024
 21
2.28949
  0
LINE
  8
Engraving
 62
   7
 39
0.200
  6
CONTINUOUS
 10
18.93024
 20
2.28949
 30
 0
 11
19.01961
 21
2.16437
  0
LINE
  8
Engraving
 62
   7
 39
0.200
  6
CONTINUOUS
 10
19.01961
 20
2.16437
 30
 0
 11
19.18047
 21
2.07500
  0
LINE
  8
Engraving
 62
   7
 39
0.200
  6
CONTINUOUS
 10
19.18047
 20
2.07500
 30
 0
 11
19.30559
 21
2.05713
  0
LINE
  8
Engraving
 62
   7
 39
0.200
  6
CONTINUOUS
 10
19.30559
 20
2.05713
 30
 0
 11
19.46646
 21
2.05713
  0
LINE
  8
Engraving
 62
   7
 39
0.200
  6
CONTINUOUS
 10
19.46646
 20
2.05713
 30
 0
 11
19.60945
 21
2.09287
  0
LINE
  8
Engraving
 62
   7
 39
0.200
  6
CONTINUOUS
 10
19.60945
 20
2.09287
 30
 0
 11
19.71669
 21
2.18224
  0
LINE
  8
Engraving
 62
   7
 39
0.200
  6
CONTINUOUS
 10
19.71669
 20
2.18224
 30
 0
 11
19.80606
 21
2.32524
  0
LINE
  8
Engraving
 62
   7
 39
0.200
  6
CONTINUOUS
 10
19.80606
 20
2.32524
 30
 0
 11
19.84181
 21
2.45035
  0
LINE
  8
Engraving
 62
   7
 39
0.200
  6
CONTINUOUS
 10
19.84181
 20
2.45035
 30
 0
 11
19.84181
 21
3.27256
  0
LINE
  8
Engraving
 62
   7
 39
0.200
  6
CONTINUOUS
 10
19.84181
 20
3.27256
 30
 0
 11
19.78819
 21
3.46917
  0
LINE
  8
Engraving
 62
   7
 39
0.200
  6
CONTINUOUS
 10
19.78819
 20
3.46917
 30
 0
 11
19.69882
 21
3.57642
  0
LINE
  8
Engraving
 62
   7
 39
0.200
  6
CONTINUOUS
 10
19.69882
 20
3.57642
 30
 0
 11
19.57370
 21
3.66579
  0
LINE
  8
Engraving
 62
   7
 39
0.200
  6
CONTINUOUS
 10
19.57370
 20
3.66579
 30
 0
 11
19.43071
 21
3.68366
  0
LINE
  8
Engraving
 62
   7
 39
0.200
  6
CONTINUOUS
 10
19.43071
 20
3.68366
 30
 0
 11
19.30559
 21
3.68366
  0
LINE
  8
Engraving
 62
   7
 39
0.200
  6
CONTINUOUS
 10
19.30559
 20
3.68366
 30
 0
 11
19.12685
 21
3.64791
  0
LINE
  8
Engraving
 62
   7
 39
0.200
  6
CONTINUOUS
 10
19.12685
 20
3.64791
 30
 0
 11
19.00173
 21
3.55854
  0
LINE
  8
Engraving
 62
   7
 39
0.200
  6
CONTINUOUS
 10
19.00173
 20
3.55854
 30
 0
 11
18.93024
 21
3.45130
  0
LINE
  8
Engraving
 62
   7
 39
0.200
  6
CONTINUOUS
 10
18.93024
 20
3.45130
 30
 0
 11
18.89449
 21
3.27256
  0
LINE
  8
Engraving
 62
   7
 39
0.200
  6
CONTINUOUS
 10
18.89449
 20
3.27256
 30
 0
 11
18.89449
 21
2.87933
  0
LINE
  8
Engraving
 62
   7
 39
0.200
  6
CONTINUOUS
 10
20.30736
 20
2.07500
 30
 0
 11
20.30736
 21
3.66579
  0
LINE
  8
Engraving
 62
   7
 39
0.200
  6
CONTINUOUS
 10
20.30736
 20
3.66579
 30
 0
 11
20.30736
 21
3.52280
  0
LINE
  8
Engraving
 62
   7
 39
0.200
  6
CONTINUOUS
 10
20.30736
 20
3.52280
 30
 0
 11
20.50398
 21
3.61217
  0
LINE
  8
Engraving
 62
   7
 39
0.200
  6
CONTINUOUS
 10
20.50398
 20
3.61217
 30
 0
 11
20.62909
 21
3.66579
  0
LINE
  8
Engraving
 62
   7
 39
0.200
  6
CONTINUOUS
 10
20.62909
 20
3.66579
 30
 0
 11
20.78996
 21
3.68366
  0
LINE
  8
Engraving
 62
   7
 39
0.200
  6
CONTINUOUS
 10
20.78996
 20
3.68366
 30
 0
 11
20.93295
 21
3.68366
  0
LINE
  8
Engraving
 62
   7
 39
0.200
  6
CONTINUOUS
 10
21.36249
 20
4.34500
 30
 0
 11
21.36249
 21
2.07500
  0
LINE
  8
Engraving
 62
   7
 39
0.200
  6
CONTINUOUS
 10
22.36343
 20
3.66579
 30
 0
 11
21.36249
 21
2.96870
  0
LINE
  8
Engraving
 62
   7
 39
0.200
  6
CONTINUOUS
 10
21.36249
 20
2.96870
 30
 0
 11
21.59485
 21
3.12957
  0
LINE
  8
Engraving
 62
   7
 39
0.200
  6
CONTINUOUS
 10
21.59485
 20
3.12957
 30
 0
 11
22.38131
 21
2.07500
  0
LINE
  8
Engraving
 62
   7
 39
0.200
  6
CONTINUOUS
 10
24.61649
 20
2.07500
 30
 0
 11
24.61649
 21
4.34500
  0
LINE
  8
Engraving
 62
   7
 39
0.200
  6
CONTINUOUS
 10
24.61649
 20
4.34500
 30
 0
 11
24.77735
 21
4.34500
  0
LINE
  8
Engraving
 62
   7
 39
0.200
  6
CONTINUOUS
 10
24.77735
 20
4.34500
 30
 0
 11
25.43869
 21
2.07500
  0
LINE
  8
Engraving
 62
   7
 39
0.200
  6
CONTINUOUS
 10
25.43869
 20
2.07500
 30
 0
 11
26.08216
 21
4.34500
  0
LINE
  8
Engraving
 62
   7
 39
0.200
  6
CONTINUOUS
 10
26.08216
 20
4.34500
 30
 0
 11
26.24302
 21
4.34500
  0
LINE
  8
Engraving
 62
   7
 39
0.200
  6
CONTINUOUS
 10
26.24302
 20
4.34500
 30
 0
 11
26.24302
 21
2.07500
  0
LINE
  8
Engraving
 62
   7
 39
0.200
  6
CONTINUOUS
 10
26.68949
 20
2.87933
 30
 0
 11
26.68949
 21
2.45035
  0
LINE
  8
Engraving
 62
   7
 39
0.200
  6
CONTINUOUS
 10
26.68949
 20
2.45035
 30
 0
 11
26.72524
 21
2.28949
  0
LINE
  8
Engraving
 62
   7
 39
0.200
  6
CONTINUOUS
 10
26.72524
 20
2.28949
 30
 0
 11
26.81461
 21
2.16437
  0
LINE
  8
Engraving
 62
   7
 39
0.200
  6
CONTINUOUS
 10
26.81461
 20
2.16437
 30
 0
 11
26.97547
 21
2.07500
  0
LINE
  8
Engraving
 62
   7
 39
0.200
  6
CONTINUOUS
 10
26.97547
 20
2.07500
 30
 0
 11
27.10059
 21
2.05713
  0
LINE
  8
Engraving
 62
   7
 39
0.200
  6
CONTINUOUS
 10
27.10059
 20
2.05713
 30
 0
 11
27.26146
 21
2.05713
  0
LINE
  8
Engraving
 62
   7
 39
0.200
  6
CONTINUOUS
 10
27.26146
 20
2.05713
 30
 0
 11
27.40445
 21
2.09287
  0
LINE
  8
Engraving
 62
   7
 39
0.200
  6
CONTINUOUS
 10
27.40445
 20
2.09287
 30
 0
 11
27.51169
 21
2.18224
  0
LINE
  8
Engraving
 62
   7
 39
0.200
  6
CONTINUOUS
 10
27.51169
 20
2.18224
 30
 0
 11
27.60106
 21
2.32524
  0
LINE
  8
Engraving
 62
   7
 39
0.200
  6
CONTINUOUS
 10
27.60106
 20
2.32524
 30
 0
 11
27.63681
 21
2.45035
  0
LINE
  8
Engraving
 62
   7
 39
0.200
  6
CONTINUOUS
 10
27.63681
 20
2.45035
 30
 0
 11
27.63681
 21
3.27256
  0
LINE
  8
Engraving
 62
   7
 39
0.200
  6
CONTINUOUS
 10
27.63681
 20
3.27256
 30
 0
 11
27.58319
 21
3.46917
  0
LINE
  8
Engraving
 62
   7
 39
0.200
  6
CONTINUOUS
 10
27.58319
 20
3.46917
 30
 0
 11
27.49382
 21
3.57642
  0
LINE
  8
Engraving
 62
   7
 39
0.200
  6
CONTINUOUS
 10
27.49382
 20
3.57642
 30
 0
 11
27.36870
 21
3.66579
  0
LINE
  8
Engraving
 62
   7
 39
0.200
  6
CONTINUOUS
 10
27.36870
 20
3.66579
 30
 0
 11
27.22571
 21
3.68366
  0
LINE
  8
Engraving
 62
   7
 39
0.200
  6
CONTINUOUS
 10
27.22571
 20
3.68366
 30
 0
 11
27.10059
 21
3.68366
  0
LINE
  8
Engraving
 62
   7
 39
0.200
  6
CONTINUOUS
 10
27.10059
 20
3.68366
 30
 0
 11
26.92185
 21
3.64791
  0
LINE
  8
Engraving
 62
   7
 39
0.200
  6
CONTINUOUS
 10
26.92185
 20
3.64791
 30
 0
 11
26.79673
 21
3.55854
  0
LINE
  8
Engraving
 62
   7
 39
0.200
  6
CONTINUOUS
 10
26.79673
 20
3.55854
 30
 0
 11
26.72524
 21
3.45130
  0
LINE
  8
Engraving
 62
   7
 39
0.200
  6
CONTINUOUS
 10
26.72524
 20
3.45130
 30
 0
 11
26.68949
 21
3.27256
  0
LINE
  8
Engraving
 62
   7
 39
0.200
  6
CONTINUOUS
 10
26.68949
 20
3.27256
 30
 0
 11
26.68949
 21
2.87933
  0
LINE
  8
Engraving
 62
   7
 39
0.200
  6
CONTINUOUS
 10
29.03081
 20
4.34500
 30
 0
 11
29.03081
 21
2.07500
  0
LINE
  8
Engraving
 62
   7
 39
0.200
  6
CONTINUOUS
 10
29.03081
 20
2.07500
 30
 0
 11
29.03081
 21
2.16437
  0
LINE
  8
Engraving
 62
   7
 39
0.200
  6
CONTINUOUS
 10
29.03081
 20
2.16437
 30
 0
 11
28.90569
 21
2.11075
  0
LINE
  8
Engraving
 62
   7
 39
0.200
  6
CONTINUOUS
 10
28.90569
 20
2.11075
 30
 0
 11
28.78057
 21
2.07500
  0
LINE
  8
Engraving
 62
   7
 39
0.200
  6
CONTINUOUS
 10
28.78057
 20
2.07500
 30
 0
 11
28.63758
 21
2.05713
  0
LINE
  8
Engraving
 62
   7
 39
0.200
  6
CONTINUOUS
 10
28.63758
 20
2.05713
 30
 0
 11
28.53034
 21
2.05713
  0
LINE
  8
Engraving
 62
   7
 39
0.200
  6
CONTINUOUS
 10
28.53034
 20
2.05713
 30
 0
 11
28.38735
 21
2.07500
  0
LINE
  8
Engraving
 62
   7
 39
0.200
  6
CONTINUOUS
 10
28.38735
 20
2.07500
 30
 0
 11
28.26223
 21
2.14650
  0
LINE
  8
Engraving
 62
   7
 39
0.200
  6
CONTINUOUS
 10
28.26223
 20
2.14650
 30
 0
 11
28.15498
 21
2.23587
  0
LINE
  8
Engraving
 62
   7
 39
0.200
  6
CONTINUOUS
 10
28.15498
 20
2.23587
 30
 0
 11
28.10136
 21
2.36098
  0
LINE
  8
Engraving
 62
   7
 39
0.200
  6
CONTINUOUS
 10
28.10136
 20
2.36098
 30
 0
 11
28.08349
 21
2.46823
  0
LINE
  8
Engraving
 62
   7
 39
0.200
  6
CONTINUOUS
 10
28.08349
 20
2.46823
 30
 0
 11
28.08349
 21
3.27256
  0
LINE
  8
Engraving
 62
   7
 39
0.200
  6
CONTINUOUS
 10
28.08349
 20
3.27256
 30
 0
 11
28.11924
 21
3.45130
  0
LINE
  8
Engraving
 62
   7
 39
0.200
  6
CONTINUOUS
 10
28.11924
 20
3.45130
 30
 0
 11
28.20861
 21
3.55854
  0
LINE
  8
Engraving
 62
   7
 39
0.200
  6
CONTINUOUS
 10
28.20861
 20
3.55854
 30
 0
 11
28.33372
 21
3.64791
  0
LINE
  8
Engraving
 62
   7
 39
0.200
  6
CONTINUOUS
 10
28.33372
 20
3.64791
 30
 0
 11
28.51246
 21
3.68366
  0
LINE
  8
Engraving
 62
   7
 39
0.200
  6
CONTINUOUS
 10
28.51246
 20
3.68366
 30
 0
 11
28.63758
 21
3.68366
  0
LINE
  8
Engraving
 62
   7
 39
0.200
  6
CONTINUOUS
 10
28.63758
 20
3.68366
 30
 0
 11
28.81632
 21
3.64791
  0
LINE
  8
Engraving
 62
   7
 39
0.200
  6
CONTINUOUS
 10
28.81632
 20
3.64791
 30
 0
 11
28.94144
 21
3.55854
  0
LINE
  8
Engraving
 62
   7
 39
0.200
  6
CONTINUOUS
 10
28.94144
 20
3.55854
 30
 0
 11
29.03081
 21
3.37980
  0
LINE
  8
Engraving
 62
   7
 39
0.200
  6
CONTINUOUS
 10
30.38906
 20
3.66579
 30
 0
 11
30.38906
 21
2.07500
  0
LINE
  8
Engraving
 62
   7
 39
0.200
  6
CONTINUOUS
 10
30.38906
 20
2.07500
 30
 0
 11
30.38906
 21
2.23587
  0
LINE
  8
Engraving
 62
   7
 39
0.200
  6
CONTINUOUS
 10
30.38906
 20
2.23587
 30
 0
 11
30.26394
 21
2.14650
  0
LINE
  8
Engraving
 62
   7
 39
0.200
  6
CONTINUOUS
 10
30.26394
 20
2.14650
 30
 0
 11
30.15670
 21
2.11075
  0
LINE
  8
Engraving
 62
   7
 39
0.200
  6
CONTINUOUS
 10
30.15670
 20
2.11075
 30
 0
 11
30.06733
 21
2.07500
  0
LINE
  8
Engraving
 62
   7
 39
0.200
  6
CONTINUOUS
 10
30.06733
 20
2.07500
 30
 0
 11
29.92434
 21
2.05713
  0
LINE
  8
Engraving
 62
   7
 39
0.200
  6
CONTINUOUS
 10
29.92434
 20
2.05713
 30
 0
 11
29.76347
 21
2.07500
  0
LINE
  8
Engraving
 62
   7
 39
0.200
  6
CONTINUOUS
 10
29.76347
 20
2.07500
 30
 0
 11
29.62048
 21
2.16437
  0
LINE
  8
Engraving
 62
   7
 39
0.200
  6
CONTINUOUS
 10
29.62048
 20
2.16437
 30
 0
 11
29.53111
 21
2.27161
  0
LINE
  8
Engraving
 62
   7
 39
0.200
  6
CONTINUOUS
 10
29.53111
 20
2.27161
 30
 0
 11
29.47749
 21
2.46823
  0
LINE
  8
Engraving
 62
   7
 39
0.200
  6
CONTINUOUS
 10
29.47749
 20
2.46823
 30
 0
 11
29.47749
 21
3.66579
  0
LINE
  8
Engraving
 62
   7
 39
0.200
  6
CONTINUOUS
 10
30.85336
 20
2.07500
 30
 0
 11
30.85336
 21
4.34500
  0
LINE
  8
Engraving
 62
   7
 39
0.200
  6
CONTINUOUS
 10
31.33524
 20
3.12957
 30
 0
 11
31.33524
 21
3.32618
  0
LINE
  8
Engraving
 62
   7
 39
0.200
  6
CONTINUOUS
 10
31.33524
 20
3.32618
 30
 0
 11
31.37098
 21
3.46917
  0
LINE
  8
Engraving
 62
   7
 39
0.200
  6
CONTINUOUS
 10
31.37098
 20
3.46917
 30
 0
 11
31.44248
 21
3.57642
  0
LINE
  8
Engraving
 62
   7
 39
0.200
  6
CONTINUOUS
 10
31.44248
 20
3.57642
 30
 0
 11
31.54972
 21
3.64791
  0
LINE
  8
Engraving
 62
   7
 39
0.200
  6
CONTINUOUS
 10
31.54972
 20
3.64791
 30
 0
 11
31.71059
 21
3.68366
  0
LINE
  8
Engraving
 62
   7
 39
0.200
  6
CONTINUOUS
 10
31.71059
 20
3.68366
 30
 0
 11
31.85358
 21
3.68366
  0
LINE
  8
Engraving
 62
   7
 39
0.200
  6
CONTINUOUS
 10
31.85358
 20
3.68366
 30
 0
 11
32.01445
 21
3.64791
  0
LINE
  8
Engraving
 62
   7
 39
0.200
  6
CONTINUOUS
 10
32.01445
 20
3.64791
 30
 0
 11
32.10382
 21
3.57642
  0
LINE
  8
Engraving
 62
   7
 39
0.200
  6
CONTINUOUS
 10
32.10382
 20
3.57642
 30
 0
 11
32.17531
 21
3.48705
  0
LINE
  8
Engraving
 62
   7
 39
0.200
  6
CONTINUOUS
 10
32.17531
 20
3.48705
 30
 0
 11
32.21106
 21
3.32618
  0
LINE
  8
Engraving
 62
   7
 39
0.200
  6
CONTINUOUS
 10
32.21106
 20
3.32618
 30
 0
 11
32.21106
 21
2.07500
  0
LINE
  8
Engraving
 62
   7
 39
0.200
  6
CONTINUOUS
 10
32.21106
 20
2.07500
 30
 0
 11
32.21106
 21
2.16437
  0
LINE
  8
Engraving
 62
   7
 39
0.200
  6
CONTINUOUS
 10
32.21106
 20
2.16437
 30
 0
 11
32.10382
 21
2.12862
  0
LINE
  8
Engraving
 62
   7
 39
0.200
  6
CONTINUOUS
 10
32.10382
 20
2.12862
 30
 0
 11
31.94295
 21
2.07500
  0
LINE
  8
Engraving
 62
   7
 39
0.200
  6
CONTINUOUS
 10
31.94295
 20
2.07500
 30
 0
 11
31.79996
 21
2.05713
  0
LINE
  8
Engraving
 62
   7
 39
0.200
  6
CONTINUOUS
 10
31.79996
 20
2.05713
 30
 0
 11
31.67484
 21
2.05713
  0
LINE
  8
Engraving
 62
   7
 39
0.200
  6
CONTINUOUS
 10
31.67484
 20
2.05713
 30
 0
 11
31.56760
 21
2.07500
  0
LINE
  8
Engraving
 62
   7
 39
0.200
  6
CONTINUOUS
 10
31.56760
 20
2.07500
 30
 0
 11
31.46035
 21
2.12862
  0
LINE
  8
Engraving
 62
   7
 39
0.200
  6
CONTINUOUS
 10
31.46035
 20
2.12862
 30
 0
 11
31.35311
 21
2.25374
  0
LINE
  8
Engraving
 62
   7
 39
0.200
  6
CONTINUOUS
 10
31.35311
 20
2.25374
 30
 0
 11
31.31736
 21
2.41461
  0
LINE
  8
Engraving
 62
   7
 39
0.200
  6
CONTINUOUS
 10
31.31736
 20
2.41461
 30
 0
 11
31.31736
 21
2.59335
  0
LINE
  8
Engraving
 62
   7
 39
0.200
  6
CONTINUOUS
 10
31.31736
 20
2.59335
 30
 0
 11
31.35311
 21
2.77209
  0
LINE
  8
Engraving
 62
   7
 39
0.200
  6
CONTINUOUS
 10
31.35311
 20
2.77209
 30
 0
 11
31.42461
 21
2.87933
  0
LINE
  8
Engraving
 62
   7
 39
0.200
  6
CONTINUOUS
 10
31.42461
 20
2.87933
 30
 0
 11
31.53185
 21
2.95083
  0
LINE
  8
Engraving
 62
   7
 39
0.200
  6
CONTINUOUS
 10
31.53185
 20
2.95083
 30
 0
 11
31.67484
 21
2.98657
  0
LINE
  8
Engraving
 62
   7
 39
0.200
  6
CONTINUOUS
 10
31.67484
 20
2.98657
 30
 0
 11
32.21106
 21
2.98657
  0
LINE
  8
Engraving
 62
   7
 39
0.200
  6
CONTINUOUS
 10
32.67536
 20
2.07600
 30
 0
 11
32.67536
 21
3.66679
  0
LINE
  8
Engraving
 62
   7
 39
0.200
  6
CONTINUOUS
 10
32.67536
 20
3.66679
 30
 0
 11
32.67536
 21
3.52380
  0
LINE
  8
Engraving
 62
   7
 39
0.200
  6
CONTINUOUS
 10
32.67536
 20
3.52380
 30
 0
 11
32.87198
 21
3.61317
  0
LINE
  8
Engraving
 62
   7
 39
0.200
  6
CONTINUOUS
 10
32.87198
 20
3.61317
 30
 0
 11
32.99709
 21
3.66679
  0
LINE
  8
Engraving
 62
   7
 39
0.200
  6
CONTINUOUS
 10
32.99709
 20
3.66679
 30
 0
 11
33.15796
 21
3.68466
  0
LINE
  8
Engraving
 62
   7
 39
0.200
  6
CONTINUOUS
 10
33.15796
 20
3.68466
 30
 0
 11
33.30095
 21
3.68466
  0
LINE
  8
Engraving
 62
   7
 39
0.600
  6
CONTINUOUS
 10
17.66117
 20
119.83100
 30
 0
 11
17.66117
 21
124.17000
  0
LINE
  8
Engraving
 62
   7
 39
0.600
  6
CONTINUOUS
 10
17.66117
 20
124.17000
 30
 0
 11
17.90222
 21
124.17000
  0
LINE
  8
Engraving
 62
   7
 39
0.600
  6
CONTINUOUS
 10
17.90222
 20
124.17000
 30
 0
 11
19.58961
 21
119.83100
  0
LINE
  8
Engraving
 62
   7
 39
0.600
  6
CONTINUOUS
 10
19.58961
 20
119.83100
 30
 0
 11
21.27700
 21
124.17000
  0
LINE
  8
Engraving
 62
   7
 39
0.600
  6
CONTINUOUS
 10
21.27700
 20
124.17000
 30
 0
 11
21.51806
 21
124.17000
  0
LINE
  8
Engraving
 62
   7
 39
0.600
  6
CONTINUOUS
 10
21.51806
 20
124.17000
 30
 0
 11
21.51806
 21
119.83100
  0
LINE
  8
Engraving
 62
   7
 39
0.600
  6
CONTINUOUS
 10
22.96517
 20
124.17000
 30
 0
 11
22.96517
 21
119.83100
  0
LINE
  8
Engraving
 62
   7
 39
0.600
  6
CONTINUOUS
 10
24.50859
 20
124.17000
 30
 0
 11
27.78694
 21
119.83100
  0
LINE
  8
Engraving
 62
   7
 39
0.600
  6
CONTINUOUS
 10
24.41217
 20
119.83100
 30
 0
 11
27.69052
 21
124.17000
  0
LINE
  8
Engraving
 62
   7
 39
0.600
  6
CONTINUOUS
 10
32.80079
 20
121.27733
 30
 0
 11
29.18496
 21
121.27733
  0
LINE
  8
Engraving
 62
   7
 39
0.600
  6
CONTINUOUS
 10
29.18496
 20
121.27733
 30
 0
 11
29.18496
 21
121.51839
  0
LINE
  8
Engraving
 62
   7
 39
0.600
  6
CONTINUOUS
 10
29.18496
 20
121.51839
 30
 0
 11
31.59551
 21
124.17000
  0
LINE
  8
Engraving
 62
   7
 39
0.600
  6
CONTINUOUS
 10
31.59551
 20
124.17000
 30
 0
 11
31.83657
 21
124.17000
  0
LINE
  8
Engraving
 62
   7
 39
0.600
  6
CONTINUOUS
 10
31.83657
 20
124.17000
 30
 0
 11
31.83657
 21
119.83100
  0
LINE
  8
Engraving
 62
   7
 39
0.400
  6
CONTINUOUS
 10
20.56092
 20
36.52900
 30
 0
 11
20.56092
 21
33.47200
  0
LINE
  8
Engraving
 62
   7
 39
0.400
  6
CONTINUOUS
 10
20.56092
 20
33.47200
 30
 0
 11
21.76446
 21
33.47200
  0
LINE
  8
Engraving
 62
   7
 39
0.400
  6
CONTINUOUS
 10
23.64261
 20
34.19413
 30
 0
 11
23.64261
 21
34.00156
  0
LINE
  8
Engraving
 62
   7
 39
0.400
  6
CONTINUOUS
 10
23.64261
 20
34.00156
 30
 0
 11
23.61854
 21
33.80899
  0
LINE
  8
Engraving
 62
   7
 39
0.400
  6
CONTINUOUS
 10
23.61854
 20
33.80899
 30
 0
 11
23.49818
 21
33.61643
  0
LINE
  8
Engraving
 62
   7
 39
0.400
  6
CONTINUOUS
 10
23.49818
 20
33.61643
 30
 0
 11
23.37783
 21
33.52014
  0
LINE
  8
Engraving
 62
   7
 39
0.400
  6
CONTINUOUS
 10
23.37783
 20
33.52014
 30
 0
 11
23.13712
 21
33.44793
  0
LINE
  8
Engraving
 62
   7
 39
0.400
  6
CONTINUOUS
 10
23.13712
 20
33.44793
 30
 0
 11
22.92048
 21
33.44793
  0
LINE
  8
Engraving
 62
   7
 39
0.400
  6
CONTINUOUS
 10
22.92048
 20
33.44793
 30
 0
 11
22.70384
 21
33.49607
  0
LINE
  8
Engraving
 62
   7
 39
0.400
  6
CONTINUOUS
 10
22.70384
 20
33.49607
 30
 0
 11
22.55942
 21
33.59235
  0
LINE
  8
Engraving
 62
   7
 39
0.400
  6
CONTINUOUS
 10
22.55942
 20
33.59235
 30
 0
 11
22.41499
 21
33.76085
  0
LINE
  8
Engraving
 62
   7
 39
0.400
  6
CONTINUOUS
 10
22.41499
 20
33.76085
 30
 0
 11
22.36685
 21
34.00156
  0
LINE
  8
Engraving
 62
   7
 39
0.400
  6
CONTINUOUS
 10
22.36685
 20
34.00156
 30
 0
 11
22.36685
 21
35.08475
  0
LINE
  8
Engraving
 62
   7
 39
0.400
  6
CONTINUOUS
 10
22.36685
 20
35.08475
 30
 0
 11
22.41499
 21
35.32546
  0
LINE
  8
Engraving
 62
   7
 39
0.400
  6
CONTINUOUS
 10
22.41499
 20
35.32546
 30
 0
 11
22.53535
 21
35.49395
  0
LINE
  8
Engraving
 62
   7
 39
0.400
  6
CONTINUOUS
 10
22.53535
 20
35.49395
 30
 0
 11
22.65570
 21
35.59024
  0
LINE
  8
Engraving
 62
   7
 39
0.400
  6
CONTINUOUS
 10
22.65570
 20
35.59024
 30
 0
 11
22.92048
 21
35.63838
  0
LINE
  8
Engraving
 62
   7
 39
0.400
  6
CONTINUOUS
 10
22.92048
 20
35.63838
 30
 0
 11
23.06491
 21
35.63838
  0
LINE
  8
Engraving
 62
   7
 39
0.400
  6
CONTINUOUS
 10
23.06491
 20
35.63838
 30
 0
 11
23.25747
 21
35.61431
  0
LINE
  8
Engraving
 62
   7
 39
0.400
  6
CONTINUOUS
 10
23.25747
 20
35.61431
 30
 0
 11
23.42597
 21
35.51802
  0
LINE
  8
Engraving
 62
   7
 39
0.400
  6
CONTINUOUS
 10
23.42597
 20
35.51802
 30
 0
 11
23.57039
 21
35.32546
  0
LINE
  8
Engraving
 62
   7
 39
0.400
  6
CONTINUOUS
 10
23.57039
 20
35.32546
 30
 0
 11
23.61854
 21
35.06068
  0
LINE
  8
Engraving
 62
   7
 39
0.400
  6
CONTINUOUS
 10
23.61854
 20
35.06068
 30
 0
 11
23.61854
 21
34.45891
  0
LINE
  8
Engraving
 62
   7
 39
0.400
  6
CONTINUOUS
 10
23.61854
 20
34.45891
 30
 0
 11
22.36685
 21
34.45891
  0
LINE
  8
Engraving
 62
   7
 39
0.400
  6
CONTINUOUS
 10
24.26892
 20
35.61431
 30
 0
 11
24.96698
 21
33.47200
  0
LINE
  8
Engraving
 62
   7
 39
0.400
  6
CONTINUOUS
 10
24.96698
 20
33.47200
 30
 0
 11
25.66503
 21
35.61431
  0
LINE
  8
Engraving
 62
   7
 39
0.400
  6
CONTINUOUS
 10
27.54161
 20
34.19413
 30
 0
 11
27.54161
 21
34.00156
  0
LINE
  8
Engraving
 62
   7
 39
0.400
  6
CONTINUOUS
 10
27.54161
 20
34.00156
 30
 0
 11
27.51754
 21
33.80899
  0
LINE
  8
Engraving
 62
   7
 39
0.400
  6
CONTINUOUS
 10
27.51754
 20
33.80899
 30
 0
 11
27.39718
 21
33.61643
  0
LINE
  8
Engraving
 62
   7
 39
0.400
  6
CONTINUOUS
 10
27.39718
 20
33.61643
 30
 0
 11
27.27683
 21
33.52014
  0
LINE
  8
Engraving
 62
   7
 39
0.400
  6
CONTINUOUS
 10
27.27683
 20
33.52014
 30
 0
 11
27.03612
 21
33.44793
  0
LINE
  8
Engraving
 62
   7
 39
0.400
  6
CONTINUOUS
 10
27.03612
 20
33.44793
 30
 0
 11
26.81948
 21
33.44793
  0
LINE
  8
Engraving
 62
   7
 39
0.400
  6
CONTINUOUS
 10
26.81948
 20
33.44793
 30
 0
 11
26.60284
 21
33.49607
  0
LINE
  8
Engraving
 62
   7
 39
0.400
  6
CONTINUOUS
 10
26.60284
 20
33.49607
 30
 0
 11
26.45842
 21
33.59235
  0
LINE
  8
Engraving
 62
   7
 39
0.400
  6
CONTINUOUS
 10
26.45842
 20
33.59235
 30
 0
 11
26.31399
 21
33.76085
  0
LINE
  8
Engraving
 62
   7
 39
0.400
  6
CONTINUOUS
 10
26.31399
 20
33.76085
 30
 0
 11
26.26585
 21
34.00156
  0
LINE
  8
Engraving
 62
   7
 39
0.400
  6
CONTINUOUS
 10
26.26585
 20
34.00156
 30
 0
 11
26.26585
 21
35.08475
  0
LINE
  8
Engraving
 62
   7
 39
0.400
  6
CONTINUOUS
 10
26.26585
 20
35.08475
 30
 0
 11
26.31399
 21
35.32546
  0
LINE
  8
Engraving
 62
   7
 39
0.400
  6
CONTINUOUS
 10
26.31399
 20
35.32546
 30
 0
 11
26.43435
 21
35.49395
  0
LINE
  8
Engraving
 62
   7
 39
0.400
  6
CONTINUOUS
 10
26.43435
 20
35.49395
 30
 0
 11
26.55470
 21
35.59024
  0
LINE
  8
Engraving
 62
   7
 39
0.400
  6
CONTINUOUS
 10
26.55470
 20
35.59024
 30
 0
 11
26.81948
 21
35.63838
  0
LINE
  8
Engraving
 62
   7
 39
0.400
  6
CONTINUOUS
 10
26.81948
 20
35.63838
 30
 0
 11
26.96391
 21
35.63838
  0
LINE
  8
Engraving
 62
   7
 39
0.400
  6
CONTINUOUS
 10
26.96391
 20
35.63838
 30
 0
 11
27.15647
 21
35.61431
  0
LINE
  8
Engraving
 62
   7
 39
0.400
  6
CONTINUOUS
 10
27.15647
 20
35.61431
 30
 0
 11
27.32497
 21
35.51802
  0
LINE
  8
Engraving
 62
   7
 39
0.400
  6
CONTINUOUS
 10
27.32497
 20
35.51802
 30
 0
 11
27.46939
 21
35.32546
  0
LINE
  8
Engraving
 62
   7
 39
0.400
  6
CONTINUOUS
 10
27.46939
 20
35.32546
 30
 0
 11
27.51754
 21
35.06068
  0
LINE
  8
Engraving
 62
   7
 39
0.400
  6
CONTINUOUS
 10
27.51754
 20
35.06068
 30
 0
 11
27.51754
 21
34.45891
  0
LINE
  8
Engraving
 62
   7
 39
0.400
  6
CONTINUOUS
 10
27.51754
 20
34.45891
 30
 0
 11
26.26585
 21
34.45891
  0
LINE
  8
Engraving
 62
   7
 39
0.400
  6
CONTINUOUS
 10
28.16692
 20
33.47200
 30
 0
 11
28.16692
 21
36.52900
  0
LINE
  8
Engraving
 62
   7
 39
0.400
  6
CONTINUOUS
 10
28.76785
 20
34.21820
 30
 0
 11
28.76785
 21
33.88120
  0
LINE
  8
Engraving
 62
   7
 39
0.400
  6
CONTINUOUS
 10
28.76785
 20
33.88120
 30
 0
 11
28.79192
 21
33.71271
  0
LINE
  8
Engraving
 62
   7
 39
0.400
  6
CONTINUOUS
 10
28.79192
 20
33.71271
 30
 0
 11
28.91228
 21
33.56828
  0
LINE
  8
Engraving
 62
   7
 39
0.400
  6
CONTINUOUS
 10
28.91228
 20
33.56828
 30
 0
 11
29.05670
 21
33.47200
  0
LINE
  8
Engraving
 62
   7
 39
0.400
  6
CONTINUOUS
 10
29.05670
 20
33.47200
 30
 0
 11
29.22520
 21
33.44793
  0
LINE
  8
Engraving
 62
   7
 39
0.400
  6
CONTINUOUS
 10
29.22520
 20
33.44793
 30
 0
 11
29.44183
 21
33.44793
  0
LINE
  8
Engraving
 62
   7
 39
0.400
  6
CONTINUOUS
 10
29.44183
 20
33.44793
 30
 0
 11
29.58626
 21
33.47200
  0
LINE
  8
Engraving
 62
   7
 39
0.400
  6
CONTINUOUS
 10
29.58626
 20
33.47200
 30
 0
 11
29.75476
 21
33.56828
  0
LINE
  8
Engraving
 62
   7
 39
0.400
  6
CONTINUOUS
 10
29.75476
 20
33.56828
 30
 0
 11
29.85104
 21
33.68864
  0
LINE
  8
Engraving
 62
   7
 39
0.400
  6
CONTINUOUS
 10
29.85104
 20
33.68864
 30
 0
 11
29.89918
 21
33.88120
  0
LINE
  8
Engraving
 62
   7
 39
0.400
  6
CONTINUOUS
 10
29.89918
 20
33.88120
 30
 0
 11
29.89918
 21
34.00156
  0
LINE
  8
Engraving
 62
   7
 39
0.400
  6
CONTINUOUS
 10
29.89918
 20
34.00156
 30
 0
 11
29.87511
 21
34.14598
  0
LINE
  8
Engraving
 62
   7
 39
0.400
  6
CONTINUOUS
 10
29.87511
 20
34.14598
 30
 0
 11
29.80290
 21
34.26634
  0
LINE
  8
Engraving
 62
   7
 39
0.400
  6
CONTINUOUS
 10
29.80290
 20
34.26634
 30
 0
 11
29.70661
 21
34.33855
  0
LINE
  8
Engraving
 62
   7
 39
0.400
  6
CONTINUOUS
 10
29.70661
 20
34.33855
 30
 0
 11
29.63440
 21
34.38669
  0
LINE
  8
Engraving
 62
   7
 39
0.400
  6
CONTINUOUS
 10
29.63440
 20
34.38669
 30
 0
 11
29.08077
 21
34.81997
  0
LINE
  8
Engraving
 62
   7
 39
0.400
  6
CONTINUOUS
 10
29.08077
 20
34.81997
 30
 0
 11
28.93635
 21
34.91625
  0
LINE
  8
Engraving
 62
   7
 39
0.400
  6
CONTINUOUS
 10
28.93635
 20
34.91625
 30
 0
 11
28.86413
 21
35.01254
  0
LINE
  8
Engraving
 62
   7
 39
0.400
  6
CONTINUOUS
 10
28.86413
 20
35.01254
 30
 0
 11
28.79192
 21
35.13289
  0
LINE
  8
Engraving
 62
   7
 39
0.400
  6
CONTINUOUS
 10
28.79192
 20
35.13289
 30
 0
 11
28.79192
 21
35.22917
  0
LINE
  8
Engraving
 62
   7
 39
0.400
  6
CONTINUOUS
 10
28.79192
 20
35.22917
 30
 0
 11
28.81599
 21
35.30139
  0
LINE
  8
Engraving
 62
   7
 39
0.400
  6
CONTINUOUS
 10
28.81599
 20
35.30139
 30
 0
 11
28.86413
 21
35.44581
  0
LINE
  8
Engraving
 62
   7
 39
0.400
  6
CONTINUOUS
 10
28.86413
 20
35.44581
 30
 0
 11
28.93635
 21
35.54209
  0
LINE
  8
Engraving
 62
   7
 39
0.400
  6
CONTINUOUS
 10
28.93635
 20
35.54209
 30
 0
 11
29.05670
 21
35.61431
  0
LINE
  8
Engraving
 62
   7
 39
0.400
  6
CONTINUOUS
 10
29.05670
 20
35.61431
 30
 0
 11
29.24927
 21
35.66245
  0
LINE
  8
Engraving
 62
   7
 39
0.400
  6
CONTINUOUS
 10
29.24927
 20
35.66245
 30
 0
 11
29.41776
 21
35.66245
  0
LINE
  8
Engraving
 62
   7
 39
0.400
  6
CONTINUOUS
 10
29.41776
 20
35.66245
 30
 0
 11
29.53812
 21
35.63838
  0
LINE
  8
Engraving
 62
   7
 39
0.400
  6
CONTINUOUS
 10
29.53812
 20
35.63838
 30
 0
 11
29.68254
 21
35.56617
  0
LINE
  8
Engraving
 62
   7
 39
0.400
  6
CONTINUOUS
 10
29.68254
 20
35.56617
 30
 0
 11
29.77883
 21
35.46988
  0
LINE
  8
Engraving
 62
   7
 39
0.400
  6
CONTINUOUS
 10
29.77883
 20
35.46988
 30
 0
 11
29.85104
 21
35.34953
  0
LINE
  8
Engraving
 62
   7
 39
0.400
  6
CONTINUOUS
 10
29.85104
 20
35.34953
 30
 0
 11
29.87511
 21
35.22917
  0
LINE
  8
Engraving
 62
   7
 39
0.400
  6
CONTINUOUS
 10
29.87511
 20
35.22917
 30
 0
 11
29.87511
 21
35.03661
  0
CIRCLE
  8
Contour
 62
   7
 39
0.100
  6
CONTINUOUS
 10
7.50000
 20
125.50000
 30
 0
 40
1.50000
  0
CIRCLE
  8
Contour
 62
   7
 39
0.100
  6
CONTINUOUS
 10
7.50000
 20
3.00000
 30
 0
 40
1.50000
  0
CIRCLE
  8
Contour
 62
   7
 39
0.100
  6
CONTINUOUS
 10
37.98000
 20
125.50000
 30
 0
 40
1.50000
  0
CIRCLE
  8
Contour
 62
   7
 39
0.100
  6
CONTINUOUS
 10
37.98000
 20
3.00000
 30
 0
 40
1.50000
  0
CIRCLE
  8
Contour
 62
   7
 39
0.100
  6
CONTINUOUS
 10
10.63000
 20
91.36000
 30
 0
 40
3.25000
  0
CIRCLE
  8
Contour
 62
   7
 39
0.100
  6
CONTINUOUS
 10
20.79000
 20
91.36000
 30
 0
 40
3.25000
  0
CIRCLE
  8
Contour
 62
   7
 39
0.100
  6
CONTINUOUS
 10
30.95000
 20
91.36000
 30
 0
 40
3.25000
  0
CIRCLE
  8
Contour
 62
   7
 39
0.100
  6
CONTINUOUS
 10
41.11000
 20
91.36000
 30
 0
 40
3.25000
  0
CIRCLE
  8
Contour
 62
   7
 39
0.100
  6
CONTINUOUS
 10
41.11000
 20
27.22000
 30
 0
 40
3.25000
  0
CIRCLE
  8
Contour
 62
   7
 39
0.100
  6
CONTINUOUS
 10
10.63000
 20
27.22000
 30
 0
 40
3.50000
  0
ARC
  8
Contour
 62
   7
 39
0.100
  6
CONTINUOUS
 10
8.63000
 20
42.57000
 30
 0
 40
0.50000
 50
180.00000
 51
270.00000
  0
LINE
  8
Contour
 62
   7
 39
0.100
  6
CONTINUOUS
 10
8.63000
 20
42.07000
 30
 0
 11
12.63000
 21
42.07000
  0
ARC
  8
Contour
 62
   7
 39
0.100
  6
CONTINUOUS
 10
12.63000
 20
42.57000
 30
 0
 40
0.50000
 50
270.00000
 51
360.00000
  0
LINE
  8
Contour
 62
   7
 39
0.100
  6
CONTINUOUS
 10
13.13000
 20
42.57000
 30
 0
 11
13.13000
 21
71.57000
  0
ARC
  8
Contour
 62
   7
 39
0.100
  6
CONTINUOUS
 10
12.63000
 20
71.57000
 30
 0
 40
0.50000
 50
0.00000
 51
90.00000
  0
LINE
  8
Contour
 62
   7
 39
0.100
  6
CONTINUOUS
 10
12.63000
 20
72.07000
 30
 0
 11
8.63000
 21
72.07000
  0
ARC
  8
Contour
 62
   7
 39
0.100
  6
CONTINUOUS
 10
8.63000
 20
71.57000
 30
 0
 40
0.50000
 50
90.00000
 51
180.00000
  0
LINE
  8
Contour
 62
   7
 39
0.100
  6
CONTINUOUS
 10
8.13000
 20
71.57000
 30
 0
 11
8.13000
 21
42.57000
  0
ARC
  8
Contour
 62
   7
 39
0.100
  6
CONTINUOUS
 10
18.79000
 20
42.57000
 30
 0
 40
0.50000
 50
180.00000
 51
270.00000
  0
LINE
  8
Contour
 62
   7
 39
0.100
  6
CONTINUOUS
 10
18.79000
 20
42.07000
 30
 0
 11
22.79000
 21
42.07000
  0
ARC
  8
Contour
 62
   7
 39
0.100
  6
CONTINUOUS
 10
22.79000
 20
42.57000
 30
 0
 40
0.50000
 50
270.00000
 51
360.00000
  0
LINE
  8
Contour
 62
   7
 39
0.100
  6
CONTINUOUS
 10
23.29000
 20
42.57000
 30
 0
 11
23.29000
 21
71.57000
  0
ARC
  8
Contour
 62
   7
 39
0.100
  6
CONTINUOUS
 10
22.79000
 20
71.57000
 30
 0
 40
0.50000
 50
0.00000
 51
90.00000
  0
LINE
  8
Contour
 62
   7
 39
0.100
  6
CONTINUOUS
 10
22.79000
 20
72.07000
 30
 0
 11
18.79000
 21
72.07000
  0
ARC
  8
Contour
 62
   7
 39
0.100
  6
CONTINUOUS
 10
18.79000
 20
71.57000
 30
 0
 40
0.50000
 50
90.00000
 51
180.00000
  0
LINE
  8
Contour
 62
   7
 39
0.100
  6
CONTINUOUS
 10
18.29000
 20
71.57000
 30
 0
 11
18.29000
 21
42.57000
  0
ARC
  8
Contour
 62
   7
 39
0.100
  6
CONTINUOUS
 10
28.95000
 20
42.57000
 30
 0
 40
0.50000
 50
180.00000
 51
270.00000
  0
LINE
  8
Contour
 62
   7
 39
0.100
  6
CONTINUOUS
 10
28.95000
 20
42.07000
 30
 0
 11
32.95000
 21
42.07000
  0
ARC
  8
Contour
 62
   7
 39
0.100
  6
CONTINUOUS
 10
32.95000
 20
42.57000
 30
 0
 40
0.50000
 50
270.00000
 51
360.00000
  0
LINE
  8
Contour
 62
   7
 39
0.100
  6
CONTINUOUS
 10
33.45000
 20
42.57000
 30
 0
 11
33.45000
 21
71.57000
  0
ARC
  8
Contour
 62
   7
 39
0.100
  6
CONTINUOUS
 10
32.95000
 20
71.57000
 30
 0
 40
0.50000
 50
0.00000
 51
90.00000
  0
LINE
  8
Contour
 62
   7
 39
0.100
  6
CONTINUOUS
 10
32.95000
 20
72.07000
 30
 0
 11
28.95000
 21
72.07000
  0
ARC
  8
Contour
 62
   7
 39
0.100
  6
CONTINUOUS
 10
28.95000
 20
71.57000
 30
 0
 40
0.50000
 50
90.00000
 51
180.00000
  0
LINE
  8
Contour
 62
   7
 39
0.100
  6
CONTINUOUS
 10
28.45000
 20
71.57000
 30
 0
 11
28.45000
 21
42.57000
  0
ARC
  8
Contour
 62
   7
 39
0.100
  6
CONTINUOUS
 10
39.11000
 20
42.57000
 30
 0
 40
0.50000
 50
180.00000
 51
270.00000
  0
LINE
  8
Contour
 62
   7
 39
0.100
  6
CONTINUOUS
 10
39.11000
 20
42.07000
 30
 0
 11
43.11000
 21
42.07000
  0
ARC
  8
Contour
 62
   7
 39
0.100
  6
CONTINUOUS
 10
43.11000
 20
42.57000
 30
 0
 40
0.50000
 50
270.00000
 51
360.00000
  0
LINE
  8
Contour
 62
   7
 39
0.100
  6
CONTINUOUS
 10
43.61000
 20
42.57000
 30
 0
 11
43.61000
 21
71.57000
  0
ARC
  8
Contour
 62
   7
 39
0.100
  6
CONTINUOUS
 10
43.11000
 20
71.57000
 30
 0
 40
0.50000
 50
0.00000
 51
90.00000
  0
LINE
  8
Contour
 62
   7
 39
0.100
  6
CONTINUOUS
 10
43.11000
 20
72.07000
 30
 0
 11
39.11000
 21
72.07000
  0
ARC
  8
Contour
 62
   7
 39
0.100
  6
CONTINUOUS
 10
39.11000
 20
71.57000
 30
 0
 40
0.50000
 50
90.00000
 51
180.00000
  0
LINE
  8
Contour
 62
   7
 39
0.100
  6
CONTINUOUS
 10
38.61000
 20
71.57000
 30
 0
 11
38.61000
 21
42.57000
  0
ENDSEC
  0
EOF
