  0
SECTION
  2
HEADER
  9
$MEASUREMENT
  70
  1
  9
$INSUNITS
  70
  4
  0
ENDSEC
  0
SECTION
  2
TABLES
  0
TABLE
  2
LTYPE
 70
     1
  0
LTYPE
  2
CONTINUOUS
 70
    64
  3
Ausgezogene Linie
 72
    65
 73
     0
 40
0.0
  0
ENDTAB
  0
TABLE
  2
LAYER
 70
     3
  0
LAYER
  2
Contour
 70
    64
 62
     7
  6
CONTINUOUS
  0
LAYER
  2
Engraving
 70
    64
 62
     7
  6
CONTINUOUS
  0
LAYER
  2
Reference_points
 70
    64
 62
     1
  6
CONTINUOUS
  0
ENDTAB
  0
TABLE
  2
STYLE
 70
     1
  0
STYLE
  2
TXT
 70
    64
 40
0.0
 41
1.0
 50
0.0
 71
     0
 42
3.500000
  3
TXT
  0
ENDTAB
  0
ENDSEC
  0
SECTION
  2
BLOCKS
  0
ENDSEC
  0
SECTION
  2
ENTITIES
  0
LINE
  8
Contour
 62
   7
 39
0.100
  6
CONTINUOUS
 10
50.46000
 20
128.40000
 30
 0
 11
50.46000
 21
0.00000
  0
LINE
  8
Contour
 62
   7
 39
0.100
  6
CONTINUOUS
 10
50.46000
 20
0.00000
 30
 0
 11
0.00000
 21
0.00000
  0
LINE
  8
Contour
 62
   7
 39
0.100
  6
CONTINUOUS
 10
0.00000
 20
0.00000
 30
 0
 11
0.00000
 21
128.40000
  0
LINE
  8
Contour
 62
   7
 39
0.100
  6
CONTINUOUS
 10
0.00000
 20
128.40000
 30
 0
 11
50.46000
 21
128.40000
  0
CIRCLE
  8
Contour
 62
   7
 39
0.100
  6
CONTINUOUS
 10
7.50000
 20
125.50000
 30
 0
 40
1.50000
  0
CIRCLE
  8
Contour
 62
   7
 39
0.100
  6
CONTINUOUS
 10
7.50000
 20
3.00000
 30
 0
 40
1.50000
  0
CIRCLE
  8
Contour
 62
   7
 39
0.100
  6
CONTINUOUS
 10
37.98000
 20
125.50000
 30
 0
 40
1.50000
  0
CIRCLE
  8
Contour
 62
   7
 39
0.100
  6
CONTINUOUS
 10
37.98000
 20
3.00000
 30
 0
 40
1.50000
  0
CIRCLE
  8
Contour
 62
   7
 39
0.100
  6
CONTINUOUS
 10
10.63000
 20
91.36000
 30
 0
 40
3.25000
  0
CIRCLE
  8
Contour
 62
   7
 39
0.100
  6
CONTINUOUS
 10
20.79000
 20
91.36000
 30
 0
 40
3.25000
  0
CIRCLE
  8
Contour
 62
   7
 39
0.100
  6
CONTINUOUS
 10
30.95000
 20
91.36000
 30
 0
 40
3.25000
  0
CIRCLE
  8
Contour
 62
   7
 39
0.100
  6
CONTINUOUS
 10
41.11000
 20
91.36000
 30
 0
 40
3.25000
  0
CIRCLE
  8
Contour
 62
   7
 39
0.100
  6
CONTINUOUS
 10
41.11000
 20
27.22000
 30
 0
 40
3.25000
  0
CIRCLE
  8
Contour
 62
   7
 39
0.100
  6
CONTINUOUS
 10
10.63000
 20
27.22000
 30
 0
 40
3.50000
  0
ARC
  8
Contour
 62
   7
 39
0.100
  6
CONTINUOUS
 10
8.63000
 20
42.57000
 30
 0
 40
0.50000
 50
180.00000
 51
270.00000
  0
LINE
  8
Contour
 62
   7
 39
0.100
  6
CONTINUOUS
 10
8.63000
 20
42.07000
 30
 0
 11
12.63000
 21
42.07000
  0
ARC
  8
Contour
 62
   7
 39
0.100
  6
CONTINUOUS
 10
12.63000
 20
42.57000
 30
 0
 40
0.50000
 50
270.00000
 51
360.00000
  0
LINE
  8
Contour
 62
   7
 39
0.100
  6
CONTINUOUS
 10
13.13000
 20
42.57000
 30
 0
 11
13.13000
 21
71.57000
  0
ARC
  8
Contour
 62
   7
 39
0.100
  6
CONTINUOUS
 10
12.63000
 20
71.57000
 30
 0
 40
0.50000
 50
0.00000
 51
90.00000
  0
LINE
  8
Contour
 62
   7
 39
0.100
  6
CONTINUOUS
 10
12.63000
 20
72.07000
 30
 0
 11
8.63000
 21
72.07000
  0
ARC
  8
Contour
 62
   7
 39
0.100
  6
CONTINUOUS
 10
8.63000
 20
71.57000
 30
 0
 40
0.50000
 50
90.00000
 51
180.00000
  0
LINE
  8
Contour
 62
   7
 39
0.100
  6
CONTINUOUS
 10
8.13000
 20
71.57000
 30
 0
 11
8.13000
 21
42.57000
  0
ARC
  8
Contour
 62
   7
 39
0.100
  6
CONTINUOUS
 10
18.79000
 20
42.57000
 30
 0
 40
0.50000
 50
180.00000
 51
270.00000
  0
LINE
  8
Contour
 62
   7
 39
0.100
  6
CONTINUOUS
 10
18.79000
 20
42.07000
 30
 0
 11
22.79000
 21
42.07000
  0
ARC
  8
Contour
 62
   7
 39
0.100
  6
CONTINUOUS
 10
22.79000
 20
42.57000
 30
 0
 40
0.50000
 50
270.00000
 51
360.00000
  0
LINE
  8
Contour
 62
   7
 39
0.100
  6
CONTINUOUS
 10
23.29000
 20
42.57000
 30
 0
 11
23.29000
 21
71.57000
  0
ARC
  8
Contour
 62
   7
 39
0.100
  6
CONTINUOUS
 10
22.79000
 20
71.57000
 30
 0
 40
0.50000
 50
0.00000
 51
90.00000
  0
LINE
  8
Contour
 62
   7
 39
0.100
  6
CONTINUOUS
 10
22.79000
 20
72.07000
 30
 0
 11
18.79000
 21
72.07000
  0
ARC
  8
Contour
 62
   7
 39
0.100
  6
CONTINUOUS
 10
18.79000
 20
71.57000
 30
 0
 40
0.50000
 50
90.00000
 51
180.00000
  0
LINE
  8
Contour
 62
   7
 39
0.100
  6
CONTINUOUS
 10
18.29000
 20
71.57000
 30
 0
 11
18.29000
 21
42.57000
  0
ARC
  8
Contour
 62
   7
 39
0.100
  6
CONTINUOUS
 10
28.95000
 20
42.57000
 30
 0
 40
0.50000
 50
180.00000
 51
270.00000
  0
LINE
  8
Contour
 62
   7
 39
0.100
  6
CONTINUOUS
 10
28.95000
 20
42.07000
 30
 0
 11
32.95000
 21
42.07000
  0
ARC
  8
Contour
 62
   7
 39
0.100
  6
CONTINUOUS
 10
32.95000
 20
42.57000
 30
 0
 40
0.50000
 50
270.00000
 51
360.00000
  0
LINE
  8
Contour
 62
   7
 39
0.100
  6
CONTINUOUS
 10
33.45000
 20
42.57000
 30
 0
 11
33.45000
 21
71.57000
  0
ARC
  8
Contour
 62
   7
 39
0.100
  6
CONTINUOUS
 10
32.95000
 20
71.57000
 30
 0
 40
0.50000
 50
0.00000
 51
90.00000
  0
LINE
  8
Contour
 62
   7
 39
0.100
  6
CONTINUOUS
 10
32.95000
 20
72.07000
 30
 0
 11
28.95000
 21
72.07000
  0
ARC
  8
Contour
 62
   7
 39
0.100
  6
CONTINUOUS
 10
28.95000
 20
71.57000
 30
 0
 40
0.50000
 50
90.00000
 51
180.00000
  0
LINE
  8
Contour
 62
   7
 39
0.100
  6
CONTINUOUS
 10
28.45000
 20
71.57000
 30
 0
 11
28.45000
 21
42.57000
  0
ARC
  8
Contour
 62
   7
 39
0.100
  6
CONTINUOUS
 10
39.11000
 20
42.57000
 30
 0
 40
0.50000
 50
180.00000
 51
270.00000
  0
LINE
  8
Contour
 62
   7
 39
0.100
  6
CONTINUOUS
 10
39.11000
 20
42.07000
 30
 0
 11
43.11000
 21
42.07000
  0
ARC
  8
Contour
 62
   7
 39
0.100
  6
CONTINUOUS
 10
43.11000
 20
42.57000
 30
 0
 40
0.50000
 50
270.00000
 51
360.00000
  0
LINE
  8
Contour
 62
   7
 39
0.100
  6
CONTINUOUS
 10
43.61000
 20
42.57000
 30
 0
 11
43.61000
 21
71.57000
  0
ARC
  8
Contour
 62
   7
 39
0.100
  6
CONTINUOUS
 10
43.11000
 20
71.57000
 30
 0
 40
0.50000
 50
0.00000
 51
90.00000
  0
LINE
  8
Contour
 62
   7
 39
0.100
  6
CONTINUOUS
 10
43.11000
 20
72.07000
 30
 0
 11
39.11000
 21
72.07000
  0
ARC
  8
Contour
 62
   7
 39
0.100
  6
CONTINUOUS
 10
39.11000
 20
71.57000
 30
 0
 40
0.50000
 50
90.00000
 51
180.00000
  0
LINE
  8
Contour
 62
   7
 39
0.100
  6
CONTINUOUS
 10
38.61000
 20
71.57000
 30
 0
 11
38.61000
 21
42.57000
  0
ENDSEC
  0
EOF
