G04 #@! TF.GenerationSoftware,KiCad,Pcbnew,5.1.4-e60b266~84~ubuntu18.04.1*
G04 #@! TF.CreationDate,2019-10-21T00:40:35+01:00*
G04 #@! TF.ProjectId,euroslideymixer,6575726f-736c-4696-9465-796d69786572,rev?*
G04 #@! TF.SameCoordinates,Original*
G04 #@! TF.FileFunction,Legend,Bot*
G04 #@! TF.FilePolarity,Positive*
%FSLAX46Y46*%
G04 Gerber Fmt 4.6, Leading zero omitted, Abs format (unit mm)*
G04 Created by KiCad (PCBNEW 5.1.4-e60b266~84~ubuntu18.04.1) date 2019-10-21 00:40:35*
%MOMM*%
%LPD*%
G04 APERTURE LIST*
%ADD10C,0.600000*%
%ADD11C,0.010000*%
%ADD12C,0.120000*%
%ADD13C,0.152400*%
%ADD14C,0.150000*%
%ADD15C,0.091440*%
%ADD16C,0.228600*%
%ADD17C,0.114300*%
%ADD18C,0.071120*%
G04 APERTURE END LIST*
D10*
X148915428Y-123017238D02*
X147486857Y-123017238D01*
X150486857Y-123850571D02*
X148915428Y-123017238D01*
X150486857Y-122183904D01*
X147486857Y-120993428D02*
X147629714Y-121231523D01*
X147772571Y-121350571D01*
X148058285Y-121469619D01*
X148915428Y-121469619D01*
X149201142Y-121350571D01*
X149344000Y-121231523D01*
X149486857Y-120993428D01*
X149486857Y-120636285D01*
X149344000Y-120398190D01*
X149201142Y-120279142D01*
X148915428Y-120160095D01*
X148058285Y-120160095D01*
X147772571Y-120279142D01*
X147629714Y-120398190D01*
X147486857Y-120636285D01*
X147486857Y-120993428D01*
X147486857Y-119088666D02*
X149486857Y-119088666D01*
X148915428Y-119088666D02*
X149201142Y-118969619D01*
X149344000Y-118850571D01*
X149486857Y-118612476D01*
X149486857Y-118374380D01*
X147486857Y-117541047D02*
X150486857Y-117541047D01*
X148629714Y-117302952D02*
X147486857Y-116588666D01*
X149486857Y-116588666D02*
X148344000Y-117541047D01*
X147486857Y-113612476D02*
X150486857Y-113612476D01*
X148344000Y-112779142D01*
X150486857Y-111945809D01*
X147486857Y-111945809D01*
X147486857Y-110398190D02*
X147629714Y-110636285D01*
X147772571Y-110755333D01*
X148058285Y-110874380D01*
X148915428Y-110874380D01*
X149201142Y-110755333D01*
X149344000Y-110636285D01*
X149486857Y-110398190D01*
X149486857Y-110041047D01*
X149344000Y-109802952D01*
X149201142Y-109683904D01*
X148915428Y-109564857D01*
X148058285Y-109564857D01*
X147772571Y-109683904D01*
X147629714Y-109802952D01*
X147486857Y-110041047D01*
X147486857Y-110398190D01*
X147486857Y-107422000D02*
X150486857Y-107422000D01*
X147629714Y-107422000D02*
X147486857Y-107660095D01*
X147486857Y-108136285D01*
X147629714Y-108374380D01*
X147772571Y-108493428D01*
X148058285Y-108612476D01*
X148915428Y-108612476D01*
X149201142Y-108493428D01*
X149344000Y-108374380D01*
X149486857Y-108136285D01*
X149486857Y-107660095D01*
X149344000Y-107422000D01*
X149486857Y-105160095D02*
X147486857Y-105160095D01*
X149486857Y-106231523D02*
X147915428Y-106231523D01*
X147629714Y-106112476D01*
X147486857Y-105874380D01*
X147486857Y-105517238D01*
X147629714Y-105279142D01*
X147772571Y-105160095D01*
X147486857Y-103612476D02*
X147629714Y-103850571D01*
X147915428Y-103969619D01*
X150486857Y-103969619D01*
X147486857Y-101588666D02*
X149058285Y-101588666D01*
X149344000Y-101707714D01*
X149486857Y-101945809D01*
X149486857Y-102422000D01*
X149344000Y-102660095D01*
X147629714Y-101588666D02*
X147486857Y-101826761D01*
X147486857Y-102422000D01*
X147629714Y-102660095D01*
X147915428Y-102779142D01*
X148201142Y-102779142D01*
X148486857Y-102660095D01*
X148629714Y-102422000D01*
X148629714Y-101826761D01*
X148772571Y-101588666D01*
X147486857Y-100398190D02*
X149486857Y-100398190D01*
X148915428Y-100398190D02*
X149201142Y-100279142D01*
X149344000Y-100160095D01*
X149486857Y-99922000D01*
X149486857Y-99683904D01*
X147772571Y-98850571D02*
X147629714Y-98731523D01*
X147486857Y-98850571D01*
X147629714Y-98969619D01*
X147772571Y-98850571D01*
X147486857Y-98850571D01*
X149344000Y-98850571D02*
X149201142Y-98731523D01*
X149058285Y-98850571D01*
X149201142Y-98969619D01*
X149344000Y-98850571D01*
X149058285Y-98850571D01*
X147772571Y-97660095D02*
X147629714Y-97541047D01*
X147486857Y-97660095D01*
X147629714Y-97779142D01*
X147772571Y-97660095D01*
X147486857Y-97660095D01*
X149344000Y-97660095D02*
X149201142Y-97541047D01*
X149058285Y-97660095D01*
X149201142Y-97779142D01*
X149344000Y-97660095D01*
X149058285Y-97660095D01*
X147486857Y-96469619D02*
X150486857Y-96469619D01*
X148344000Y-95636285D01*
X150486857Y-94802952D01*
X147486857Y-94802952D01*
X147486857Y-93612476D02*
X150486857Y-93612476D01*
X150486857Y-92660095D02*
X147486857Y-90993428D01*
X150486857Y-90993428D02*
X147486857Y-92660095D01*
X149486857Y-88969619D02*
X147486857Y-88969619D01*
X150629714Y-89564857D02*
X148486857Y-90160095D01*
X148486857Y-88612476D01*
D11*
G36*
X136200591Y-121787708D02*
G01*
X136200056Y-121735143D01*
X136196340Y-121581119D01*
X136185301Y-121452125D01*
X136165754Y-121343763D01*
X136136517Y-121251638D01*
X136096403Y-121171353D01*
X136044231Y-121098512D01*
X136021567Y-121072495D01*
X135968538Y-121029337D01*
X135896579Y-120990421D01*
X135816816Y-120960427D01*
X135740375Y-120944035D01*
X135712128Y-120942332D01*
X135633826Y-120953005D01*
X135548295Y-120981607D01*
X135467337Y-121023011D01*
X135402754Y-121072095D01*
X135394962Y-121080067D01*
X135340192Y-121147600D01*
X135297437Y-121221552D01*
X135265577Y-121306188D01*
X135243492Y-121405771D01*
X135230062Y-121524566D01*
X135224166Y-121666834D01*
X135223666Y-121732000D01*
X135224065Y-121814855D01*
X135225734Y-121873123D01*
X135229378Y-121912270D01*
X135235707Y-121937763D01*
X135245426Y-121955068D01*
X135253726Y-121964344D01*
X135263808Y-121973106D01*
X135276815Y-121979979D01*
X135296231Y-121985192D01*
X135325540Y-121988973D01*
X135368227Y-121991551D01*
X135427775Y-121993154D01*
X135507670Y-121994011D01*
X135611395Y-121994351D01*
X135712128Y-121994403D01*
X135846481Y-121994734D01*
X135953808Y-121994662D01*
X136005205Y-121993384D01*
X136005205Y-121799019D01*
X135419051Y-121799019D01*
X135419165Y-121675025D01*
X135421304Y-121600415D01*
X135426817Y-121522272D01*
X135434528Y-121457074D01*
X135434845Y-121455090D01*
X135460322Y-121349717D01*
X135500000Y-121267986D01*
X135556462Y-121205816D01*
X135617594Y-121166314D01*
X135685407Y-121141974D01*
X135749081Y-121143861D01*
X135817335Y-121172109D01*
X135887944Y-121227362D01*
X135940265Y-121303927D01*
X135975237Y-121403449D01*
X135987614Y-121469961D01*
X135996306Y-121545461D01*
X136002596Y-121625479D01*
X136005212Y-121693538D01*
X136005224Y-121697569D01*
X136005205Y-121799019D01*
X136005205Y-121993384D01*
X136037119Y-121992590D01*
X136099421Y-121986915D01*
X136143725Y-121976041D01*
X136173040Y-121958368D01*
X136190375Y-121932297D01*
X136198739Y-121896229D01*
X136201141Y-121848566D01*
X136200591Y-121787708D01*
X136200591Y-121787708D01*
G37*
X136200591Y-121787708D02*
X136200056Y-121735143D01*
X136196340Y-121581119D01*
X136185301Y-121452125D01*
X136165754Y-121343763D01*
X136136517Y-121251638D01*
X136096403Y-121171353D01*
X136044231Y-121098512D01*
X136021567Y-121072495D01*
X135968538Y-121029337D01*
X135896579Y-120990421D01*
X135816816Y-120960427D01*
X135740375Y-120944035D01*
X135712128Y-120942332D01*
X135633826Y-120953005D01*
X135548295Y-120981607D01*
X135467337Y-121023011D01*
X135402754Y-121072095D01*
X135394962Y-121080067D01*
X135340192Y-121147600D01*
X135297437Y-121221552D01*
X135265577Y-121306188D01*
X135243492Y-121405771D01*
X135230062Y-121524566D01*
X135224166Y-121666834D01*
X135223666Y-121732000D01*
X135224065Y-121814855D01*
X135225734Y-121873123D01*
X135229378Y-121912270D01*
X135235707Y-121937763D01*
X135245426Y-121955068D01*
X135253726Y-121964344D01*
X135263808Y-121973106D01*
X135276815Y-121979979D01*
X135296231Y-121985192D01*
X135325540Y-121988973D01*
X135368227Y-121991551D01*
X135427775Y-121993154D01*
X135507670Y-121994011D01*
X135611395Y-121994351D01*
X135712128Y-121994403D01*
X135846481Y-121994734D01*
X135953808Y-121994662D01*
X136005205Y-121993384D01*
X136005205Y-121799019D01*
X135419051Y-121799019D01*
X135419165Y-121675025D01*
X135421304Y-121600415D01*
X135426817Y-121522272D01*
X135434528Y-121457074D01*
X135434845Y-121455090D01*
X135460322Y-121349717D01*
X135500000Y-121267986D01*
X135556462Y-121205816D01*
X135617594Y-121166314D01*
X135685407Y-121141974D01*
X135749081Y-121143861D01*
X135817335Y-121172109D01*
X135887944Y-121227362D01*
X135940265Y-121303927D01*
X135975237Y-121403449D01*
X135987614Y-121469961D01*
X135996306Y-121545461D01*
X136002596Y-121625479D01*
X136005212Y-121693538D01*
X136005224Y-121697569D01*
X136005205Y-121799019D01*
X136005205Y-121993384D01*
X136037119Y-121992590D01*
X136099421Y-121986915D01*
X136143725Y-121976041D01*
X136173040Y-121958368D01*
X136190375Y-121932297D01*
X136198739Y-121896229D01*
X136201141Y-121848566D01*
X136200591Y-121787708D01*
G36*
X136200484Y-119912384D02*
G01*
X136199988Y-119819976D01*
X136198835Y-119750227D01*
X136196756Y-119699437D01*
X136193485Y-119663905D01*
X136188753Y-119639932D01*
X136182293Y-119623818D01*
X136173837Y-119611863D01*
X136169945Y-119607533D01*
X136128596Y-119581205D01*
X136081084Y-119576465D01*
X136038905Y-119593784D01*
X136030380Y-119601793D01*
X136022115Y-119614746D01*
X136015739Y-119635602D01*
X136010941Y-119668230D01*
X136007412Y-119716496D01*
X136004842Y-119784268D01*
X136002919Y-119875414D01*
X136001749Y-119958745D01*
X135997690Y-120288546D01*
X135824850Y-120297560D01*
X135824850Y-120073696D01*
X135824011Y-119976508D01*
X135820504Y-119905357D01*
X135812841Y-119856245D01*
X135799533Y-119825171D01*
X135779095Y-119808138D01*
X135750037Y-119801146D01*
X135723069Y-119800084D01*
X135689979Y-119803384D01*
X135665596Y-119815837D01*
X135648647Y-119841274D01*
X135637857Y-119883525D01*
X135631952Y-119946420D01*
X135629659Y-120033789D01*
X135629465Y-120081475D01*
X135629465Y-120296060D01*
X135419051Y-120296060D01*
X135419051Y-119965409D01*
X135418900Y-119857024D01*
X135418222Y-119774651D01*
X135416680Y-119714243D01*
X135413937Y-119671753D01*
X135409655Y-119643135D01*
X135403497Y-119624342D01*
X135395127Y-119611328D01*
X135388992Y-119604699D01*
X135353187Y-119581961D01*
X135321359Y-119574640D01*
X135282482Y-119585093D01*
X135253726Y-119604699D01*
X135244673Y-119615159D01*
X135237643Y-119628662D01*
X135232382Y-119648840D01*
X135228635Y-119679325D01*
X135226146Y-119723749D01*
X135224661Y-119785745D01*
X135223925Y-119868945D01*
X135223682Y-119976981D01*
X135223666Y-120033043D01*
X135223773Y-120153098D01*
X135224261Y-120246728D01*
X135225387Y-120317563D01*
X135227405Y-120369235D01*
X135230570Y-120405377D01*
X135235137Y-120429622D01*
X135241360Y-120445601D01*
X135249496Y-120456947D01*
X135253726Y-120461386D01*
X135263840Y-120470171D01*
X135276888Y-120477058D01*
X135296366Y-120482275D01*
X135325772Y-120486053D01*
X135368602Y-120488624D01*
X135428352Y-120490218D01*
X135508519Y-120491065D01*
X135612599Y-120491396D01*
X135709508Y-120491445D01*
X135833613Y-120491400D01*
X135931170Y-120491088D01*
X136005690Y-120490242D01*
X136060685Y-120488596D01*
X136099666Y-120485883D01*
X136126143Y-120481837D01*
X136143630Y-120476191D01*
X136155636Y-120468680D01*
X136165673Y-120459036D01*
X136167910Y-120456660D01*
X136177817Y-120445129D01*
X136185488Y-120431732D01*
X136191210Y-120412750D01*
X136195268Y-120384469D01*
X136197948Y-120343172D01*
X136199534Y-120285142D01*
X136200312Y-120206663D01*
X136200568Y-120104020D01*
X136200590Y-120031150D01*
X136200484Y-119912384D01*
X136200484Y-119912384D01*
G37*
X136200484Y-119912384D02*
X136199988Y-119819976D01*
X136198835Y-119750227D01*
X136196756Y-119699437D01*
X136193485Y-119663905D01*
X136188753Y-119639932D01*
X136182293Y-119623818D01*
X136173837Y-119611863D01*
X136169945Y-119607533D01*
X136128596Y-119581205D01*
X136081084Y-119576465D01*
X136038905Y-119593784D01*
X136030380Y-119601793D01*
X136022115Y-119614746D01*
X136015739Y-119635602D01*
X136010941Y-119668230D01*
X136007412Y-119716496D01*
X136004842Y-119784268D01*
X136002919Y-119875414D01*
X136001749Y-119958745D01*
X135997690Y-120288546D01*
X135824850Y-120297560D01*
X135824850Y-120073696D01*
X135824011Y-119976508D01*
X135820504Y-119905357D01*
X135812841Y-119856245D01*
X135799533Y-119825171D01*
X135779095Y-119808138D01*
X135750037Y-119801146D01*
X135723069Y-119800084D01*
X135689979Y-119803384D01*
X135665596Y-119815837D01*
X135648647Y-119841274D01*
X135637857Y-119883525D01*
X135631952Y-119946420D01*
X135629659Y-120033789D01*
X135629465Y-120081475D01*
X135629465Y-120296060D01*
X135419051Y-120296060D01*
X135419051Y-119965409D01*
X135418900Y-119857024D01*
X135418222Y-119774651D01*
X135416680Y-119714243D01*
X135413937Y-119671753D01*
X135409655Y-119643135D01*
X135403497Y-119624342D01*
X135395127Y-119611328D01*
X135388992Y-119604699D01*
X135353187Y-119581961D01*
X135321359Y-119574640D01*
X135282482Y-119585093D01*
X135253726Y-119604699D01*
X135244673Y-119615159D01*
X135237643Y-119628662D01*
X135232382Y-119648840D01*
X135228635Y-119679325D01*
X135226146Y-119723749D01*
X135224661Y-119785745D01*
X135223925Y-119868945D01*
X135223682Y-119976981D01*
X135223666Y-120033043D01*
X135223773Y-120153098D01*
X135224261Y-120246728D01*
X135225387Y-120317563D01*
X135227405Y-120369235D01*
X135230570Y-120405377D01*
X135235137Y-120429622D01*
X135241360Y-120445601D01*
X135249496Y-120456947D01*
X135253726Y-120461386D01*
X135263840Y-120470171D01*
X135276888Y-120477058D01*
X135296366Y-120482275D01*
X135325772Y-120486053D01*
X135368602Y-120488624D01*
X135428352Y-120490218D01*
X135508519Y-120491065D01*
X135612599Y-120491396D01*
X135709508Y-120491445D01*
X135833613Y-120491400D01*
X135931170Y-120491088D01*
X136005690Y-120490242D01*
X136060685Y-120488596D01*
X136099666Y-120485883D01*
X136126143Y-120481837D01*
X136143630Y-120476191D01*
X136155636Y-120468680D01*
X136165673Y-120459036D01*
X136167910Y-120456660D01*
X136177817Y-120445129D01*
X136185488Y-120431732D01*
X136191210Y-120412750D01*
X136195268Y-120384469D01*
X136197948Y-120343172D01*
X136199534Y-120285142D01*
X136200312Y-120206663D01*
X136200568Y-120104020D01*
X136200590Y-120031150D01*
X136200484Y-119912384D01*
G36*
X136198879Y-118552942D02*
G01*
X136191916Y-118453337D01*
X136181041Y-118360698D01*
X136166662Y-118280412D01*
X136149190Y-118217862D01*
X136129034Y-118178435D01*
X136123101Y-118172383D01*
X136077061Y-118151338D01*
X136029796Y-118157720D01*
X135989358Y-118190361D01*
X135988199Y-118191918D01*
X135975739Y-118211117D01*
X135969187Y-118231159D01*
X135968392Y-118259114D01*
X135973200Y-118302053D01*
X135983461Y-118367045D01*
X135984325Y-118372273D01*
X135996222Y-118469115D01*
X136002091Y-118573598D01*
X136002148Y-118678389D01*
X135996609Y-118776156D01*
X135985691Y-118859566D01*
X135969611Y-118921287D01*
X135967995Y-118925342D01*
X135942907Y-118970118D01*
X135917518Y-118985850D01*
X135892549Y-118973534D01*
X135868720Y-118934169D01*
X135846754Y-118868752D01*
X135827370Y-118778280D01*
X135818038Y-118717954D01*
X135800087Y-118592554D01*
X135783677Y-118492819D01*
X135767388Y-118414500D01*
X135749798Y-118353347D01*
X135729487Y-118305113D01*
X135705033Y-118265549D01*
X135675016Y-118230406D01*
X135645540Y-118202165D01*
X135604469Y-118168662D01*
X135569154Y-118152173D01*
X135525643Y-118147017D01*
X135509708Y-118146830D01*
X135456831Y-118150702D01*
X135417493Y-118166181D01*
X135382576Y-118192969D01*
X135329202Y-118247413D01*
X135288498Y-118308124D01*
X135259136Y-118379612D01*
X135239789Y-118466390D01*
X135229130Y-118572968D01*
X135225831Y-118703857D01*
X135225887Y-118725469D01*
X135227696Y-118812752D01*
X135231807Y-118899313D01*
X135237630Y-118975716D01*
X135244575Y-119032524D01*
X135245372Y-119037118D01*
X135258752Y-119093599D01*
X135275654Y-119141506D01*
X135291105Y-119168627D01*
X135331870Y-119193865D01*
X135379338Y-119195623D01*
X135421641Y-119173866D01*
X135426424Y-119168998D01*
X135440637Y-119148876D01*
X135446760Y-119123712D01*
X135445718Y-119084767D01*
X135440302Y-119037489D01*
X135435463Y-118984659D01*
X135431381Y-118910602D01*
X135428418Y-118824145D01*
X135426939Y-118734117D01*
X135426842Y-118710439D01*
X135427206Y-118620076D01*
X135428960Y-118553943D01*
X135432713Y-118506221D01*
X135439073Y-118471092D01*
X135448649Y-118442736D01*
X135456625Y-118425695D01*
X135478771Y-118388250D01*
X135498828Y-118364375D01*
X135504513Y-118360886D01*
X135527991Y-118368247D01*
X135550719Y-118403241D01*
X135571666Y-118463442D01*
X135589800Y-118546425D01*
X135593839Y-118570874D01*
X135613897Y-118698576D01*
X135630662Y-118800494D01*
X135645353Y-118880560D01*
X135659188Y-118942708D01*
X135673385Y-118990872D01*
X135689163Y-119028986D01*
X135707740Y-119060984D01*
X135730334Y-119090798D01*
X135758163Y-119122364D01*
X135767920Y-119132986D01*
X135804334Y-119170227D01*
X135833184Y-119189941D01*
X135866198Y-119197653D01*
X135907801Y-119198901D01*
X135989385Y-119185169D01*
X136058702Y-119144132D01*
X136115528Y-119076024D01*
X136159639Y-118981081D01*
X136179424Y-118913338D01*
X136192203Y-118839713D01*
X136199432Y-118751515D01*
X136201521Y-118654130D01*
X136198879Y-118552942D01*
X136198879Y-118552942D01*
G37*
X136198879Y-118552942D02*
X136191916Y-118453337D01*
X136181041Y-118360698D01*
X136166662Y-118280412D01*
X136149190Y-118217862D01*
X136129034Y-118178435D01*
X136123101Y-118172383D01*
X136077061Y-118151338D01*
X136029796Y-118157720D01*
X135989358Y-118190361D01*
X135988199Y-118191918D01*
X135975739Y-118211117D01*
X135969187Y-118231159D01*
X135968392Y-118259114D01*
X135973200Y-118302053D01*
X135983461Y-118367045D01*
X135984325Y-118372273D01*
X135996222Y-118469115D01*
X136002091Y-118573598D01*
X136002148Y-118678389D01*
X135996609Y-118776156D01*
X135985691Y-118859566D01*
X135969611Y-118921287D01*
X135967995Y-118925342D01*
X135942907Y-118970118D01*
X135917518Y-118985850D01*
X135892549Y-118973534D01*
X135868720Y-118934169D01*
X135846754Y-118868752D01*
X135827370Y-118778280D01*
X135818038Y-118717954D01*
X135800087Y-118592554D01*
X135783677Y-118492819D01*
X135767388Y-118414500D01*
X135749798Y-118353347D01*
X135729487Y-118305113D01*
X135705033Y-118265549D01*
X135675016Y-118230406D01*
X135645540Y-118202165D01*
X135604469Y-118168662D01*
X135569154Y-118152173D01*
X135525643Y-118147017D01*
X135509708Y-118146830D01*
X135456831Y-118150702D01*
X135417493Y-118166181D01*
X135382576Y-118192969D01*
X135329202Y-118247413D01*
X135288498Y-118308124D01*
X135259136Y-118379612D01*
X135239789Y-118466390D01*
X135229130Y-118572968D01*
X135225831Y-118703857D01*
X135225887Y-118725469D01*
X135227696Y-118812752D01*
X135231807Y-118899313D01*
X135237630Y-118975716D01*
X135244575Y-119032524D01*
X135245372Y-119037118D01*
X135258752Y-119093599D01*
X135275654Y-119141506D01*
X135291105Y-119168627D01*
X135331870Y-119193865D01*
X135379338Y-119195623D01*
X135421641Y-119173866D01*
X135426424Y-119168998D01*
X135440637Y-119148876D01*
X135446760Y-119123712D01*
X135445718Y-119084767D01*
X135440302Y-119037489D01*
X135435463Y-118984659D01*
X135431381Y-118910602D01*
X135428418Y-118824145D01*
X135426939Y-118734117D01*
X135426842Y-118710439D01*
X135427206Y-118620076D01*
X135428960Y-118553943D01*
X135432713Y-118506221D01*
X135439073Y-118471092D01*
X135448649Y-118442736D01*
X135456625Y-118425695D01*
X135478771Y-118388250D01*
X135498828Y-118364375D01*
X135504513Y-118360886D01*
X135527991Y-118368247D01*
X135550719Y-118403241D01*
X135571666Y-118463442D01*
X135589800Y-118546425D01*
X135593839Y-118570874D01*
X135613897Y-118698576D01*
X135630662Y-118800494D01*
X135645353Y-118880560D01*
X135659188Y-118942708D01*
X135673385Y-118990872D01*
X135689163Y-119028986D01*
X135707740Y-119060984D01*
X135730334Y-119090798D01*
X135758163Y-119122364D01*
X135767920Y-119132986D01*
X135804334Y-119170227D01*
X135833184Y-119189941D01*
X135866198Y-119197653D01*
X135907801Y-119198901D01*
X135989385Y-119185169D01*
X136058702Y-119144132D01*
X136115528Y-119076024D01*
X136159639Y-118981081D01*
X136179424Y-118913338D01*
X136192203Y-118839713D01*
X136199432Y-118751515D01*
X136201521Y-118654130D01*
X136198879Y-118552942D01*
G36*
X136170530Y-117530617D02*
G01*
X136160448Y-117521855D01*
X136147441Y-117514982D01*
X136128025Y-117509769D01*
X136098716Y-117505988D01*
X136056029Y-117503410D01*
X135996481Y-117501807D01*
X135916586Y-117500949D01*
X135812860Y-117500610D01*
X135712128Y-117500557D01*
X135587184Y-117500650D01*
X135488815Y-117501081D01*
X135413535Y-117502077D01*
X135357862Y-117503869D01*
X135318310Y-117506683D01*
X135291395Y-117510750D01*
X135273633Y-117516296D01*
X135261539Y-117523551D01*
X135253726Y-117530617D01*
X135227524Y-117574556D01*
X135229875Y-117621374D01*
X135258452Y-117663263D01*
X135269609Y-117672888D01*
X135282553Y-117680409D01*
X135300864Y-117686088D01*
X135328118Y-117690181D01*
X135367896Y-117692949D01*
X135423774Y-117694650D01*
X135499332Y-117695543D01*
X135598148Y-117695887D01*
X135710022Y-117695942D01*
X136126808Y-117695942D01*
X136163699Y-117659051D01*
X136194736Y-117613579D01*
X136195855Y-117569470D01*
X136170530Y-117530617D01*
X136170530Y-117530617D01*
G37*
X136170530Y-117530617D02*
X136160448Y-117521855D01*
X136147441Y-117514982D01*
X136128025Y-117509769D01*
X136098716Y-117505988D01*
X136056029Y-117503410D01*
X135996481Y-117501807D01*
X135916586Y-117500949D01*
X135812860Y-117500610D01*
X135712128Y-117500557D01*
X135587184Y-117500650D01*
X135488815Y-117501081D01*
X135413535Y-117502077D01*
X135357862Y-117503869D01*
X135318310Y-117506683D01*
X135291395Y-117510750D01*
X135273633Y-117516296D01*
X135261539Y-117523551D01*
X135253726Y-117530617D01*
X135227524Y-117574556D01*
X135229875Y-117621374D01*
X135258452Y-117663263D01*
X135269609Y-117672888D01*
X135282553Y-117680409D01*
X135300864Y-117686088D01*
X135328118Y-117690181D01*
X135367896Y-117692949D01*
X135423774Y-117694650D01*
X135499332Y-117695543D01*
X135598148Y-117695887D01*
X135710022Y-117695942D01*
X136126808Y-117695942D01*
X136163699Y-117659051D01*
X136194736Y-117613579D01*
X136195855Y-117569470D01*
X136170530Y-117530617D01*
G36*
X136193224Y-116234216D02*
G01*
X136177918Y-116142995D01*
X136154125Y-116072936D01*
X136122796Y-116027358D01*
X136104922Y-116014938D01*
X136063351Y-116002308D01*
X136025744Y-116010807D01*
X135990081Y-116037639D01*
X135973397Y-116079330D01*
X135974752Y-116139824D01*
X135983791Y-116186613D01*
X136001013Y-116290582D01*
X136002649Y-116396834D01*
X135988671Y-116515763D01*
X135982748Y-116548614D01*
X135951569Y-116659199D01*
X135905190Y-116745713D01*
X135844401Y-116807207D01*
X135769992Y-116842732D01*
X135731522Y-116850079D01*
X135653473Y-116845270D01*
X135584419Y-116814220D01*
X135525707Y-116759760D01*
X135478683Y-116684718D01*
X135444693Y-116591924D01*
X135425082Y-116484206D01*
X135421195Y-116364395D01*
X135434380Y-116235319D01*
X135435624Y-116228031D01*
X135445186Y-116176692D01*
X135454422Y-116148226D01*
X135468127Y-116135888D01*
X135491094Y-116132932D01*
X135503257Y-116132865D01*
X135554317Y-116132865D01*
X135554317Y-116224031D01*
X135559832Y-116304536D01*
X135577406Y-116359475D01*
X135608583Y-116391440D01*
X135654906Y-116403026D01*
X135660952Y-116403167D01*
X135700547Y-116396389D01*
X135728819Y-116373145D01*
X135747529Y-116329884D01*
X135758436Y-116263055D01*
X135762446Y-116198324D01*
X135764747Y-116104241D01*
X135761236Y-116035998D01*
X135748281Y-115989455D01*
X135722250Y-115960472D01*
X135679509Y-115944909D01*
X135616426Y-115938625D01*
X135533572Y-115937480D01*
X135441090Y-115939356D01*
X135378182Y-115945000D01*
X135344597Y-115954436D01*
X135341967Y-115956267D01*
X135300002Y-116008079D01*
X135266768Y-116084044D01*
X135242977Y-116179346D01*
X135229337Y-116289170D01*
X135226558Y-116408700D01*
X135235351Y-116533120D01*
X135246151Y-116606297D01*
X135278638Y-116721074D01*
X135331750Y-116827750D01*
X135400681Y-116917065D01*
X135414458Y-116930640D01*
X135472378Y-116974746D01*
X135544160Y-117014543D01*
X135619417Y-117045381D01*
X135687759Y-117062611D01*
X135714007Y-117064688D01*
X135768759Y-117055847D01*
X135836881Y-117032349D01*
X135908586Y-116998703D01*
X135974087Y-116959418D01*
X136017838Y-116924709D01*
X136082917Y-116843557D01*
X136134715Y-116738652D01*
X136172062Y-116613754D01*
X136193783Y-116472621D01*
X136199091Y-116343279D01*
X136193224Y-116234216D01*
X136193224Y-116234216D01*
G37*
X136193224Y-116234216D02*
X136177918Y-116142995D01*
X136154125Y-116072936D01*
X136122796Y-116027358D01*
X136104922Y-116014938D01*
X136063351Y-116002308D01*
X136025744Y-116010807D01*
X135990081Y-116037639D01*
X135973397Y-116079330D01*
X135974752Y-116139824D01*
X135983791Y-116186613D01*
X136001013Y-116290582D01*
X136002649Y-116396834D01*
X135988671Y-116515763D01*
X135982748Y-116548614D01*
X135951569Y-116659199D01*
X135905190Y-116745713D01*
X135844401Y-116807207D01*
X135769992Y-116842732D01*
X135731522Y-116850079D01*
X135653473Y-116845270D01*
X135584419Y-116814220D01*
X135525707Y-116759760D01*
X135478683Y-116684718D01*
X135444693Y-116591924D01*
X135425082Y-116484206D01*
X135421195Y-116364395D01*
X135434380Y-116235319D01*
X135435624Y-116228031D01*
X135445186Y-116176692D01*
X135454422Y-116148226D01*
X135468127Y-116135888D01*
X135491094Y-116132932D01*
X135503257Y-116132865D01*
X135554317Y-116132865D01*
X135554317Y-116224031D01*
X135559832Y-116304536D01*
X135577406Y-116359475D01*
X135608583Y-116391440D01*
X135654906Y-116403026D01*
X135660952Y-116403167D01*
X135700547Y-116396389D01*
X135728819Y-116373145D01*
X135747529Y-116329884D01*
X135758436Y-116263055D01*
X135762446Y-116198324D01*
X135764747Y-116104241D01*
X135761236Y-116035998D01*
X135748281Y-115989455D01*
X135722250Y-115960472D01*
X135679509Y-115944909D01*
X135616426Y-115938625D01*
X135533572Y-115937480D01*
X135441090Y-115939356D01*
X135378182Y-115945000D01*
X135344597Y-115954436D01*
X135341967Y-115956267D01*
X135300002Y-116008079D01*
X135266768Y-116084044D01*
X135242977Y-116179346D01*
X135229337Y-116289170D01*
X135226558Y-116408700D01*
X135235351Y-116533120D01*
X135246151Y-116606297D01*
X135278638Y-116721074D01*
X135331750Y-116827750D01*
X135400681Y-116917065D01*
X135414458Y-116930640D01*
X135472378Y-116974746D01*
X135544160Y-117014543D01*
X135619417Y-117045381D01*
X135687759Y-117062611D01*
X135714007Y-117064688D01*
X135768759Y-117055847D01*
X135836881Y-117032349D01*
X135908586Y-116998703D01*
X135974087Y-116959418D01*
X136017838Y-116924709D01*
X136082917Y-116843557D01*
X136134715Y-116738652D01*
X136172062Y-116613754D01*
X136193783Y-116472621D01*
X136199091Y-116343279D01*
X136193224Y-116234216D01*
G36*
X136194756Y-115368874D02*
G01*
X136176351Y-115337499D01*
X136146251Y-115296476D01*
X136103040Y-115243678D01*
X136045298Y-115176979D01*
X135971608Y-115094253D01*
X135880552Y-114993374D01*
X135775862Y-114877895D01*
X135557793Y-114637421D01*
X135850492Y-114629906D01*
X135951246Y-114627193D01*
X136026278Y-114624576D01*
X136079916Y-114621474D01*
X136116490Y-114617310D01*
X136140329Y-114611505D01*
X136155762Y-114603478D01*
X136167118Y-114592651D01*
X136171890Y-114586910D01*
X136197123Y-114540937D01*
X136193434Y-114497191D01*
X136171877Y-114462489D01*
X136143165Y-114427007D01*
X135723850Y-114422594D01*
X135600529Y-114421373D01*
X135503652Y-114420751D01*
X135429606Y-114420944D01*
X135374779Y-114422168D01*
X135335557Y-114424638D01*
X135308327Y-114428568D01*
X135289477Y-114434174D01*
X135275395Y-114441672D01*
X135264101Y-114449987D01*
X135243154Y-114467976D01*
X135229269Y-114485875D01*
X135223940Y-114506166D01*
X135228660Y-114531332D01*
X135244923Y-114563854D01*
X135274223Y-114606217D01*
X135318054Y-114660902D01*
X135377909Y-114730391D01*
X135455282Y-114817169D01*
X135544186Y-114915469D01*
X135864565Y-115268664D01*
X135572823Y-115276179D01*
X135472253Y-115278897D01*
X135397396Y-115281521D01*
X135343916Y-115284633D01*
X135307474Y-115288816D01*
X135283732Y-115294651D01*
X135268354Y-115302720D01*
X135257000Y-115313605D01*
X135252374Y-115319175D01*
X135226958Y-115368410D01*
X135230791Y-115414931D01*
X135263267Y-115455443D01*
X135276333Y-115464710D01*
X135291591Y-115471933D01*
X135312704Y-115477366D01*
X135343331Y-115481262D01*
X135387134Y-115483875D01*
X135447773Y-115485461D01*
X135528909Y-115486272D01*
X135634203Y-115486562D01*
X135712128Y-115486593D01*
X135834012Y-115486495D01*
X135929497Y-115486033D01*
X136002245Y-115484951D01*
X136055917Y-115482997D01*
X136094173Y-115479916D01*
X136120673Y-115475454D01*
X136139080Y-115469357D01*
X136153052Y-115461371D01*
X136160989Y-115455443D01*
X136179788Y-115440416D01*
X136193983Y-115426372D01*
X136202154Y-115411184D01*
X136202884Y-115392727D01*
X136194756Y-115368874D01*
X136194756Y-115368874D01*
G37*
X136194756Y-115368874D02*
X136176351Y-115337499D01*
X136146251Y-115296476D01*
X136103040Y-115243678D01*
X136045298Y-115176979D01*
X135971608Y-115094253D01*
X135880552Y-114993374D01*
X135775862Y-114877895D01*
X135557793Y-114637421D01*
X135850492Y-114629906D01*
X135951246Y-114627193D01*
X136026278Y-114624576D01*
X136079916Y-114621474D01*
X136116490Y-114617310D01*
X136140329Y-114611505D01*
X136155762Y-114603478D01*
X136167118Y-114592651D01*
X136171890Y-114586910D01*
X136197123Y-114540937D01*
X136193434Y-114497191D01*
X136171877Y-114462489D01*
X136143165Y-114427007D01*
X135723850Y-114422594D01*
X135600529Y-114421373D01*
X135503652Y-114420751D01*
X135429606Y-114420944D01*
X135374779Y-114422168D01*
X135335557Y-114424638D01*
X135308327Y-114428568D01*
X135289477Y-114434174D01*
X135275395Y-114441672D01*
X135264101Y-114449987D01*
X135243154Y-114467976D01*
X135229269Y-114485875D01*
X135223940Y-114506166D01*
X135228660Y-114531332D01*
X135244923Y-114563854D01*
X135274223Y-114606217D01*
X135318054Y-114660902D01*
X135377909Y-114730391D01*
X135455282Y-114817169D01*
X135544186Y-114915469D01*
X135864565Y-115268664D01*
X135572823Y-115276179D01*
X135472253Y-115278897D01*
X135397396Y-115281521D01*
X135343916Y-115284633D01*
X135307474Y-115288816D01*
X135283732Y-115294651D01*
X135268354Y-115302720D01*
X135257000Y-115313605D01*
X135252374Y-115319175D01*
X135226958Y-115368410D01*
X135230791Y-115414931D01*
X135263267Y-115455443D01*
X135276333Y-115464710D01*
X135291591Y-115471933D01*
X135312704Y-115477366D01*
X135343331Y-115481262D01*
X135387134Y-115483875D01*
X135447773Y-115485461D01*
X135528909Y-115486272D01*
X135634203Y-115486562D01*
X135712128Y-115486593D01*
X135834012Y-115486495D01*
X135929497Y-115486033D01*
X136002245Y-115484951D01*
X136055917Y-115482997D01*
X136094173Y-115479916D01*
X136120673Y-115475454D01*
X136139080Y-115469357D01*
X136153052Y-115461371D01*
X136160989Y-115455443D01*
X136179788Y-115440416D01*
X136193983Y-115426372D01*
X136202154Y-115411184D01*
X136202884Y-115392727D01*
X136194756Y-115368874D01*
G36*
X136200333Y-113331284D02*
G01*
X136199116Y-113229623D01*
X136196270Y-113151718D01*
X136191126Y-113094419D01*
X136183016Y-113054573D01*
X136171269Y-113029032D01*
X136155218Y-113014643D01*
X136134192Y-113008255D01*
X136107524Y-113006719D01*
X136104374Y-113006711D01*
X136074210Y-113008045D01*
X136050897Y-113014349D01*
X136033494Y-113029078D01*
X136021060Y-113055685D01*
X136012655Y-113097626D01*
X136007335Y-113158354D01*
X136004161Y-113241324D01*
X136002191Y-113349989D01*
X136001755Y-113383295D01*
X135997690Y-113705587D01*
X135911270Y-113710094D01*
X135824850Y-113714602D01*
X135824850Y-113490737D01*
X135824527Y-113403279D01*
X135823163Y-113340831D01*
X135820161Y-113298346D01*
X135814927Y-113270777D01*
X135806865Y-113253078D01*
X135795380Y-113240203D01*
X135795289Y-113240120D01*
X135750529Y-113216770D01*
X135702153Y-113217614D01*
X135660914Y-113242121D01*
X135656675Y-113246971D01*
X135645751Y-113264185D01*
X135638151Y-113287774D01*
X135633303Y-113322993D01*
X135630634Y-113375100D01*
X135629572Y-113449350D01*
X135629465Y-113496838D01*
X135629465Y-113713102D01*
X135419051Y-113713102D01*
X135419051Y-113384780D01*
X135418861Y-113276382D01*
X135418086Y-113194065D01*
X135416416Y-113133851D01*
X135413542Y-113091765D01*
X135409153Y-113063829D01*
X135402941Y-113046066D01*
X135394596Y-113034500D01*
X135391566Y-113031585D01*
X135349566Y-113010064D01*
X135301786Y-113008490D01*
X135260358Y-113026145D01*
X135247063Y-113040115D01*
X135239744Y-113054646D01*
X135234081Y-113077162D01*
X135229877Y-113111224D01*
X135226932Y-113160393D01*
X135225049Y-113228232D01*
X135224030Y-113318302D01*
X135223675Y-113434163D01*
X135223666Y-113460357D01*
X135223744Y-113578161D01*
X135224169Y-113669604D01*
X135225234Y-113738386D01*
X135227231Y-113788204D01*
X135230450Y-113822760D01*
X135235184Y-113845750D01*
X135241723Y-113860874D01*
X135250359Y-113871831D01*
X135256560Y-113877842D01*
X135267543Y-113886890D01*
X135281148Y-113893958D01*
X135300944Y-113899291D01*
X135330498Y-113903132D01*
X135373379Y-113905725D01*
X135433155Y-113907313D01*
X135513393Y-113908139D01*
X135617661Y-113908448D01*
X135705420Y-113908486D01*
X135828392Y-113908392D01*
X135924931Y-113907943D01*
X135998661Y-113906892D01*
X136053210Y-113904990D01*
X136092201Y-113901991D01*
X136119261Y-113897645D01*
X136138016Y-113891706D01*
X136152090Y-113883925D01*
X136160989Y-113877336D01*
X136200590Y-113846186D01*
X136200590Y-113459852D01*
X136200333Y-113331284D01*
X136200333Y-113331284D01*
G37*
X136200333Y-113331284D02*
X136199116Y-113229623D01*
X136196270Y-113151718D01*
X136191126Y-113094419D01*
X136183016Y-113054573D01*
X136171269Y-113029032D01*
X136155218Y-113014643D01*
X136134192Y-113008255D01*
X136107524Y-113006719D01*
X136104374Y-113006711D01*
X136074210Y-113008045D01*
X136050897Y-113014349D01*
X136033494Y-113029078D01*
X136021060Y-113055685D01*
X136012655Y-113097626D01*
X136007335Y-113158354D01*
X136004161Y-113241324D01*
X136002191Y-113349989D01*
X136001755Y-113383295D01*
X135997690Y-113705587D01*
X135911270Y-113710094D01*
X135824850Y-113714602D01*
X135824850Y-113490737D01*
X135824527Y-113403279D01*
X135823163Y-113340831D01*
X135820161Y-113298346D01*
X135814927Y-113270777D01*
X135806865Y-113253078D01*
X135795380Y-113240203D01*
X135795289Y-113240120D01*
X135750529Y-113216770D01*
X135702153Y-113217614D01*
X135660914Y-113242121D01*
X135656675Y-113246971D01*
X135645751Y-113264185D01*
X135638151Y-113287774D01*
X135633303Y-113322993D01*
X135630634Y-113375100D01*
X135629572Y-113449350D01*
X135629465Y-113496838D01*
X135629465Y-113713102D01*
X135419051Y-113713102D01*
X135419051Y-113384780D01*
X135418861Y-113276382D01*
X135418086Y-113194065D01*
X135416416Y-113133851D01*
X135413542Y-113091765D01*
X135409153Y-113063829D01*
X135402941Y-113046066D01*
X135394596Y-113034500D01*
X135391566Y-113031585D01*
X135349566Y-113010064D01*
X135301786Y-113008490D01*
X135260358Y-113026145D01*
X135247063Y-113040115D01*
X135239744Y-113054646D01*
X135234081Y-113077162D01*
X135229877Y-113111224D01*
X135226932Y-113160393D01*
X135225049Y-113228232D01*
X135224030Y-113318302D01*
X135223675Y-113434163D01*
X135223666Y-113460357D01*
X135223744Y-113578161D01*
X135224169Y-113669604D01*
X135225234Y-113738386D01*
X135227231Y-113788204D01*
X135230450Y-113822760D01*
X135235184Y-113845750D01*
X135241723Y-113860874D01*
X135250359Y-113871831D01*
X135256560Y-113877842D01*
X135267543Y-113886890D01*
X135281148Y-113893958D01*
X135300944Y-113899291D01*
X135330498Y-113903132D01*
X135373379Y-113905725D01*
X135433155Y-113907313D01*
X135513393Y-113908139D01*
X135617661Y-113908448D01*
X135705420Y-113908486D01*
X135828392Y-113908392D01*
X135924931Y-113907943D01*
X135998661Y-113906892D01*
X136053210Y-113904990D01*
X136092201Y-113901991D01*
X136119261Y-113897645D01*
X136138016Y-113891706D01*
X136152090Y-113883925D01*
X136160989Y-113877336D01*
X136200590Y-113846186D01*
X136200590Y-113459852D01*
X136200333Y-113331284D01*
G36*
X136200313Y-112282217D02*
G01*
X136194507Y-112110499D01*
X136176899Y-111964445D01*
X136146437Y-111841647D01*
X136102065Y-111739697D01*
X136042729Y-111656186D01*
X135967376Y-111588707D01*
X135874950Y-111534851D01*
X135872696Y-111533792D01*
X135789976Y-111501651D01*
X135716716Y-111490199D01*
X135642988Y-111499480D01*
X135558865Y-111529539D01*
X135546063Y-111535239D01*
X135471138Y-111574115D01*
X135413243Y-111617805D01*
X135364028Y-111674194D01*
X135315143Y-111751162D01*
X135312591Y-111755634D01*
X135280405Y-111822637D01*
X135256368Y-111898369D01*
X135239649Y-111987696D01*
X135229421Y-112095485D01*
X135224854Y-112226602D01*
X135224457Y-112272928D01*
X135223666Y-112493524D01*
X135263267Y-112524674D01*
X135276289Y-112533914D01*
X135291496Y-112541122D01*
X135312534Y-112546550D01*
X135343050Y-112550449D01*
X135386689Y-112553071D01*
X135419051Y-112553926D01*
X135419051Y-112345409D01*
X135419051Y-112220418D01*
X135421190Y-112147277D01*
X135426819Y-112072193D01*
X135434757Y-112010570D01*
X135435425Y-112006851D01*
X135464788Y-111897401D01*
X135508903Y-111812506D01*
X135569817Y-111749482D01*
X135649576Y-111705640D01*
X135670716Y-111698017D01*
X135703638Y-111690544D01*
X135736164Y-111693779D01*
X135779436Y-111709521D01*
X135800693Y-111719010D01*
X135857180Y-111750083D01*
X135896809Y-111787521D01*
X135924406Y-111828713D01*
X135960318Y-111911224D01*
X135986332Y-112016821D01*
X136001312Y-112139836D01*
X136004608Y-112228930D01*
X136005205Y-112345409D01*
X135419051Y-112345409D01*
X135419051Y-112553926D01*
X135447100Y-112554668D01*
X135527928Y-112555490D01*
X135632819Y-112555790D01*
X135714838Y-112555824D01*
X136126808Y-112555824D01*
X136163699Y-112518933D01*
X136178652Y-112502560D01*
X136188892Y-112484857D01*
X136195299Y-112460135D01*
X136198753Y-112422706D01*
X136200133Y-112366881D01*
X136200319Y-112286972D01*
X136200313Y-112282217D01*
X136200313Y-112282217D01*
G37*
X136200313Y-112282217D02*
X136194507Y-112110499D01*
X136176899Y-111964445D01*
X136146437Y-111841647D01*
X136102065Y-111739697D01*
X136042729Y-111656186D01*
X135967376Y-111588707D01*
X135874950Y-111534851D01*
X135872696Y-111533792D01*
X135789976Y-111501651D01*
X135716716Y-111490199D01*
X135642988Y-111499480D01*
X135558865Y-111529539D01*
X135546063Y-111535239D01*
X135471138Y-111574115D01*
X135413243Y-111617805D01*
X135364028Y-111674194D01*
X135315143Y-111751162D01*
X135312591Y-111755634D01*
X135280405Y-111822637D01*
X135256368Y-111898369D01*
X135239649Y-111987696D01*
X135229421Y-112095485D01*
X135224854Y-112226602D01*
X135224457Y-112272928D01*
X135223666Y-112493524D01*
X135263267Y-112524674D01*
X135276289Y-112533914D01*
X135291496Y-112541122D01*
X135312534Y-112546550D01*
X135343050Y-112550449D01*
X135386689Y-112553071D01*
X135419051Y-112553926D01*
X135419051Y-112345409D01*
X135419051Y-112220418D01*
X135421190Y-112147277D01*
X135426819Y-112072193D01*
X135434757Y-112010570D01*
X135435425Y-112006851D01*
X135464788Y-111897401D01*
X135508903Y-111812506D01*
X135569817Y-111749482D01*
X135649576Y-111705640D01*
X135670716Y-111698017D01*
X135703638Y-111690544D01*
X135736164Y-111693779D01*
X135779436Y-111709521D01*
X135800693Y-111719010D01*
X135857180Y-111750083D01*
X135896809Y-111787521D01*
X135924406Y-111828713D01*
X135960318Y-111911224D01*
X135986332Y-112016821D01*
X136001312Y-112139836D01*
X136004608Y-112228930D01*
X136005205Y-112345409D01*
X135419051Y-112345409D01*
X135419051Y-112553926D01*
X135447100Y-112554668D01*
X135527928Y-112555490D01*
X135632819Y-112555790D01*
X135714838Y-112555824D01*
X136126808Y-112555824D01*
X136163699Y-112518933D01*
X136178652Y-112502560D01*
X136188892Y-112484857D01*
X136195299Y-112460135D01*
X136198753Y-112422706D01*
X136200133Y-112366881D01*
X136200319Y-112286972D01*
X136200313Y-112282217D01*
G36*
X136197970Y-108652453D02*
G01*
X136188650Y-108626372D01*
X136188194Y-108625366D01*
X136161166Y-108589948D01*
X136133364Y-108570434D01*
X136120328Y-108566616D01*
X136103008Y-108566805D01*
X136078333Y-108572178D01*
X136043236Y-108583912D01*
X135994647Y-108603187D01*
X135929498Y-108631178D01*
X135844719Y-108669064D01*
X135737241Y-108718022D01*
X135678497Y-108744969D01*
X135573627Y-108793630D01*
X135477186Y-108839310D01*
X135392702Y-108880266D01*
X135323700Y-108914754D01*
X135273706Y-108941031D01*
X135246246Y-108957354D01*
X135242453Y-108960584D01*
X135225720Y-109001911D01*
X135227961Y-109048591D01*
X135248313Y-109086030D01*
X135249968Y-109087556D01*
X135272514Y-109102449D01*
X135316429Y-109127431D01*
X135376060Y-109159421D01*
X135445754Y-109195340D01*
X135471437Y-109208248D01*
X135666603Y-109305686D01*
X135454593Y-109411894D01*
X135381339Y-109449803D01*
X135317810Y-109484973D01*
X135268869Y-109514532D01*
X135239378Y-109535606D01*
X135233124Y-109542748D01*
X135224655Y-109598262D01*
X135242453Y-109644071D01*
X135261475Y-109657546D01*
X135303751Y-109680864D01*
X135365120Y-109712123D01*
X135441424Y-109749420D01*
X135528501Y-109790854D01*
X135622193Y-109834522D01*
X135718339Y-109878522D01*
X135812779Y-109920952D01*
X135901355Y-109959910D01*
X135979904Y-109993493D01*
X136044269Y-110019799D01*
X136090289Y-110036926D01*
X136113803Y-110042971D01*
X136114655Y-110042909D01*
X136144244Y-110028200D01*
X136174380Y-109998798D01*
X136175692Y-109997067D01*
X136196118Y-109960930D01*
X136195920Y-109927506D01*
X136192069Y-109914978D01*
X136183747Y-109899713D01*
X136167375Y-109883502D01*
X136139558Y-109864401D01*
X136096900Y-109840465D01*
X136036005Y-109809749D01*
X135953475Y-109770309D01*
X135877293Y-109734742D01*
X135788986Y-109693823D01*
X135709574Y-109657156D01*
X135643204Y-109626646D01*
X135594025Y-109604198D01*
X135566187Y-109591717D01*
X135561832Y-109589897D01*
X135568951Y-109581710D01*
X135598759Y-109562895D01*
X135646904Y-109535954D01*
X135709037Y-109503392D01*
X135734672Y-109490434D01*
X135821235Y-109446540D01*
X135884275Y-109412689D01*
X135927458Y-109386103D01*
X135954448Y-109364005D01*
X135968912Y-109343616D01*
X135974513Y-109322160D01*
X135975146Y-109308177D01*
X135972960Y-109283512D01*
X135963921Y-109261898D01*
X135944303Y-109240422D01*
X135910383Y-109216170D01*
X135858438Y-109186230D01*
X135784742Y-109147687D01*
X135742820Y-109126422D01*
X135676006Y-109091928D01*
X135620599Y-109061844D01*
X135581273Y-109038823D01*
X135562704Y-109025520D01*
X135561931Y-109023711D01*
X135576545Y-109015120D01*
X135614493Y-108995886D01*
X135671804Y-108967935D01*
X135744504Y-108933193D01*
X135828624Y-108893587D01*
X135870406Y-108874104D01*
X135978237Y-108823420D01*
X136061210Y-108782607D01*
X136122034Y-108749546D01*
X136163415Y-108722119D01*
X136188060Y-108698208D01*
X136198676Y-108675692D01*
X136197970Y-108652453D01*
X136197970Y-108652453D01*
G37*
X136197970Y-108652453D02*
X136188650Y-108626372D01*
X136188194Y-108625366D01*
X136161166Y-108589948D01*
X136133364Y-108570434D01*
X136120328Y-108566616D01*
X136103008Y-108566805D01*
X136078333Y-108572178D01*
X136043236Y-108583912D01*
X135994647Y-108603187D01*
X135929498Y-108631178D01*
X135844719Y-108669064D01*
X135737241Y-108718022D01*
X135678497Y-108744969D01*
X135573627Y-108793630D01*
X135477186Y-108839310D01*
X135392702Y-108880266D01*
X135323700Y-108914754D01*
X135273706Y-108941031D01*
X135246246Y-108957354D01*
X135242453Y-108960584D01*
X135225720Y-109001911D01*
X135227961Y-109048591D01*
X135248313Y-109086030D01*
X135249968Y-109087556D01*
X135272514Y-109102449D01*
X135316429Y-109127431D01*
X135376060Y-109159421D01*
X135445754Y-109195340D01*
X135471437Y-109208248D01*
X135666603Y-109305686D01*
X135454593Y-109411894D01*
X135381339Y-109449803D01*
X135317810Y-109484973D01*
X135268869Y-109514532D01*
X135239378Y-109535606D01*
X135233124Y-109542748D01*
X135224655Y-109598262D01*
X135242453Y-109644071D01*
X135261475Y-109657546D01*
X135303751Y-109680864D01*
X135365120Y-109712123D01*
X135441424Y-109749420D01*
X135528501Y-109790854D01*
X135622193Y-109834522D01*
X135718339Y-109878522D01*
X135812779Y-109920952D01*
X135901355Y-109959910D01*
X135979904Y-109993493D01*
X136044269Y-110019799D01*
X136090289Y-110036926D01*
X136113803Y-110042971D01*
X136114655Y-110042909D01*
X136144244Y-110028200D01*
X136174380Y-109998798D01*
X136175692Y-109997067D01*
X136196118Y-109960930D01*
X136195920Y-109927506D01*
X136192069Y-109914978D01*
X136183747Y-109899713D01*
X136167375Y-109883502D01*
X136139558Y-109864401D01*
X136096900Y-109840465D01*
X136036005Y-109809749D01*
X135953475Y-109770309D01*
X135877293Y-109734742D01*
X135788986Y-109693823D01*
X135709574Y-109657156D01*
X135643204Y-109626646D01*
X135594025Y-109604198D01*
X135566187Y-109591717D01*
X135561832Y-109589897D01*
X135568951Y-109581710D01*
X135598759Y-109562895D01*
X135646904Y-109535954D01*
X135709037Y-109503392D01*
X135734672Y-109490434D01*
X135821235Y-109446540D01*
X135884275Y-109412689D01*
X135927458Y-109386103D01*
X135954448Y-109364005D01*
X135968912Y-109343616D01*
X135974513Y-109322160D01*
X135975146Y-109308177D01*
X135972960Y-109283512D01*
X135963921Y-109261898D01*
X135944303Y-109240422D01*
X135910383Y-109216170D01*
X135858438Y-109186230D01*
X135784742Y-109147687D01*
X135742820Y-109126422D01*
X135676006Y-109091928D01*
X135620599Y-109061844D01*
X135581273Y-109038823D01*
X135562704Y-109025520D01*
X135561931Y-109023711D01*
X135576545Y-109015120D01*
X135614493Y-108995886D01*
X135671804Y-108967935D01*
X135744504Y-108933193D01*
X135828624Y-108893587D01*
X135870406Y-108874104D01*
X135978237Y-108823420D01*
X136061210Y-108782607D01*
X136122034Y-108749546D01*
X136163415Y-108722119D01*
X136188060Y-108698208D01*
X136198676Y-108675692D01*
X136197970Y-108652453D01*
G36*
X136191523Y-108061396D02*
G01*
X136171858Y-108029826D01*
X136143127Y-107994344D01*
X135715034Y-107994344D01*
X135589810Y-107994457D01*
X135491153Y-107994941D01*
X135415570Y-107996014D01*
X135359567Y-107997892D01*
X135319653Y-108000794D01*
X135292334Y-108004937D01*
X135274119Y-108010538D01*
X135261514Y-108017815D01*
X135255304Y-108022976D01*
X135228020Y-108064832D01*
X135229133Y-108112495D01*
X135252398Y-108154247D01*
X135281129Y-108189729D01*
X136143127Y-108189729D01*
X136171858Y-108154247D01*
X136192758Y-108120002D01*
X136200590Y-108092037D01*
X136191523Y-108061396D01*
X136191523Y-108061396D01*
G37*
X136191523Y-108061396D02*
X136171858Y-108029826D01*
X136143127Y-107994344D01*
X135715034Y-107994344D01*
X135589810Y-107994457D01*
X135491153Y-107994941D01*
X135415570Y-107996014D01*
X135359567Y-107997892D01*
X135319653Y-108000794D01*
X135292334Y-108004937D01*
X135274119Y-108010538D01*
X135261514Y-108017815D01*
X135255304Y-108022976D01*
X135228020Y-108064832D01*
X135229133Y-108112495D01*
X135252398Y-108154247D01*
X135281129Y-108189729D01*
X136143127Y-108189729D01*
X136171858Y-108154247D01*
X136192758Y-108120002D01*
X136200590Y-108092037D01*
X136191523Y-108061396D01*
G36*
X136200461Y-107030323D02*
G01*
X136199957Y-106925535D01*
X136198904Y-106844201D01*
X136197124Y-106783020D01*
X136194443Y-106738689D01*
X136190686Y-106707906D01*
X136185675Y-106687369D01*
X136179237Y-106673775D01*
X136174288Y-106667197D01*
X136130971Y-106633056D01*
X136085997Y-106628926D01*
X136045140Y-106650024D01*
X136028814Y-106663821D01*
X136017682Y-106678668D01*
X136010750Y-106700185D01*
X136007023Y-106733992D01*
X136005506Y-106785708D01*
X136005206Y-106860953D01*
X136005205Y-106875731D01*
X136005205Y-107070025D01*
X135644495Y-107070025D01*
X135530799Y-107070153D01*
X135443315Y-107070734D01*
X135378198Y-107072064D01*
X135331602Y-107074440D01*
X135299681Y-107078156D01*
X135278588Y-107083508D01*
X135264477Y-107090793D01*
X135253726Y-107100084D01*
X135227304Y-107143929D01*
X135229386Y-107189700D01*
X135259531Y-107231210D01*
X135263267Y-107234259D01*
X135277390Y-107244188D01*
X135293914Y-107251752D01*
X135316854Y-107257271D01*
X135350227Y-107261067D01*
X135398045Y-107263458D01*
X135464326Y-107264766D01*
X135553082Y-107265309D01*
X135654037Y-107265409D01*
X136005205Y-107265409D01*
X136005205Y-107450950D01*
X136005744Y-107530573D01*
X136007843Y-107585696D01*
X136012229Y-107621868D01*
X136019624Y-107644638D01*
X136030755Y-107659553D01*
X136032690Y-107661364D01*
X136076943Y-107683142D01*
X136126971Y-107681216D01*
X136170530Y-107656179D01*
X136178980Y-107646496D01*
X136185679Y-107634012D01*
X136190831Y-107615397D01*
X136194639Y-107587323D01*
X136197303Y-107546459D01*
X136199028Y-107489478D01*
X136200016Y-107413048D01*
X136200468Y-107313843D01*
X136200588Y-107188531D01*
X136200590Y-107161867D01*
X136200461Y-107030323D01*
X136200461Y-107030323D01*
G37*
X136200461Y-107030323D02*
X136199957Y-106925535D01*
X136198904Y-106844201D01*
X136197124Y-106783020D01*
X136194443Y-106738689D01*
X136190686Y-106707906D01*
X136185675Y-106687369D01*
X136179237Y-106673775D01*
X136174288Y-106667197D01*
X136130971Y-106633056D01*
X136085997Y-106628926D01*
X136045140Y-106650024D01*
X136028814Y-106663821D01*
X136017682Y-106678668D01*
X136010750Y-106700185D01*
X136007023Y-106733992D01*
X136005506Y-106785708D01*
X136005206Y-106860953D01*
X136005205Y-106875731D01*
X136005205Y-107070025D01*
X135644495Y-107070025D01*
X135530799Y-107070153D01*
X135443315Y-107070734D01*
X135378198Y-107072064D01*
X135331602Y-107074440D01*
X135299681Y-107078156D01*
X135278588Y-107083508D01*
X135264477Y-107090793D01*
X135253726Y-107100084D01*
X135227304Y-107143929D01*
X135229386Y-107189700D01*
X135259531Y-107231210D01*
X135263267Y-107234259D01*
X135277390Y-107244188D01*
X135293914Y-107251752D01*
X135316854Y-107257271D01*
X135350227Y-107261067D01*
X135398045Y-107263458D01*
X135464326Y-107264766D01*
X135553082Y-107265309D01*
X135654037Y-107265409D01*
X136005205Y-107265409D01*
X136005205Y-107450950D01*
X136005744Y-107530573D01*
X136007843Y-107585696D01*
X136012229Y-107621868D01*
X136019624Y-107644638D01*
X136030755Y-107659553D01*
X136032690Y-107661364D01*
X136076943Y-107683142D01*
X136126971Y-107681216D01*
X136170530Y-107656179D01*
X136178980Y-107646496D01*
X136185679Y-107634012D01*
X136190831Y-107615397D01*
X136194639Y-107587323D01*
X136197303Y-107546459D01*
X136199028Y-107489478D01*
X136200016Y-107413048D01*
X136200468Y-107313843D01*
X136200588Y-107188531D01*
X136200590Y-107161867D01*
X136200461Y-107030323D01*
G36*
X136193312Y-105345141D02*
G01*
X136163699Y-105303365D01*
X136126808Y-105266475D01*
X135714838Y-105266475D01*
X135592514Y-105266571D01*
X135496602Y-105267028D01*
X135423456Y-105268097D01*
X135369430Y-105270029D01*
X135330877Y-105273077D01*
X135304152Y-105277491D01*
X135285606Y-105283524D01*
X135271595Y-105291426D01*
X135263267Y-105297625D01*
X135230551Y-105338539D01*
X135227000Y-105385518D01*
X135247063Y-105428456D01*
X135258908Y-105442644D01*
X135274642Y-105452128D01*
X135299978Y-105457849D01*
X135340630Y-105460747D01*
X135402312Y-105461762D01*
X135449962Y-105461859D01*
X135629465Y-105461859D01*
X135629465Y-106123161D01*
X135466167Y-106123161D01*
X135391495Y-106123845D01*
X135340176Y-106126581D01*
X135305523Y-106132396D01*
X135280845Y-106142316D01*
X135263267Y-106154311D01*
X135230643Y-106195454D01*
X135226780Y-106241983D01*
X135249968Y-106286527D01*
X135262124Y-106298688D01*
X135278239Y-106307277D01*
X135303340Y-106312942D01*
X135342456Y-106316331D01*
X135400614Y-106318092D01*
X135482842Y-106318872D01*
X135501714Y-106318964D01*
X135656643Y-106319608D01*
X135784326Y-106319940D01*
X135887573Y-106319832D01*
X135969197Y-106319155D01*
X136032008Y-106317782D01*
X136078819Y-106315584D01*
X136112441Y-106312434D01*
X136135685Y-106308202D01*
X136151364Y-106302762D01*
X136162289Y-106295985D01*
X136170530Y-106288486D01*
X136196893Y-106246067D01*
X136193312Y-106201828D01*
X136163699Y-106160052D01*
X136144593Y-106143147D01*
X136123489Y-106132371D01*
X136093432Y-106126359D01*
X136047467Y-106123744D01*
X135978640Y-106123161D01*
X135824850Y-106123161D01*
X135824850Y-105461859D01*
X135982661Y-105461859D01*
X136055364Y-105461184D01*
X136104455Y-105458474D01*
X136136364Y-105452699D01*
X136157522Y-105442831D01*
X136170530Y-105431800D01*
X136196893Y-105389381D01*
X136193312Y-105345141D01*
X136193312Y-105345141D01*
G37*
X136193312Y-105345141D02*
X136163699Y-105303365D01*
X136126808Y-105266475D01*
X135714838Y-105266475D01*
X135592514Y-105266571D01*
X135496602Y-105267028D01*
X135423456Y-105268097D01*
X135369430Y-105270029D01*
X135330877Y-105273077D01*
X135304152Y-105277491D01*
X135285606Y-105283524D01*
X135271595Y-105291426D01*
X135263267Y-105297625D01*
X135230551Y-105338539D01*
X135227000Y-105385518D01*
X135247063Y-105428456D01*
X135258908Y-105442644D01*
X135274642Y-105452128D01*
X135299978Y-105457849D01*
X135340630Y-105460747D01*
X135402312Y-105461762D01*
X135449962Y-105461859D01*
X135629465Y-105461859D01*
X135629465Y-106123161D01*
X135466167Y-106123161D01*
X135391495Y-106123845D01*
X135340176Y-106126581D01*
X135305523Y-106132396D01*
X135280845Y-106142316D01*
X135263267Y-106154311D01*
X135230643Y-106195454D01*
X135226780Y-106241983D01*
X135249968Y-106286527D01*
X135262124Y-106298688D01*
X135278239Y-106307277D01*
X135303340Y-106312942D01*
X135342456Y-106316331D01*
X135400614Y-106318092D01*
X135482842Y-106318872D01*
X135501714Y-106318964D01*
X135656643Y-106319608D01*
X135784326Y-106319940D01*
X135887573Y-106319832D01*
X135969197Y-106319155D01*
X136032008Y-106317782D01*
X136078819Y-106315584D01*
X136112441Y-106312434D01*
X136135685Y-106308202D01*
X136151364Y-106302762D01*
X136162289Y-106295985D01*
X136170530Y-106288486D01*
X136196893Y-106246067D01*
X136193312Y-106201828D01*
X136163699Y-106160052D01*
X136144593Y-106143147D01*
X136123489Y-106132371D01*
X136093432Y-106126359D01*
X136047467Y-106123744D01*
X135978640Y-106123161D01*
X135824850Y-106123161D01*
X135824850Y-105461859D01*
X135982661Y-105461859D01*
X136055364Y-105461184D01*
X136104455Y-105458474D01*
X136136364Y-105452699D01*
X136157522Y-105442831D01*
X136170530Y-105431800D01*
X136196893Y-105389381D01*
X136193312Y-105345141D01*
G36*
X144723067Y-117415318D02*
G01*
X144675828Y-117279071D01*
X144601473Y-117152221D01*
X144500013Y-117038933D01*
X144371457Y-116943372D01*
X144290428Y-116900446D01*
X144177092Y-116863295D01*
X144046249Y-116845288D01*
X143911735Y-116847283D01*
X143789842Y-116869423D01*
X143640893Y-116929936D01*
X143511691Y-117017686D01*
X143404777Y-117128212D01*
X143322694Y-117257054D01*
X143267984Y-117399753D01*
X143243190Y-117551849D01*
X143250853Y-117708881D01*
X143267228Y-117786286D01*
X143325911Y-117937141D01*
X143415457Y-118071125D01*
X143533107Y-118185006D01*
X143676098Y-118275552D01*
X143691714Y-118283212D01*
X143750314Y-118309694D01*
X143799666Y-118326322D01*
X143851730Y-118335350D01*
X143918461Y-118339032D01*
X143991071Y-118339643D01*
X144078309Y-118338633D01*
X144141376Y-118334072D01*
X144192364Y-118323666D01*
X144243367Y-118305121D01*
X144293687Y-118282230D01*
X144436530Y-118196846D01*
X144552190Y-118091699D01*
X144640675Y-117970955D01*
X144701995Y-117838779D01*
X144736161Y-117699337D01*
X144743182Y-117556795D01*
X144723067Y-117415318D01*
X144723067Y-117415318D01*
G37*
X144723067Y-117415318D02*
X144675828Y-117279071D01*
X144601473Y-117152221D01*
X144500013Y-117038933D01*
X144371457Y-116943372D01*
X144290428Y-116900446D01*
X144177092Y-116863295D01*
X144046249Y-116845288D01*
X143911735Y-116847283D01*
X143789842Y-116869423D01*
X143640893Y-116929936D01*
X143511691Y-117017686D01*
X143404777Y-117128212D01*
X143322694Y-117257054D01*
X143267984Y-117399753D01*
X143243190Y-117551849D01*
X143250853Y-117708881D01*
X143267228Y-117786286D01*
X143325911Y-117937141D01*
X143415457Y-118071125D01*
X143533107Y-118185006D01*
X143676098Y-118275552D01*
X143691714Y-118283212D01*
X143750314Y-118309694D01*
X143799666Y-118326322D01*
X143851730Y-118335350D01*
X143918461Y-118339032D01*
X143991071Y-118339643D01*
X144078309Y-118338633D01*
X144141376Y-118334072D01*
X144192364Y-118323666D01*
X144243367Y-118305121D01*
X144293687Y-118282230D01*
X144436530Y-118196846D01*
X144552190Y-118091699D01*
X144640675Y-117970955D01*
X144701995Y-117838779D01*
X144736161Y-117699337D01*
X144743182Y-117556795D01*
X144723067Y-117415318D01*
G36*
X143506911Y-104771429D02*
G01*
X143506277Y-104617124D01*
X143505958Y-104564679D01*
X143501214Y-103843500D01*
X140734428Y-103834429D01*
X140359244Y-103833231D01*
X140018583Y-103832168D01*
X139710682Y-103831173D01*
X139433779Y-103830177D01*
X139186112Y-103829112D01*
X138965919Y-103827909D01*
X138771438Y-103826501D01*
X138600906Y-103824818D01*
X138452560Y-103822794D01*
X138324639Y-103820359D01*
X138215380Y-103817446D01*
X138123021Y-103813985D01*
X138045800Y-103809910D01*
X137981954Y-103805151D01*
X137929722Y-103799640D01*
X137887340Y-103793309D01*
X137853047Y-103786090D01*
X137825080Y-103777915D01*
X137801676Y-103768715D01*
X137781075Y-103758423D01*
X137761513Y-103746969D01*
X137741228Y-103734285D01*
X137718457Y-103720305D01*
X137713607Y-103717439D01*
X137631567Y-103669360D01*
X137641071Y-105059072D01*
X137793705Y-105068143D01*
X137866955Y-105073082D01*
X137909304Y-105078229D01*
X137926108Y-105085214D01*
X137922723Y-105095663D01*
X137913040Y-105104429D01*
X137877771Y-105142612D01*
X137832437Y-105204845D01*
X137782454Y-105282359D01*
X137733239Y-105366387D01*
X137690209Y-105448161D01*
X137661899Y-105510948D01*
X137615376Y-105658046D01*
X137582421Y-105826820D01*
X137564293Y-106004809D01*
X137562250Y-106179553D01*
X137577553Y-106338593D01*
X137577991Y-106341212D01*
X137632598Y-106558832D01*
X137719599Y-106762545D01*
X137837124Y-106950387D01*
X137983303Y-107120393D01*
X138156266Y-107270598D01*
X138354143Y-107399036D01*
X138575064Y-107503743D01*
X138738714Y-107560754D01*
X138875625Y-107598349D01*
X139008202Y-107626229D01*
X139144498Y-107645247D01*
X139292567Y-107656255D01*
X139460463Y-107660105D01*
X139597560Y-107658400D01*
X139597560Y-106319641D01*
X139367671Y-106313306D01*
X139169889Y-106293321D01*
X139002461Y-106259073D01*
X138863631Y-106209945D01*
X138751642Y-106145324D01*
X138664741Y-106064595D01*
X138603308Y-105971409D01*
X138580374Y-105922920D01*
X138566625Y-105880866D01*
X138560334Y-105833980D01*
X138559778Y-105770996D01*
X138562227Y-105703143D01*
X138573996Y-105569705D01*
X138597045Y-105464168D01*
X138608590Y-105431000D01*
X138642689Y-105355265D01*
X138685509Y-105275386D01*
X138706943Y-105240500D01*
X138766444Y-105149786D01*
X140652416Y-105149786D01*
X140712229Y-105249572D01*
X140779815Y-105388733D01*
X140819786Y-105530913D01*
X140832378Y-105670910D01*
X140817827Y-105803526D01*
X140776368Y-105923560D01*
X140708237Y-106025812D01*
X140675534Y-106058805D01*
X140568381Y-106138333D01*
X140438673Y-106202701D01*
X140284186Y-106252447D01*
X140102698Y-106288109D01*
X139891985Y-106310225D01*
X139649825Y-106319333D01*
X139597560Y-106319641D01*
X139597560Y-107658400D01*
X139654626Y-107657690D01*
X139953287Y-107642395D01*
X140222675Y-107611642D01*
X140466715Y-107564619D01*
X140689330Y-107500518D01*
X140894444Y-107418528D01*
X140955254Y-107389270D01*
X141153560Y-107271419D01*
X141329788Y-107129004D01*
X141481092Y-106965371D01*
X141604629Y-106783869D01*
X141697553Y-106587847D01*
X141735885Y-106470345D01*
X141758641Y-106354946D01*
X141772180Y-106216093D01*
X141776508Y-106065426D01*
X141771632Y-105914587D01*
X141757556Y-105775215D01*
X141735475Y-105663309D01*
X141692172Y-105530116D01*
X141636489Y-105401021D01*
X141574064Y-105288072D01*
X141531697Y-105227957D01*
X141500193Y-105186490D01*
X141481010Y-105157455D01*
X141478286Y-105150850D01*
X141495837Y-105148802D01*
X141546125Y-105146893D01*
X141625600Y-105145164D01*
X141730714Y-105143659D01*
X141857917Y-105142419D01*
X142003661Y-105141487D01*
X142164397Y-105140905D01*
X142328116Y-105140714D01*
X142537812Y-105140821D01*
X142714604Y-105141342D01*
X142861874Y-105142584D01*
X142983003Y-105144852D01*
X143081373Y-105148450D01*
X143160366Y-105153683D01*
X143223362Y-105160856D01*
X143273745Y-105170274D01*
X143314895Y-105182242D01*
X143350194Y-105197065D01*
X143383023Y-105215048D01*
X143416765Y-105236495D01*
X143420943Y-105239255D01*
X143464644Y-105266917D01*
X143494695Y-105283618D01*
X143501033Y-105285857D01*
X143503033Y-105268357D01*
X143504660Y-105218426D01*
X143505888Y-105139915D01*
X143506689Y-105036677D01*
X143507039Y-104912564D01*
X143506911Y-104771429D01*
X143506911Y-104771429D01*
G37*
X143506911Y-104771429D02*
X143506277Y-104617124D01*
X143505958Y-104564679D01*
X143501214Y-103843500D01*
X140734428Y-103834429D01*
X140359244Y-103833231D01*
X140018583Y-103832168D01*
X139710682Y-103831173D01*
X139433779Y-103830177D01*
X139186112Y-103829112D01*
X138965919Y-103827909D01*
X138771438Y-103826501D01*
X138600906Y-103824818D01*
X138452560Y-103822794D01*
X138324639Y-103820359D01*
X138215380Y-103817446D01*
X138123021Y-103813985D01*
X138045800Y-103809910D01*
X137981954Y-103805151D01*
X137929722Y-103799640D01*
X137887340Y-103793309D01*
X137853047Y-103786090D01*
X137825080Y-103777915D01*
X137801676Y-103768715D01*
X137781075Y-103758423D01*
X137761513Y-103746969D01*
X137741228Y-103734285D01*
X137718457Y-103720305D01*
X137713607Y-103717439D01*
X137631567Y-103669360D01*
X137641071Y-105059072D01*
X137793705Y-105068143D01*
X137866955Y-105073082D01*
X137909304Y-105078229D01*
X137926108Y-105085214D01*
X137922723Y-105095663D01*
X137913040Y-105104429D01*
X137877771Y-105142612D01*
X137832437Y-105204845D01*
X137782454Y-105282359D01*
X137733239Y-105366387D01*
X137690209Y-105448161D01*
X137661899Y-105510948D01*
X137615376Y-105658046D01*
X137582421Y-105826820D01*
X137564293Y-106004809D01*
X137562250Y-106179553D01*
X137577553Y-106338593D01*
X137577991Y-106341212D01*
X137632598Y-106558832D01*
X137719599Y-106762545D01*
X137837124Y-106950387D01*
X137983303Y-107120393D01*
X138156266Y-107270598D01*
X138354143Y-107399036D01*
X138575064Y-107503743D01*
X138738714Y-107560754D01*
X138875625Y-107598349D01*
X139008202Y-107626229D01*
X139144498Y-107645247D01*
X139292567Y-107656255D01*
X139460463Y-107660105D01*
X139597560Y-107658400D01*
X139597560Y-106319641D01*
X139367671Y-106313306D01*
X139169889Y-106293321D01*
X139002461Y-106259073D01*
X138863631Y-106209945D01*
X138751642Y-106145324D01*
X138664741Y-106064595D01*
X138603308Y-105971409D01*
X138580374Y-105922920D01*
X138566625Y-105880866D01*
X138560334Y-105833980D01*
X138559778Y-105770996D01*
X138562227Y-105703143D01*
X138573996Y-105569705D01*
X138597045Y-105464168D01*
X138608590Y-105431000D01*
X138642689Y-105355265D01*
X138685509Y-105275386D01*
X138706943Y-105240500D01*
X138766444Y-105149786D01*
X140652416Y-105149786D01*
X140712229Y-105249572D01*
X140779815Y-105388733D01*
X140819786Y-105530913D01*
X140832378Y-105670910D01*
X140817827Y-105803526D01*
X140776368Y-105923560D01*
X140708237Y-106025812D01*
X140675534Y-106058805D01*
X140568381Y-106138333D01*
X140438673Y-106202701D01*
X140284186Y-106252447D01*
X140102698Y-106288109D01*
X139891985Y-106310225D01*
X139649825Y-106319333D01*
X139597560Y-106319641D01*
X139597560Y-107658400D01*
X139654626Y-107657690D01*
X139953287Y-107642395D01*
X140222675Y-107611642D01*
X140466715Y-107564619D01*
X140689330Y-107500518D01*
X140894444Y-107418528D01*
X140955254Y-107389270D01*
X141153560Y-107271419D01*
X141329788Y-107129004D01*
X141481092Y-106965371D01*
X141604629Y-106783869D01*
X141697553Y-106587847D01*
X141735885Y-106470345D01*
X141758641Y-106354946D01*
X141772180Y-106216093D01*
X141776508Y-106065426D01*
X141771632Y-105914587D01*
X141757556Y-105775215D01*
X141735475Y-105663309D01*
X141692172Y-105530116D01*
X141636489Y-105401021D01*
X141574064Y-105288072D01*
X141531697Y-105227957D01*
X141500193Y-105186490D01*
X141481010Y-105157455D01*
X141478286Y-105150850D01*
X141495837Y-105148802D01*
X141546125Y-105146893D01*
X141625600Y-105145164D01*
X141730714Y-105143659D01*
X141857917Y-105142419D01*
X142003661Y-105141487D01*
X142164397Y-105140905D01*
X142328116Y-105140714D01*
X142537812Y-105140821D01*
X142714604Y-105141342D01*
X142861874Y-105142584D01*
X142983003Y-105144852D01*
X143081373Y-105148450D01*
X143160366Y-105153683D01*
X143223362Y-105160856D01*
X143273745Y-105170274D01*
X143314895Y-105182242D01*
X143350194Y-105197065D01*
X143383023Y-105215048D01*
X143416765Y-105236495D01*
X143420943Y-105239255D01*
X143464644Y-105266917D01*
X143494695Y-105283618D01*
X143501033Y-105285857D01*
X143503033Y-105268357D01*
X143504660Y-105218426D01*
X143505888Y-105139915D01*
X143506689Y-105036677D01*
X143507039Y-104912564D01*
X143506911Y-104771429D01*
G36*
X141779270Y-109627368D02*
G01*
X141772465Y-109537477D01*
X141738247Y-109280285D01*
X141683669Y-109052515D01*
X141607980Y-108853057D01*
X141510430Y-108680803D01*
X141390268Y-108534641D01*
X141246742Y-108413464D01*
X141079102Y-108316161D01*
X140897714Y-108245109D01*
X140839854Y-108227073D01*
X140785671Y-108211368D01*
X140732248Y-108197808D01*
X140676667Y-108186208D01*
X140616012Y-108176383D01*
X140547365Y-108168147D01*
X140467810Y-108161316D01*
X140374428Y-108155705D01*
X140264304Y-108151128D01*
X140134519Y-108147400D01*
X139982158Y-108144335D01*
X139804302Y-108141750D01*
X139598035Y-108139458D01*
X139360439Y-108137275D01*
X139174143Y-108135714D01*
X137895071Y-108125215D01*
X137771982Y-108057179D01*
X137712683Y-108024962D01*
X137666623Y-108000988D01*
X137642107Y-107989550D01*
X137640447Y-107989143D01*
X137638546Y-108006625D01*
X137636795Y-108056426D01*
X137635242Y-108134579D01*
X137633938Y-108237118D01*
X137632930Y-108360078D01*
X137632269Y-108499490D01*
X137632003Y-108651389D01*
X137632000Y-108669500D01*
X137632000Y-109349857D01*
X137786214Y-109349857D01*
X137855906Y-109351018D01*
X137909206Y-109354113D01*
X137937783Y-109358568D01*
X137940428Y-109360537D01*
X137929347Y-109378545D01*
X137900264Y-109415607D01*
X137859421Y-109463778D01*
X137858476Y-109464859D01*
X137793029Y-109552765D01*
X137727312Y-109663783D01*
X137667781Y-109785369D01*
X137620891Y-109904979D01*
X137604867Y-109957643D01*
X137584515Y-110062449D01*
X137571528Y-110191050D01*
X137566091Y-110331675D01*
X137568389Y-110472552D01*
X137578608Y-110601907D01*
X137593311Y-110692429D01*
X137658501Y-110914420D01*
X137751406Y-111114271D01*
X137870874Y-111290681D01*
X138015753Y-111442350D01*
X138184890Y-111567976D01*
X138377133Y-111666259D01*
X138493786Y-111708659D01*
X138607167Y-111735232D01*
X138743278Y-111752842D01*
X138889563Y-111760990D01*
X138910849Y-111760722D01*
X138910849Y-110533679D01*
X138802150Y-110523504D01*
X138711815Y-110489622D01*
X138628005Y-110427000D01*
X138603429Y-110402948D01*
X138536989Y-110317449D01*
X138494426Y-110218627D01*
X138473823Y-110100232D01*
X138472306Y-109975555D01*
X138482323Y-109857302D01*
X138501915Y-109766761D01*
X138516630Y-109727440D01*
X138556735Y-109656568D01*
X138613137Y-109581475D01*
X138676439Y-109512962D01*
X138737245Y-109461828D01*
X138759551Y-109448250D01*
X138790788Y-109437695D01*
X138840493Y-109430190D01*
X138913413Y-109425387D01*
X139014297Y-109422935D01*
X139110311Y-109422429D01*
X139222250Y-109422772D01*
X139303191Y-109424157D01*
X139358415Y-109427119D01*
X139393206Y-109432192D01*
X139412846Y-109439910D01*
X139422620Y-109450808D01*
X139424176Y-109454179D01*
X139428971Y-109483471D01*
X139432892Y-109541244D01*
X139435586Y-109619696D01*
X139436701Y-109711026D01*
X139436702Y-109730857D01*
X139434754Y-109852937D01*
X139428959Y-109947251D01*
X139418525Y-110022193D01*
X139403286Y-110084097D01*
X139345216Y-110237651D01*
X139273821Y-110358068D01*
X139187961Y-110446390D01*
X139086493Y-110503661D01*
X138968275Y-110530922D01*
X138910849Y-110533679D01*
X138910849Y-111760722D01*
X139033467Y-111759177D01*
X139162435Y-111746904D01*
X139214540Y-111737330D01*
X139408003Y-111676199D01*
X139586007Y-111583243D01*
X139746845Y-111460217D01*
X139888810Y-111308876D01*
X140010194Y-111130975D01*
X140109291Y-110928268D01*
X140169467Y-110755929D01*
X140201081Y-110640747D01*
X140225646Y-110530577D01*
X140243961Y-110418281D01*
X140256822Y-110296725D01*
X140265028Y-110158771D01*
X140269376Y-109997285D01*
X140270600Y-109851285D01*
X140271785Y-109418355D01*
X140401920Y-109426649D01*
X140543117Y-109450199D01*
X140664482Y-109500297D01*
X140762983Y-109574809D01*
X140835591Y-109671601D01*
X140871021Y-109756829D01*
X140893350Y-109878944D01*
X140896557Y-110024317D01*
X140881823Y-110186133D01*
X140850330Y-110357578D01*
X140803260Y-110531837D01*
X140741797Y-110702096D01*
X140685583Y-110825824D01*
X140656717Y-110885353D01*
X140636557Y-110930758D01*
X140628690Y-110953850D01*
X140628942Y-110955103D01*
X140646563Y-110963071D01*
X140693267Y-110982969D01*
X140764582Y-111012923D01*
X140856031Y-111051061D01*
X140963141Y-111095512D01*
X141072451Y-111140695D01*
X141510260Y-111321333D01*
X141531364Y-111192845D01*
X141541953Y-111137154D01*
X141559737Y-111053436D01*
X141583102Y-110948861D01*
X141610435Y-110830601D01*
X141640119Y-110705828D01*
X141652182Y-110656143D01*
X141702038Y-110441193D01*
X141739416Y-110253005D01*
X141765073Y-110084554D01*
X141779765Y-109928814D01*
X141784245Y-109778760D01*
X141779270Y-109627368D01*
X141779270Y-109627368D01*
G37*
X141779270Y-109627368D02*
X141772465Y-109537477D01*
X141738247Y-109280285D01*
X141683669Y-109052515D01*
X141607980Y-108853057D01*
X141510430Y-108680803D01*
X141390268Y-108534641D01*
X141246742Y-108413464D01*
X141079102Y-108316161D01*
X140897714Y-108245109D01*
X140839854Y-108227073D01*
X140785671Y-108211368D01*
X140732248Y-108197808D01*
X140676667Y-108186208D01*
X140616012Y-108176383D01*
X140547365Y-108168147D01*
X140467810Y-108161316D01*
X140374428Y-108155705D01*
X140264304Y-108151128D01*
X140134519Y-108147400D01*
X139982158Y-108144335D01*
X139804302Y-108141750D01*
X139598035Y-108139458D01*
X139360439Y-108137275D01*
X139174143Y-108135714D01*
X137895071Y-108125215D01*
X137771982Y-108057179D01*
X137712683Y-108024962D01*
X137666623Y-108000988D01*
X137642107Y-107989550D01*
X137640447Y-107989143D01*
X137638546Y-108006625D01*
X137636795Y-108056426D01*
X137635242Y-108134579D01*
X137633938Y-108237118D01*
X137632930Y-108360078D01*
X137632269Y-108499490D01*
X137632003Y-108651389D01*
X137632000Y-108669500D01*
X137632000Y-109349857D01*
X137786214Y-109349857D01*
X137855906Y-109351018D01*
X137909206Y-109354113D01*
X137937783Y-109358568D01*
X137940428Y-109360537D01*
X137929347Y-109378545D01*
X137900264Y-109415607D01*
X137859421Y-109463778D01*
X137858476Y-109464859D01*
X137793029Y-109552765D01*
X137727312Y-109663783D01*
X137667781Y-109785369D01*
X137620891Y-109904979D01*
X137604867Y-109957643D01*
X137584515Y-110062449D01*
X137571528Y-110191050D01*
X137566091Y-110331675D01*
X137568389Y-110472552D01*
X137578608Y-110601907D01*
X137593311Y-110692429D01*
X137658501Y-110914420D01*
X137751406Y-111114271D01*
X137870874Y-111290681D01*
X138015753Y-111442350D01*
X138184890Y-111567976D01*
X138377133Y-111666259D01*
X138493786Y-111708659D01*
X138607167Y-111735232D01*
X138743278Y-111752842D01*
X138889563Y-111760990D01*
X138910849Y-111760722D01*
X138910849Y-110533679D01*
X138802150Y-110523504D01*
X138711815Y-110489622D01*
X138628005Y-110427000D01*
X138603429Y-110402948D01*
X138536989Y-110317449D01*
X138494426Y-110218627D01*
X138473823Y-110100232D01*
X138472306Y-109975555D01*
X138482323Y-109857302D01*
X138501915Y-109766761D01*
X138516630Y-109727440D01*
X138556735Y-109656568D01*
X138613137Y-109581475D01*
X138676439Y-109512962D01*
X138737245Y-109461828D01*
X138759551Y-109448250D01*
X138790788Y-109437695D01*
X138840493Y-109430190D01*
X138913413Y-109425387D01*
X139014297Y-109422935D01*
X139110311Y-109422429D01*
X139222250Y-109422772D01*
X139303191Y-109424157D01*
X139358415Y-109427119D01*
X139393206Y-109432192D01*
X139412846Y-109439910D01*
X139422620Y-109450808D01*
X139424176Y-109454179D01*
X139428971Y-109483471D01*
X139432892Y-109541244D01*
X139435586Y-109619696D01*
X139436701Y-109711026D01*
X139436702Y-109730857D01*
X139434754Y-109852937D01*
X139428959Y-109947251D01*
X139418525Y-110022193D01*
X139403286Y-110084097D01*
X139345216Y-110237651D01*
X139273821Y-110358068D01*
X139187961Y-110446390D01*
X139086493Y-110503661D01*
X138968275Y-110530922D01*
X138910849Y-110533679D01*
X138910849Y-111760722D01*
X139033467Y-111759177D01*
X139162435Y-111746904D01*
X139214540Y-111737330D01*
X139408003Y-111676199D01*
X139586007Y-111583243D01*
X139746845Y-111460217D01*
X139888810Y-111308876D01*
X140010194Y-111130975D01*
X140109291Y-110928268D01*
X140169467Y-110755929D01*
X140201081Y-110640747D01*
X140225646Y-110530577D01*
X140243961Y-110418281D01*
X140256822Y-110296725D01*
X140265028Y-110158771D01*
X140269376Y-109997285D01*
X140270600Y-109851285D01*
X140271785Y-109418355D01*
X140401920Y-109426649D01*
X140543117Y-109450199D01*
X140664482Y-109500297D01*
X140762983Y-109574809D01*
X140835591Y-109671601D01*
X140871021Y-109756829D01*
X140893350Y-109878944D01*
X140896557Y-110024317D01*
X140881823Y-110186133D01*
X140850330Y-110357578D01*
X140803260Y-110531837D01*
X140741797Y-110702096D01*
X140685583Y-110825824D01*
X140656717Y-110885353D01*
X140636557Y-110930758D01*
X140628690Y-110953850D01*
X140628942Y-110955103D01*
X140646563Y-110963071D01*
X140693267Y-110982969D01*
X140764582Y-111012923D01*
X140856031Y-111051061D01*
X140963141Y-111095512D01*
X141072451Y-111140695D01*
X141510260Y-111321333D01*
X141531364Y-111192845D01*
X141541953Y-111137154D01*
X141559737Y-111053436D01*
X141583102Y-110948861D01*
X141610435Y-110830601D01*
X141640119Y-110705828D01*
X141652182Y-110656143D01*
X141702038Y-110441193D01*
X141739416Y-110253005D01*
X141765073Y-110084554D01*
X141779765Y-109928814D01*
X141784245Y-109778760D01*
X141779270Y-109627368D01*
G36*
X143237769Y-113231622D02*
G01*
X143216351Y-113035981D01*
X143178015Y-112846438D01*
X143120762Y-112655283D01*
X143042591Y-112454804D01*
X142941504Y-112237292D01*
X142921924Y-112198120D01*
X142877638Y-112108228D01*
X142837761Y-112023447D01*
X142806102Y-111952145D01*
X142786468Y-111902690D01*
X142783996Y-111895092D01*
X142762183Y-111822286D01*
X142288056Y-112148197D01*
X142172177Y-112227877D01*
X142066306Y-112300728D01*
X141974038Y-112364270D01*
X141898967Y-112416028D01*
X141844687Y-112453523D01*
X141814793Y-112474277D01*
X141810059Y-112477649D01*
X141819958Y-112491345D01*
X141849715Y-112525057D01*
X141893927Y-112572756D01*
X141918916Y-112599080D01*
X142037544Y-112748228D01*
X142127687Y-112915732D01*
X142177064Y-113060072D01*
X142192571Y-113146717D01*
X142202021Y-113255204D01*
X142205239Y-113372773D01*
X142202049Y-113486666D01*
X142192276Y-113584121D01*
X142184791Y-113623010D01*
X142124488Y-113798288D01*
X142032410Y-113956235D01*
X141908727Y-114096732D01*
X141753607Y-114219665D01*
X141567219Y-114324915D01*
X141349730Y-114412365D01*
X141101308Y-114481900D01*
X140888643Y-114523225D01*
X140794759Y-114534006D01*
X140673476Y-114541352D01*
X140533507Y-114545333D01*
X140383569Y-114546021D01*
X140232378Y-114543486D01*
X140088649Y-114537800D01*
X139961097Y-114529033D01*
X139858438Y-114517256D01*
X139842599Y-114514707D01*
X139587464Y-114458519D01*
X139361658Y-114381964D01*
X139164169Y-114284574D01*
X138993986Y-114165886D01*
X138901978Y-114081637D01*
X138777057Y-113930230D01*
X138684460Y-113764183D01*
X138624691Y-113586299D01*
X138598254Y-113399378D01*
X138605652Y-113206222D01*
X138647389Y-113009631D01*
X138688229Y-112893403D01*
X138770010Y-112732562D01*
X138887322Y-112566787D01*
X138966655Y-112473927D01*
X139012571Y-112421786D01*
X139046258Y-112380820D01*
X139062490Y-112357502D01*
X139062985Y-112354607D01*
X139046399Y-112344200D01*
X139002568Y-112317233D01*
X138935252Y-112276004D01*
X138848206Y-112222811D01*
X138745190Y-112159950D01*
X138629959Y-112089719D01*
X138565769Y-112050628D01*
X138075323Y-111752036D01*
X137891085Y-112124839D01*
X137824907Y-112259631D01*
X137772722Y-112368825D01*
X137731940Y-112459093D01*
X137699967Y-112537112D01*
X137674213Y-112609556D01*
X137652086Y-112683099D01*
X137630993Y-112764416D01*
X137612470Y-112842357D01*
X137598137Y-112911634D01*
X137587306Y-112984083D01*
X137579374Y-113066958D01*
X137573742Y-113167512D01*
X137569808Y-113292997D01*
X137568109Y-113377572D01*
X137566950Y-113498246D01*
X137567535Y-113613958D01*
X137569696Y-113717049D01*
X137573268Y-113799862D01*
X137578083Y-113854740D01*
X137578563Y-113857992D01*
X137640214Y-114142957D01*
X137733715Y-114410558D01*
X137859007Y-114660703D01*
X138016026Y-114893296D01*
X138204711Y-115108243D01*
X138425000Y-115305450D01*
X138620786Y-115448273D01*
X138877051Y-115600320D01*
X139147683Y-115723227D01*
X139434851Y-115817590D01*
X139740724Y-115884001D01*
X140067472Y-115923056D01*
X140399261Y-115935360D01*
X140720221Y-115925241D01*
X141016354Y-115893439D01*
X141292655Y-115838946D01*
X141554119Y-115760750D01*
X141805742Y-115657841D01*
X141831810Y-115645553D01*
X142075493Y-115510180D01*
X142307382Y-115343911D01*
X142522677Y-115151459D01*
X142716578Y-114937534D01*
X142884285Y-114706845D01*
X143007304Y-114491891D01*
X143103655Y-114274742D01*
X143173449Y-114057132D01*
X143218587Y-113830638D01*
X143240969Y-113586834D01*
X143244269Y-113441072D01*
X143237769Y-113231622D01*
X143237769Y-113231622D01*
G37*
X143237769Y-113231622D02*
X143216351Y-113035981D01*
X143178015Y-112846438D01*
X143120762Y-112655283D01*
X143042591Y-112454804D01*
X142941504Y-112237292D01*
X142921924Y-112198120D01*
X142877638Y-112108228D01*
X142837761Y-112023447D01*
X142806102Y-111952145D01*
X142786468Y-111902690D01*
X142783996Y-111895092D01*
X142762183Y-111822286D01*
X142288056Y-112148197D01*
X142172177Y-112227877D01*
X142066306Y-112300728D01*
X141974038Y-112364270D01*
X141898967Y-112416028D01*
X141844687Y-112453523D01*
X141814793Y-112474277D01*
X141810059Y-112477649D01*
X141819958Y-112491345D01*
X141849715Y-112525057D01*
X141893927Y-112572756D01*
X141918916Y-112599080D01*
X142037544Y-112748228D01*
X142127687Y-112915732D01*
X142177064Y-113060072D01*
X142192571Y-113146717D01*
X142202021Y-113255204D01*
X142205239Y-113372773D01*
X142202049Y-113486666D01*
X142192276Y-113584121D01*
X142184791Y-113623010D01*
X142124488Y-113798288D01*
X142032410Y-113956235D01*
X141908727Y-114096732D01*
X141753607Y-114219665D01*
X141567219Y-114324915D01*
X141349730Y-114412365D01*
X141101308Y-114481900D01*
X140888643Y-114523225D01*
X140794759Y-114534006D01*
X140673476Y-114541352D01*
X140533507Y-114545333D01*
X140383569Y-114546021D01*
X140232378Y-114543486D01*
X140088649Y-114537800D01*
X139961097Y-114529033D01*
X139858438Y-114517256D01*
X139842599Y-114514707D01*
X139587464Y-114458519D01*
X139361658Y-114381964D01*
X139164169Y-114284574D01*
X138993986Y-114165886D01*
X138901978Y-114081637D01*
X138777057Y-113930230D01*
X138684460Y-113764183D01*
X138624691Y-113586299D01*
X138598254Y-113399378D01*
X138605652Y-113206222D01*
X138647389Y-113009631D01*
X138688229Y-112893403D01*
X138770010Y-112732562D01*
X138887322Y-112566787D01*
X138966655Y-112473927D01*
X139012571Y-112421786D01*
X139046258Y-112380820D01*
X139062490Y-112357502D01*
X139062985Y-112354607D01*
X139046399Y-112344200D01*
X139002568Y-112317233D01*
X138935252Y-112276004D01*
X138848206Y-112222811D01*
X138745190Y-112159950D01*
X138629959Y-112089719D01*
X138565769Y-112050628D01*
X138075323Y-111752036D01*
X137891085Y-112124839D01*
X137824907Y-112259631D01*
X137772722Y-112368825D01*
X137731940Y-112459093D01*
X137699967Y-112537112D01*
X137674213Y-112609556D01*
X137652086Y-112683099D01*
X137630993Y-112764416D01*
X137612470Y-112842357D01*
X137598137Y-112911634D01*
X137587306Y-112984083D01*
X137579374Y-113066958D01*
X137573742Y-113167512D01*
X137569808Y-113292997D01*
X137568109Y-113377572D01*
X137566950Y-113498246D01*
X137567535Y-113613958D01*
X137569696Y-113717049D01*
X137573268Y-113799862D01*
X137578083Y-113854740D01*
X137578563Y-113857992D01*
X137640214Y-114142957D01*
X137733715Y-114410558D01*
X137859007Y-114660703D01*
X138016026Y-114893296D01*
X138204711Y-115108243D01*
X138425000Y-115305450D01*
X138620786Y-115448273D01*
X138877051Y-115600320D01*
X139147683Y-115723227D01*
X139434851Y-115817590D01*
X139740724Y-115884001D01*
X140067472Y-115923056D01*
X140399261Y-115935360D01*
X140720221Y-115925241D01*
X141016354Y-115893439D01*
X141292655Y-115838946D01*
X141554119Y-115760750D01*
X141805742Y-115657841D01*
X141831810Y-115645553D01*
X142075493Y-115510180D01*
X142307382Y-115343911D01*
X142522677Y-115151459D01*
X142716578Y-114937534D01*
X142884285Y-114706845D01*
X143007304Y-114491891D01*
X143103655Y-114274742D01*
X143173449Y-114057132D01*
X143218587Y-113830638D01*
X143240969Y-113586834D01*
X143244269Y-113441072D01*
X143237769Y-113231622D01*
G36*
X144145340Y-121683089D02*
G01*
X144145293Y-121333540D01*
X144145286Y-121170830D01*
X144145285Y-118566429D01*
X143991762Y-118566429D01*
X143804937Y-118550043D01*
X143632633Y-118500588D01*
X143473825Y-118417620D01*
X143327490Y-118300695D01*
X143287968Y-118261136D01*
X143175862Y-118118830D01*
X143094101Y-117961922D01*
X143042647Y-117795072D01*
X143021463Y-117622939D01*
X143030513Y-117450185D01*
X143069758Y-117281470D01*
X143139162Y-117121454D01*
X143238689Y-116974798D01*
X143298735Y-116908932D01*
X143445957Y-116786192D01*
X143607853Y-116696188D01*
X143782573Y-116639706D01*
X143968265Y-116617529D01*
X143986533Y-116617234D01*
X144145280Y-116616072D01*
X144145283Y-116546300D01*
X144136882Y-116484405D01*
X144116444Y-116427865D01*
X144114333Y-116424128D01*
X144107707Y-116411358D01*
X144102546Y-116399632D01*
X144097349Y-116388906D01*
X144090610Y-116379139D01*
X144080829Y-116370288D01*
X144066500Y-116362311D01*
X144046122Y-116355165D01*
X144018192Y-116348808D01*
X143981205Y-116343198D01*
X143933660Y-116338293D01*
X143874053Y-116334049D01*
X143800881Y-116330424D01*
X143712641Y-116327377D01*
X143607830Y-116324864D01*
X143484945Y-116322844D01*
X143342483Y-116321274D01*
X143178940Y-116320112D01*
X142992814Y-116319314D01*
X142782602Y-116318840D01*
X142546800Y-116318646D01*
X142283906Y-116318690D01*
X141992416Y-116318930D01*
X141670828Y-116319323D01*
X141317638Y-116319827D01*
X140931343Y-116320400D01*
X140510440Y-116320999D01*
X140459160Y-116321068D01*
X140035574Y-116321605D01*
X139646770Y-116322061D01*
X139291247Y-116322484D01*
X138967502Y-116322921D01*
X138674034Y-116323422D01*
X138409339Y-116324035D01*
X138171915Y-116324808D01*
X137960260Y-116325789D01*
X137772871Y-116327026D01*
X137608246Y-116328568D01*
X137464883Y-116330463D01*
X137341280Y-116332759D01*
X137235933Y-116335504D01*
X137147341Y-116338747D01*
X137074000Y-116342536D01*
X137014410Y-116346919D01*
X136967067Y-116351945D01*
X136930469Y-116357661D01*
X136903114Y-116364116D01*
X136883498Y-116371359D01*
X136870121Y-116379437D01*
X136861479Y-116388398D01*
X136856070Y-116398292D01*
X136852392Y-116409165D01*
X136848942Y-116421067D01*
X136844218Y-116434046D01*
X136842780Y-116437217D01*
X136839549Y-116447181D01*
X136836580Y-116463859D01*
X136833863Y-116488707D01*
X136831387Y-116523180D01*
X136829142Y-116568736D01*
X136827117Y-116626830D01*
X136825302Y-116698919D01*
X136823685Y-116786458D01*
X136822257Y-116890905D01*
X136821007Y-117013715D01*
X136819924Y-117156345D01*
X136818998Y-117320251D01*
X136818218Y-117506890D01*
X136817574Y-117717716D01*
X136817054Y-117954188D01*
X136816649Y-118217761D01*
X136816348Y-118509890D01*
X136816140Y-118832034D01*
X136816015Y-119185647D01*
X136815962Y-119572186D01*
X136815971Y-119993108D01*
X136815984Y-120129456D01*
X136816053Y-120559716D01*
X136816166Y-120955164D01*
X136816335Y-121317273D01*
X136816570Y-121647517D01*
X136816884Y-121947371D01*
X136817287Y-122218308D01*
X136817793Y-122461800D01*
X136818411Y-122679323D01*
X136819154Y-122872350D01*
X136820032Y-123042354D01*
X136821059Y-123190810D01*
X136822244Y-123319190D01*
X136823600Y-123428969D01*
X136825138Y-123521620D01*
X136826870Y-123598617D01*
X136828806Y-123661434D01*
X136830960Y-123711544D01*
X136833341Y-123750421D01*
X136835963Y-123779538D01*
X136838835Y-123800371D01*
X136841970Y-123814391D01*
X136844841Y-123822034D01*
X136850570Y-123835618D01*
X136854794Y-123848090D01*
X136859015Y-123859498D01*
X136864732Y-123869889D01*
X136873445Y-123879309D01*
X136886655Y-123887808D01*
X136905863Y-123895430D01*
X136932567Y-123902225D01*
X136968270Y-123908238D01*
X137014470Y-123913517D01*
X137072668Y-123918110D01*
X137144365Y-123922064D01*
X137231060Y-123925425D01*
X137334254Y-123928241D01*
X137455447Y-123930560D01*
X137596140Y-123932428D01*
X137650143Y-123932916D01*
X137650143Y-123448704D01*
X137650143Y-121737256D01*
X137700036Y-121770187D01*
X137751307Y-121802947D01*
X137800131Y-121830689D01*
X137849924Y-121853807D01*
X137904102Y-121872697D01*
X137966084Y-121887751D01*
X138039285Y-121899367D01*
X138127122Y-121907936D01*
X138233012Y-121913856D01*
X138360372Y-121917519D01*
X138512619Y-121919321D01*
X138693168Y-121919656D01*
X138905438Y-121918919D01*
X138984245Y-121918501D01*
X139829089Y-121913786D01*
X139100443Y-121378572D01*
X138893735Y-121226946D01*
X138713740Y-121095581D01*
X138558075Y-120983057D01*
X138424353Y-120887957D01*
X138310191Y-120808862D01*
X138213203Y-120744353D01*
X138131006Y-120693012D01*
X138061214Y-120653420D01*
X138001442Y-120624160D01*
X137949307Y-120603812D01*
X137902424Y-120590958D01*
X137858407Y-120584181D01*
X137814873Y-120582060D01*
X137769436Y-120583179D01*
X137763725Y-120583464D01*
X137650067Y-120589357D01*
X137650143Y-118713771D01*
X137790811Y-118853278D01*
X137829285Y-118891135D01*
X137866721Y-118927047D01*
X137905186Y-118962593D01*
X137946742Y-118999347D01*
X137993455Y-119038886D01*
X138047390Y-119082786D01*
X138110610Y-119132623D01*
X138185182Y-119189972D01*
X138273168Y-119256411D01*
X138376635Y-119333515D01*
X138497646Y-119422861D01*
X138638266Y-119526024D01*
X138800560Y-119644580D01*
X138986593Y-119780105D01*
X139198429Y-119934177D01*
X139372196Y-120060462D01*
X139590499Y-120218954D01*
X139781371Y-120357216D01*
X139946626Y-120476499D01*
X140088074Y-120578057D01*
X140207529Y-120663141D01*
X140306802Y-120733005D01*
X140387705Y-120788900D01*
X140452051Y-120832080D01*
X140501653Y-120863797D01*
X140538321Y-120885302D01*
X140563868Y-120897850D01*
X140580107Y-120902692D01*
X140588645Y-120901237D01*
X140611365Y-120883599D01*
X140659457Y-120845466D01*
X140730062Y-120789138D01*
X140820322Y-120716916D01*
X140927379Y-120631101D01*
X141048373Y-120533994D01*
X141180446Y-120427896D01*
X141320740Y-120315109D01*
X141466397Y-120197932D01*
X141614556Y-120078667D01*
X141696000Y-120013067D01*
X141696000Y-118384314D01*
X141573535Y-118316621D01*
X141451071Y-118248929D01*
X137895071Y-118248929D01*
X137772607Y-118316621D01*
X137650143Y-118384314D01*
X137650143Y-117583559D01*
X137650198Y-117392398D01*
X137650449Y-117234501D01*
X137651021Y-117106848D01*
X137652041Y-117006419D01*
X137653635Y-116930193D01*
X137655930Y-116875148D01*
X137659050Y-116838264D01*
X137663123Y-116816521D01*
X137668275Y-116806898D01*
X137674633Y-116806373D01*
X137682321Y-116811926D01*
X137682385Y-116811984D01*
X137715476Y-116834860D01*
X137769281Y-116865151D01*
X137822992Y-116891903D01*
X137931357Y-116942643D01*
X139813678Y-116947818D01*
X141696000Y-116952993D01*
X141696000Y-118384314D01*
X141696000Y-120013067D01*
X141762361Y-119959615D01*
X141906953Y-119843077D01*
X142045472Y-119731354D01*
X142175061Y-119626746D01*
X142292860Y-119531556D01*
X142396012Y-119448083D01*
X142481657Y-119378629D01*
X142546938Y-119325494D01*
X142585000Y-119294285D01*
X142727330Y-119173097D01*
X142855770Y-119056507D01*
X142966114Y-118948603D01*
X143054159Y-118853470D01*
X143108138Y-118785957D01*
X143165571Y-118706127D01*
X143165571Y-120542108D01*
X143057835Y-120541592D01*
X142978628Y-120546724D01*
X142905195Y-120566015D01*
X142835585Y-120595877D01*
X142796259Y-120615288D01*
X142757293Y-120636159D01*
X142716099Y-120660396D01*
X142670092Y-120689906D01*
X142616683Y-120726594D01*
X142553286Y-120772368D01*
X142477315Y-120829135D01*
X142386183Y-120898800D01*
X142277302Y-120983270D01*
X142148086Y-121084453D01*
X141995948Y-121204253D01*
X141818302Y-121344579D01*
X141798258Y-121360429D01*
X141098492Y-121913786D01*
X141873496Y-121919143D01*
X142105632Y-121920221D01*
X142302154Y-121919992D01*
X142463708Y-121918443D01*
X142590944Y-121915563D01*
X142684508Y-121911341D01*
X142745048Y-121905766D01*
X142756532Y-121903893D01*
X142877501Y-121874495D01*
X142986554Y-121835978D01*
X143074237Y-121792026D01*
X143111426Y-121765621D01*
X143165571Y-121720060D01*
X143165571Y-122584530D01*
X143165395Y-122790745D01*
X143164821Y-122963188D01*
X143163783Y-123104373D01*
X143162213Y-123216812D01*
X143160046Y-123303017D01*
X143157212Y-123365502D01*
X143153647Y-123406779D01*
X143149282Y-123429360D01*
X143144051Y-123435759D01*
X143142893Y-123435317D01*
X143115231Y-123416991D01*
X143071385Y-123386396D01*
X143049209Y-123370567D01*
X143027080Y-123354202D01*
X143007291Y-123339492D01*
X142987894Y-123326344D01*
X142966942Y-123314667D01*
X142942488Y-123304368D01*
X142912584Y-123295354D01*
X142875283Y-123287532D01*
X142828637Y-123280809D01*
X142770699Y-123275094D01*
X142699521Y-123270293D01*
X142613156Y-123266315D01*
X142509656Y-123263065D01*
X142387075Y-123260452D01*
X142243463Y-123258383D01*
X142076875Y-123256766D01*
X141885363Y-123255507D01*
X141666978Y-123254515D01*
X141419774Y-123253696D01*
X141141804Y-123252958D01*
X140831119Y-123252209D01*
X140545700Y-123251508D01*
X140227508Y-123250847D01*
X139923923Y-123250503D01*
X139636885Y-123250468D01*
X139368331Y-123250732D01*
X139120202Y-123251285D01*
X138894437Y-123252120D01*
X138692974Y-123253227D01*
X138517754Y-123254596D01*
X138370714Y-123256219D01*
X138253794Y-123258087D01*
X138168933Y-123260189D01*
X138118071Y-123262518D01*
X138112696Y-123262959D01*
X137989387Y-123279008D01*
X137890356Y-123304064D01*
X137803930Y-123342221D01*
X137718435Y-123397572D01*
X137709107Y-123404496D01*
X137650143Y-123448704D01*
X137650143Y-123932916D01*
X137757832Y-123933892D01*
X137942024Y-123935001D01*
X138150216Y-123935801D01*
X138383909Y-123936339D01*
X138644602Y-123936662D01*
X138933796Y-123936817D01*
X139252991Y-123936854D01*
X139603687Y-123936817D01*
X139987386Y-123936755D01*
X140405586Y-123936715D01*
X140488607Y-123936714D01*
X140911211Y-123936691D01*
X141299019Y-123936612D01*
X141653520Y-123936467D01*
X141976203Y-123936244D01*
X142268558Y-123935931D01*
X142532073Y-123935517D01*
X142768238Y-123934991D01*
X142978542Y-123934340D01*
X143164474Y-123933553D01*
X143327525Y-123932619D01*
X143469182Y-123931526D01*
X143590936Y-123930263D01*
X143694275Y-123928817D01*
X143780689Y-123927179D01*
X143851667Y-123925334D01*
X143908699Y-123923274D01*
X143953273Y-123920985D01*
X143986879Y-123918456D01*
X144011007Y-123915676D01*
X144027144Y-123912633D01*
X144036782Y-123909316D01*
X144037022Y-123909193D01*
X144051745Y-123902360D01*
X144065074Y-123896670D01*
X144077078Y-123890374D01*
X144087827Y-123881728D01*
X144097389Y-123868986D01*
X144105833Y-123850400D01*
X144113229Y-123824226D01*
X144119646Y-123788716D01*
X144125152Y-123742125D01*
X144129817Y-123682707D01*
X144133709Y-123608715D01*
X144136898Y-123518403D01*
X144139453Y-123410025D01*
X144141442Y-123281835D01*
X144142935Y-123132087D01*
X144144002Y-122959034D01*
X144144709Y-122760931D01*
X144145128Y-122536031D01*
X144145327Y-122282588D01*
X144145374Y-121998856D01*
X144145340Y-121683089D01*
X144145340Y-121683089D01*
G37*
X144145340Y-121683089D02*
X144145293Y-121333540D01*
X144145286Y-121170830D01*
X144145285Y-118566429D01*
X143991762Y-118566429D01*
X143804937Y-118550043D01*
X143632633Y-118500588D01*
X143473825Y-118417620D01*
X143327490Y-118300695D01*
X143287968Y-118261136D01*
X143175862Y-118118830D01*
X143094101Y-117961922D01*
X143042647Y-117795072D01*
X143021463Y-117622939D01*
X143030513Y-117450185D01*
X143069758Y-117281470D01*
X143139162Y-117121454D01*
X143238689Y-116974798D01*
X143298735Y-116908932D01*
X143445957Y-116786192D01*
X143607853Y-116696188D01*
X143782573Y-116639706D01*
X143968265Y-116617529D01*
X143986533Y-116617234D01*
X144145280Y-116616072D01*
X144145283Y-116546300D01*
X144136882Y-116484405D01*
X144116444Y-116427865D01*
X144114333Y-116424128D01*
X144107707Y-116411358D01*
X144102546Y-116399632D01*
X144097349Y-116388906D01*
X144090610Y-116379139D01*
X144080829Y-116370288D01*
X144066500Y-116362311D01*
X144046122Y-116355165D01*
X144018192Y-116348808D01*
X143981205Y-116343198D01*
X143933660Y-116338293D01*
X143874053Y-116334049D01*
X143800881Y-116330424D01*
X143712641Y-116327377D01*
X143607830Y-116324864D01*
X143484945Y-116322844D01*
X143342483Y-116321274D01*
X143178940Y-116320112D01*
X142992814Y-116319314D01*
X142782602Y-116318840D01*
X142546800Y-116318646D01*
X142283906Y-116318690D01*
X141992416Y-116318930D01*
X141670828Y-116319323D01*
X141317638Y-116319827D01*
X140931343Y-116320400D01*
X140510440Y-116320999D01*
X140459160Y-116321068D01*
X140035574Y-116321605D01*
X139646770Y-116322061D01*
X139291247Y-116322484D01*
X138967502Y-116322921D01*
X138674034Y-116323422D01*
X138409339Y-116324035D01*
X138171915Y-116324808D01*
X137960260Y-116325789D01*
X137772871Y-116327026D01*
X137608246Y-116328568D01*
X137464883Y-116330463D01*
X137341280Y-116332759D01*
X137235933Y-116335504D01*
X137147341Y-116338747D01*
X137074000Y-116342536D01*
X137014410Y-116346919D01*
X136967067Y-116351945D01*
X136930469Y-116357661D01*
X136903114Y-116364116D01*
X136883498Y-116371359D01*
X136870121Y-116379437D01*
X136861479Y-116388398D01*
X136856070Y-116398292D01*
X136852392Y-116409165D01*
X136848942Y-116421067D01*
X136844218Y-116434046D01*
X136842780Y-116437217D01*
X136839549Y-116447181D01*
X136836580Y-116463859D01*
X136833863Y-116488707D01*
X136831387Y-116523180D01*
X136829142Y-116568736D01*
X136827117Y-116626830D01*
X136825302Y-116698919D01*
X136823685Y-116786458D01*
X136822257Y-116890905D01*
X136821007Y-117013715D01*
X136819924Y-117156345D01*
X136818998Y-117320251D01*
X136818218Y-117506890D01*
X136817574Y-117717716D01*
X136817054Y-117954188D01*
X136816649Y-118217761D01*
X136816348Y-118509890D01*
X136816140Y-118832034D01*
X136816015Y-119185647D01*
X136815962Y-119572186D01*
X136815971Y-119993108D01*
X136815984Y-120129456D01*
X136816053Y-120559716D01*
X136816166Y-120955164D01*
X136816335Y-121317273D01*
X136816570Y-121647517D01*
X136816884Y-121947371D01*
X136817287Y-122218308D01*
X136817793Y-122461800D01*
X136818411Y-122679323D01*
X136819154Y-122872350D01*
X136820032Y-123042354D01*
X136821059Y-123190810D01*
X136822244Y-123319190D01*
X136823600Y-123428969D01*
X136825138Y-123521620D01*
X136826870Y-123598617D01*
X136828806Y-123661434D01*
X136830960Y-123711544D01*
X136833341Y-123750421D01*
X136835963Y-123779538D01*
X136838835Y-123800371D01*
X136841970Y-123814391D01*
X136844841Y-123822034D01*
X136850570Y-123835618D01*
X136854794Y-123848090D01*
X136859015Y-123859498D01*
X136864732Y-123869889D01*
X136873445Y-123879309D01*
X136886655Y-123887808D01*
X136905863Y-123895430D01*
X136932567Y-123902225D01*
X136968270Y-123908238D01*
X137014470Y-123913517D01*
X137072668Y-123918110D01*
X137144365Y-123922064D01*
X137231060Y-123925425D01*
X137334254Y-123928241D01*
X137455447Y-123930560D01*
X137596140Y-123932428D01*
X137650143Y-123932916D01*
X137650143Y-123448704D01*
X137650143Y-121737256D01*
X137700036Y-121770187D01*
X137751307Y-121802947D01*
X137800131Y-121830689D01*
X137849924Y-121853807D01*
X137904102Y-121872697D01*
X137966084Y-121887751D01*
X138039285Y-121899367D01*
X138127122Y-121907936D01*
X138233012Y-121913856D01*
X138360372Y-121917519D01*
X138512619Y-121919321D01*
X138693168Y-121919656D01*
X138905438Y-121918919D01*
X138984245Y-121918501D01*
X139829089Y-121913786D01*
X139100443Y-121378572D01*
X138893735Y-121226946D01*
X138713740Y-121095581D01*
X138558075Y-120983057D01*
X138424353Y-120887957D01*
X138310191Y-120808862D01*
X138213203Y-120744353D01*
X138131006Y-120693012D01*
X138061214Y-120653420D01*
X138001442Y-120624160D01*
X137949307Y-120603812D01*
X137902424Y-120590958D01*
X137858407Y-120584181D01*
X137814873Y-120582060D01*
X137769436Y-120583179D01*
X137763725Y-120583464D01*
X137650067Y-120589357D01*
X137650143Y-118713771D01*
X137790811Y-118853278D01*
X137829285Y-118891135D01*
X137866721Y-118927047D01*
X137905186Y-118962593D01*
X137946742Y-118999347D01*
X137993455Y-119038886D01*
X138047390Y-119082786D01*
X138110610Y-119132623D01*
X138185182Y-119189972D01*
X138273168Y-119256411D01*
X138376635Y-119333515D01*
X138497646Y-119422861D01*
X138638266Y-119526024D01*
X138800560Y-119644580D01*
X138986593Y-119780105D01*
X139198429Y-119934177D01*
X139372196Y-120060462D01*
X139590499Y-120218954D01*
X139781371Y-120357216D01*
X139946626Y-120476499D01*
X140088074Y-120578057D01*
X140207529Y-120663141D01*
X140306802Y-120733005D01*
X140387705Y-120788900D01*
X140452051Y-120832080D01*
X140501653Y-120863797D01*
X140538321Y-120885302D01*
X140563868Y-120897850D01*
X140580107Y-120902692D01*
X140588645Y-120901237D01*
X140611365Y-120883599D01*
X140659457Y-120845466D01*
X140730062Y-120789138D01*
X140820322Y-120716916D01*
X140927379Y-120631101D01*
X141048373Y-120533994D01*
X141180446Y-120427896D01*
X141320740Y-120315109D01*
X141466397Y-120197932D01*
X141614556Y-120078667D01*
X141696000Y-120013067D01*
X141696000Y-118384314D01*
X141573535Y-118316621D01*
X141451071Y-118248929D01*
X137895071Y-118248929D01*
X137772607Y-118316621D01*
X137650143Y-118384314D01*
X137650143Y-117583559D01*
X137650198Y-117392398D01*
X137650449Y-117234501D01*
X137651021Y-117106848D01*
X137652041Y-117006419D01*
X137653635Y-116930193D01*
X137655930Y-116875148D01*
X137659050Y-116838264D01*
X137663123Y-116816521D01*
X137668275Y-116806898D01*
X137674633Y-116806373D01*
X137682321Y-116811926D01*
X137682385Y-116811984D01*
X137715476Y-116834860D01*
X137769281Y-116865151D01*
X137822992Y-116891903D01*
X137931357Y-116942643D01*
X139813678Y-116947818D01*
X141696000Y-116952993D01*
X141696000Y-118384314D01*
X141696000Y-120013067D01*
X141762361Y-119959615D01*
X141906953Y-119843077D01*
X142045472Y-119731354D01*
X142175061Y-119626746D01*
X142292860Y-119531556D01*
X142396012Y-119448083D01*
X142481657Y-119378629D01*
X142546938Y-119325494D01*
X142585000Y-119294285D01*
X142727330Y-119173097D01*
X142855770Y-119056507D01*
X142966114Y-118948603D01*
X143054159Y-118853470D01*
X143108138Y-118785957D01*
X143165571Y-118706127D01*
X143165571Y-120542108D01*
X143057835Y-120541592D01*
X142978628Y-120546724D01*
X142905195Y-120566015D01*
X142835585Y-120595877D01*
X142796259Y-120615288D01*
X142757293Y-120636159D01*
X142716099Y-120660396D01*
X142670092Y-120689906D01*
X142616683Y-120726594D01*
X142553286Y-120772368D01*
X142477315Y-120829135D01*
X142386183Y-120898800D01*
X142277302Y-120983270D01*
X142148086Y-121084453D01*
X141995948Y-121204253D01*
X141818302Y-121344579D01*
X141798258Y-121360429D01*
X141098492Y-121913786D01*
X141873496Y-121919143D01*
X142105632Y-121920221D01*
X142302154Y-121919992D01*
X142463708Y-121918443D01*
X142590944Y-121915563D01*
X142684508Y-121911341D01*
X142745048Y-121905766D01*
X142756532Y-121903893D01*
X142877501Y-121874495D01*
X142986554Y-121835978D01*
X143074237Y-121792026D01*
X143111426Y-121765621D01*
X143165571Y-121720060D01*
X143165571Y-122584530D01*
X143165395Y-122790745D01*
X143164821Y-122963188D01*
X143163783Y-123104373D01*
X143162213Y-123216812D01*
X143160046Y-123303017D01*
X143157212Y-123365502D01*
X143153647Y-123406779D01*
X143149282Y-123429360D01*
X143144051Y-123435759D01*
X143142893Y-123435317D01*
X143115231Y-123416991D01*
X143071385Y-123386396D01*
X143049209Y-123370567D01*
X143027080Y-123354202D01*
X143007291Y-123339492D01*
X142987894Y-123326344D01*
X142966942Y-123314667D01*
X142942488Y-123304368D01*
X142912584Y-123295354D01*
X142875283Y-123287532D01*
X142828637Y-123280809D01*
X142770699Y-123275094D01*
X142699521Y-123270293D01*
X142613156Y-123266315D01*
X142509656Y-123263065D01*
X142387075Y-123260452D01*
X142243463Y-123258383D01*
X142076875Y-123256766D01*
X141885363Y-123255507D01*
X141666978Y-123254515D01*
X141419774Y-123253696D01*
X141141804Y-123252958D01*
X140831119Y-123252209D01*
X140545700Y-123251508D01*
X140227508Y-123250847D01*
X139923923Y-123250503D01*
X139636885Y-123250468D01*
X139368331Y-123250732D01*
X139120202Y-123251285D01*
X138894437Y-123252120D01*
X138692974Y-123253227D01*
X138517754Y-123254596D01*
X138370714Y-123256219D01*
X138253794Y-123258087D01*
X138168933Y-123260189D01*
X138118071Y-123262518D01*
X138112696Y-123262959D01*
X137989387Y-123279008D01*
X137890356Y-123304064D01*
X137803930Y-123342221D01*
X137718435Y-123397572D01*
X137709107Y-123404496D01*
X137650143Y-123448704D01*
X137650143Y-123932916D01*
X137757832Y-123933892D01*
X137942024Y-123935001D01*
X138150216Y-123935801D01*
X138383909Y-123936339D01*
X138644602Y-123936662D01*
X138933796Y-123936817D01*
X139252991Y-123936854D01*
X139603687Y-123936817D01*
X139987386Y-123936755D01*
X140405586Y-123936715D01*
X140488607Y-123936714D01*
X140911211Y-123936691D01*
X141299019Y-123936612D01*
X141653520Y-123936467D01*
X141976203Y-123936244D01*
X142268558Y-123935931D01*
X142532073Y-123935517D01*
X142768238Y-123934991D01*
X142978542Y-123934340D01*
X143164474Y-123933553D01*
X143327525Y-123932619D01*
X143469182Y-123931526D01*
X143590936Y-123930263D01*
X143694275Y-123928817D01*
X143780689Y-123927179D01*
X143851667Y-123925334D01*
X143908699Y-123923274D01*
X143953273Y-123920985D01*
X143986879Y-123918456D01*
X144011007Y-123915676D01*
X144027144Y-123912633D01*
X144036782Y-123909316D01*
X144037022Y-123909193D01*
X144051745Y-123902360D01*
X144065074Y-123896670D01*
X144077078Y-123890374D01*
X144087827Y-123881728D01*
X144097389Y-123868986D01*
X144105833Y-123850400D01*
X144113229Y-123824226D01*
X144119646Y-123788716D01*
X144125152Y-123742125D01*
X144129817Y-123682707D01*
X144133709Y-123608715D01*
X144136898Y-123518403D01*
X144139453Y-123410025D01*
X144141442Y-123281835D01*
X144142935Y-123132087D01*
X144144002Y-122959034D01*
X144144709Y-122760931D01*
X144145128Y-122536031D01*
X144145327Y-122282588D01*
X144145374Y-121998856D01*
X144145340Y-121683089D01*
G36*
X144519224Y-93099122D02*
G01*
X144518645Y-92993388D01*
X144517078Y-92916868D01*
X144514028Y-92864628D01*
X144509004Y-92831737D01*
X144501511Y-92813263D01*
X144491056Y-92804273D01*
X144477147Y-92799837D01*
X144475346Y-92799406D01*
X144442855Y-92792667D01*
X144378748Y-92780192D01*
X144289849Y-92763281D01*
X144182981Y-92743229D01*
X144064967Y-92721336D01*
X144060822Y-92720571D01*
X143945169Y-92698641D01*
X143842986Y-92678123D01*
X143760402Y-92660341D01*
X143703544Y-92646619D01*
X143678542Y-92638282D01*
X143678099Y-92637884D01*
X143665890Y-92613323D01*
X143645544Y-92562685D01*
X143621455Y-92496905D01*
X143621326Y-92496539D01*
X143590182Y-92413683D01*
X143550509Y-92316000D01*
X143510619Y-92223923D01*
X143508647Y-92219566D01*
X143440580Y-92069593D01*
X143667361Y-91737502D01*
X143736496Y-91635626D01*
X143798303Y-91543343D01*
X143849267Y-91465997D01*
X143885873Y-91408936D01*
X143904606Y-91377505D01*
X143905996Y-91374521D01*
X143899810Y-91351679D01*
X143869965Y-91309018D01*
X143815053Y-91244872D01*
X143733666Y-91157579D01*
X143647078Y-91068465D01*
X143561753Y-90982559D01*
X143483892Y-90905673D01*
X143418303Y-90842436D01*
X143369795Y-90797477D01*
X143343175Y-90775424D01*
X143341805Y-90774604D01*
X143323537Y-90772166D01*
X143293705Y-90781350D01*
X143248279Y-90804426D01*
X143183230Y-90843663D01*
X143094530Y-90901330D01*
X142980343Y-90978205D01*
X142879838Y-91046430D01*
X142789697Y-91107418D01*
X142715151Y-91157644D01*
X142661435Y-91193584D01*
X142633782Y-91211713D01*
X142631905Y-91212854D01*
X142605410Y-91210641D01*
X142553914Y-91193862D01*
X142487149Y-91165858D01*
X142465828Y-91155878D01*
X142370841Y-91112328D01*
X142263063Y-91065866D01*
X142169808Y-91028123D01*
X142100594Y-91000927D01*
X142047994Y-90979325D01*
X142020503Y-90966842D01*
X142018384Y-90965291D01*
X142014876Y-90942332D01*
X142005262Y-90888214D01*
X141990911Y-90810132D01*
X141973193Y-90715281D01*
X141953475Y-90610857D01*
X141933126Y-90504056D01*
X141913514Y-90402074D01*
X141896009Y-90312106D01*
X141881978Y-90241347D01*
X141872791Y-90196994D01*
X141870193Y-90186115D01*
X141863782Y-90174878D01*
X141849303Y-90166395D01*
X141821867Y-90160286D01*
X141776589Y-90156168D01*
X141708580Y-90153659D01*
X141612953Y-90152379D01*
X141484820Y-90151946D01*
X141432299Y-90151923D01*
X141005155Y-90151923D01*
X140984909Y-90254500D01*
X140973930Y-90311569D01*
X140957905Y-90396731D01*
X140938767Y-90499628D01*
X140918449Y-90609904D01*
X140912868Y-90640385D01*
X140893083Y-90742145D01*
X140873627Y-90830795D01*
X140856303Y-90898892D01*
X140842912Y-90938996D01*
X140838921Y-90945677D01*
X140810658Y-90962081D01*
X140755891Y-90985601D01*
X140685412Y-91011684D01*
X140670231Y-91016858D01*
X140576104Y-91051044D01*
X140469899Y-91093477D01*
X140374527Y-91135003D01*
X140374084Y-91135208D01*
X140224475Y-91204360D01*
X139555383Y-90749488D01*
X139262884Y-91041500D01*
X139175830Y-91129820D01*
X139099091Y-91210375D01*
X139036763Y-91278640D01*
X138992944Y-91330092D01*
X138971730Y-91360206D01*
X138970384Y-91364526D01*
X138980984Y-91389889D01*
X139010453Y-91441642D01*
X139055295Y-91514132D01*
X139112016Y-91601706D01*
X139175538Y-91696388D01*
X139240332Y-91792484D01*
X139296713Y-91878163D01*
X139341212Y-91947984D01*
X139370361Y-91996506D01*
X139380692Y-92018218D01*
X139371950Y-92044707D01*
X139348913Y-92094938D01*
X139316369Y-92158549D01*
X139312751Y-92165292D01*
X139269790Y-92250954D01*
X139248721Y-92309694D01*
X139248497Y-92346228D01*
X139268072Y-92365269D01*
X139268346Y-92365380D01*
X139291528Y-92374898D01*
X139346559Y-92397597D01*
X139429178Y-92431718D01*
X139535128Y-92475500D01*
X139660148Y-92527184D01*
X139799980Y-92585008D01*
X139935363Y-92641009D01*
X140084766Y-92702553D01*
X140223168Y-92759061D01*
X140346327Y-92808839D01*
X140449998Y-92850194D01*
X140529941Y-92881432D01*
X140581912Y-92900859D01*
X140601308Y-92906846D01*
X140623557Y-92891832D01*
X140659018Y-92852561D01*
X140698113Y-92800193D01*
X140821755Y-92651059D01*
X140963478Y-92534489D01*
X141120296Y-92451882D01*
X141289225Y-92404634D01*
X141467278Y-92394143D01*
X141549461Y-92401769D01*
X141719969Y-92443318D01*
X141870541Y-92514877D01*
X141999691Y-92612005D01*
X142105936Y-92730266D01*
X142187790Y-92865220D01*
X142243768Y-93012429D01*
X142272385Y-93167456D01*
X142272156Y-93325861D01*
X142241595Y-93483206D01*
X142179218Y-93635054D01*
X142083540Y-93776965D01*
X142029428Y-93836197D01*
X141890480Y-93949797D01*
X141738639Y-94028894D01*
X141578333Y-94074014D01*
X141413988Y-94085684D01*
X141250029Y-94064431D01*
X141090882Y-94010780D01*
X140940975Y-93925260D01*
X140804733Y-93808395D01*
X140698113Y-93677807D01*
X140657358Y-93623412D01*
X140622282Y-93584986D01*
X140601274Y-93571154D01*
X140578365Y-93578397D01*
X140523635Y-93598995D01*
X140441328Y-93631254D01*
X140335685Y-93673479D01*
X140210950Y-93723977D01*
X140071364Y-93781052D01*
X139935330Y-93837146D01*
X139785799Y-93899033D01*
X139647233Y-93956356D01*
X139523893Y-94007356D01*
X139420036Y-94050273D01*
X139339920Y-94083347D01*
X139287805Y-94104819D01*
X139268346Y-94112775D01*
X139248577Y-94131571D01*
X139248635Y-94167926D01*
X139269559Y-94226521D01*
X139312387Y-94312032D01*
X139312751Y-94312708D01*
X139345988Y-94377093D01*
X139370198Y-94429139D01*
X139380596Y-94458488D01*
X139380692Y-94459783D01*
X139370145Y-94481876D01*
X139340816Y-94530652D01*
X139296173Y-94600669D01*
X139239686Y-94686486D01*
X139175538Y-94781612D01*
X139110589Y-94878460D01*
X139054104Y-94965747D01*
X139009579Y-95037819D01*
X138980510Y-95089023D01*
X138970384Y-95113474D01*
X138983693Y-95135990D01*
X139020888Y-95181258D01*
X139077872Y-95244756D01*
X139150551Y-95321961D01*
X139234829Y-95408349D01*
X139262984Y-95436601D01*
X139555584Y-95728713D01*
X139881896Y-95506369D01*
X139982103Y-95438798D01*
X140072037Y-95379493D01*
X140146490Y-95331783D01*
X140200249Y-95298993D01*
X140228106Y-95284452D01*
X140230088Y-95284026D01*
X140256345Y-95291692D01*
X140309163Y-95312311D01*
X140379690Y-95342315D01*
X140426907Y-95363375D01*
X140517306Y-95402752D01*
X140608634Y-95439835D01*
X140685800Y-95468585D01*
X140709308Y-95476395D01*
X140772084Y-95498583D01*
X140820589Y-95520273D01*
X140838921Y-95532187D01*
X140850141Y-95558477D01*
X140866046Y-95615858D01*
X140884833Y-95696882D01*
X140904701Y-95794105D01*
X140912868Y-95837615D01*
X140933171Y-95948104D01*
X140952830Y-96054084D01*
X140969912Y-96145199D01*
X140982482Y-96211092D01*
X140984909Y-96223500D01*
X141005155Y-96326077D01*
X141432299Y-96326077D01*
X141572754Y-96325847D01*
X141679021Y-96324901D01*
X141755987Y-96322859D01*
X141808540Y-96319338D01*
X141841567Y-96313957D01*
X141859955Y-96306334D01*
X141868592Y-96296088D01*
X141870193Y-96291885D01*
X141875873Y-96266530D01*
X141887205Y-96210516D01*
X141902821Y-96131036D01*
X141921353Y-96035288D01*
X141941431Y-95930467D01*
X141961688Y-95823768D01*
X141980754Y-95722387D01*
X141997261Y-95633521D01*
X142009841Y-95564363D01*
X142017125Y-95522111D01*
X142018384Y-95512710D01*
X142035237Y-95504193D01*
X142080130Y-95485340D01*
X142144570Y-95459676D01*
X142169808Y-95449877D01*
X142267314Y-95410352D01*
X142375041Y-95363808D01*
X142465828Y-95322123D01*
X142535247Y-95291450D01*
X142592290Y-95271044D01*
X142627223Y-95264232D01*
X142631905Y-95265318D01*
X142654009Y-95279715D01*
X142703169Y-95312588D01*
X142774152Y-95360410D01*
X142861722Y-95419652D01*
X142960643Y-95486785D01*
X142980170Y-95500059D01*
X143095860Y-95577954D01*
X143183956Y-95635213D01*
X143248514Y-95674119D01*
X143293589Y-95696956D01*
X143323237Y-95706006D01*
X143341515Y-95703552D01*
X143341631Y-95703489D01*
X143365639Y-95684173D01*
X143412053Y-95641449D01*
X143476063Y-95579949D01*
X143552855Y-95504302D01*
X143637618Y-95419139D01*
X143647078Y-95409535D01*
X143751011Y-95302210D01*
X143827325Y-95219385D01*
X143877429Y-95159395D01*
X143902730Y-95120577D01*
X143905996Y-95103480D01*
X143891750Y-95078527D01*
X143858844Y-95026745D01*
X143810792Y-94953480D01*
X143751110Y-94864080D01*
X143683312Y-94763889D01*
X143667361Y-94740499D01*
X143440580Y-94408407D01*
X143508647Y-94258435D01*
X143548315Y-94167230D01*
X143588209Y-94069331D01*
X143620017Y-93985169D01*
X143621326Y-93981462D01*
X143645424Y-93915631D01*
X143665800Y-93864884D01*
X143678064Y-93840158D01*
X143678099Y-93840116D01*
X143700266Y-93832271D01*
X143754783Y-93818934D01*
X143835520Y-93801430D01*
X143936350Y-93781083D01*
X144051144Y-93759218D01*
X144060822Y-93757429D01*
X144179096Y-93735496D01*
X144286458Y-93715360D01*
X144376083Y-93698320D01*
X144441149Y-93685672D01*
X144474832Y-93678716D01*
X144475346Y-93678594D01*
X144489675Y-93674361D01*
X144500493Y-93666129D01*
X144508294Y-93648967D01*
X144513571Y-93617942D01*
X144516818Y-93568122D01*
X144518528Y-93494576D01*
X144519193Y-93392371D01*
X144519307Y-93256575D01*
X144519308Y-93239000D01*
X144519224Y-93099122D01*
X144519224Y-93099122D01*
G37*
X144519224Y-93099122D02*
X144518645Y-92993388D01*
X144517078Y-92916868D01*
X144514028Y-92864628D01*
X144509004Y-92831737D01*
X144501511Y-92813263D01*
X144491056Y-92804273D01*
X144477147Y-92799837D01*
X144475346Y-92799406D01*
X144442855Y-92792667D01*
X144378748Y-92780192D01*
X144289849Y-92763281D01*
X144182981Y-92743229D01*
X144064967Y-92721336D01*
X144060822Y-92720571D01*
X143945169Y-92698641D01*
X143842986Y-92678123D01*
X143760402Y-92660341D01*
X143703544Y-92646619D01*
X143678542Y-92638282D01*
X143678099Y-92637884D01*
X143665890Y-92613323D01*
X143645544Y-92562685D01*
X143621455Y-92496905D01*
X143621326Y-92496539D01*
X143590182Y-92413683D01*
X143550509Y-92316000D01*
X143510619Y-92223923D01*
X143508647Y-92219566D01*
X143440580Y-92069593D01*
X143667361Y-91737502D01*
X143736496Y-91635626D01*
X143798303Y-91543343D01*
X143849267Y-91465997D01*
X143885873Y-91408936D01*
X143904606Y-91377505D01*
X143905996Y-91374521D01*
X143899810Y-91351679D01*
X143869965Y-91309018D01*
X143815053Y-91244872D01*
X143733666Y-91157579D01*
X143647078Y-91068465D01*
X143561753Y-90982559D01*
X143483892Y-90905673D01*
X143418303Y-90842436D01*
X143369795Y-90797477D01*
X143343175Y-90775424D01*
X143341805Y-90774604D01*
X143323537Y-90772166D01*
X143293705Y-90781350D01*
X143248279Y-90804426D01*
X143183230Y-90843663D01*
X143094530Y-90901330D01*
X142980343Y-90978205D01*
X142879838Y-91046430D01*
X142789697Y-91107418D01*
X142715151Y-91157644D01*
X142661435Y-91193584D01*
X142633782Y-91211713D01*
X142631905Y-91212854D01*
X142605410Y-91210641D01*
X142553914Y-91193862D01*
X142487149Y-91165858D01*
X142465828Y-91155878D01*
X142370841Y-91112328D01*
X142263063Y-91065866D01*
X142169808Y-91028123D01*
X142100594Y-91000927D01*
X142047994Y-90979325D01*
X142020503Y-90966842D01*
X142018384Y-90965291D01*
X142014876Y-90942332D01*
X142005262Y-90888214D01*
X141990911Y-90810132D01*
X141973193Y-90715281D01*
X141953475Y-90610857D01*
X141933126Y-90504056D01*
X141913514Y-90402074D01*
X141896009Y-90312106D01*
X141881978Y-90241347D01*
X141872791Y-90196994D01*
X141870193Y-90186115D01*
X141863782Y-90174878D01*
X141849303Y-90166395D01*
X141821867Y-90160286D01*
X141776589Y-90156168D01*
X141708580Y-90153659D01*
X141612953Y-90152379D01*
X141484820Y-90151946D01*
X141432299Y-90151923D01*
X141005155Y-90151923D01*
X140984909Y-90254500D01*
X140973930Y-90311569D01*
X140957905Y-90396731D01*
X140938767Y-90499628D01*
X140918449Y-90609904D01*
X140912868Y-90640385D01*
X140893083Y-90742145D01*
X140873627Y-90830795D01*
X140856303Y-90898892D01*
X140842912Y-90938996D01*
X140838921Y-90945677D01*
X140810658Y-90962081D01*
X140755891Y-90985601D01*
X140685412Y-91011684D01*
X140670231Y-91016858D01*
X140576104Y-91051044D01*
X140469899Y-91093477D01*
X140374527Y-91135003D01*
X140374084Y-91135208D01*
X140224475Y-91204360D01*
X139555383Y-90749488D01*
X139262884Y-91041500D01*
X139175830Y-91129820D01*
X139099091Y-91210375D01*
X139036763Y-91278640D01*
X138992944Y-91330092D01*
X138971730Y-91360206D01*
X138970384Y-91364526D01*
X138980984Y-91389889D01*
X139010453Y-91441642D01*
X139055295Y-91514132D01*
X139112016Y-91601706D01*
X139175538Y-91696388D01*
X139240332Y-91792484D01*
X139296713Y-91878163D01*
X139341212Y-91947984D01*
X139370361Y-91996506D01*
X139380692Y-92018218D01*
X139371950Y-92044707D01*
X139348913Y-92094938D01*
X139316369Y-92158549D01*
X139312751Y-92165292D01*
X139269790Y-92250954D01*
X139248721Y-92309694D01*
X139248497Y-92346228D01*
X139268072Y-92365269D01*
X139268346Y-92365380D01*
X139291528Y-92374898D01*
X139346559Y-92397597D01*
X139429178Y-92431718D01*
X139535128Y-92475500D01*
X139660148Y-92527184D01*
X139799980Y-92585008D01*
X139935363Y-92641009D01*
X140084766Y-92702553D01*
X140223168Y-92759061D01*
X140346327Y-92808839D01*
X140449998Y-92850194D01*
X140529941Y-92881432D01*
X140581912Y-92900859D01*
X140601308Y-92906846D01*
X140623557Y-92891832D01*
X140659018Y-92852561D01*
X140698113Y-92800193D01*
X140821755Y-92651059D01*
X140963478Y-92534489D01*
X141120296Y-92451882D01*
X141289225Y-92404634D01*
X141467278Y-92394143D01*
X141549461Y-92401769D01*
X141719969Y-92443318D01*
X141870541Y-92514877D01*
X141999691Y-92612005D01*
X142105936Y-92730266D01*
X142187790Y-92865220D01*
X142243768Y-93012429D01*
X142272385Y-93167456D01*
X142272156Y-93325861D01*
X142241595Y-93483206D01*
X142179218Y-93635054D01*
X142083540Y-93776965D01*
X142029428Y-93836197D01*
X141890480Y-93949797D01*
X141738639Y-94028894D01*
X141578333Y-94074014D01*
X141413988Y-94085684D01*
X141250029Y-94064431D01*
X141090882Y-94010780D01*
X140940975Y-93925260D01*
X140804733Y-93808395D01*
X140698113Y-93677807D01*
X140657358Y-93623412D01*
X140622282Y-93584986D01*
X140601274Y-93571154D01*
X140578365Y-93578397D01*
X140523635Y-93598995D01*
X140441328Y-93631254D01*
X140335685Y-93673479D01*
X140210950Y-93723977D01*
X140071364Y-93781052D01*
X139935330Y-93837146D01*
X139785799Y-93899033D01*
X139647233Y-93956356D01*
X139523893Y-94007356D01*
X139420036Y-94050273D01*
X139339920Y-94083347D01*
X139287805Y-94104819D01*
X139268346Y-94112775D01*
X139248577Y-94131571D01*
X139248635Y-94167926D01*
X139269559Y-94226521D01*
X139312387Y-94312032D01*
X139312751Y-94312708D01*
X139345988Y-94377093D01*
X139370198Y-94429139D01*
X139380596Y-94458488D01*
X139380692Y-94459783D01*
X139370145Y-94481876D01*
X139340816Y-94530652D01*
X139296173Y-94600669D01*
X139239686Y-94686486D01*
X139175538Y-94781612D01*
X139110589Y-94878460D01*
X139054104Y-94965747D01*
X139009579Y-95037819D01*
X138980510Y-95089023D01*
X138970384Y-95113474D01*
X138983693Y-95135990D01*
X139020888Y-95181258D01*
X139077872Y-95244756D01*
X139150551Y-95321961D01*
X139234829Y-95408349D01*
X139262984Y-95436601D01*
X139555584Y-95728713D01*
X139881896Y-95506369D01*
X139982103Y-95438798D01*
X140072037Y-95379493D01*
X140146490Y-95331783D01*
X140200249Y-95298993D01*
X140228106Y-95284452D01*
X140230088Y-95284026D01*
X140256345Y-95291692D01*
X140309163Y-95312311D01*
X140379690Y-95342315D01*
X140426907Y-95363375D01*
X140517306Y-95402752D01*
X140608634Y-95439835D01*
X140685800Y-95468585D01*
X140709308Y-95476395D01*
X140772084Y-95498583D01*
X140820589Y-95520273D01*
X140838921Y-95532187D01*
X140850141Y-95558477D01*
X140866046Y-95615858D01*
X140884833Y-95696882D01*
X140904701Y-95794105D01*
X140912868Y-95837615D01*
X140933171Y-95948104D01*
X140952830Y-96054084D01*
X140969912Y-96145199D01*
X140982482Y-96211092D01*
X140984909Y-96223500D01*
X141005155Y-96326077D01*
X141432299Y-96326077D01*
X141572754Y-96325847D01*
X141679021Y-96324901D01*
X141755987Y-96322859D01*
X141808540Y-96319338D01*
X141841567Y-96313957D01*
X141859955Y-96306334D01*
X141868592Y-96296088D01*
X141870193Y-96291885D01*
X141875873Y-96266530D01*
X141887205Y-96210516D01*
X141902821Y-96131036D01*
X141921353Y-96035288D01*
X141941431Y-95930467D01*
X141961688Y-95823768D01*
X141980754Y-95722387D01*
X141997261Y-95633521D01*
X142009841Y-95564363D01*
X142017125Y-95522111D01*
X142018384Y-95512710D01*
X142035237Y-95504193D01*
X142080130Y-95485340D01*
X142144570Y-95459676D01*
X142169808Y-95449877D01*
X142267314Y-95410352D01*
X142375041Y-95363808D01*
X142465828Y-95322123D01*
X142535247Y-95291450D01*
X142592290Y-95271044D01*
X142627223Y-95264232D01*
X142631905Y-95265318D01*
X142654009Y-95279715D01*
X142703169Y-95312588D01*
X142774152Y-95360410D01*
X142861722Y-95419652D01*
X142960643Y-95486785D01*
X142980170Y-95500059D01*
X143095860Y-95577954D01*
X143183956Y-95635213D01*
X143248514Y-95674119D01*
X143293589Y-95696956D01*
X143323237Y-95706006D01*
X143341515Y-95703552D01*
X143341631Y-95703489D01*
X143365639Y-95684173D01*
X143412053Y-95641449D01*
X143476063Y-95579949D01*
X143552855Y-95504302D01*
X143637618Y-95419139D01*
X143647078Y-95409535D01*
X143751011Y-95302210D01*
X143827325Y-95219385D01*
X143877429Y-95159395D01*
X143902730Y-95120577D01*
X143905996Y-95103480D01*
X143891750Y-95078527D01*
X143858844Y-95026745D01*
X143810792Y-94953480D01*
X143751110Y-94864080D01*
X143683312Y-94763889D01*
X143667361Y-94740499D01*
X143440580Y-94408407D01*
X143508647Y-94258435D01*
X143548315Y-94167230D01*
X143588209Y-94069331D01*
X143620017Y-93985169D01*
X143621326Y-93981462D01*
X143645424Y-93915631D01*
X143665800Y-93864884D01*
X143678064Y-93840158D01*
X143678099Y-93840116D01*
X143700266Y-93832271D01*
X143754783Y-93818934D01*
X143835520Y-93801430D01*
X143936350Y-93781083D01*
X144051144Y-93759218D01*
X144060822Y-93757429D01*
X144179096Y-93735496D01*
X144286458Y-93715360D01*
X144376083Y-93698320D01*
X144441149Y-93685672D01*
X144474832Y-93678716D01*
X144475346Y-93678594D01*
X144489675Y-93674361D01*
X144500493Y-93666129D01*
X144508294Y-93648967D01*
X144513571Y-93617942D01*
X144516818Y-93568122D01*
X144518528Y-93494576D01*
X144519193Y-93392371D01*
X144519307Y-93256575D01*
X144519308Y-93239000D01*
X144519224Y-93099122D01*
G36*
X138159162Y-88993776D02*
G01*
X138108639Y-88916472D01*
X138063410Y-88879186D01*
X137981337Y-88849647D01*
X137916393Y-88847301D01*
X137829555Y-88852615D01*
X137741897Y-89052885D01*
X137697113Y-89150261D01*
X137661087Y-89213887D01*
X137629883Y-89246971D01*
X137599564Y-89252720D01*
X137566195Y-89234342D01*
X137544077Y-89214077D01*
X137508607Y-89155111D01*
X137506121Y-89090976D01*
X137533765Y-89032074D01*
X137588680Y-88988803D01*
X137608072Y-88981064D01*
X137668636Y-88943994D01*
X137694448Y-88901346D01*
X137716529Y-88842846D01*
X137632816Y-88842846D01*
X137575850Y-88848018D01*
X137527811Y-88868277D01*
X137472654Y-88910738D01*
X137465486Y-88917049D01*
X137416415Y-88964280D01*
X137390080Y-89004879D01*
X137377965Y-89055672D01*
X137373997Y-89097780D01*
X137373009Y-89173098D01*
X137385534Y-89226714D01*
X137404131Y-89260162D01*
X137445025Y-89312732D01*
X137489252Y-89349121D01*
X137544874Y-89372150D01*
X137619953Y-89384641D01*
X137722551Y-89389413D01*
X137774624Y-89389794D01*
X137837052Y-89388499D01*
X137837052Y-89270529D01*
X137803562Y-89269161D01*
X137798077Y-89265751D01*
X137805528Y-89243247D01*
X137825247Y-89194818D01*
X137853282Y-89130092D01*
X137859308Y-89116557D01*
X137900904Y-89034756D01*
X137937462Y-88989688D01*
X137971704Y-88979783D01*
X138006352Y-89003474D01*
X138021661Y-89023040D01*
X138052279Y-89093640D01*
X138047220Y-89159720D01*
X138009849Y-89215041D01*
X137943527Y-89253364D01*
X137890884Y-89265651D01*
X137837052Y-89270529D01*
X137837052Y-89388499D01*
X137896280Y-89387270D01*
X137986290Y-89377968D01*
X138051833Y-89359540D01*
X138100088Y-89329640D01*
X138138233Y-89285920D01*
X138150560Y-89266859D01*
X138182664Y-89180274D01*
X138184684Y-89085478D01*
X138159162Y-88993776D01*
X138159162Y-88993776D01*
G37*
X138159162Y-88993776D02*
X138108639Y-88916472D01*
X138063410Y-88879186D01*
X137981337Y-88849647D01*
X137916393Y-88847301D01*
X137829555Y-88852615D01*
X137741897Y-89052885D01*
X137697113Y-89150261D01*
X137661087Y-89213887D01*
X137629883Y-89246971D01*
X137599564Y-89252720D01*
X137566195Y-89234342D01*
X137544077Y-89214077D01*
X137508607Y-89155111D01*
X137506121Y-89090976D01*
X137533765Y-89032074D01*
X137588680Y-88988803D01*
X137608072Y-88981064D01*
X137668636Y-88943994D01*
X137694448Y-88901346D01*
X137716529Y-88842846D01*
X137632816Y-88842846D01*
X137575850Y-88848018D01*
X137527811Y-88868277D01*
X137472654Y-88910738D01*
X137465486Y-88917049D01*
X137416415Y-88964280D01*
X137390080Y-89004879D01*
X137377965Y-89055672D01*
X137373997Y-89097780D01*
X137373009Y-89173098D01*
X137385534Y-89226714D01*
X137404131Y-89260162D01*
X137445025Y-89312732D01*
X137489252Y-89349121D01*
X137544874Y-89372150D01*
X137619953Y-89384641D01*
X137722551Y-89389413D01*
X137774624Y-89389794D01*
X137837052Y-89388499D01*
X137837052Y-89270529D01*
X137803562Y-89269161D01*
X137798077Y-89265751D01*
X137805528Y-89243247D01*
X137825247Y-89194818D01*
X137853282Y-89130092D01*
X137859308Y-89116557D01*
X137900904Y-89034756D01*
X137937462Y-88989688D01*
X137971704Y-88979783D01*
X138006352Y-89003474D01*
X138021661Y-89023040D01*
X138052279Y-89093640D01*
X138047220Y-89159720D01*
X138009849Y-89215041D01*
X137943527Y-89253364D01*
X137890884Y-89265651D01*
X137837052Y-89270529D01*
X137837052Y-89388499D01*
X137896280Y-89387270D01*
X137986290Y-89377968D01*
X138051833Y-89359540D01*
X138100088Y-89329640D01*
X138138233Y-89285920D01*
X138150560Y-89266859D01*
X138182664Y-89180274D01*
X138184684Y-89085478D01*
X138159162Y-88993776D01*
G36*
X138170218Y-89668193D02*
G01*
X138160012Y-89644839D01*
X138115866Y-89589098D01*
X138052033Y-89541431D01*
X137983913Y-89511952D01*
X137950330Y-89507154D01*
X137903444Y-89523240D01*
X137878635Y-89558525D01*
X137863613Y-89596356D01*
X137860845Y-89613679D01*
X137880934Y-89622114D01*
X137924649Y-89638770D01*
X137944402Y-89646077D01*
X138012729Y-89687052D01*
X138046809Y-89746378D01*
X138045761Y-89822448D01*
X138044419Y-89828082D01*
X138025164Y-89868695D01*
X137987625Y-89898552D01*
X137927191Y-89918945D01*
X137839249Y-89931164D01*
X137719187Y-89936500D01*
X137655302Y-89937000D01*
X137554597Y-89937248D01*
X137485946Y-89938874D01*
X137442327Y-89943199D01*
X137416718Y-89951546D01*
X137402097Y-89965235D01*
X137391442Y-89985589D01*
X137390905Y-89986766D01*
X137374333Y-90025962D01*
X137368231Y-90045381D01*
X137386681Y-90048365D01*
X137437677Y-90050919D01*
X137514692Y-90052860D01*
X137611195Y-90054003D01*
X137681816Y-90054231D01*
X137818475Y-90053068D01*
X137922149Y-90048521D01*
X137998892Y-90039001D01*
X138054754Y-90022919D01*
X138095788Y-89998687D01*
X138128046Y-89964714D01*
X138150560Y-89931167D01*
X138180524Y-89850501D01*
X138187282Y-89756619D01*
X138170218Y-89668193D01*
X138170218Y-89668193D01*
G37*
X138170218Y-89668193D02*
X138160012Y-89644839D01*
X138115866Y-89589098D01*
X138052033Y-89541431D01*
X137983913Y-89511952D01*
X137950330Y-89507154D01*
X137903444Y-89523240D01*
X137878635Y-89558525D01*
X137863613Y-89596356D01*
X137860845Y-89613679D01*
X137880934Y-89622114D01*
X137924649Y-89638770D01*
X137944402Y-89646077D01*
X138012729Y-89687052D01*
X138046809Y-89746378D01*
X138045761Y-89822448D01*
X138044419Y-89828082D01*
X138025164Y-89868695D01*
X137987625Y-89898552D01*
X137927191Y-89918945D01*
X137839249Y-89931164D01*
X137719187Y-89936500D01*
X137655302Y-89937000D01*
X137554597Y-89937248D01*
X137485946Y-89938874D01*
X137442327Y-89943199D01*
X137416718Y-89951546D01*
X137402097Y-89965235D01*
X137391442Y-89985589D01*
X137390905Y-89986766D01*
X137374333Y-90025962D01*
X137368231Y-90045381D01*
X137386681Y-90048365D01*
X137437677Y-90050919D01*
X137514692Y-90052860D01*
X137611195Y-90054003D01*
X137681816Y-90054231D01*
X137818475Y-90053068D01*
X137922149Y-90048521D01*
X137998892Y-90039001D01*
X138054754Y-90022919D01*
X138095788Y-89998687D01*
X138128046Y-89964714D01*
X138150560Y-89931167D01*
X138180524Y-89850501D01*
X138187282Y-89756619D01*
X138170218Y-89668193D01*
G36*
X138173472Y-90351667D02*
G01*
X138147883Y-90295410D01*
X138116876Y-90251253D01*
X138082205Y-90218899D01*
X138037480Y-90196562D01*
X137976308Y-90182454D01*
X137892299Y-90174789D01*
X137779060Y-90171780D01*
X137704491Y-90171462D01*
X137413580Y-90171462D01*
X137390905Y-90221227D01*
X137374333Y-90260424D01*
X137368231Y-90279843D01*
X137386390Y-90283558D01*
X137435352Y-90286505D01*
X137506847Y-90288309D01*
X137563615Y-90288692D01*
X137645629Y-90290339D01*
X137710691Y-90294778D01*
X137750533Y-90301260D01*
X137759000Y-90306410D01*
X137750354Y-90341023D01*
X137728177Y-90395360D01*
X137698114Y-90458278D01*
X137665808Y-90518632D01*
X137636902Y-90565279D01*
X137617039Y-90587074D01*
X137616825Y-90587161D01*
X137580065Y-90585286D01*
X137544974Y-90568475D01*
X137516472Y-90538961D01*
X137506939Y-90495884D01*
X137508050Y-90459068D01*
X137508867Y-90406926D01*
X137496651Y-90379556D01*
X137464376Y-90363118D01*
X137458290Y-90361045D01*
X137412261Y-90353919D01*
X137384313Y-90372976D01*
X137370993Y-90422647D01*
X137368530Y-90476303D01*
X137386790Y-90572858D01*
X137412869Y-90622841D01*
X137474132Y-90684571D01*
X137549330Y-90717310D01*
X137628789Y-90720247D01*
X137702833Y-90692576D01*
X137749231Y-90650953D01*
X137775207Y-90609396D01*
X137808093Y-90544078D01*
X137841443Y-90467962D01*
X137846539Y-90455274D01*
X137883435Y-90371667D01*
X137915954Y-90323470D01*
X137948282Y-90307970D01*
X137984606Y-90322450D01*
X138013000Y-90347308D01*
X138047961Y-90406061D01*
X138050583Y-90470707D01*
X138023642Y-90529992D01*
X137969912Y-90572661D01*
X137956050Y-90578261D01*
X137905064Y-90610867D01*
X137867213Y-90658470D01*
X137836150Y-90718539D01*
X137924232Y-90718539D01*
X137978049Y-90715003D01*
X138020466Y-90699844D01*
X138065721Y-90666232D01*
X138100580Y-90633965D01*
X138149938Y-90583791D01*
X138176453Y-90544807D01*
X138187089Y-90502936D01*
X138188846Y-90455540D01*
X138173472Y-90351667D01*
X138173472Y-90351667D01*
G37*
X138173472Y-90351667D02*
X138147883Y-90295410D01*
X138116876Y-90251253D01*
X138082205Y-90218899D01*
X138037480Y-90196562D01*
X137976308Y-90182454D01*
X137892299Y-90174789D01*
X137779060Y-90171780D01*
X137704491Y-90171462D01*
X137413580Y-90171462D01*
X137390905Y-90221227D01*
X137374333Y-90260424D01*
X137368231Y-90279843D01*
X137386390Y-90283558D01*
X137435352Y-90286505D01*
X137506847Y-90288309D01*
X137563615Y-90288692D01*
X137645629Y-90290339D01*
X137710691Y-90294778D01*
X137750533Y-90301260D01*
X137759000Y-90306410D01*
X137750354Y-90341023D01*
X137728177Y-90395360D01*
X137698114Y-90458278D01*
X137665808Y-90518632D01*
X137636902Y-90565279D01*
X137617039Y-90587074D01*
X137616825Y-90587161D01*
X137580065Y-90585286D01*
X137544974Y-90568475D01*
X137516472Y-90538961D01*
X137506939Y-90495884D01*
X137508050Y-90459068D01*
X137508867Y-90406926D01*
X137496651Y-90379556D01*
X137464376Y-90363118D01*
X137458290Y-90361045D01*
X137412261Y-90353919D01*
X137384313Y-90372976D01*
X137370993Y-90422647D01*
X137368530Y-90476303D01*
X137386790Y-90572858D01*
X137412869Y-90622841D01*
X137474132Y-90684571D01*
X137549330Y-90717310D01*
X137628789Y-90720247D01*
X137702833Y-90692576D01*
X137749231Y-90650953D01*
X137775207Y-90609396D01*
X137808093Y-90544078D01*
X137841443Y-90467962D01*
X137846539Y-90455274D01*
X137883435Y-90371667D01*
X137915954Y-90323470D01*
X137948282Y-90307970D01*
X137984606Y-90322450D01*
X138013000Y-90347308D01*
X138047961Y-90406061D01*
X138050583Y-90470707D01*
X138023642Y-90529992D01*
X137969912Y-90572661D01*
X137956050Y-90578261D01*
X137905064Y-90610867D01*
X137867213Y-90658470D01*
X137836150Y-90718539D01*
X137924232Y-90718539D01*
X137978049Y-90715003D01*
X138020466Y-90699844D01*
X138065721Y-90666232D01*
X138100580Y-90633965D01*
X138149938Y-90583791D01*
X138176453Y-90544807D01*
X138187089Y-90502936D01*
X138188846Y-90455540D01*
X138173472Y-90351667D01*
G36*
X138170338Y-90843071D02*
G01*
X138118932Y-90840089D01*
X138040808Y-90837753D01*
X137942143Y-90836251D01*
X137838657Y-90835769D01*
X137488467Y-90835769D01*
X137426637Y-90897599D01*
X137388538Y-90940207D01*
X137373105Y-90977610D01*
X137374082Y-91028730D01*
X137376567Y-91049022D01*
X137383800Y-91112446D01*
X137387945Y-91164905D01*
X137388328Y-91177692D01*
X137385824Y-91220801D01*
X137379538Y-91282456D01*
X137376567Y-91306362D01*
X137371972Y-91365078D01*
X137381954Y-91404536D01*
X137412772Y-91443662D01*
X137426637Y-91457785D01*
X137488467Y-91519615D01*
X138143497Y-91519615D01*
X138166171Y-91469850D01*
X138182966Y-91426998D01*
X138188846Y-91401927D01*
X138170264Y-91395499D01*
X138118345Y-91389491D01*
X138038828Y-91384303D01*
X137937454Y-91380336D01*
X137851808Y-91378423D01*
X137514769Y-91373077D01*
X137508175Y-91326440D01*
X137512786Y-91284024D01*
X137527713Y-91263240D01*
X137555623Y-91257430D01*
X137615075Y-91252470D01*
X137698534Y-91248754D01*
X137798468Y-91246676D01*
X137849896Y-91246376D01*
X138145946Y-91246077D01*
X138167396Y-91184546D01*
X138181980Y-91140996D01*
X138188781Y-91117306D01*
X138188846Y-91116623D01*
X138170358Y-91114246D01*
X138119094Y-91111634D01*
X138041351Y-91109005D01*
X137943426Y-91106579D01*
X137851808Y-91104885D01*
X137514769Y-91099539D01*
X137514769Y-90982308D01*
X137822254Y-90976928D01*
X138129739Y-90971549D01*
X138159293Y-90914399D01*
X138179587Y-90872203D01*
X138188796Y-90847230D01*
X138188846Y-90846509D01*
X138170338Y-90843071D01*
X138170338Y-90843071D01*
G37*
X138170338Y-90843071D02*
X138118932Y-90840089D01*
X138040808Y-90837753D01*
X137942143Y-90836251D01*
X137838657Y-90835769D01*
X137488467Y-90835769D01*
X137426637Y-90897599D01*
X137388538Y-90940207D01*
X137373105Y-90977610D01*
X137374082Y-91028730D01*
X137376567Y-91049022D01*
X137383800Y-91112446D01*
X137387945Y-91164905D01*
X137388328Y-91177692D01*
X137385824Y-91220801D01*
X137379538Y-91282456D01*
X137376567Y-91306362D01*
X137371972Y-91365078D01*
X137381954Y-91404536D01*
X137412772Y-91443662D01*
X137426637Y-91457785D01*
X137488467Y-91519615D01*
X138143497Y-91519615D01*
X138166171Y-91469850D01*
X138182966Y-91426998D01*
X138188846Y-91401927D01*
X138170264Y-91395499D01*
X138118345Y-91389491D01*
X138038828Y-91384303D01*
X137937454Y-91380336D01*
X137851808Y-91378423D01*
X137514769Y-91373077D01*
X137508175Y-91326440D01*
X137512786Y-91284024D01*
X137527713Y-91263240D01*
X137555623Y-91257430D01*
X137615075Y-91252470D01*
X137698534Y-91248754D01*
X137798468Y-91246676D01*
X137849896Y-91246376D01*
X138145946Y-91246077D01*
X138167396Y-91184546D01*
X138181980Y-91140996D01*
X138188781Y-91117306D01*
X138188846Y-91116623D01*
X138170358Y-91114246D01*
X138119094Y-91111634D01*
X138041351Y-91109005D01*
X137943426Y-91106579D01*
X137851808Y-91104885D01*
X137514769Y-91099539D01*
X137514769Y-90982308D01*
X137822254Y-90976928D01*
X138129739Y-90971549D01*
X138159293Y-90914399D01*
X138179587Y-90872203D01*
X138188796Y-90847230D01*
X138188846Y-90846509D01*
X138170338Y-90843071D01*
G36*
X138026711Y-91636919D02*
G01*
X137880680Y-91637167D01*
X137768345Y-91638128D01*
X137684322Y-91640206D01*
X137623231Y-91643807D01*
X137579691Y-91649335D01*
X137548321Y-91657196D01*
X137523738Y-91667793D01*
X137509706Y-91675818D01*
X137433612Y-91742272D01*
X137385916Y-91826530D01*
X137368801Y-91919751D01*
X137384454Y-92013100D01*
X137412582Y-92068688D01*
X137461240Y-92127043D01*
X137520667Y-92166814D01*
X137598493Y-92190810D01*
X137702348Y-92201839D01*
X137778538Y-92203401D01*
X137784014Y-92203191D01*
X137784014Y-92066692D01*
X137696645Y-92065859D01*
X137638808Y-92062039D01*
X137600971Y-92053254D01*
X137573602Y-92037526D01*
X137552958Y-92018734D01*
X137513110Y-91955625D01*
X137509705Y-91887863D01*
X137542975Y-91823821D01*
X137547483Y-91818836D01*
X137570933Y-91797561D01*
X137598834Y-91784221D01*
X137640359Y-91776999D01*
X137704684Y-91774077D01*
X137775800Y-91773615D01*
X137865142Y-91774617D01*
X137924742Y-91778762D01*
X137963911Y-91787764D01*
X137991960Y-91803333D01*
X138006856Y-91816098D01*
X138044425Y-91875400D01*
X138048943Y-91943699D01*
X138020247Y-92008890D01*
X138009594Y-92021472D01*
X137985937Y-92042889D01*
X137957749Y-92056256D01*
X137915755Y-92063434D01*
X137850681Y-92066281D01*
X137784014Y-92066692D01*
X137784014Y-92203191D01*
X137901235Y-92198678D01*
X137993423Y-92182638D01*
X138062731Y-92152472D01*
X138116789Y-92105371D01*
X138144495Y-92068688D01*
X138174428Y-92002010D01*
X138188322Y-91924728D01*
X138184603Y-91852890D01*
X138169600Y-91812692D01*
X138165330Y-91796918D01*
X138181250Y-91786450D01*
X138223911Y-91779144D01*
X138288894Y-91773615D01*
X138361268Y-91767563D01*
X138404813Y-91759156D01*
X138429713Y-91743859D01*
X138446155Y-91717136D01*
X138453436Y-91700346D01*
X138480037Y-91636846D01*
X138026711Y-91636919D01*
X138026711Y-91636919D01*
G37*
X138026711Y-91636919D02*
X137880680Y-91637167D01*
X137768345Y-91638128D01*
X137684322Y-91640206D01*
X137623231Y-91643807D01*
X137579691Y-91649335D01*
X137548321Y-91657196D01*
X137523738Y-91667793D01*
X137509706Y-91675818D01*
X137433612Y-91742272D01*
X137385916Y-91826530D01*
X137368801Y-91919751D01*
X137384454Y-92013100D01*
X137412582Y-92068688D01*
X137461240Y-92127043D01*
X137520667Y-92166814D01*
X137598493Y-92190810D01*
X137702348Y-92201839D01*
X137778538Y-92203401D01*
X137784014Y-92203191D01*
X137784014Y-92066692D01*
X137696645Y-92065859D01*
X137638808Y-92062039D01*
X137600971Y-92053254D01*
X137573602Y-92037526D01*
X137552958Y-92018734D01*
X137513110Y-91955625D01*
X137509705Y-91887863D01*
X137542975Y-91823821D01*
X137547483Y-91818836D01*
X137570933Y-91797561D01*
X137598834Y-91784221D01*
X137640359Y-91776999D01*
X137704684Y-91774077D01*
X137775800Y-91773615D01*
X137865142Y-91774617D01*
X137924742Y-91778762D01*
X137963911Y-91787764D01*
X137991960Y-91803333D01*
X138006856Y-91816098D01*
X138044425Y-91875400D01*
X138048943Y-91943699D01*
X138020247Y-92008890D01*
X138009594Y-92021472D01*
X137985937Y-92042889D01*
X137957749Y-92056256D01*
X137915755Y-92063434D01*
X137850681Y-92066281D01*
X137784014Y-92066692D01*
X137784014Y-92203191D01*
X137901235Y-92198678D01*
X137993423Y-92182638D01*
X138062731Y-92152472D01*
X138116789Y-92105371D01*
X138144495Y-92068688D01*
X138174428Y-92002010D01*
X138188322Y-91924728D01*
X138184603Y-91852890D01*
X138169600Y-91812692D01*
X138165330Y-91796918D01*
X138181250Y-91786450D01*
X138223911Y-91779144D01*
X138288894Y-91773615D01*
X138361268Y-91767563D01*
X138404813Y-91759156D01*
X138429713Y-91743859D01*
X138446155Y-91717136D01*
X138453436Y-91700346D01*
X138480037Y-91636846D01*
X138026711Y-91636919D01*
G36*
X138182330Y-92525638D02*
G01*
X138149579Y-92436883D01*
X138091650Y-92364978D01*
X138050872Y-92336856D01*
X137976046Y-92306198D01*
X137921942Y-92306835D01*
X137885554Y-92339013D01*
X137879367Y-92350919D01*
X137860075Y-92402325D01*
X137865018Y-92428578D01*
X137897413Y-92437470D01*
X137915308Y-92437923D01*
X137981141Y-92454203D01*
X138027193Y-92496635D01*
X138049436Y-92555612D01*
X138043839Y-92621525D01*
X138014771Y-92675105D01*
X137998190Y-92693202D01*
X137978075Y-92706029D01*
X137947668Y-92714694D01*
X137900212Y-92720304D01*
X137828950Y-92723965D01*
X137727125Y-92726785D01*
X137694885Y-92727516D01*
X137584590Y-92730180D01*
X137506964Y-92733208D01*
X137455604Y-92737750D01*
X137424110Y-92744954D01*
X137406080Y-92755967D01*
X137395112Y-92771940D01*
X137390267Y-92782166D01*
X137373699Y-92825594D01*
X137368231Y-92851158D01*
X137386493Y-92859605D01*
X137441704Y-92864761D01*
X137534501Y-92866654D01*
X137665522Y-92865311D01*
X137685731Y-92864893D01*
X137805267Y-92861942D01*
X137892551Y-92858452D01*
X137954409Y-92853486D01*
X137997664Y-92846107D01*
X138029140Y-92835376D01*
X138055661Y-92820355D01*
X138067025Y-92812498D01*
X138117308Y-92767447D01*
X138156419Y-92717060D01*
X138159833Y-92710892D01*
X138186788Y-92620542D01*
X138182330Y-92525638D01*
X138182330Y-92525638D01*
G37*
X138182330Y-92525638D02*
X138149579Y-92436883D01*
X138091650Y-92364978D01*
X138050872Y-92336856D01*
X137976046Y-92306198D01*
X137921942Y-92306835D01*
X137885554Y-92339013D01*
X137879367Y-92350919D01*
X137860075Y-92402325D01*
X137865018Y-92428578D01*
X137897413Y-92437470D01*
X137915308Y-92437923D01*
X137981141Y-92454203D01*
X138027193Y-92496635D01*
X138049436Y-92555612D01*
X138043839Y-92621525D01*
X138014771Y-92675105D01*
X137998190Y-92693202D01*
X137978075Y-92706029D01*
X137947668Y-92714694D01*
X137900212Y-92720304D01*
X137828950Y-92723965D01*
X137727125Y-92726785D01*
X137694885Y-92727516D01*
X137584590Y-92730180D01*
X137506964Y-92733208D01*
X137455604Y-92737750D01*
X137424110Y-92744954D01*
X137406080Y-92755967D01*
X137395112Y-92771940D01*
X137390267Y-92782166D01*
X137373699Y-92825594D01*
X137368231Y-92851158D01*
X137386493Y-92859605D01*
X137441704Y-92864761D01*
X137534501Y-92866654D01*
X137665522Y-92865311D01*
X137685731Y-92864893D01*
X137805267Y-92861942D01*
X137892551Y-92858452D01*
X137954409Y-92853486D01*
X137997664Y-92846107D01*
X138029140Y-92835376D01*
X138055661Y-92820355D01*
X138067025Y-92812498D01*
X138117308Y-92767447D01*
X138156419Y-92717060D01*
X138159833Y-92710892D01*
X138186788Y-92620542D01*
X138182330Y-92525638D01*
G36*
X138180697Y-93185499D02*
G01*
X138152267Y-93108940D01*
X138151721Y-93108064D01*
X138116873Y-93060715D01*
X138076148Y-93025759D01*
X138023075Y-93001175D01*
X137951186Y-92984938D01*
X137854008Y-92975025D01*
X137725072Y-92969414D01*
X137706702Y-92968923D01*
X137429713Y-92961859D01*
X137398972Y-93021305D01*
X137378198Y-93064319D01*
X137368354Y-93090290D01*
X137368231Y-93091491D01*
X137386394Y-93095986D01*
X137435388Y-93099556D01*
X137506969Y-93101752D01*
X137564932Y-93102231D01*
X137658830Y-93102242D01*
X137717797Y-93106534D01*
X137745921Y-93121497D01*
X137747294Y-93153518D01*
X137726002Y-93208986D01*
X137686864Y-93292731D01*
X137654357Y-93354311D01*
X137626155Y-93385983D01*
X137595418Y-93395294D01*
X137593896Y-93395308D01*
X137540946Y-93379943D01*
X137512340Y-93334453D01*
X137508197Y-93264834D01*
X137508916Y-93214687D01*
X137494473Y-93188246D01*
X137459782Y-93171757D01*
X137415584Y-93162267D01*
X137390507Y-93175943D01*
X137386918Y-93181093D01*
X137372504Y-93229575D01*
X137370463Y-93297469D01*
X137380017Y-93367388D01*
X137397478Y-93416932D01*
X137455636Y-93485430D01*
X137536592Y-93524366D01*
X137599840Y-93532077D01*
X137656889Y-93526193D01*
X137703458Y-93504899D01*
X137744819Y-93462735D01*
X137786245Y-93394241D01*
X137833007Y-93293956D01*
X137835650Y-93287846D01*
X137877383Y-93197510D01*
X137911609Y-93141765D01*
X137942365Y-93117871D01*
X137973689Y-93123087D01*
X138009617Y-93154672D01*
X138017884Y-93164117D01*
X138049942Y-93227383D01*
X138048593Y-93292936D01*
X138017162Y-93350028D01*
X137958976Y-93387907D01*
X137947554Y-93391426D01*
X137892163Y-93425700D01*
X137865482Y-93469191D01*
X137839040Y-93532077D01*
X137907452Y-93532077D01*
X138006890Y-93512948D01*
X138098098Y-93456169D01*
X138128611Y-93426622D01*
X138167772Y-93359458D01*
X138185500Y-93274044D01*
X138180697Y-93185499D01*
X138180697Y-93185499D01*
G37*
X138180697Y-93185499D02*
X138152267Y-93108940D01*
X138151721Y-93108064D01*
X138116873Y-93060715D01*
X138076148Y-93025759D01*
X138023075Y-93001175D01*
X137951186Y-92984938D01*
X137854008Y-92975025D01*
X137725072Y-92969414D01*
X137706702Y-92968923D01*
X137429713Y-92961859D01*
X137398972Y-93021305D01*
X137378198Y-93064319D01*
X137368354Y-93090290D01*
X137368231Y-93091491D01*
X137386394Y-93095986D01*
X137435388Y-93099556D01*
X137506969Y-93101752D01*
X137564932Y-93102231D01*
X137658830Y-93102242D01*
X137717797Y-93106534D01*
X137745921Y-93121497D01*
X137747294Y-93153518D01*
X137726002Y-93208986D01*
X137686864Y-93292731D01*
X137654357Y-93354311D01*
X137626155Y-93385983D01*
X137595418Y-93395294D01*
X137593896Y-93395308D01*
X137540946Y-93379943D01*
X137512340Y-93334453D01*
X137508197Y-93264834D01*
X137508916Y-93214687D01*
X137494473Y-93188246D01*
X137459782Y-93171757D01*
X137415584Y-93162267D01*
X137390507Y-93175943D01*
X137386918Y-93181093D01*
X137372504Y-93229575D01*
X137370463Y-93297469D01*
X137380017Y-93367388D01*
X137397478Y-93416932D01*
X137455636Y-93485430D01*
X137536592Y-93524366D01*
X137599840Y-93532077D01*
X137656889Y-93526193D01*
X137703458Y-93504899D01*
X137744819Y-93462735D01*
X137786245Y-93394241D01*
X137833007Y-93293956D01*
X137835650Y-93287846D01*
X137877383Y-93197510D01*
X137911609Y-93141765D01*
X137942365Y-93117871D01*
X137973689Y-93123087D01*
X138009617Y-93154672D01*
X138017884Y-93164117D01*
X138049942Y-93227383D01*
X138048593Y-93292936D01*
X138017162Y-93350028D01*
X137958976Y-93387907D01*
X137947554Y-93391426D01*
X137892163Y-93425700D01*
X137865482Y-93469191D01*
X137839040Y-93532077D01*
X137907452Y-93532077D01*
X138006890Y-93512948D01*
X138098098Y-93456169D01*
X138128611Y-93426622D01*
X138167772Y-93359458D01*
X138185500Y-93274044D01*
X138180697Y-93185499D01*
G36*
X138314880Y-94079154D02*
G01*
X138235020Y-94073428D01*
X138187961Y-94066851D01*
X138167434Y-94057738D01*
X138167171Y-94044402D01*
X138169622Y-94040077D01*
X138187364Y-93982556D01*
X138186328Y-93907732D01*
X138168090Y-93831661D01*
X138144495Y-93784082D01*
X138106802Y-93735298D01*
X138064145Y-93699636D01*
X138009943Y-93675155D01*
X137937616Y-93659913D01*
X137840581Y-93651970D01*
X137712258Y-93649384D01*
X137687642Y-93649338D01*
X137411130Y-93649308D01*
X137389680Y-93710839D01*
X137375088Y-93754541D01*
X137368294Y-93778518D01*
X137368231Y-93779223D01*
X137386655Y-93781585D01*
X137437474Y-93783594D01*
X137514007Y-93785099D01*
X137609570Y-93785947D01*
X137667671Y-93786077D01*
X137782229Y-93786349D01*
X137864333Y-93787748D01*
X137920607Y-93791151D01*
X137957674Y-93797433D01*
X137982156Y-93807471D01*
X138000675Y-93822139D01*
X138009594Y-93831298D01*
X138045534Y-93894211D01*
X138048225Y-93962864D01*
X138017830Y-94025152D01*
X138006856Y-94036671D01*
X137986221Y-94053567D01*
X137961744Y-94065286D01*
X137926353Y-94072767D01*
X137872974Y-94076946D01*
X137794534Y-94078763D01*
X137686383Y-94079154D01*
X137411130Y-94079154D01*
X137389680Y-94140685D01*
X137375088Y-94184387D01*
X137368294Y-94208364D01*
X137368231Y-94209070D01*
X137386931Y-94210874D01*
X137439678Y-94212500D01*
X137521443Y-94213883D01*
X137627195Y-94214958D01*
X137751906Y-94215660D01*
X137890545Y-94215923D01*
X138425194Y-94215923D01*
X138478764Y-94088923D01*
X138314880Y-94079154D01*
X138314880Y-94079154D01*
G37*
X138314880Y-94079154D02*
X138235020Y-94073428D01*
X138187961Y-94066851D01*
X138167434Y-94057738D01*
X138167171Y-94044402D01*
X138169622Y-94040077D01*
X138187364Y-93982556D01*
X138186328Y-93907732D01*
X138168090Y-93831661D01*
X138144495Y-93784082D01*
X138106802Y-93735298D01*
X138064145Y-93699636D01*
X138009943Y-93675155D01*
X137937616Y-93659913D01*
X137840581Y-93651970D01*
X137712258Y-93649384D01*
X137687642Y-93649338D01*
X137411130Y-93649308D01*
X137389680Y-93710839D01*
X137375088Y-93754541D01*
X137368294Y-93778518D01*
X137368231Y-93779223D01*
X137386655Y-93781585D01*
X137437474Y-93783594D01*
X137514007Y-93785099D01*
X137609570Y-93785947D01*
X137667671Y-93786077D01*
X137782229Y-93786349D01*
X137864333Y-93787748D01*
X137920607Y-93791151D01*
X137957674Y-93797433D01*
X137982156Y-93807471D01*
X138000675Y-93822139D01*
X138009594Y-93831298D01*
X138045534Y-93894211D01*
X138048225Y-93962864D01*
X138017830Y-94025152D01*
X138006856Y-94036671D01*
X137986221Y-94053567D01*
X137961744Y-94065286D01*
X137926353Y-94072767D01*
X137872974Y-94076946D01*
X137794534Y-94078763D01*
X137686383Y-94079154D01*
X137411130Y-94079154D01*
X137389680Y-94140685D01*
X137375088Y-94184387D01*
X137368294Y-94208364D01*
X137368231Y-94209070D01*
X137386931Y-94210874D01*
X137439678Y-94212500D01*
X137521443Y-94213883D01*
X137627195Y-94214958D01*
X137751906Y-94215660D01*
X137890545Y-94215923D01*
X138425194Y-94215923D01*
X138478764Y-94088923D01*
X138314880Y-94079154D01*
G36*
X138207255Y-95704746D02*
G01*
X138155433Y-95627714D01*
X138080588Y-95568184D01*
X137985346Y-95532622D01*
X137915244Y-95525429D01*
X137885991Y-95526246D01*
X137863593Y-95533086D01*
X137843526Y-95551888D01*
X137821267Y-95588592D01*
X137792291Y-95649138D01*
X137752073Y-95739466D01*
X137751871Y-95739923D01*
X137713790Y-95823067D01*
X137679975Y-95891247D01*
X137654067Y-95937495D01*
X137639705Y-95954842D01*
X137639589Y-95954846D01*
X137608315Y-95939557D01*
X137573843Y-95903804D01*
X137549010Y-95862758D01*
X137544077Y-95841963D01*
X137561138Y-95785230D01*
X137603867Y-95736373D01*
X137650845Y-95712535D01*
X137685478Y-95689603D01*
X137724919Y-95644682D01*
X137758991Y-95591877D01*
X137777520Y-95545290D01*
X137778538Y-95535548D01*
X137761785Y-95524582D01*
X137718961Y-95523921D01*
X137661219Y-95531980D01*
X137599711Y-95547173D01*
X137545591Y-95567914D01*
X137543490Y-95568962D01*
X137456340Y-95631379D01*
X137397061Y-95712274D01*
X137367966Y-95804144D01*
X137371366Y-95899487D01*
X137409572Y-95990802D01*
X137412259Y-95994862D01*
X137477358Y-96066694D01*
X137562295Y-96113927D01*
X137673979Y-96140066D01*
X137705357Y-96143574D01*
X137853464Y-96149787D01*
X137922532Y-96142339D01*
X137922532Y-95954846D01*
X137879448Y-95952410D01*
X137866874Y-95939086D01*
X137876281Y-95905868D01*
X137898517Y-95853506D01*
X137926390Y-95794976D01*
X137927128Y-95793521D01*
X137953223Y-95743911D01*
X137970637Y-95724000D01*
X137988893Y-95728910D01*
X138012880Y-95749584D01*
X138047594Y-95802181D01*
X138050144Y-95858823D01*
X138024881Y-95909631D01*
X137976153Y-95944724D01*
X137922532Y-95954846D01*
X137922532Y-96142339D01*
X137971964Y-96137008D01*
X138065945Y-96104222D01*
X138131785Y-96058579D01*
X138198319Y-95976198D01*
X138231324Y-95885454D01*
X138233427Y-95792815D01*
X138207255Y-95704746D01*
X138207255Y-95704746D01*
G37*
X138207255Y-95704746D02*
X138155433Y-95627714D01*
X138080588Y-95568184D01*
X137985346Y-95532622D01*
X137915244Y-95525429D01*
X137885991Y-95526246D01*
X137863593Y-95533086D01*
X137843526Y-95551888D01*
X137821267Y-95588592D01*
X137792291Y-95649138D01*
X137752073Y-95739466D01*
X137751871Y-95739923D01*
X137713790Y-95823067D01*
X137679975Y-95891247D01*
X137654067Y-95937495D01*
X137639705Y-95954842D01*
X137639589Y-95954846D01*
X137608315Y-95939557D01*
X137573843Y-95903804D01*
X137549010Y-95862758D01*
X137544077Y-95841963D01*
X137561138Y-95785230D01*
X137603867Y-95736373D01*
X137650845Y-95712535D01*
X137685478Y-95689603D01*
X137724919Y-95644682D01*
X137758991Y-95591877D01*
X137777520Y-95545290D01*
X137778538Y-95535548D01*
X137761785Y-95524582D01*
X137718961Y-95523921D01*
X137661219Y-95531980D01*
X137599711Y-95547173D01*
X137545591Y-95567914D01*
X137543490Y-95568962D01*
X137456340Y-95631379D01*
X137397061Y-95712274D01*
X137367966Y-95804144D01*
X137371366Y-95899487D01*
X137409572Y-95990802D01*
X137412259Y-95994862D01*
X137477358Y-96066694D01*
X137562295Y-96113927D01*
X137673979Y-96140066D01*
X137705357Y-96143574D01*
X137853464Y-96149787D01*
X137922532Y-96142339D01*
X137922532Y-95954846D01*
X137879448Y-95952410D01*
X137866874Y-95939086D01*
X137876281Y-95905868D01*
X137898517Y-95853506D01*
X137926390Y-95794976D01*
X137927128Y-95793521D01*
X137953223Y-95743911D01*
X137970637Y-95724000D01*
X137988893Y-95728910D01*
X138012880Y-95749584D01*
X138047594Y-95802181D01*
X138050144Y-95858823D01*
X138024881Y-95909631D01*
X137976153Y-95944724D01*
X137922532Y-95954846D01*
X137922532Y-96142339D01*
X137971964Y-96137008D01*
X138065945Y-96104222D01*
X138131785Y-96058579D01*
X138198319Y-95976198D01*
X138231324Y-95885454D01*
X138233427Y-95792815D01*
X138207255Y-95704746D01*
G36*
X138219744Y-97222114D02*
G01*
X138171591Y-97130536D01*
X138094095Y-97062951D01*
X138044273Y-97038943D01*
X137969467Y-97020262D01*
X137874948Y-97010699D01*
X137771790Y-97009792D01*
X137671065Y-97017079D01*
X137583847Y-97032097D01*
X137521209Y-97054385D01*
X137510421Y-97061235D01*
X137429895Y-97142368D01*
X137381664Y-97238734D01*
X137367550Y-97343299D01*
X137389371Y-97449032D01*
X137402453Y-97478457D01*
X137442769Y-97535759D01*
X137496225Y-97586050D01*
X137503005Y-97590803D01*
X137535679Y-97610122D01*
X137570606Y-97622892D01*
X137616586Y-97630436D01*
X137682416Y-97634076D01*
X137776895Y-97635135D01*
X137798077Y-97635154D01*
X137804818Y-97635106D01*
X137804818Y-97439769D01*
X137715651Y-97438632D01*
X137656480Y-97434159D01*
X137618259Y-97424754D01*
X137591947Y-97408824D01*
X137583154Y-97400692D01*
X137549739Y-97353942D01*
X137551263Y-97308553D01*
X137580248Y-97262660D01*
X137611191Y-97235288D01*
X137656357Y-97219077D01*
X137727580Y-97209974D01*
X137735886Y-97209349D01*
X137864963Y-97207796D01*
X137960828Y-97224035D01*
X138022893Y-97257848D01*
X138050568Y-97309016D01*
X138052077Y-97327280D01*
X138044487Y-97375240D01*
X138018192Y-97408047D01*
X137967905Y-97428105D01*
X137888336Y-97437822D01*
X137804818Y-97439769D01*
X137804818Y-97635106D01*
X137898751Y-97634426D01*
X137969094Y-97631371D01*
X138017837Y-97624678D01*
X138053712Y-97613040D01*
X138085452Y-97595147D01*
X138091352Y-97591192D01*
X138170896Y-97524733D01*
X138217071Y-97452315D01*
X138235401Y-97364151D01*
X138236297Y-97334213D01*
X138219744Y-97222114D01*
X138219744Y-97222114D01*
G37*
X138219744Y-97222114D02*
X138171591Y-97130536D01*
X138094095Y-97062951D01*
X138044273Y-97038943D01*
X137969467Y-97020262D01*
X137874948Y-97010699D01*
X137771790Y-97009792D01*
X137671065Y-97017079D01*
X137583847Y-97032097D01*
X137521209Y-97054385D01*
X137510421Y-97061235D01*
X137429895Y-97142368D01*
X137381664Y-97238734D01*
X137367550Y-97343299D01*
X137389371Y-97449032D01*
X137402453Y-97478457D01*
X137442769Y-97535759D01*
X137496225Y-97586050D01*
X137503005Y-97590803D01*
X137535679Y-97610122D01*
X137570606Y-97622892D01*
X137616586Y-97630436D01*
X137682416Y-97634076D01*
X137776895Y-97635135D01*
X137798077Y-97635154D01*
X137804818Y-97635106D01*
X137804818Y-97439769D01*
X137715651Y-97438632D01*
X137656480Y-97434159D01*
X137618259Y-97424754D01*
X137591947Y-97408824D01*
X137583154Y-97400692D01*
X137549739Y-97353942D01*
X137551263Y-97308553D01*
X137580248Y-97262660D01*
X137611191Y-97235288D01*
X137656357Y-97219077D01*
X137727580Y-97209974D01*
X137735886Y-97209349D01*
X137864963Y-97207796D01*
X137960828Y-97224035D01*
X138022893Y-97257848D01*
X138050568Y-97309016D01*
X138052077Y-97327280D01*
X138044487Y-97375240D01*
X138018192Y-97408047D01*
X137967905Y-97428105D01*
X137888336Y-97437822D01*
X137804818Y-97439769D01*
X137804818Y-97635106D01*
X137898751Y-97634426D01*
X137969094Y-97631371D01*
X138017837Y-97624678D01*
X138053712Y-97613040D01*
X138085452Y-97595147D01*
X138091352Y-97591192D01*
X138170896Y-97524733D01*
X138217071Y-97452315D01*
X138235401Y-97364151D01*
X138236297Y-97334213D01*
X138219744Y-97222114D01*
G36*
X138211911Y-94967336D02*
G01*
X138175642Y-94904633D01*
X138139642Y-94861039D01*
X138101925Y-94829155D01*
X138055801Y-94807190D01*
X137994579Y-94793351D01*
X137911569Y-94785847D01*
X137800081Y-94782883D01*
X137719938Y-94782539D01*
X137424935Y-94782539D01*
X137350485Y-94948615D01*
X137673598Y-94958385D01*
X137794271Y-94962421D01*
X137881859Y-94966656D01*
X137942350Y-94971903D01*
X137981732Y-94978975D01*
X138005993Y-94988689D01*
X138021120Y-95001856D01*
X138024394Y-95006081D01*
X138049966Y-95070091D01*
X138039847Y-95134792D01*
X138013000Y-95173308D01*
X137993976Y-95188975D01*
X137969012Y-95199820D01*
X137931166Y-95206712D01*
X137873498Y-95210521D01*
X137789065Y-95212117D01*
X137701072Y-95212385D01*
X137590677Y-95212437D01*
X137512537Y-95214328D01*
X137459835Y-95220655D01*
X137425758Y-95234017D01*
X137403489Y-95257015D01*
X137386213Y-95292246D01*
X137368262Y-95339303D01*
X137348722Y-95390697D01*
X137695515Y-95384579D01*
X137820532Y-95382116D01*
X137912918Y-95379233D01*
X137979119Y-95375102D01*
X138025580Y-95368893D01*
X138058744Y-95359774D01*
X138085056Y-95346917D01*
X138108271Y-95331416D01*
X138182431Y-95256629D01*
X138225316Y-95165372D01*
X138235588Y-95066117D01*
X138211911Y-94967336D01*
X138211911Y-94967336D01*
G37*
X138211911Y-94967336D02*
X138175642Y-94904633D01*
X138139642Y-94861039D01*
X138101925Y-94829155D01*
X138055801Y-94807190D01*
X137994579Y-94793351D01*
X137911569Y-94785847D01*
X137800081Y-94782883D01*
X137719938Y-94782539D01*
X137424935Y-94782539D01*
X137350485Y-94948615D01*
X137673598Y-94958385D01*
X137794271Y-94962421D01*
X137881859Y-94966656D01*
X137942350Y-94971903D01*
X137981732Y-94978975D01*
X138005993Y-94988689D01*
X138021120Y-95001856D01*
X138024394Y-95006081D01*
X138049966Y-95070091D01*
X138039847Y-95134792D01*
X138013000Y-95173308D01*
X137993976Y-95188975D01*
X137969012Y-95199820D01*
X137931166Y-95206712D01*
X137873498Y-95210521D01*
X137789065Y-95212117D01*
X137701072Y-95212385D01*
X137590677Y-95212437D01*
X137512537Y-95214328D01*
X137459835Y-95220655D01*
X137425758Y-95234017D01*
X137403489Y-95257015D01*
X137386213Y-95292246D01*
X137368262Y-95339303D01*
X137348722Y-95390697D01*
X137695515Y-95384579D01*
X137820532Y-95382116D01*
X137912918Y-95379233D01*
X137979119Y-95375102D01*
X138025580Y-95368893D01*
X138058744Y-95359774D01*
X138085056Y-95346917D01*
X138108271Y-95331416D01*
X138182431Y-95256629D01*
X138225316Y-95165372D01*
X138235588Y-95066117D01*
X138211911Y-94967336D01*
G36*
X138222495Y-96470114D02*
G01*
X138185273Y-96395461D01*
X138116739Y-96329569D01*
X138091352Y-96311423D01*
X138058134Y-96291655D01*
X138022055Y-96278828D01*
X137973902Y-96271490D01*
X137904464Y-96268187D01*
X137812794Y-96267462D01*
X137687170Y-96270737D01*
X137592846Y-96282123D01*
X137522477Y-96303959D01*
X137468714Y-96338581D01*
X137424212Y-96388330D01*
X137421577Y-96391986D01*
X137394623Y-96441015D01*
X137381288Y-96500055D01*
X137378000Y-96575141D01*
X137378000Y-96697205D01*
X137259503Y-96697256D01*
X137193508Y-96698392D01*
X137154798Y-96705314D01*
X137131581Y-96723402D01*
X137112067Y-96758038D01*
X137108080Y-96766355D01*
X137089397Y-96805280D01*
X137077597Y-96835417D01*
X137076578Y-96857826D01*
X137090239Y-96873567D01*
X137122478Y-96883698D01*
X137177196Y-96889277D01*
X137258289Y-96891365D01*
X137369656Y-96891019D01*
X137515198Y-96889300D01*
X137558731Y-96888763D01*
X137708795Y-96886828D01*
X137806958Y-96885096D01*
X137806958Y-96697308D01*
X137723636Y-96696252D01*
X137669120Y-96691562D01*
X137633163Y-96680949D01*
X137605518Y-96662128D01*
X137592035Y-96649350D01*
X137552583Y-96597110D01*
X137549372Y-96550858D01*
X137581951Y-96503133D01*
X137583154Y-96501923D01*
X137608332Y-96482506D01*
X137642553Y-96470693D01*
X137695252Y-96464735D01*
X137775869Y-96462880D01*
X137793729Y-96462846D01*
X137904825Y-96467330D01*
X137981839Y-96481926D01*
X138028853Y-96508350D01*
X138049950Y-96548317D01*
X138052077Y-96571416D01*
X138042100Y-96626238D01*
X138009248Y-96663842D01*
X137949143Y-96686477D01*
X137857402Y-96696394D01*
X137806958Y-96697308D01*
X137806958Y-96885096D01*
X137824940Y-96884778D01*
X137912321Y-96882127D01*
X137976095Y-96878394D01*
X138021418Y-96873093D01*
X138053445Y-96865742D01*
X138077332Y-96855857D01*
X138098236Y-96842954D01*
X138106102Y-96837421D01*
X138180405Y-96764031D01*
X138222533Y-96671240D01*
X138234278Y-96563904D01*
X138222495Y-96470114D01*
X138222495Y-96470114D01*
G37*
X138222495Y-96470114D02*
X138185273Y-96395461D01*
X138116739Y-96329569D01*
X138091352Y-96311423D01*
X138058134Y-96291655D01*
X138022055Y-96278828D01*
X137973902Y-96271490D01*
X137904464Y-96268187D01*
X137812794Y-96267462D01*
X137687170Y-96270737D01*
X137592846Y-96282123D01*
X137522477Y-96303959D01*
X137468714Y-96338581D01*
X137424212Y-96388330D01*
X137421577Y-96391986D01*
X137394623Y-96441015D01*
X137381288Y-96500055D01*
X137378000Y-96575141D01*
X137378000Y-96697205D01*
X137259503Y-96697256D01*
X137193508Y-96698392D01*
X137154798Y-96705314D01*
X137131581Y-96723402D01*
X137112067Y-96758038D01*
X137108080Y-96766355D01*
X137089397Y-96805280D01*
X137077597Y-96835417D01*
X137076578Y-96857826D01*
X137090239Y-96873567D01*
X137122478Y-96883698D01*
X137177196Y-96889277D01*
X137258289Y-96891365D01*
X137369656Y-96891019D01*
X137515198Y-96889300D01*
X137558731Y-96888763D01*
X137708795Y-96886828D01*
X137806958Y-96885096D01*
X137806958Y-96697308D01*
X137723636Y-96696252D01*
X137669120Y-96691562D01*
X137633163Y-96680949D01*
X137605518Y-96662128D01*
X137592035Y-96649350D01*
X137552583Y-96597110D01*
X137549372Y-96550858D01*
X137581951Y-96503133D01*
X137583154Y-96501923D01*
X137608332Y-96482506D01*
X137642553Y-96470693D01*
X137695252Y-96464735D01*
X137775869Y-96462880D01*
X137793729Y-96462846D01*
X137904825Y-96467330D01*
X137981839Y-96481926D01*
X138028853Y-96508350D01*
X138049950Y-96548317D01*
X138052077Y-96571416D01*
X138042100Y-96626238D01*
X138009248Y-96663842D01*
X137949143Y-96686477D01*
X137857402Y-96696394D01*
X137806958Y-96697308D01*
X137806958Y-96885096D01*
X137824940Y-96884778D01*
X137912321Y-96882127D01*
X137976095Y-96878394D01*
X138021418Y-96873093D01*
X138053445Y-96865742D01*
X138077332Y-96855857D01*
X138098236Y-96842954D01*
X138106102Y-96837421D01*
X138180405Y-96764031D01*
X138222533Y-96671240D01*
X138234278Y-96563904D01*
X138222495Y-96470114D01*
D12*
X190556225Y-95726000D02*
X190556225Y-95226000D01*
X190306225Y-95476000D02*
X190806225Y-95476000D01*
X195712000Y-94285000D02*
X195712000Y-93717000D01*
X195672000Y-94519000D02*
X195672000Y-93483000D01*
X195632000Y-94678000D02*
X195632000Y-93324000D01*
X195592000Y-94806000D02*
X195592000Y-93196000D01*
X195552000Y-94916000D02*
X195552000Y-93086000D01*
X195512000Y-95012000D02*
X195512000Y-92990000D01*
X195472000Y-95099000D02*
X195472000Y-92903000D01*
X195432000Y-95179000D02*
X195432000Y-92823000D01*
X195392000Y-92961000D02*
X195392000Y-92750000D01*
X195392000Y-95252000D02*
X195392000Y-95041000D01*
X195352000Y-92961000D02*
X195352000Y-92682000D01*
X195352000Y-95320000D02*
X195352000Y-95041000D01*
X195312000Y-92961000D02*
X195312000Y-92618000D01*
X195312000Y-95384000D02*
X195312000Y-95041000D01*
X195272000Y-92961000D02*
X195272000Y-92558000D01*
X195272000Y-95444000D02*
X195272000Y-95041000D01*
X195232000Y-92961000D02*
X195232000Y-92501000D01*
X195232000Y-95501000D02*
X195232000Y-95041000D01*
X195192000Y-92961000D02*
X195192000Y-92447000D01*
X195192000Y-95555000D02*
X195192000Y-95041000D01*
X195152000Y-92961000D02*
X195152000Y-92396000D01*
X195152000Y-95606000D02*
X195152000Y-95041000D01*
X195112000Y-92961000D02*
X195112000Y-92348000D01*
X195112000Y-95654000D02*
X195112000Y-95041000D01*
X195072000Y-92961000D02*
X195072000Y-92302000D01*
X195072000Y-95700000D02*
X195072000Y-95041000D01*
X195032000Y-92961000D02*
X195032000Y-92258000D01*
X195032000Y-95744000D02*
X195032000Y-95041000D01*
X194992000Y-92961000D02*
X194992000Y-92216000D01*
X194992000Y-95786000D02*
X194992000Y-95041000D01*
X194952000Y-92961000D02*
X194952000Y-92175000D01*
X194952000Y-95827000D02*
X194952000Y-95041000D01*
X194912000Y-92961000D02*
X194912000Y-92137000D01*
X194912000Y-95865000D02*
X194912000Y-95041000D01*
X194872000Y-92961000D02*
X194872000Y-92100000D01*
X194872000Y-95902000D02*
X194872000Y-95041000D01*
X194832000Y-92961000D02*
X194832000Y-92064000D01*
X194832000Y-95938000D02*
X194832000Y-95041000D01*
X194792000Y-92961000D02*
X194792000Y-92030000D01*
X194792000Y-95972000D02*
X194792000Y-95041000D01*
X194752000Y-92961000D02*
X194752000Y-91997000D01*
X194752000Y-96005000D02*
X194752000Y-95041000D01*
X194712000Y-92961000D02*
X194712000Y-91966000D01*
X194712000Y-96036000D02*
X194712000Y-95041000D01*
X194672000Y-92961000D02*
X194672000Y-91936000D01*
X194672000Y-96066000D02*
X194672000Y-95041000D01*
X194632000Y-92961000D02*
X194632000Y-91906000D01*
X194632000Y-96096000D02*
X194632000Y-95041000D01*
X194592000Y-92961000D02*
X194592000Y-91879000D01*
X194592000Y-96123000D02*
X194592000Y-95041000D01*
X194552000Y-92961000D02*
X194552000Y-91852000D01*
X194552000Y-96150000D02*
X194552000Y-95041000D01*
X194512000Y-92961000D02*
X194512000Y-91826000D01*
X194512000Y-96176000D02*
X194512000Y-95041000D01*
X194472000Y-92961000D02*
X194472000Y-91801000D01*
X194472000Y-96201000D02*
X194472000Y-95041000D01*
X194432000Y-92961000D02*
X194432000Y-91777000D01*
X194432000Y-96225000D02*
X194432000Y-95041000D01*
X194392000Y-92961000D02*
X194392000Y-91754000D01*
X194392000Y-96248000D02*
X194392000Y-95041000D01*
X194352000Y-92961000D02*
X194352000Y-91733000D01*
X194352000Y-96269000D02*
X194352000Y-95041000D01*
X194312000Y-92961000D02*
X194312000Y-91711000D01*
X194312000Y-96291000D02*
X194312000Y-95041000D01*
X194272000Y-92961000D02*
X194272000Y-91691000D01*
X194272000Y-96311000D02*
X194272000Y-95041000D01*
X194232000Y-92961000D02*
X194232000Y-91672000D01*
X194232000Y-96330000D02*
X194232000Y-95041000D01*
X194192000Y-92961000D02*
X194192000Y-91653000D01*
X194192000Y-96349000D02*
X194192000Y-95041000D01*
X194152000Y-92961000D02*
X194152000Y-91636000D01*
X194152000Y-96366000D02*
X194152000Y-95041000D01*
X194112000Y-92961000D02*
X194112000Y-91619000D01*
X194112000Y-96383000D02*
X194112000Y-95041000D01*
X194072000Y-92961000D02*
X194072000Y-91603000D01*
X194072000Y-96399000D02*
X194072000Y-95041000D01*
X194032000Y-92961000D02*
X194032000Y-91587000D01*
X194032000Y-96415000D02*
X194032000Y-95041000D01*
X193992000Y-92961000D02*
X193992000Y-91573000D01*
X193992000Y-96429000D02*
X193992000Y-95041000D01*
X193952000Y-92961000D02*
X193952000Y-91559000D01*
X193952000Y-96443000D02*
X193952000Y-95041000D01*
X193912000Y-92961000D02*
X193912000Y-91546000D01*
X193912000Y-96456000D02*
X193912000Y-95041000D01*
X193872000Y-92961000D02*
X193872000Y-91533000D01*
X193872000Y-96469000D02*
X193872000Y-95041000D01*
X193832000Y-92961000D02*
X193832000Y-91521000D01*
X193832000Y-96481000D02*
X193832000Y-95041000D01*
X193791000Y-92961000D02*
X193791000Y-91510000D01*
X193791000Y-96492000D02*
X193791000Y-95041000D01*
X193751000Y-92961000D02*
X193751000Y-91500000D01*
X193751000Y-96502000D02*
X193751000Y-95041000D01*
X193711000Y-92961000D02*
X193711000Y-91490000D01*
X193711000Y-96512000D02*
X193711000Y-95041000D01*
X193671000Y-92961000D02*
X193671000Y-91481000D01*
X193671000Y-96521000D02*
X193671000Y-95041000D01*
X193631000Y-92961000D02*
X193631000Y-91473000D01*
X193631000Y-96529000D02*
X193631000Y-95041000D01*
X193591000Y-92961000D02*
X193591000Y-91465000D01*
X193591000Y-96537000D02*
X193591000Y-95041000D01*
X193551000Y-92961000D02*
X193551000Y-91458000D01*
X193551000Y-96544000D02*
X193551000Y-95041000D01*
X193511000Y-92961000D02*
X193511000Y-91451000D01*
X193511000Y-96551000D02*
X193511000Y-95041000D01*
X193471000Y-92961000D02*
X193471000Y-91445000D01*
X193471000Y-96557000D02*
X193471000Y-95041000D01*
X193431000Y-92961000D02*
X193431000Y-91440000D01*
X193431000Y-96562000D02*
X193431000Y-95041000D01*
X193391000Y-92961000D02*
X193391000Y-91436000D01*
X193391000Y-96566000D02*
X193391000Y-95041000D01*
X193351000Y-92961000D02*
X193351000Y-91432000D01*
X193351000Y-96570000D02*
X193351000Y-95041000D01*
X193311000Y-96574000D02*
X193311000Y-91428000D01*
X193271000Y-96577000D02*
X193271000Y-91425000D01*
X193231000Y-96579000D02*
X193231000Y-91423000D01*
X193191000Y-96580000D02*
X193191000Y-91422000D01*
X193151000Y-96581000D02*
X193151000Y-91421000D01*
X193111000Y-96581000D02*
X193111000Y-91421000D01*
X195731000Y-94001000D02*
G75*
G03X195731000Y-94001000I-2620000J0D01*
G01*
X195705775Y-85926000D02*
X195705775Y-86426000D01*
X195955775Y-86176000D02*
X195455775Y-86176000D01*
X190550000Y-87367000D02*
X190550000Y-87935000D01*
X190590000Y-87133000D02*
X190590000Y-88169000D01*
X190630000Y-86974000D02*
X190630000Y-88328000D01*
X190670000Y-86846000D02*
X190670000Y-88456000D01*
X190710000Y-86736000D02*
X190710000Y-88566000D01*
X190750000Y-86640000D02*
X190750000Y-88662000D01*
X190790000Y-86553000D02*
X190790000Y-88749000D01*
X190830000Y-86473000D02*
X190830000Y-88829000D01*
X190870000Y-88691000D02*
X190870000Y-88902000D01*
X190870000Y-86400000D02*
X190870000Y-86611000D01*
X190910000Y-88691000D02*
X190910000Y-88970000D01*
X190910000Y-86332000D02*
X190910000Y-86611000D01*
X190950000Y-88691000D02*
X190950000Y-89034000D01*
X190950000Y-86268000D02*
X190950000Y-86611000D01*
X190990000Y-88691000D02*
X190990000Y-89094000D01*
X190990000Y-86208000D02*
X190990000Y-86611000D01*
X191030000Y-88691000D02*
X191030000Y-89151000D01*
X191030000Y-86151000D02*
X191030000Y-86611000D01*
X191070000Y-88691000D02*
X191070000Y-89205000D01*
X191070000Y-86097000D02*
X191070000Y-86611000D01*
X191110000Y-88691000D02*
X191110000Y-89256000D01*
X191110000Y-86046000D02*
X191110000Y-86611000D01*
X191150000Y-88691000D02*
X191150000Y-89304000D01*
X191150000Y-85998000D02*
X191150000Y-86611000D01*
X191190000Y-88691000D02*
X191190000Y-89350000D01*
X191190000Y-85952000D02*
X191190000Y-86611000D01*
X191230000Y-88691000D02*
X191230000Y-89394000D01*
X191230000Y-85908000D02*
X191230000Y-86611000D01*
X191270000Y-88691000D02*
X191270000Y-89436000D01*
X191270000Y-85866000D02*
X191270000Y-86611000D01*
X191310000Y-88691000D02*
X191310000Y-89477000D01*
X191310000Y-85825000D02*
X191310000Y-86611000D01*
X191350000Y-88691000D02*
X191350000Y-89515000D01*
X191350000Y-85787000D02*
X191350000Y-86611000D01*
X191390000Y-88691000D02*
X191390000Y-89552000D01*
X191390000Y-85750000D02*
X191390000Y-86611000D01*
X191430000Y-88691000D02*
X191430000Y-89588000D01*
X191430000Y-85714000D02*
X191430000Y-86611000D01*
X191470000Y-88691000D02*
X191470000Y-89622000D01*
X191470000Y-85680000D02*
X191470000Y-86611000D01*
X191510000Y-88691000D02*
X191510000Y-89655000D01*
X191510000Y-85647000D02*
X191510000Y-86611000D01*
X191550000Y-88691000D02*
X191550000Y-89686000D01*
X191550000Y-85616000D02*
X191550000Y-86611000D01*
X191590000Y-88691000D02*
X191590000Y-89716000D01*
X191590000Y-85586000D02*
X191590000Y-86611000D01*
X191630000Y-88691000D02*
X191630000Y-89746000D01*
X191630000Y-85556000D02*
X191630000Y-86611000D01*
X191670000Y-88691000D02*
X191670000Y-89773000D01*
X191670000Y-85529000D02*
X191670000Y-86611000D01*
X191710000Y-88691000D02*
X191710000Y-89800000D01*
X191710000Y-85502000D02*
X191710000Y-86611000D01*
X191750000Y-88691000D02*
X191750000Y-89826000D01*
X191750000Y-85476000D02*
X191750000Y-86611000D01*
X191790000Y-88691000D02*
X191790000Y-89851000D01*
X191790000Y-85451000D02*
X191790000Y-86611000D01*
X191830000Y-88691000D02*
X191830000Y-89875000D01*
X191830000Y-85427000D02*
X191830000Y-86611000D01*
X191870000Y-88691000D02*
X191870000Y-89898000D01*
X191870000Y-85404000D02*
X191870000Y-86611000D01*
X191910000Y-88691000D02*
X191910000Y-89919000D01*
X191910000Y-85383000D02*
X191910000Y-86611000D01*
X191950000Y-88691000D02*
X191950000Y-89941000D01*
X191950000Y-85361000D02*
X191950000Y-86611000D01*
X191990000Y-88691000D02*
X191990000Y-89961000D01*
X191990000Y-85341000D02*
X191990000Y-86611000D01*
X192030000Y-88691000D02*
X192030000Y-89980000D01*
X192030000Y-85322000D02*
X192030000Y-86611000D01*
X192070000Y-88691000D02*
X192070000Y-89999000D01*
X192070000Y-85303000D02*
X192070000Y-86611000D01*
X192110000Y-88691000D02*
X192110000Y-90016000D01*
X192110000Y-85286000D02*
X192110000Y-86611000D01*
X192150000Y-88691000D02*
X192150000Y-90033000D01*
X192150000Y-85269000D02*
X192150000Y-86611000D01*
X192190000Y-88691000D02*
X192190000Y-90049000D01*
X192190000Y-85253000D02*
X192190000Y-86611000D01*
X192230000Y-88691000D02*
X192230000Y-90065000D01*
X192230000Y-85237000D02*
X192230000Y-86611000D01*
X192270000Y-88691000D02*
X192270000Y-90079000D01*
X192270000Y-85223000D02*
X192270000Y-86611000D01*
X192310000Y-88691000D02*
X192310000Y-90093000D01*
X192310000Y-85209000D02*
X192310000Y-86611000D01*
X192350000Y-88691000D02*
X192350000Y-90106000D01*
X192350000Y-85196000D02*
X192350000Y-86611000D01*
X192390000Y-88691000D02*
X192390000Y-90119000D01*
X192390000Y-85183000D02*
X192390000Y-86611000D01*
X192430000Y-88691000D02*
X192430000Y-90131000D01*
X192430000Y-85171000D02*
X192430000Y-86611000D01*
X192471000Y-88691000D02*
X192471000Y-90142000D01*
X192471000Y-85160000D02*
X192471000Y-86611000D01*
X192511000Y-88691000D02*
X192511000Y-90152000D01*
X192511000Y-85150000D02*
X192511000Y-86611000D01*
X192551000Y-88691000D02*
X192551000Y-90162000D01*
X192551000Y-85140000D02*
X192551000Y-86611000D01*
X192591000Y-88691000D02*
X192591000Y-90171000D01*
X192591000Y-85131000D02*
X192591000Y-86611000D01*
X192631000Y-88691000D02*
X192631000Y-90179000D01*
X192631000Y-85123000D02*
X192631000Y-86611000D01*
X192671000Y-88691000D02*
X192671000Y-90187000D01*
X192671000Y-85115000D02*
X192671000Y-86611000D01*
X192711000Y-88691000D02*
X192711000Y-90194000D01*
X192711000Y-85108000D02*
X192711000Y-86611000D01*
X192751000Y-88691000D02*
X192751000Y-90201000D01*
X192751000Y-85101000D02*
X192751000Y-86611000D01*
X192791000Y-88691000D02*
X192791000Y-90207000D01*
X192791000Y-85095000D02*
X192791000Y-86611000D01*
X192831000Y-88691000D02*
X192831000Y-90212000D01*
X192831000Y-85090000D02*
X192831000Y-86611000D01*
X192871000Y-88691000D02*
X192871000Y-90216000D01*
X192871000Y-85086000D02*
X192871000Y-86611000D01*
X192911000Y-88691000D02*
X192911000Y-90220000D01*
X192911000Y-85082000D02*
X192911000Y-86611000D01*
X192951000Y-85078000D02*
X192951000Y-90224000D01*
X192991000Y-85075000D02*
X192991000Y-90227000D01*
X193031000Y-85073000D02*
X193031000Y-90229000D01*
X193071000Y-85072000D02*
X193071000Y-90230000D01*
X193111000Y-85071000D02*
X193111000Y-90231000D01*
X193151000Y-85071000D02*
X193151000Y-90231000D01*
X195771000Y-87651000D02*
G75*
G03X195771000Y-87651000I-2620000J0D01*
G01*
X159035000Y-87531000D02*
X169315000Y-87531000D01*
X159035000Y-97931000D02*
X159035000Y-87531000D01*
X169315000Y-97931000D02*
X159035000Y-97931000D01*
X169315000Y-87531000D02*
X169315000Y-97931000D01*
X161525000Y-87591000D02*
X163175000Y-87591000D01*
X161525000Y-97871000D02*
X161525000Y-87591000D01*
X166825000Y-97871000D02*
X161525000Y-97871000D01*
X166825000Y-87591000D02*
X166825000Y-97871000D01*
X165175000Y-87591000D02*
X166825000Y-87591000D01*
X163175000Y-87591000D02*
G75*
G03X165175000Y-87591000I1000000J0D01*
G01*
D13*
X190894000Y-122779000D02*
X191529000Y-122144000D01*
X186449000Y-122144000D02*
X187084000Y-122779000D01*
X187084000Y-122779000D02*
X190894000Y-122779000D01*
D14*
X193277666Y-98108142D02*
X193325285Y-98155761D01*
X193468142Y-98203380D01*
X193563380Y-98203380D01*
X193706238Y-98155761D01*
X193801476Y-98060523D01*
X193849095Y-97965285D01*
X193896714Y-97774809D01*
X193896714Y-97631952D01*
X193849095Y-97441476D01*
X193801476Y-97346238D01*
X193706238Y-97251000D01*
X193563380Y-97203380D01*
X193468142Y-97203380D01*
X193325285Y-97251000D01*
X193277666Y-97298619D01*
X192706238Y-97631952D02*
X192801476Y-97584333D01*
X192849095Y-97536714D01*
X192896714Y-97441476D01*
X192896714Y-97393857D01*
X192849095Y-97298619D01*
X192801476Y-97251000D01*
X192706238Y-97203380D01*
X192515761Y-97203380D01*
X192420523Y-97251000D01*
X192372904Y-97298619D01*
X192325285Y-97393857D01*
X192325285Y-97441476D01*
X192372904Y-97536714D01*
X192420523Y-97584333D01*
X192515761Y-97631952D01*
X192706238Y-97631952D01*
X192801476Y-97679571D01*
X192849095Y-97727190D01*
X192896714Y-97822428D01*
X192896714Y-98012904D01*
X192849095Y-98108142D01*
X192801476Y-98155761D01*
X192706238Y-98203380D01*
X192515761Y-98203380D01*
X192420523Y-98155761D01*
X192372904Y-98108142D01*
X192325285Y-98012904D01*
X192325285Y-97822428D01*
X192372904Y-97727190D01*
X192420523Y-97679571D01*
X192515761Y-97631952D01*
X193317666Y-84258142D02*
X193365285Y-84305761D01*
X193508142Y-84353380D01*
X193603380Y-84353380D01*
X193746238Y-84305761D01*
X193841476Y-84210523D01*
X193889095Y-84115285D01*
X193936714Y-83924809D01*
X193936714Y-83781952D01*
X193889095Y-83591476D01*
X193841476Y-83496238D01*
X193746238Y-83401000D01*
X193603380Y-83353380D01*
X193508142Y-83353380D01*
X193365285Y-83401000D01*
X193317666Y-83448619D01*
X192984333Y-83353380D02*
X192317666Y-83353380D01*
X192746238Y-84353380D01*
X165151190Y-93437380D02*
X165151190Y-92437380D01*
X164103571Y-93342142D02*
X164151190Y-93389761D01*
X164294047Y-93437380D01*
X164389285Y-93437380D01*
X164532142Y-93389761D01*
X164627380Y-93294523D01*
X164675000Y-93199285D01*
X164722619Y-93008809D01*
X164722619Y-92865952D01*
X164675000Y-92675476D01*
X164627380Y-92580238D01*
X164532142Y-92485000D01*
X164389285Y-92437380D01*
X164294047Y-92437380D01*
X164151190Y-92485000D01*
X164103571Y-92532619D01*
X163151190Y-93437380D02*
X163722619Y-93437380D01*
X163436904Y-93437380D02*
X163436904Y-92437380D01*
X163532142Y-92580238D01*
X163627380Y-92675476D01*
X163722619Y-92723095D01*
D15*
X189786950Y-109422692D02*
X190148900Y-108905621D01*
X190407436Y-109422692D02*
X190407436Y-108336842D01*
X189993778Y-108336842D01*
X189890364Y-108388550D01*
X189838657Y-108440257D01*
X189786950Y-108543671D01*
X189786950Y-108698792D01*
X189838657Y-108802207D01*
X189890364Y-108853914D01*
X189993778Y-108905621D01*
X190407436Y-108905621D01*
X189321586Y-108853914D02*
X188959636Y-108853914D01*
X188804514Y-109422692D02*
X189321586Y-109422692D01*
X189321586Y-108336842D01*
X188804514Y-108336842D01*
X188339150Y-109422692D02*
X188339150Y-108336842D01*
X188080614Y-108336842D01*
X187925493Y-108388550D01*
X187822078Y-108491964D01*
X187770371Y-108595378D01*
X187718664Y-108802207D01*
X187718664Y-108957328D01*
X187770371Y-109164157D01*
X187822078Y-109267571D01*
X187925493Y-109370985D01*
X188080614Y-109422692D01*
X188339150Y-109422692D01*
D16*
X194128790Y-111490283D02*
X193025704Y-111490283D01*
X193435914Y-120832010D02*
X193435914Y-121935095D01*
X193987457Y-121383552D02*
X192884371Y-121383552D01*
D17*
X194007323Y-118656500D02*
X194076266Y-118622028D01*
X194179680Y-118622028D01*
X194283095Y-118656500D01*
X194352037Y-118725442D01*
X194386509Y-118794385D01*
X194420980Y-118932271D01*
X194420980Y-119035685D01*
X194386509Y-119173571D01*
X194352037Y-119242514D01*
X194283095Y-119311457D01*
X194179680Y-119345928D01*
X194110737Y-119345928D01*
X194007323Y-119311457D01*
X193972852Y-119276985D01*
X193972852Y-119035685D01*
X194110737Y-119035685D01*
X193662609Y-119345928D02*
X193662609Y-118622028D01*
X193248952Y-119345928D01*
X193248952Y-118622028D01*
X192904237Y-119345928D02*
X192904237Y-118622028D01*
X192731880Y-118622028D01*
X192628466Y-118656500D01*
X192559523Y-118725442D01*
X192525052Y-118794385D01*
X192490580Y-118932271D01*
X192490580Y-119035685D01*
X192525052Y-119173571D01*
X192559523Y-119242514D01*
X192628466Y-119311457D01*
X192731880Y-119345928D01*
X192904237Y-119345928D01*
X194007323Y-116094675D02*
X194076266Y-116060203D01*
X194179680Y-116060203D01*
X194283095Y-116094675D01*
X194352037Y-116163617D01*
X194386509Y-116232560D01*
X194420980Y-116370446D01*
X194420980Y-116473860D01*
X194386509Y-116611746D01*
X194352037Y-116680689D01*
X194283095Y-116749632D01*
X194179680Y-116784103D01*
X194110737Y-116784103D01*
X194007323Y-116749632D01*
X193972852Y-116715160D01*
X193972852Y-116473860D01*
X194110737Y-116473860D01*
X193662609Y-116784103D02*
X193662609Y-116060203D01*
X193248952Y-116784103D01*
X193248952Y-116060203D01*
X192904237Y-116784103D02*
X192904237Y-116060203D01*
X192731880Y-116060203D01*
X192628466Y-116094675D01*
X192559523Y-116163617D01*
X192525052Y-116232560D01*
X192490580Y-116370446D01*
X192490580Y-116473860D01*
X192525052Y-116611746D01*
X192559523Y-116680689D01*
X192628466Y-116749632D01*
X192731880Y-116784103D01*
X192904237Y-116784103D01*
X194007323Y-113576500D02*
X194076266Y-113542028D01*
X194179680Y-113542028D01*
X194283095Y-113576500D01*
X194352037Y-113645442D01*
X194386509Y-113714385D01*
X194420980Y-113852271D01*
X194420980Y-113955685D01*
X194386509Y-114093571D01*
X194352037Y-114162514D01*
X194283095Y-114231457D01*
X194179680Y-114265928D01*
X194110737Y-114265928D01*
X194007323Y-114231457D01*
X193972852Y-114196985D01*
X193972852Y-113955685D01*
X194110737Y-113955685D01*
X193662609Y-114265928D02*
X193662609Y-113542028D01*
X193248952Y-114265928D01*
X193248952Y-113542028D01*
X192904237Y-114265928D02*
X192904237Y-113542028D01*
X192731880Y-113542028D01*
X192628466Y-113576500D01*
X192559523Y-113645442D01*
X192525052Y-113714385D01*
X192490580Y-113852271D01*
X192490580Y-113955685D01*
X192525052Y-114093571D01*
X192559523Y-114162514D01*
X192628466Y-114231457D01*
X192731880Y-114265928D01*
X192904237Y-114265928D01*
D18*
X190838728Y-124166183D02*
X190838728Y-123321633D01*
X190516994Y-123321633D01*
X190436561Y-123361850D01*
X190396344Y-123402066D01*
X190356128Y-123482500D01*
X190356128Y-123603150D01*
X190396344Y-123683583D01*
X190436561Y-123723800D01*
X190516994Y-123764016D01*
X190838728Y-123764016D01*
X189833311Y-123321633D02*
X189672444Y-123321633D01*
X189592011Y-123361850D01*
X189511578Y-123442283D01*
X189471361Y-123603150D01*
X189471361Y-123884666D01*
X189511578Y-124045533D01*
X189592011Y-124125966D01*
X189672444Y-124166183D01*
X189833311Y-124166183D01*
X189913744Y-124125966D01*
X189994178Y-124045533D01*
X190034394Y-123884666D01*
X190034394Y-123603150D01*
X189994178Y-123442283D01*
X189913744Y-123361850D01*
X189833311Y-123321633D01*
X189189844Y-123321633D02*
X188988761Y-124166183D01*
X188827894Y-123562933D01*
X188667028Y-124166183D01*
X188465944Y-123321633D01*
X188144211Y-123723800D02*
X187862694Y-123723800D01*
X187742044Y-124166183D02*
X188144211Y-124166183D01*
X188144211Y-123321633D01*
X187742044Y-123321633D01*
X186897494Y-124166183D02*
X187179011Y-123764016D01*
X187380094Y-124166183D02*
X187380094Y-123321633D01*
X187058361Y-123321633D01*
X186977928Y-123361850D01*
X186937711Y-123402066D01*
X186897494Y-123482500D01*
X186897494Y-123603150D01*
X186937711Y-123683583D01*
X186977928Y-123723800D01*
X187058361Y-123764016D01*
X187380094Y-123764016D01*
M02*
