G04 #@! TF.GenerationSoftware,KiCad,Pcbnew,5.1.4-e60b266~84~ubuntu18.04.1*
G04 #@! TF.CreationDate,2019-10-21T00:40:35+01:00*
G04 #@! TF.ProjectId,euroslideymixer,6575726f-736c-4696-9465-796d69786572,rev?*
G04 #@! TF.SameCoordinates,Original*
G04 #@! TF.FileFunction,Soldermask,Top*
G04 #@! TF.FilePolarity,Negative*
%FSLAX46Y46*%
G04 Gerber Fmt 4.6, Leading zero omitted, Abs format (unit mm)*
G04 Created by KiCad (PCBNEW 5.1.4-e60b266~84~ubuntu18.04.1) date 2019-10-21 00:40:35*
%MOMM*%
%LPD*%
G04 APERTURE LIST*
%ADD10C,0.100000*%
G04 APERTURE END LIST*
D10*
G36*
X157359600Y-125439600D02*
G01*
X155848400Y-125439600D01*
X155848400Y-123928400D01*
X157359600Y-123928400D01*
X157359600Y-125439600D01*
X157359600Y-125439600D01*
G37*
G36*
X165660228Y-122625703D02*
G01*
X165815100Y-122689853D01*
X165954481Y-122782985D01*
X166073015Y-122901519D01*
X166166147Y-123040900D01*
X166230297Y-123195772D01*
X166263000Y-123360184D01*
X166263000Y-123527816D01*
X166230297Y-123692228D01*
X166166147Y-123847100D01*
X166073015Y-123986481D01*
X165954481Y-124105015D01*
X165815100Y-124198147D01*
X165660228Y-124262297D01*
X165495816Y-124295000D01*
X165328184Y-124295000D01*
X165163772Y-124262297D01*
X165008900Y-124198147D01*
X164869519Y-124105015D01*
X164750985Y-123986481D01*
X164657853Y-123847100D01*
X164593703Y-123692228D01*
X164561000Y-123527816D01*
X164561000Y-123360184D01*
X164593703Y-123195772D01*
X164657853Y-123040900D01*
X164750985Y-122901519D01*
X164869519Y-122782985D01*
X165008900Y-122689853D01*
X165163772Y-122625703D01*
X165328184Y-122593000D01*
X165495816Y-122593000D01*
X165660228Y-122625703D01*
X165660228Y-122625703D01*
G37*
G36*
X163038823Y-122605313D02*
G01*
X163199242Y-122653976D01*
X163266361Y-122689852D01*
X163347078Y-122732996D01*
X163476659Y-122839341D01*
X163583004Y-122968922D01*
X163583005Y-122968924D01*
X163662024Y-123116758D01*
X163710687Y-123277177D01*
X163727117Y-123444000D01*
X163710687Y-123610823D01*
X163662024Y-123771242D01*
X163621477Y-123847100D01*
X163583004Y-123919078D01*
X163476659Y-124048659D01*
X163347078Y-124155004D01*
X163347076Y-124155005D01*
X163199242Y-124234024D01*
X163038823Y-124282687D01*
X162913804Y-124295000D01*
X162830196Y-124295000D01*
X162705177Y-124282687D01*
X162544758Y-124234024D01*
X162396924Y-124155005D01*
X162396922Y-124155004D01*
X162267341Y-124048659D01*
X162160996Y-123919078D01*
X162122523Y-123847100D01*
X162081976Y-123771242D01*
X162033313Y-123610823D01*
X162016883Y-123444000D01*
X162033313Y-123277177D01*
X162081976Y-123116758D01*
X162160995Y-122968924D01*
X162160996Y-122968922D01*
X162267341Y-122839341D01*
X162396922Y-122732996D01*
X162477639Y-122689852D01*
X162544758Y-122653976D01*
X162705177Y-122605313D01*
X162830196Y-122593000D01*
X162913804Y-122593000D01*
X163038823Y-122605313D01*
X163038823Y-122605313D01*
G37*
G36*
X157359600Y-122899600D02*
G01*
X155848400Y-122899600D01*
X155848400Y-121388400D01*
X157359600Y-121388400D01*
X157359600Y-122899600D01*
X157359600Y-122899600D01*
G37*
G36*
X126879600Y-122899600D02*
G01*
X125368400Y-122899600D01*
X125368400Y-121388400D01*
X126879600Y-121388400D01*
X126879600Y-122899600D01*
X126879600Y-122899600D01*
G37*
G36*
X187895765Y-120507620D02*
G01*
X187995702Y-120549015D01*
X188085288Y-120586123D01*
X188255854Y-120700092D01*
X188400908Y-120845146D01*
X188400909Y-120845148D01*
X188514878Y-121015714D01*
X188593380Y-121205235D01*
X188633400Y-121406430D01*
X188633400Y-121611570D01*
X188616776Y-121695143D01*
X188593380Y-121812765D01*
X188514877Y-122002288D01*
X188400908Y-122172854D01*
X188255854Y-122317908D01*
X188085288Y-122431877D01*
X188085287Y-122431878D01*
X188085286Y-122431878D01*
X187895765Y-122510380D01*
X187694570Y-122550400D01*
X187489430Y-122550400D01*
X187288235Y-122510380D01*
X187098714Y-122431878D01*
X187098713Y-122431878D01*
X187098712Y-122431877D01*
X186928146Y-122317908D01*
X186783092Y-122172854D01*
X186669123Y-122002288D01*
X186590620Y-121812765D01*
X186567224Y-121695143D01*
X186550600Y-121611570D01*
X186550600Y-121406430D01*
X186590620Y-121205235D01*
X186669122Y-121015714D01*
X186783091Y-120845148D01*
X186783092Y-120845146D01*
X186928146Y-120700092D01*
X187098712Y-120586123D01*
X187188299Y-120549015D01*
X187288235Y-120507620D01*
X187489430Y-120467600D01*
X187694570Y-120467600D01*
X187895765Y-120507620D01*
X187895765Y-120507620D01*
G37*
G36*
X190435765Y-120507620D02*
G01*
X190535702Y-120549015D01*
X190625288Y-120586123D01*
X190795854Y-120700092D01*
X190940908Y-120845146D01*
X190940909Y-120845148D01*
X191054878Y-121015714D01*
X191133380Y-121205235D01*
X191173400Y-121406430D01*
X191173400Y-121611570D01*
X191156776Y-121695143D01*
X191133380Y-121812765D01*
X191054877Y-122002288D01*
X190940908Y-122172854D01*
X190795854Y-122317908D01*
X190625288Y-122431877D01*
X190625287Y-122431878D01*
X190625286Y-122431878D01*
X190435765Y-122510380D01*
X190234570Y-122550400D01*
X190029430Y-122550400D01*
X189828235Y-122510380D01*
X189638714Y-122431878D01*
X189638713Y-122431878D01*
X189638712Y-122431877D01*
X189468146Y-122317908D01*
X189323092Y-122172854D01*
X189209123Y-122002288D01*
X189130620Y-121812765D01*
X189107224Y-121695143D01*
X189090600Y-121611570D01*
X189090600Y-121406430D01*
X189130620Y-121205235D01*
X189209122Y-121015714D01*
X189323091Y-120845148D01*
X189323092Y-120845146D01*
X189468146Y-120700092D01*
X189638712Y-120586123D01*
X189728299Y-120549015D01*
X189828235Y-120507620D01*
X190029430Y-120467600D01*
X190234570Y-120467600D01*
X190435765Y-120507620D01*
X190435765Y-120507620D01*
G37*
G36*
X182424279Y-119983009D02*
G01*
X182490407Y-120010400D01*
X182592908Y-120052857D01*
X182592909Y-120052858D01*
X182744673Y-120154263D01*
X182873737Y-120283327D01*
X182924701Y-120359600D01*
X182975143Y-120435092D01*
X182988608Y-120467600D01*
X183044991Y-120603721D01*
X183065394Y-120706295D01*
X183080600Y-120782738D01*
X183080600Y-120965262D01*
X183044991Y-121144278D01*
X182975143Y-121312908D01*
X182975142Y-121312909D01*
X182873737Y-121464673D01*
X182744673Y-121593737D01*
X182717985Y-121611569D01*
X182592908Y-121695143D01*
X182494127Y-121736059D01*
X182424279Y-121764991D01*
X182245262Y-121800600D01*
X182062738Y-121800600D01*
X181883721Y-121764991D01*
X181813873Y-121736059D01*
X181715092Y-121695143D01*
X181590015Y-121611569D01*
X181563327Y-121593737D01*
X181434263Y-121464673D01*
X181332858Y-121312909D01*
X181332857Y-121312908D01*
X181263009Y-121144278D01*
X181227400Y-120965262D01*
X181227400Y-120782738D01*
X181242606Y-120706295D01*
X181263009Y-120603721D01*
X181319392Y-120467600D01*
X181332857Y-120435092D01*
X181383299Y-120359600D01*
X181434263Y-120283327D01*
X181563327Y-120154263D01*
X181715091Y-120052858D01*
X181715092Y-120052857D01*
X181817593Y-120010400D01*
X181883721Y-119983009D01*
X182062738Y-119947400D01*
X182245262Y-119947400D01*
X182424279Y-119983009D01*
X182424279Y-119983009D01*
G37*
G36*
X179424279Y-119983009D02*
G01*
X179490407Y-120010400D01*
X179592908Y-120052857D01*
X179592909Y-120052858D01*
X179744673Y-120154263D01*
X179873737Y-120283327D01*
X179924701Y-120359600D01*
X179975143Y-120435092D01*
X179988608Y-120467600D01*
X180044991Y-120603721D01*
X180065394Y-120706295D01*
X180080600Y-120782738D01*
X180080600Y-120965262D01*
X180044991Y-121144278D01*
X179975143Y-121312908D01*
X179975142Y-121312909D01*
X179873737Y-121464673D01*
X179744673Y-121593737D01*
X179717985Y-121611569D01*
X179592908Y-121695143D01*
X179494127Y-121736059D01*
X179424279Y-121764991D01*
X179245262Y-121800600D01*
X179062738Y-121800600D01*
X178883721Y-121764991D01*
X178813873Y-121736059D01*
X178715092Y-121695143D01*
X178590015Y-121611569D01*
X178563327Y-121593737D01*
X178434263Y-121464673D01*
X178332858Y-121312909D01*
X178332857Y-121312908D01*
X178263009Y-121144278D01*
X178227400Y-120965262D01*
X178227400Y-120782738D01*
X178242606Y-120706295D01*
X178263009Y-120603721D01*
X178319392Y-120467600D01*
X178332857Y-120435092D01*
X178383299Y-120359600D01*
X178434263Y-120283327D01*
X178563327Y-120154263D01*
X178715091Y-120052858D01*
X178715092Y-120052857D01*
X178817593Y-120010400D01*
X178883721Y-119983009D01*
X179062738Y-119947400D01*
X179245262Y-119947400D01*
X179424279Y-119983009D01*
X179424279Y-119983009D01*
G37*
G36*
X170924279Y-119983009D02*
G01*
X170990407Y-120010400D01*
X171092908Y-120052857D01*
X171092909Y-120052858D01*
X171244673Y-120154263D01*
X171373737Y-120283327D01*
X171424701Y-120359600D01*
X171475143Y-120435092D01*
X171488608Y-120467600D01*
X171544991Y-120603721D01*
X171565394Y-120706295D01*
X171580600Y-120782738D01*
X171580600Y-120965262D01*
X171544991Y-121144278D01*
X171475143Y-121312908D01*
X171475142Y-121312909D01*
X171373737Y-121464673D01*
X171244673Y-121593737D01*
X171217985Y-121611569D01*
X171092908Y-121695143D01*
X170994127Y-121736059D01*
X170924279Y-121764991D01*
X170745262Y-121800600D01*
X170562738Y-121800600D01*
X170383721Y-121764991D01*
X170313873Y-121736059D01*
X170215092Y-121695143D01*
X170090015Y-121611569D01*
X170063327Y-121593737D01*
X169934263Y-121464673D01*
X169832858Y-121312909D01*
X169832857Y-121312908D01*
X169763009Y-121144278D01*
X169727400Y-120965262D01*
X169727400Y-120782738D01*
X169742606Y-120706295D01*
X169763009Y-120603721D01*
X169819392Y-120467600D01*
X169832857Y-120435092D01*
X169883299Y-120359600D01*
X169934263Y-120283327D01*
X170063327Y-120154263D01*
X170215091Y-120052858D01*
X170215092Y-120052857D01*
X170317593Y-120010400D01*
X170383721Y-119983009D01*
X170562738Y-119947400D01*
X170745262Y-119947400D01*
X170924279Y-119983009D01*
X170924279Y-119983009D01*
G37*
G36*
X118289279Y-119983009D02*
G01*
X118355407Y-120010400D01*
X118457908Y-120052857D01*
X118457909Y-120052858D01*
X118609673Y-120154263D01*
X118738737Y-120283327D01*
X118789701Y-120359600D01*
X118840143Y-120435092D01*
X118853608Y-120467600D01*
X118909991Y-120603721D01*
X118930394Y-120706295D01*
X118945600Y-120782738D01*
X118945600Y-120965262D01*
X118909991Y-121144278D01*
X118840143Y-121312908D01*
X118840142Y-121312909D01*
X118738737Y-121464673D01*
X118609673Y-121593737D01*
X118582985Y-121611569D01*
X118457908Y-121695143D01*
X118359127Y-121736059D01*
X118289279Y-121764991D01*
X118110262Y-121800600D01*
X117927738Y-121800600D01*
X117748721Y-121764991D01*
X117678873Y-121736059D01*
X117580092Y-121695143D01*
X117455015Y-121611569D01*
X117428327Y-121593737D01*
X117299263Y-121464673D01*
X117197858Y-121312909D01*
X117197857Y-121312908D01*
X117128009Y-121144278D01*
X117092400Y-120965262D01*
X117092400Y-120782738D01*
X117107606Y-120706295D01*
X117128009Y-120603721D01*
X117184392Y-120467600D01*
X117197857Y-120435092D01*
X117248299Y-120359600D01*
X117299263Y-120283327D01*
X117428327Y-120154263D01*
X117580091Y-120052858D01*
X117580092Y-120052857D01*
X117682593Y-120010400D01*
X117748721Y-119983009D01*
X117927738Y-119947400D01*
X118110262Y-119947400D01*
X118289279Y-119983009D01*
X118289279Y-119983009D01*
G37*
G36*
X106789279Y-119983009D02*
G01*
X106855407Y-120010400D01*
X106957908Y-120052857D01*
X106957909Y-120052858D01*
X107109673Y-120154263D01*
X107238737Y-120283327D01*
X107289701Y-120359600D01*
X107340143Y-120435092D01*
X107353608Y-120467600D01*
X107409991Y-120603721D01*
X107430394Y-120706295D01*
X107445600Y-120782738D01*
X107445600Y-120965262D01*
X107409991Y-121144278D01*
X107340143Y-121312908D01*
X107340142Y-121312909D01*
X107238737Y-121464673D01*
X107109673Y-121593737D01*
X107082985Y-121611569D01*
X106957908Y-121695143D01*
X106859127Y-121736059D01*
X106789279Y-121764991D01*
X106610262Y-121800600D01*
X106427738Y-121800600D01*
X106248721Y-121764991D01*
X106178873Y-121736059D01*
X106080092Y-121695143D01*
X105955015Y-121611569D01*
X105928327Y-121593737D01*
X105799263Y-121464673D01*
X105697858Y-121312909D01*
X105697857Y-121312908D01*
X105628009Y-121144278D01*
X105592400Y-120965262D01*
X105592400Y-120782738D01*
X105607606Y-120706295D01*
X105628009Y-120603721D01*
X105684392Y-120467600D01*
X105697857Y-120435092D01*
X105748299Y-120359600D01*
X105799263Y-120283327D01*
X105928327Y-120154263D01*
X106080091Y-120052858D01*
X106080092Y-120052857D01*
X106182593Y-120010400D01*
X106248721Y-119983009D01*
X106427738Y-119947400D01*
X106610262Y-119947400D01*
X106789279Y-119983009D01*
X106789279Y-119983009D01*
G37*
G36*
X115289279Y-119983009D02*
G01*
X115355407Y-120010400D01*
X115457908Y-120052857D01*
X115457909Y-120052858D01*
X115609673Y-120154263D01*
X115738737Y-120283327D01*
X115789701Y-120359600D01*
X115840143Y-120435092D01*
X115853608Y-120467600D01*
X115909991Y-120603721D01*
X115930394Y-120706295D01*
X115945600Y-120782738D01*
X115945600Y-120965262D01*
X115909991Y-121144278D01*
X115840143Y-121312908D01*
X115840142Y-121312909D01*
X115738737Y-121464673D01*
X115609673Y-121593737D01*
X115582985Y-121611569D01*
X115457908Y-121695143D01*
X115359127Y-121736059D01*
X115289279Y-121764991D01*
X115110262Y-121800600D01*
X114927738Y-121800600D01*
X114748721Y-121764991D01*
X114678873Y-121736059D01*
X114580092Y-121695143D01*
X114455015Y-121611569D01*
X114428327Y-121593737D01*
X114299263Y-121464673D01*
X114197858Y-121312909D01*
X114197857Y-121312908D01*
X114128009Y-121144278D01*
X114092400Y-120965262D01*
X114092400Y-120782738D01*
X114107606Y-120706295D01*
X114128009Y-120603721D01*
X114184392Y-120467600D01*
X114197857Y-120435092D01*
X114248299Y-120359600D01*
X114299263Y-120283327D01*
X114428327Y-120154263D01*
X114580091Y-120052858D01*
X114580092Y-120052857D01*
X114682593Y-120010400D01*
X114748721Y-119983009D01*
X114927738Y-119947400D01*
X115110262Y-119947400D01*
X115289279Y-119983009D01*
X115289279Y-119983009D01*
G37*
G36*
X163570228Y-119069703D02*
G01*
X163725100Y-119133853D01*
X163864481Y-119226985D01*
X163983015Y-119345519D01*
X164076147Y-119484900D01*
X164140297Y-119639772D01*
X164173000Y-119804184D01*
X164173000Y-119971816D01*
X164140297Y-120136228D01*
X164076147Y-120291100D01*
X163983015Y-120430481D01*
X163864481Y-120549015D01*
X163725100Y-120642147D01*
X163570228Y-120706297D01*
X163405816Y-120739000D01*
X163238184Y-120739000D01*
X163073772Y-120706297D01*
X162918900Y-120642147D01*
X162779519Y-120549015D01*
X162660985Y-120430481D01*
X162567853Y-120291100D01*
X162503703Y-120136228D01*
X162471000Y-119971816D01*
X162471000Y-119804184D01*
X162503703Y-119639772D01*
X162567853Y-119484900D01*
X162660985Y-119345519D01*
X162779519Y-119226985D01*
X162918900Y-119133853D01*
X163073772Y-119069703D01*
X163238184Y-119037000D01*
X163405816Y-119037000D01*
X163570228Y-119069703D01*
X163570228Y-119069703D01*
G37*
G36*
X166070228Y-119069703D02*
G01*
X166225100Y-119133853D01*
X166364481Y-119226985D01*
X166483015Y-119345519D01*
X166576147Y-119484900D01*
X166640297Y-119639772D01*
X166673000Y-119804184D01*
X166673000Y-119971816D01*
X166640297Y-120136228D01*
X166576147Y-120291100D01*
X166483015Y-120430481D01*
X166364481Y-120549015D01*
X166225100Y-120642147D01*
X166070228Y-120706297D01*
X165905816Y-120739000D01*
X165738184Y-120739000D01*
X165573772Y-120706297D01*
X165418900Y-120642147D01*
X165279519Y-120549015D01*
X165160985Y-120430481D01*
X165067853Y-120291100D01*
X165003703Y-120136228D01*
X164971000Y-119971816D01*
X164971000Y-119804184D01*
X165003703Y-119639772D01*
X165067853Y-119484900D01*
X165160985Y-119345519D01*
X165279519Y-119226985D01*
X165418900Y-119133853D01*
X165573772Y-119069703D01*
X165738184Y-119037000D01*
X165905816Y-119037000D01*
X166070228Y-119069703D01*
X166070228Y-119069703D01*
G37*
G36*
X157359600Y-120359600D02*
G01*
X155848400Y-120359600D01*
X155848400Y-118848400D01*
X157359600Y-118848400D01*
X157359600Y-120359600D01*
X157359600Y-120359600D01*
G37*
G36*
X188149765Y-117967620D02*
G01*
X188339288Y-118046123D01*
X188509854Y-118160092D01*
X188654908Y-118305146D01*
X188654909Y-118305148D01*
X188768878Y-118475714D01*
X188847380Y-118665235D01*
X188883814Y-118848400D01*
X188887400Y-118866431D01*
X188887400Y-119071569D01*
X188847380Y-119272765D01*
X188768877Y-119462288D01*
X188654908Y-119632854D01*
X188509854Y-119777908D01*
X188339288Y-119891877D01*
X188339287Y-119891878D01*
X188339286Y-119891878D01*
X188149765Y-119970380D01*
X187948570Y-120010400D01*
X187743430Y-120010400D01*
X187542235Y-119970380D01*
X187352714Y-119891878D01*
X187352713Y-119891878D01*
X187352712Y-119891877D01*
X187182146Y-119777908D01*
X187037092Y-119632854D01*
X186923123Y-119462288D01*
X186844620Y-119272765D01*
X186804600Y-119071569D01*
X186804600Y-118866431D01*
X186808187Y-118848400D01*
X186844620Y-118665235D01*
X186923122Y-118475714D01*
X187037091Y-118305148D01*
X187037092Y-118305146D01*
X187182146Y-118160092D01*
X187352712Y-118046123D01*
X187542235Y-117967620D01*
X187743430Y-117927600D01*
X187948570Y-117927600D01*
X188149765Y-117967620D01*
X188149765Y-117967620D01*
G37*
G36*
X190689765Y-117967620D02*
G01*
X190879288Y-118046123D01*
X191049854Y-118160092D01*
X191194908Y-118305146D01*
X191194909Y-118305148D01*
X191308878Y-118475714D01*
X191387380Y-118665235D01*
X191423814Y-118848400D01*
X191427400Y-118866431D01*
X191427400Y-119071569D01*
X191387380Y-119272765D01*
X191308877Y-119462288D01*
X191194908Y-119632854D01*
X191049854Y-119777908D01*
X190879288Y-119891877D01*
X190879287Y-119891878D01*
X190879286Y-119891878D01*
X190689765Y-119970380D01*
X190488570Y-120010400D01*
X190283430Y-120010400D01*
X190082235Y-119970380D01*
X189892714Y-119891878D01*
X189892713Y-119891878D01*
X189892712Y-119891877D01*
X189722146Y-119777908D01*
X189577092Y-119632854D01*
X189463123Y-119462288D01*
X189384620Y-119272765D01*
X189344600Y-119071569D01*
X189344600Y-118866431D01*
X189348187Y-118848400D01*
X189384620Y-118665235D01*
X189463122Y-118475714D01*
X189577091Y-118305148D01*
X189577092Y-118305146D01*
X189722146Y-118160092D01*
X189892712Y-118046123D01*
X190082235Y-117967620D01*
X190283430Y-117927600D01*
X190488570Y-117927600D01*
X190689765Y-117967620D01*
X190689765Y-117967620D01*
G37*
G36*
X126879600Y-117819600D02*
G01*
X125368400Y-117819600D01*
X125368400Y-116308400D01*
X126879600Y-116308400D01*
X126879600Y-117819600D01*
X126879600Y-117819600D01*
G37*
G36*
X157359600Y-117819600D02*
G01*
X155848400Y-117819600D01*
X155848400Y-116308400D01*
X157359600Y-116308400D01*
X157359600Y-117819600D01*
X157359600Y-117819600D01*
G37*
G36*
X190382299Y-115416985D02*
G01*
X190435765Y-115427620D01*
X190625288Y-115506123D01*
X190795854Y-115620092D01*
X190940908Y-115765146D01*
X190940909Y-115765148D01*
X191054878Y-115935714D01*
X191133380Y-116125235D01*
X191173400Y-116326430D01*
X191173400Y-116531570D01*
X191133380Y-116732765D01*
X191057198Y-116916686D01*
X191054877Y-116922288D01*
X190940908Y-117092854D01*
X190795854Y-117237908D01*
X190625288Y-117351877D01*
X190625287Y-117351878D01*
X190625286Y-117351878D01*
X190435765Y-117430380D01*
X190234570Y-117470400D01*
X190029430Y-117470400D01*
X189828235Y-117430380D01*
X189638714Y-117351878D01*
X189638713Y-117351878D01*
X189638712Y-117351877D01*
X189468146Y-117237908D01*
X189323092Y-117092854D01*
X189209123Y-116922288D01*
X189206803Y-116916686D01*
X189130620Y-116732765D01*
X189090600Y-116531570D01*
X189090600Y-116326430D01*
X189130620Y-116125235D01*
X189209122Y-115935714D01*
X189323091Y-115765148D01*
X189323092Y-115765146D01*
X189468146Y-115620092D01*
X189638712Y-115506123D01*
X189828235Y-115427620D01*
X189881701Y-115416985D01*
X190029430Y-115387600D01*
X190234570Y-115387600D01*
X190382299Y-115416985D01*
X190382299Y-115416985D01*
G37*
G36*
X187842299Y-115416985D02*
G01*
X187895765Y-115427620D01*
X188085288Y-115506123D01*
X188255854Y-115620092D01*
X188400908Y-115765146D01*
X188400909Y-115765148D01*
X188514878Y-115935714D01*
X188593380Y-116125235D01*
X188633400Y-116326430D01*
X188633400Y-116531570D01*
X188593380Y-116732765D01*
X188517198Y-116916686D01*
X188514877Y-116922288D01*
X188400908Y-117092854D01*
X188255854Y-117237908D01*
X188085288Y-117351877D01*
X188085287Y-117351878D01*
X188085286Y-117351878D01*
X187895765Y-117430380D01*
X187694570Y-117470400D01*
X187489430Y-117470400D01*
X187288235Y-117430380D01*
X187098714Y-117351878D01*
X187098713Y-117351878D01*
X187098712Y-117351877D01*
X186928146Y-117237908D01*
X186783092Y-117092854D01*
X186669123Y-116922288D01*
X186666803Y-116916686D01*
X186590620Y-116732765D01*
X186550600Y-116531570D01*
X186550600Y-116326430D01*
X186590620Y-116125235D01*
X186669122Y-115935714D01*
X186783091Y-115765148D01*
X186783092Y-115765146D01*
X186928146Y-115620092D01*
X187098712Y-115506123D01*
X187288235Y-115427620D01*
X187341701Y-115416985D01*
X187489430Y-115387600D01*
X187694570Y-115387600D01*
X187842299Y-115416985D01*
X187842299Y-115416985D01*
G37*
G36*
X163570228Y-115259703D02*
G01*
X163725100Y-115323853D01*
X163864481Y-115416985D01*
X163983015Y-115535519D01*
X164076147Y-115674900D01*
X164140297Y-115829772D01*
X164173000Y-115994184D01*
X164173000Y-116161816D01*
X164140297Y-116326228D01*
X164076147Y-116481100D01*
X163983015Y-116620481D01*
X163864481Y-116739015D01*
X163725100Y-116832147D01*
X163570228Y-116896297D01*
X163405816Y-116929000D01*
X163238184Y-116929000D01*
X163073772Y-116896297D01*
X162918900Y-116832147D01*
X162779519Y-116739015D01*
X162660985Y-116620481D01*
X162567853Y-116481100D01*
X162503703Y-116326228D01*
X162471000Y-116161816D01*
X162471000Y-115994184D01*
X162503703Y-115829772D01*
X162567853Y-115674900D01*
X162660985Y-115535519D01*
X162779519Y-115416985D01*
X162918900Y-115323853D01*
X163073772Y-115259703D01*
X163238184Y-115227000D01*
X163405816Y-115227000D01*
X163570228Y-115259703D01*
X163570228Y-115259703D01*
G37*
G36*
X166028823Y-115239313D02*
G01*
X166189242Y-115287976D01*
X166256361Y-115323852D01*
X166337078Y-115366996D01*
X166466659Y-115473341D01*
X166573004Y-115602922D01*
X166573005Y-115602924D01*
X166652024Y-115750758D01*
X166700687Y-115911177D01*
X166717117Y-116078000D01*
X166700687Y-116244823D01*
X166652024Y-116405242D01*
X166611477Y-116481100D01*
X166573004Y-116553078D01*
X166466659Y-116682659D01*
X166337078Y-116789004D01*
X166337076Y-116789005D01*
X166189242Y-116868024D01*
X166028823Y-116916687D01*
X165903804Y-116929000D01*
X165820196Y-116929000D01*
X165695177Y-116916687D01*
X165534758Y-116868024D01*
X165386924Y-116789005D01*
X165386922Y-116789004D01*
X165257341Y-116682659D01*
X165150996Y-116553078D01*
X165112523Y-116481100D01*
X165071976Y-116405242D01*
X165023313Y-116244823D01*
X165006883Y-116078000D01*
X165023313Y-115911177D01*
X165071976Y-115750758D01*
X165150995Y-115602924D01*
X165150996Y-115602922D01*
X165257341Y-115473341D01*
X165386922Y-115366996D01*
X165467639Y-115323852D01*
X165534758Y-115287976D01*
X165695177Y-115239313D01*
X165820196Y-115227000D01*
X165903804Y-115227000D01*
X166028823Y-115239313D01*
X166028823Y-115239313D01*
G37*
G36*
X157359600Y-115279600D02*
G01*
X155848400Y-115279600D01*
X155848400Y-113768400D01*
X157359600Y-113768400D01*
X157359600Y-115279600D01*
X157359600Y-115279600D01*
G37*
G36*
X190689765Y-112887620D02*
G01*
X190864929Y-112960175D01*
X190879288Y-112966123D01*
X191049854Y-113080092D01*
X191194908Y-113225146D01*
X191240798Y-113293825D01*
X191308878Y-113395714D01*
X191387380Y-113585235D01*
X191423814Y-113768400D01*
X191427400Y-113786431D01*
X191427400Y-113991569D01*
X191387380Y-114192765D01*
X191308877Y-114382288D01*
X191194908Y-114552854D01*
X191049854Y-114697908D01*
X190879288Y-114811877D01*
X190879287Y-114811878D01*
X190879286Y-114811878D01*
X190689765Y-114890380D01*
X190488570Y-114930400D01*
X190283430Y-114930400D01*
X190082235Y-114890380D01*
X189892714Y-114811878D01*
X189892713Y-114811878D01*
X189892712Y-114811877D01*
X189722146Y-114697908D01*
X189577092Y-114552854D01*
X189463123Y-114382288D01*
X189384620Y-114192765D01*
X189344600Y-113991569D01*
X189344600Y-113786431D01*
X189348187Y-113768400D01*
X189384620Y-113585235D01*
X189463122Y-113395714D01*
X189531202Y-113293825D01*
X189577092Y-113225146D01*
X189722146Y-113080092D01*
X189892712Y-112966123D01*
X189907072Y-112960175D01*
X190082235Y-112887620D01*
X190283430Y-112847600D01*
X190488570Y-112847600D01*
X190689765Y-112887620D01*
X190689765Y-112887620D01*
G37*
G36*
X188149765Y-112887620D02*
G01*
X188324929Y-112960175D01*
X188339288Y-112966123D01*
X188509854Y-113080092D01*
X188654908Y-113225146D01*
X188700798Y-113293825D01*
X188768878Y-113395714D01*
X188847380Y-113585235D01*
X188883814Y-113768400D01*
X188887400Y-113786431D01*
X188887400Y-113991569D01*
X188847380Y-114192765D01*
X188768877Y-114382288D01*
X188654908Y-114552854D01*
X188509854Y-114697908D01*
X188339288Y-114811877D01*
X188339287Y-114811878D01*
X188339286Y-114811878D01*
X188149765Y-114890380D01*
X187948570Y-114930400D01*
X187743430Y-114930400D01*
X187542235Y-114890380D01*
X187352714Y-114811878D01*
X187352713Y-114811878D01*
X187352712Y-114811877D01*
X187182146Y-114697908D01*
X187037092Y-114552854D01*
X186923123Y-114382288D01*
X186844620Y-114192765D01*
X186804600Y-113991569D01*
X186804600Y-113786431D01*
X186808187Y-113768400D01*
X186844620Y-113585235D01*
X186923122Y-113395714D01*
X186991202Y-113293825D01*
X187037092Y-113225146D01*
X187182146Y-113080092D01*
X187352712Y-112966123D01*
X187367072Y-112960175D01*
X187542235Y-112887620D01*
X187743430Y-112847600D01*
X187948570Y-112847600D01*
X188149765Y-112887620D01*
X188149765Y-112887620D01*
G37*
G36*
X117400823Y-112288313D02*
G01*
X117561242Y-112336976D01*
X117661191Y-112390400D01*
X117709078Y-112415996D01*
X117838659Y-112522341D01*
X117945004Y-112651922D01*
X117945005Y-112651924D01*
X118024024Y-112799758D01*
X118072687Y-112960177D01*
X118089117Y-113127000D01*
X118072687Y-113293823D01*
X118024024Y-113454242D01*
X117954007Y-113585235D01*
X117945004Y-113602078D01*
X117838659Y-113731659D01*
X117709078Y-113838004D01*
X117709076Y-113838005D01*
X117561242Y-113917024D01*
X117400823Y-113965687D01*
X117275804Y-113978000D01*
X117192196Y-113978000D01*
X117067177Y-113965687D01*
X116906758Y-113917024D01*
X116758924Y-113838005D01*
X116758922Y-113838004D01*
X116629341Y-113731659D01*
X116522996Y-113602078D01*
X116513993Y-113585235D01*
X116443976Y-113454242D01*
X116395313Y-113293823D01*
X116378883Y-113127000D01*
X116395313Y-112960177D01*
X116443976Y-112799758D01*
X116522995Y-112651924D01*
X116522996Y-112651922D01*
X116629341Y-112522341D01*
X116758922Y-112415996D01*
X116806809Y-112390400D01*
X116906758Y-112336976D01*
X117067177Y-112288313D01*
X117192196Y-112276000D01*
X117275804Y-112276000D01*
X117400823Y-112288313D01*
X117400823Y-112288313D01*
G37*
G36*
X112955823Y-112288313D02*
G01*
X113116242Y-112336976D01*
X113216191Y-112390400D01*
X113264078Y-112415996D01*
X113393659Y-112522341D01*
X113500004Y-112651922D01*
X113500005Y-112651924D01*
X113579024Y-112799758D01*
X113627687Y-112960177D01*
X113644117Y-113127000D01*
X113627687Y-113293823D01*
X113579024Y-113454242D01*
X113509007Y-113585235D01*
X113500004Y-113602078D01*
X113393659Y-113731659D01*
X113264078Y-113838004D01*
X113264076Y-113838005D01*
X113116242Y-113917024D01*
X112955823Y-113965687D01*
X112830804Y-113978000D01*
X112747196Y-113978000D01*
X112622177Y-113965687D01*
X112461758Y-113917024D01*
X112313924Y-113838005D01*
X112313922Y-113838004D01*
X112184341Y-113731659D01*
X112077996Y-113602078D01*
X112068993Y-113585235D01*
X111998976Y-113454242D01*
X111950313Y-113293823D01*
X111933883Y-113127000D01*
X111950313Y-112960177D01*
X111998976Y-112799758D01*
X112077995Y-112651924D01*
X112077996Y-112651922D01*
X112184341Y-112522341D01*
X112313922Y-112415996D01*
X112361809Y-112390400D01*
X112461758Y-112336976D01*
X112622177Y-112288313D01*
X112747196Y-112276000D01*
X112830804Y-112276000D01*
X112955823Y-112288313D01*
X112955823Y-112288313D01*
G37*
G36*
X104700823Y-112288313D02*
G01*
X104861242Y-112336976D01*
X104961191Y-112390400D01*
X105009078Y-112415996D01*
X105138659Y-112522341D01*
X105245004Y-112651922D01*
X105245005Y-112651924D01*
X105324024Y-112799758D01*
X105372687Y-112960177D01*
X105389117Y-113127000D01*
X105372687Y-113293823D01*
X105324024Y-113454242D01*
X105254007Y-113585235D01*
X105245004Y-113602078D01*
X105138659Y-113731659D01*
X105009078Y-113838004D01*
X105009076Y-113838005D01*
X104861242Y-113917024D01*
X104700823Y-113965687D01*
X104575804Y-113978000D01*
X104492196Y-113978000D01*
X104367177Y-113965687D01*
X104206758Y-113917024D01*
X104058924Y-113838005D01*
X104058922Y-113838004D01*
X103929341Y-113731659D01*
X103822996Y-113602078D01*
X103813993Y-113585235D01*
X103743976Y-113454242D01*
X103695313Y-113293823D01*
X103678883Y-113127000D01*
X103695313Y-112960177D01*
X103743976Y-112799758D01*
X103822995Y-112651924D01*
X103822996Y-112651922D01*
X103929341Y-112522341D01*
X104058922Y-112415996D01*
X104106809Y-112390400D01*
X104206758Y-112336976D01*
X104367177Y-112288313D01*
X104492196Y-112276000D01*
X104575804Y-112276000D01*
X104700823Y-112288313D01*
X104700823Y-112288313D01*
G37*
G36*
X109145823Y-112288313D02*
G01*
X109306242Y-112336976D01*
X109406191Y-112390400D01*
X109454078Y-112415996D01*
X109583659Y-112522341D01*
X109690004Y-112651922D01*
X109690005Y-112651924D01*
X109769024Y-112799758D01*
X109817687Y-112960177D01*
X109834117Y-113127000D01*
X109817687Y-113293823D01*
X109769024Y-113454242D01*
X109699007Y-113585235D01*
X109690004Y-113602078D01*
X109583659Y-113731659D01*
X109454078Y-113838004D01*
X109454076Y-113838005D01*
X109306242Y-113917024D01*
X109145823Y-113965687D01*
X109020804Y-113978000D01*
X108937196Y-113978000D01*
X108812177Y-113965687D01*
X108651758Y-113917024D01*
X108503924Y-113838005D01*
X108503922Y-113838004D01*
X108374341Y-113731659D01*
X108267996Y-113602078D01*
X108258993Y-113585235D01*
X108188976Y-113454242D01*
X108140313Y-113293823D01*
X108123883Y-113127000D01*
X108140313Y-112960177D01*
X108188976Y-112799758D01*
X108267995Y-112651924D01*
X108267996Y-112651922D01*
X108374341Y-112522341D01*
X108503922Y-112415996D01*
X108551809Y-112390400D01*
X108651758Y-112336976D01*
X108812177Y-112288313D01*
X108937196Y-112276000D01*
X109020804Y-112276000D01*
X109145823Y-112288313D01*
X109145823Y-112288313D01*
G37*
G36*
X166028823Y-111429313D02*
G01*
X166189242Y-111477976D01*
X166256361Y-111513852D01*
X166337078Y-111556996D01*
X166466659Y-111663341D01*
X166573004Y-111792922D01*
X166573005Y-111792924D01*
X166652024Y-111940758D01*
X166700687Y-112101177D01*
X166717117Y-112268000D01*
X166700687Y-112434823D01*
X166652024Y-112595242D01*
X166611477Y-112671100D01*
X166573004Y-112743078D01*
X166466659Y-112872659D01*
X166337078Y-112979004D01*
X166337076Y-112979005D01*
X166189242Y-113058024D01*
X166028823Y-113106687D01*
X165903804Y-113119000D01*
X165820196Y-113119000D01*
X165695177Y-113106687D01*
X165534758Y-113058024D01*
X165386924Y-112979005D01*
X165386922Y-112979004D01*
X165257341Y-112872659D01*
X165150996Y-112743078D01*
X165112523Y-112671100D01*
X165071976Y-112595242D01*
X165023313Y-112434823D01*
X165006883Y-112268000D01*
X165023313Y-112101177D01*
X165071976Y-111940758D01*
X165150995Y-111792924D01*
X165150996Y-111792922D01*
X165257341Y-111663341D01*
X165386922Y-111556996D01*
X165467639Y-111513852D01*
X165534758Y-111477976D01*
X165695177Y-111429313D01*
X165820196Y-111417000D01*
X165903804Y-111417000D01*
X166028823Y-111429313D01*
X166028823Y-111429313D01*
G37*
G36*
X163570228Y-111449703D02*
G01*
X163725100Y-111513853D01*
X163864481Y-111606985D01*
X163983015Y-111725519D01*
X164076147Y-111864900D01*
X164140297Y-112019772D01*
X164173000Y-112184184D01*
X164173000Y-112351816D01*
X164140297Y-112516228D01*
X164076147Y-112671100D01*
X163983015Y-112810481D01*
X163864481Y-112929015D01*
X163725100Y-113022147D01*
X163570228Y-113086297D01*
X163405816Y-113119000D01*
X163238184Y-113119000D01*
X163073772Y-113086297D01*
X162918900Y-113022147D01*
X162779519Y-112929015D01*
X162660985Y-112810481D01*
X162567853Y-112671100D01*
X162503703Y-112516228D01*
X162471000Y-112351816D01*
X162471000Y-112184184D01*
X162503703Y-112019772D01*
X162567853Y-111864900D01*
X162660985Y-111725519D01*
X162779519Y-111606985D01*
X162918900Y-111513853D01*
X163073772Y-111449703D01*
X163238184Y-111417000D01*
X163405816Y-111417000D01*
X163570228Y-111449703D01*
X163570228Y-111449703D01*
G37*
G36*
X157359600Y-112739600D02*
G01*
X155848400Y-112739600D01*
X155848400Y-111228400D01*
X157359600Y-111228400D01*
X157359600Y-112739600D01*
X157359600Y-112739600D01*
G37*
G36*
X126879600Y-112739600D02*
G01*
X125368400Y-112739600D01*
X125368400Y-111228400D01*
X126879600Y-111228400D01*
X126879600Y-112739600D01*
X126879600Y-112739600D01*
G37*
G36*
X187851278Y-110338771D02*
G01*
X187895765Y-110347620D01*
X188085288Y-110426123D01*
X188255854Y-110540092D01*
X188400908Y-110685146D01*
X188514877Y-110855712D01*
X188514878Y-110855714D01*
X188593380Y-111045235D01*
X188633400Y-111246430D01*
X188633400Y-111451570D01*
X188602883Y-111604991D01*
X188593380Y-111652765D01*
X188514877Y-111842288D01*
X188400908Y-112012854D01*
X188255854Y-112157908D01*
X188085288Y-112271877D01*
X188085287Y-112271878D01*
X188085286Y-112271878D01*
X187895765Y-112350380D01*
X187694570Y-112390400D01*
X187489430Y-112390400D01*
X187288235Y-112350380D01*
X187098714Y-112271878D01*
X187098713Y-112271878D01*
X187098712Y-112271877D01*
X186928146Y-112157908D01*
X186783092Y-112012854D01*
X186669123Y-111842288D01*
X186590620Y-111652765D01*
X186581117Y-111604991D01*
X186550600Y-111451570D01*
X186550600Y-111246430D01*
X186590620Y-111045235D01*
X186669122Y-110855714D01*
X186669123Y-110855712D01*
X186783092Y-110685146D01*
X186928146Y-110540092D01*
X187098712Y-110426123D01*
X187288235Y-110347620D01*
X187332722Y-110338771D01*
X187489430Y-110307600D01*
X187694570Y-110307600D01*
X187851278Y-110338771D01*
X187851278Y-110338771D01*
G37*
G36*
X190391278Y-110338771D02*
G01*
X190435765Y-110347620D01*
X190625288Y-110426123D01*
X190795854Y-110540092D01*
X190940908Y-110685146D01*
X191054877Y-110855712D01*
X191054878Y-110855714D01*
X191133380Y-111045235D01*
X191173400Y-111246430D01*
X191173400Y-111451570D01*
X191142883Y-111604991D01*
X191133380Y-111652765D01*
X191054877Y-111842288D01*
X190940908Y-112012854D01*
X190795854Y-112157908D01*
X190625288Y-112271877D01*
X190625287Y-112271878D01*
X190625286Y-112271878D01*
X190435765Y-112350380D01*
X190234570Y-112390400D01*
X190029430Y-112390400D01*
X189828235Y-112350380D01*
X189638714Y-112271878D01*
X189638713Y-112271878D01*
X189638712Y-112271877D01*
X189468146Y-112157908D01*
X189323092Y-112012854D01*
X189209123Y-111842288D01*
X189130620Y-111652765D01*
X189121117Y-111604991D01*
X189090600Y-111451570D01*
X189090600Y-111246430D01*
X189130620Y-111045235D01*
X189209122Y-110855714D01*
X189209123Y-110855712D01*
X189323092Y-110685146D01*
X189468146Y-110540092D01*
X189638712Y-110426123D01*
X189828235Y-110347620D01*
X189872722Y-110338771D01*
X190029430Y-110307600D01*
X190234570Y-110307600D01*
X190391278Y-110338771D01*
X190391278Y-110338771D01*
G37*
G36*
X170924279Y-109823009D02*
G01*
X170948044Y-109832853D01*
X171092908Y-109892857D01*
X171092909Y-109892858D01*
X171244673Y-109994263D01*
X171373737Y-110123327D01*
X171373738Y-110123329D01*
X171475143Y-110275092D01*
X171488608Y-110307600D01*
X171544991Y-110443721D01*
X171580600Y-110622738D01*
X171580600Y-110805262D01*
X171544991Y-110984279D01*
X171519742Y-111045235D01*
X171475143Y-111152908D01*
X171475142Y-111152909D01*
X171373737Y-111304673D01*
X171244673Y-111433737D01*
X171220778Y-111449703D01*
X171092908Y-111535143D01*
X170994127Y-111576059D01*
X170924279Y-111604991D01*
X170745262Y-111640600D01*
X170562738Y-111640600D01*
X170383721Y-111604991D01*
X170313873Y-111576059D01*
X170215092Y-111535143D01*
X170087222Y-111449703D01*
X170063327Y-111433737D01*
X169934263Y-111304673D01*
X169832858Y-111152909D01*
X169832857Y-111152908D01*
X169788258Y-111045235D01*
X169763009Y-110984279D01*
X169727400Y-110805262D01*
X169727400Y-110622738D01*
X169763009Y-110443721D01*
X169819392Y-110307600D01*
X169832857Y-110275092D01*
X169934262Y-110123329D01*
X169934263Y-110123327D01*
X170063327Y-109994263D01*
X170215091Y-109892858D01*
X170215092Y-109892857D01*
X170359956Y-109832853D01*
X170383721Y-109823009D01*
X170562738Y-109787400D01*
X170745262Y-109787400D01*
X170924279Y-109823009D01*
X170924279Y-109823009D01*
G37*
G36*
X179424279Y-109823009D02*
G01*
X179448044Y-109832853D01*
X179592908Y-109892857D01*
X179592909Y-109892858D01*
X179744673Y-109994263D01*
X179873737Y-110123327D01*
X179873738Y-110123329D01*
X179975143Y-110275092D01*
X179988608Y-110307600D01*
X180044991Y-110443721D01*
X180080600Y-110622738D01*
X180080600Y-110805262D01*
X180044991Y-110984279D01*
X180019742Y-111045235D01*
X179975143Y-111152908D01*
X179975142Y-111152909D01*
X179873737Y-111304673D01*
X179744673Y-111433737D01*
X179720778Y-111449703D01*
X179592908Y-111535143D01*
X179494127Y-111576059D01*
X179424279Y-111604991D01*
X179245262Y-111640600D01*
X179062738Y-111640600D01*
X178883721Y-111604991D01*
X178813873Y-111576059D01*
X178715092Y-111535143D01*
X178587222Y-111449703D01*
X178563327Y-111433737D01*
X178434263Y-111304673D01*
X178332858Y-111152909D01*
X178332857Y-111152908D01*
X178288258Y-111045235D01*
X178263009Y-110984279D01*
X178227400Y-110805262D01*
X178227400Y-110622738D01*
X178263009Y-110443721D01*
X178319392Y-110307600D01*
X178332857Y-110275092D01*
X178434262Y-110123329D01*
X178434263Y-110123327D01*
X178563327Y-109994263D01*
X178715091Y-109892858D01*
X178715092Y-109892857D01*
X178859956Y-109832853D01*
X178883721Y-109823009D01*
X179062738Y-109787400D01*
X179245262Y-109787400D01*
X179424279Y-109823009D01*
X179424279Y-109823009D01*
G37*
G36*
X182424279Y-109823009D02*
G01*
X182448044Y-109832853D01*
X182592908Y-109892857D01*
X182592909Y-109892858D01*
X182744673Y-109994263D01*
X182873737Y-110123327D01*
X182873738Y-110123329D01*
X182975143Y-110275092D01*
X182988608Y-110307600D01*
X183044991Y-110443721D01*
X183080600Y-110622738D01*
X183080600Y-110805262D01*
X183044991Y-110984279D01*
X183019742Y-111045235D01*
X182975143Y-111152908D01*
X182975142Y-111152909D01*
X182873737Y-111304673D01*
X182744673Y-111433737D01*
X182720778Y-111449703D01*
X182592908Y-111535143D01*
X182494127Y-111576059D01*
X182424279Y-111604991D01*
X182245262Y-111640600D01*
X182062738Y-111640600D01*
X181883721Y-111604991D01*
X181813873Y-111576059D01*
X181715092Y-111535143D01*
X181587222Y-111449703D01*
X181563327Y-111433737D01*
X181434263Y-111304673D01*
X181332858Y-111152909D01*
X181332857Y-111152908D01*
X181288258Y-111045235D01*
X181263009Y-110984279D01*
X181227400Y-110805262D01*
X181227400Y-110622738D01*
X181263009Y-110443721D01*
X181319392Y-110307600D01*
X181332857Y-110275092D01*
X181434262Y-110123329D01*
X181434263Y-110123327D01*
X181563327Y-109994263D01*
X181715091Y-109892858D01*
X181715092Y-109892857D01*
X181859956Y-109832853D01*
X181883721Y-109823009D01*
X182062738Y-109787400D01*
X182245262Y-109787400D01*
X182424279Y-109823009D01*
X182424279Y-109823009D01*
G37*
G36*
X109227228Y-109768703D02*
G01*
X109382100Y-109832853D01*
X109521481Y-109925985D01*
X109640015Y-110044519D01*
X109733147Y-110183900D01*
X109797297Y-110338772D01*
X109830000Y-110503184D01*
X109830000Y-110670816D01*
X109797297Y-110835228D01*
X109733147Y-110990100D01*
X109640015Y-111129481D01*
X109521481Y-111248015D01*
X109382100Y-111341147D01*
X109227228Y-111405297D01*
X109062816Y-111438000D01*
X108895184Y-111438000D01*
X108730772Y-111405297D01*
X108575900Y-111341147D01*
X108436519Y-111248015D01*
X108317985Y-111129481D01*
X108224853Y-110990100D01*
X108160703Y-110835228D01*
X108128000Y-110670816D01*
X108128000Y-110503184D01*
X108160703Y-110338772D01*
X108224853Y-110183900D01*
X108317985Y-110044519D01*
X108436519Y-109925985D01*
X108575900Y-109832853D01*
X108730772Y-109768703D01*
X108895184Y-109736000D01*
X109062816Y-109736000D01*
X109227228Y-109768703D01*
X109227228Y-109768703D01*
G37*
G36*
X104782228Y-109768703D02*
G01*
X104937100Y-109832853D01*
X105076481Y-109925985D01*
X105195015Y-110044519D01*
X105288147Y-110183900D01*
X105352297Y-110338772D01*
X105385000Y-110503184D01*
X105385000Y-110670816D01*
X105352297Y-110835228D01*
X105288147Y-110990100D01*
X105195015Y-111129481D01*
X105076481Y-111248015D01*
X104937100Y-111341147D01*
X104782228Y-111405297D01*
X104617816Y-111438000D01*
X104450184Y-111438000D01*
X104285772Y-111405297D01*
X104130900Y-111341147D01*
X103991519Y-111248015D01*
X103872985Y-111129481D01*
X103779853Y-110990100D01*
X103715703Y-110835228D01*
X103683000Y-110670816D01*
X103683000Y-110503184D01*
X103715703Y-110338772D01*
X103779853Y-110183900D01*
X103872985Y-110044519D01*
X103991519Y-109925985D01*
X104130900Y-109832853D01*
X104285772Y-109768703D01*
X104450184Y-109736000D01*
X104617816Y-109736000D01*
X104782228Y-109768703D01*
X104782228Y-109768703D01*
G37*
G36*
X113037228Y-109768703D02*
G01*
X113192100Y-109832853D01*
X113331481Y-109925985D01*
X113450015Y-110044519D01*
X113543147Y-110183900D01*
X113607297Y-110338772D01*
X113640000Y-110503184D01*
X113640000Y-110670816D01*
X113607297Y-110835228D01*
X113543147Y-110990100D01*
X113450015Y-111129481D01*
X113331481Y-111248015D01*
X113192100Y-111341147D01*
X113037228Y-111405297D01*
X112872816Y-111438000D01*
X112705184Y-111438000D01*
X112540772Y-111405297D01*
X112385900Y-111341147D01*
X112246519Y-111248015D01*
X112127985Y-111129481D01*
X112034853Y-110990100D01*
X111970703Y-110835228D01*
X111938000Y-110670816D01*
X111938000Y-110503184D01*
X111970703Y-110338772D01*
X112034853Y-110183900D01*
X112127985Y-110044519D01*
X112246519Y-109925985D01*
X112385900Y-109832853D01*
X112540772Y-109768703D01*
X112705184Y-109736000D01*
X112872816Y-109736000D01*
X113037228Y-109768703D01*
X113037228Y-109768703D01*
G37*
G36*
X117482228Y-109768703D02*
G01*
X117637100Y-109832853D01*
X117776481Y-109925985D01*
X117895015Y-110044519D01*
X117988147Y-110183900D01*
X118052297Y-110338772D01*
X118085000Y-110503184D01*
X118085000Y-110670816D01*
X118052297Y-110835228D01*
X117988147Y-110990100D01*
X117895015Y-111129481D01*
X117776481Y-111248015D01*
X117637100Y-111341147D01*
X117482228Y-111405297D01*
X117317816Y-111438000D01*
X117150184Y-111438000D01*
X116985772Y-111405297D01*
X116830900Y-111341147D01*
X116691519Y-111248015D01*
X116572985Y-111129481D01*
X116479853Y-110990100D01*
X116415703Y-110835228D01*
X116383000Y-110670816D01*
X116383000Y-110503184D01*
X116415703Y-110338772D01*
X116479853Y-110183900D01*
X116572985Y-110044519D01*
X116691519Y-109925985D01*
X116830900Y-109832853D01*
X116985772Y-109768703D01*
X117150184Y-109736000D01*
X117317816Y-109736000D01*
X117482228Y-109768703D01*
X117482228Y-109768703D01*
G37*
G36*
X157359600Y-110199600D02*
G01*
X155848400Y-110199600D01*
X155848400Y-108688400D01*
X157359600Y-108688400D01*
X157359600Y-110199600D01*
X157359600Y-110199600D01*
G37*
G36*
X163570228Y-107639703D02*
G01*
X163725100Y-107703853D01*
X163864481Y-107796985D01*
X163983015Y-107915519D01*
X164076147Y-108054900D01*
X164140297Y-108209772D01*
X164173000Y-108374184D01*
X164173000Y-108541816D01*
X164140297Y-108706228D01*
X164076147Y-108861100D01*
X163983015Y-109000481D01*
X163864481Y-109119015D01*
X163725100Y-109212147D01*
X163570228Y-109276297D01*
X163405816Y-109309000D01*
X163238184Y-109309000D01*
X163073772Y-109276297D01*
X162918900Y-109212147D01*
X162779519Y-109119015D01*
X162660985Y-109000481D01*
X162567853Y-108861100D01*
X162503703Y-108706228D01*
X162471000Y-108541816D01*
X162471000Y-108374184D01*
X162503703Y-108209772D01*
X162567853Y-108054900D01*
X162660985Y-107915519D01*
X162779519Y-107796985D01*
X162918900Y-107703853D01*
X163073772Y-107639703D01*
X163238184Y-107607000D01*
X163405816Y-107607000D01*
X163570228Y-107639703D01*
X163570228Y-107639703D01*
G37*
G36*
X166070228Y-107639703D02*
G01*
X166225100Y-107703853D01*
X166364481Y-107796985D01*
X166483015Y-107915519D01*
X166576147Y-108054900D01*
X166640297Y-108209772D01*
X166673000Y-108374184D01*
X166673000Y-108541816D01*
X166640297Y-108706228D01*
X166576147Y-108861100D01*
X166483015Y-109000481D01*
X166364481Y-109119015D01*
X166225100Y-109212147D01*
X166070228Y-109276297D01*
X165905816Y-109309000D01*
X165738184Y-109309000D01*
X165573772Y-109276297D01*
X165418900Y-109212147D01*
X165279519Y-109119015D01*
X165160985Y-109000481D01*
X165067853Y-108861100D01*
X165003703Y-108706228D01*
X164971000Y-108541816D01*
X164971000Y-108374184D01*
X165003703Y-108209772D01*
X165067853Y-108054900D01*
X165160985Y-107915519D01*
X165279519Y-107796985D01*
X165418900Y-107703853D01*
X165573772Y-107639703D01*
X165738184Y-107607000D01*
X165905816Y-107607000D01*
X166070228Y-107639703D01*
X166070228Y-107639703D01*
G37*
G36*
X126879600Y-107659600D02*
G01*
X125368400Y-107659600D01*
X125368400Y-106148400D01*
X126879600Y-106148400D01*
X126879600Y-107659600D01*
X126879600Y-107659600D01*
G37*
G36*
X157359600Y-107659600D02*
G01*
X155848400Y-107659600D01*
X155848400Y-106148400D01*
X157359600Y-106148400D01*
X157359600Y-107659600D01*
X157359600Y-107659600D01*
G37*
G36*
X193982000Y-105774000D02*
G01*
X192280000Y-105774000D01*
X192280000Y-104072000D01*
X193982000Y-104072000D01*
X193982000Y-105774000D01*
X193982000Y-105774000D01*
G37*
G36*
X190757823Y-104084313D02*
G01*
X190918242Y-104132976D01*
X191050906Y-104203886D01*
X191066078Y-104211996D01*
X191195659Y-104318341D01*
X191302004Y-104447922D01*
X191302005Y-104447924D01*
X191381024Y-104595758D01*
X191429687Y-104756177D01*
X191446117Y-104923000D01*
X191429687Y-105089823D01*
X191381024Y-105250242D01*
X191310114Y-105382906D01*
X191302004Y-105398078D01*
X191195659Y-105527659D01*
X191066078Y-105634004D01*
X191066076Y-105634005D01*
X190918242Y-105713024D01*
X190757823Y-105761687D01*
X190632804Y-105774000D01*
X190549196Y-105774000D01*
X190424177Y-105761687D01*
X190263758Y-105713024D01*
X190115924Y-105634005D01*
X190115922Y-105634004D01*
X189986341Y-105527659D01*
X189879996Y-105398078D01*
X189871886Y-105382906D01*
X189800976Y-105250242D01*
X189752313Y-105089823D01*
X189735883Y-104923000D01*
X189752313Y-104756177D01*
X189800976Y-104595758D01*
X189879995Y-104447924D01*
X189879996Y-104447922D01*
X189986341Y-104318341D01*
X190115922Y-104211996D01*
X190131094Y-104203886D01*
X190263758Y-104132976D01*
X190424177Y-104084313D01*
X190549196Y-104072000D01*
X190632804Y-104072000D01*
X190757823Y-104084313D01*
X190757823Y-104084313D01*
G37*
G36*
X185423823Y-104084313D02*
G01*
X185584242Y-104132976D01*
X185716906Y-104203886D01*
X185732078Y-104211996D01*
X185861659Y-104318341D01*
X185968004Y-104447922D01*
X185968005Y-104447924D01*
X186047024Y-104595758D01*
X186095687Y-104756177D01*
X186112117Y-104923000D01*
X186095687Y-105089823D01*
X186047024Y-105250242D01*
X185976114Y-105382906D01*
X185968004Y-105398078D01*
X185861659Y-105527659D01*
X185732078Y-105634004D01*
X185732076Y-105634005D01*
X185584242Y-105713024D01*
X185423823Y-105761687D01*
X185298804Y-105774000D01*
X185215196Y-105774000D01*
X185090177Y-105761687D01*
X184929758Y-105713024D01*
X184781924Y-105634005D01*
X184781922Y-105634004D01*
X184652341Y-105527659D01*
X184545996Y-105398078D01*
X184537886Y-105382906D01*
X184466976Y-105250242D01*
X184418313Y-105089823D01*
X184401883Y-104923000D01*
X184418313Y-104756177D01*
X184466976Y-104595758D01*
X184545995Y-104447924D01*
X184545996Y-104447922D01*
X184652341Y-104318341D01*
X184781922Y-104211996D01*
X184797094Y-104203886D01*
X184929758Y-104132976D01*
X185090177Y-104084313D01*
X185215196Y-104072000D01*
X185298804Y-104072000D01*
X185423823Y-104084313D01*
X185423823Y-104084313D01*
G37*
G36*
X188648000Y-105774000D02*
G01*
X186946000Y-105774000D01*
X186946000Y-104072000D01*
X188648000Y-104072000D01*
X188648000Y-105774000D01*
X188648000Y-105774000D01*
G37*
G36*
X166070228Y-103575703D02*
G01*
X166225100Y-103639853D01*
X166364481Y-103732985D01*
X166483015Y-103851519D01*
X166576147Y-103990900D01*
X166640297Y-104145772D01*
X166673000Y-104310184D01*
X166673000Y-104477816D01*
X166640297Y-104642228D01*
X166576147Y-104797100D01*
X166483015Y-104936481D01*
X166364481Y-105055015D01*
X166225100Y-105148147D01*
X166070228Y-105212297D01*
X165905816Y-105245000D01*
X165738184Y-105245000D01*
X165573772Y-105212297D01*
X165418900Y-105148147D01*
X165279519Y-105055015D01*
X165160985Y-104936481D01*
X165067853Y-104797100D01*
X165003703Y-104642228D01*
X164971000Y-104477816D01*
X164971000Y-104310184D01*
X165003703Y-104145772D01*
X165067853Y-103990900D01*
X165160985Y-103851519D01*
X165279519Y-103732985D01*
X165418900Y-103639853D01*
X165573772Y-103575703D01*
X165738184Y-103543000D01*
X165905816Y-103543000D01*
X166070228Y-103575703D01*
X166070228Y-103575703D01*
G37*
G36*
X163570228Y-103575703D02*
G01*
X163725100Y-103639853D01*
X163864481Y-103732985D01*
X163983015Y-103851519D01*
X164076147Y-103990900D01*
X164140297Y-104145772D01*
X164173000Y-104310184D01*
X164173000Y-104477816D01*
X164140297Y-104642228D01*
X164076147Y-104797100D01*
X163983015Y-104936481D01*
X163864481Y-105055015D01*
X163725100Y-105148147D01*
X163570228Y-105212297D01*
X163405816Y-105245000D01*
X163238184Y-105245000D01*
X163073772Y-105212297D01*
X162918900Y-105148147D01*
X162779519Y-105055015D01*
X162660985Y-104936481D01*
X162567853Y-104797100D01*
X162503703Y-104642228D01*
X162471000Y-104477816D01*
X162471000Y-104310184D01*
X162503703Y-104145772D01*
X162567853Y-103990900D01*
X162660985Y-103851519D01*
X162779519Y-103732985D01*
X162918900Y-103639853D01*
X163073772Y-103575703D01*
X163238184Y-103543000D01*
X163405816Y-103543000D01*
X163570228Y-103575703D01*
X163570228Y-103575703D01*
G37*
G36*
X157359600Y-105119600D02*
G01*
X155848400Y-105119600D01*
X155848400Y-103608400D01*
X157359600Y-103608400D01*
X157359600Y-105119600D01*
X157359600Y-105119600D01*
G37*
G36*
X112955823Y-102255313D02*
G01*
X113116242Y-102303976D01*
X113210105Y-102354147D01*
X113264078Y-102382996D01*
X113393659Y-102489341D01*
X113500004Y-102618922D01*
X113500005Y-102618924D01*
X113579024Y-102766758D01*
X113627687Y-102927177D01*
X113644117Y-103094000D01*
X113627687Y-103260823D01*
X113579024Y-103421242D01*
X113513943Y-103543000D01*
X113500004Y-103569078D01*
X113393659Y-103698659D01*
X113264078Y-103805004D01*
X113264076Y-103805005D01*
X113116242Y-103884024D01*
X112955823Y-103932687D01*
X112830804Y-103945000D01*
X112747196Y-103945000D01*
X112622177Y-103932687D01*
X112461758Y-103884024D01*
X112313924Y-103805005D01*
X112313922Y-103805004D01*
X112184341Y-103698659D01*
X112077996Y-103569078D01*
X112064057Y-103543000D01*
X111998976Y-103421242D01*
X111950313Y-103260823D01*
X111933883Y-103094000D01*
X111950313Y-102927177D01*
X111998976Y-102766758D01*
X112077995Y-102618924D01*
X112077996Y-102618922D01*
X112184341Y-102489341D01*
X112313922Y-102382996D01*
X112367895Y-102354147D01*
X112461758Y-102303976D01*
X112622177Y-102255313D01*
X112747196Y-102243000D01*
X112830804Y-102243000D01*
X112955823Y-102255313D01*
X112955823Y-102255313D01*
G37*
G36*
X109145823Y-102255313D02*
G01*
X109306242Y-102303976D01*
X109400105Y-102354147D01*
X109454078Y-102382996D01*
X109583659Y-102489341D01*
X109690004Y-102618922D01*
X109690005Y-102618924D01*
X109769024Y-102766758D01*
X109817687Y-102927177D01*
X109834117Y-103094000D01*
X109817687Y-103260823D01*
X109769024Y-103421242D01*
X109703943Y-103543000D01*
X109690004Y-103569078D01*
X109583659Y-103698659D01*
X109454078Y-103805004D01*
X109454076Y-103805005D01*
X109306242Y-103884024D01*
X109145823Y-103932687D01*
X109020804Y-103945000D01*
X108937196Y-103945000D01*
X108812177Y-103932687D01*
X108651758Y-103884024D01*
X108503924Y-103805005D01*
X108503922Y-103805004D01*
X108374341Y-103698659D01*
X108267996Y-103569078D01*
X108254057Y-103543000D01*
X108188976Y-103421242D01*
X108140313Y-103260823D01*
X108123883Y-103094000D01*
X108140313Y-102927177D01*
X108188976Y-102766758D01*
X108267995Y-102618924D01*
X108267996Y-102618922D01*
X108374341Y-102489341D01*
X108503922Y-102382996D01*
X108557895Y-102354147D01*
X108651758Y-102303976D01*
X108812177Y-102255313D01*
X108937196Y-102243000D01*
X109020804Y-102243000D01*
X109145823Y-102255313D01*
X109145823Y-102255313D01*
G37*
G36*
X104700823Y-102255313D02*
G01*
X104861242Y-102303976D01*
X104955105Y-102354147D01*
X105009078Y-102382996D01*
X105138659Y-102489341D01*
X105245004Y-102618922D01*
X105245005Y-102618924D01*
X105324024Y-102766758D01*
X105372687Y-102927177D01*
X105389117Y-103094000D01*
X105372687Y-103260823D01*
X105324024Y-103421242D01*
X105258943Y-103543000D01*
X105245004Y-103569078D01*
X105138659Y-103698659D01*
X105009078Y-103805004D01*
X105009076Y-103805005D01*
X104861242Y-103884024D01*
X104700823Y-103932687D01*
X104575804Y-103945000D01*
X104492196Y-103945000D01*
X104367177Y-103932687D01*
X104206758Y-103884024D01*
X104058924Y-103805005D01*
X104058922Y-103805004D01*
X103929341Y-103698659D01*
X103822996Y-103569078D01*
X103809057Y-103543000D01*
X103743976Y-103421242D01*
X103695313Y-103260823D01*
X103678883Y-103094000D01*
X103695313Y-102927177D01*
X103743976Y-102766758D01*
X103822995Y-102618924D01*
X103822996Y-102618922D01*
X103929341Y-102489341D01*
X104058922Y-102382996D01*
X104112895Y-102354147D01*
X104206758Y-102303976D01*
X104367177Y-102255313D01*
X104492196Y-102243000D01*
X104575804Y-102243000D01*
X104700823Y-102255313D01*
X104700823Y-102255313D01*
G37*
G36*
X117400823Y-102255313D02*
G01*
X117561242Y-102303976D01*
X117655105Y-102354147D01*
X117709078Y-102382996D01*
X117838659Y-102489341D01*
X117945004Y-102618922D01*
X117945005Y-102618924D01*
X118024024Y-102766758D01*
X118072687Y-102927177D01*
X118089117Y-103094000D01*
X118072687Y-103260823D01*
X118024024Y-103421242D01*
X117958943Y-103543000D01*
X117945004Y-103569078D01*
X117838659Y-103698659D01*
X117709078Y-103805004D01*
X117709076Y-103805005D01*
X117561242Y-103884024D01*
X117400823Y-103932687D01*
X117275804Y-103945000D01*
X117192196Y-103945000D01*
X117067177Y-103932687D01*
X116906758Y-103884024D01*
X116758924Y-103805005D01*
X116758922Y-103805004D01*
X116629341Y-103698659D01*
X116522996Y-103569078D01*
X116509057Y-103543000D01*
X116443976Y-103421242D01*
X116395313Y-103260823D01*
X116378883Y-103094000D01*
X116395313Y-102927177D01*
X116443976Y-102766758D01*
X116522995Y-102618924D01*
X116522996Y-102618922D01*
X116629341Y-102489341D01*
X116758922Y-102382996D01*
X116812895Y-102354147D01*
X116906758Y-102303976D01*
X117067177Y-102255313D01*
X117192196Y-102243000D01*
X117275804Y-102243000D01*
X117400823Y-102255313D01*
X117400823Y-102255313D01*
G37*
G36*
X126879600Y-102579600D02*
G01*
X125368400Y-102579600D01*
X125368400Y-101068400D01*
X126879600Y-101068400D01*
X126879600Y-102579600D01*
X126879600Y-102579600D01*
G37*
G36*
X157359600Y-102579600D02*
G01*
X155848400Y-102579600D01*
X155848400Y-101068400D01*
X157359600Y-101068400D01*
X157359600Y-102579600D01*
X157359600Y-102579600D01*
G37*
G36*
X185668228Y-100781703D02*
G01*
X185823100Y-100845853D01*
X185962481Y-100938985D01*
X186081015Y-101057519D01*
X186174147Y-101196900D01*
X186238297Y-101351772D01*
X186271000Y-101516184D01*
X186271000Y-101683816D01*
X186238297Y-101848228D01*
X186174147Y-102003100D01*
X186081015Y-102142481D01*
X185962481Y-102261015D01*
X185823100Y-102354147D01*
X185668228Y-102418297D01*
X185503816Y-102451000D01*
X185336184Y-102451000D01*
X185171772Y-102418297D01*
X185016900Y-102354147D01*
X184877519Y-102261015D01*
X184758985Y-102142481D01*
X184665853Y-102003100D01*
X184601703Y-101848228D01*
X184569000Y-101683816D01*
X184569000Y-101516184D01*
X184601703Y-101351772D01*
X184665853Y-101196900D01*
X184758985Y-101057519D01*
X184877519Y-100938985D01*
X185016900Y-100845853D01*
X185171772Y-100781703D01*
X185336184Y-100749000D01*
X185503816Y-100749000D01*
X185668228Y-100781703D01*
X185668228Y-100781703D01*
G37*
G36*
X188126823Y-100761313D02*
G01*
X188257380Y-100800917D01*
X188261701Y-100802228D01*
X188287242Y-100809976D01*
X188354361Y-100845852D01*
X188435078Y-100888996D01*
X188564659Y-100995341D01*
X188671004Y-101124922D01*
X188671005Y-101124924D01*
X188750024Y-101272758D01*
X188798687Y-101433177D01*
X188815117Y-101600000D01*
X188798687Y-101766823D01*
X188750024Y-101927242D01*
X188709477Y-102003100D01*
X188671004Y-102075078D01*
X188564659Y-102204659D01*
X188435078Y-102311004D01*
X188435076Y-102311005D01*
X188287242Y-102390024D01*
X188126823Y-102438687D01*
X188001804Y-102451000D01*
X187918196Y-102451000D01*
X187793177Y-102438687D01*
X187632758Y-102390024D01*
X187484924Y-102311005D01*
X187484922Y-102311004D01*
X187355341Y-102204659D01*
X187248996Y-102075078D01*
X187210523Y-102003100D01*
X187169976Y-101927242D01*
X187121313Y-101766823D01*
X187104883Y-101600000D01*
X187121313Y-101433177D01*
X187169976Y-101272758D01*
X187248995Y-101124924D01*
X187248996Y-101124922D01*
X187355341Y-100995341D01*
X187484922Y-100888996D01*
X187565639Y-100845852D01*
X187632758Y-100809976D01*
X187658300Y-100802228D01*
X187662620Y-100800917D01*
X187793177Y-100761313D01*
X187918196Y-100749000D01*
X188001804Y-100749000D01*
X188126823Y-100761313D01*
X188126823Y-100761313D01*
G37*
G36*
X191256228Y-100781703D02*
G01*
X191411100Y-100845853D01*
X191550481Y-100938985D01*
X191669015Y-101057519D01*
X191762147Y-101196900D01*
X191826297Y-101351772D01*
X191859000Y-101516184D01*
X191859000Y-101683816D01*
X191826297Y-101848228D01*
X191762147Y-102003100D01*
X191669015Y-102142481D01*
X191550481Y-102261015D01*
X191411100Y-102354147D01*
X191256228Y-102418297D01*
X191091816Y-102451000D01*
X190924184Y-102451000D01*
X190759772Y-102418297D01*
X190604900Y-102354147D01*
X190465519Y-102261015D01*
X190346985Y-102142481D01*
X190253853Y-102003100D01*
X190189703Y-101848228D01*
X190157000Y-101683816D01*
X190157000Y-101516184D01*
X190189703Y-101351772D01*
X190253853Y-101196900D01*
X190346985Y-101057519D01*
X190465519Y-100938985D01*
X190604900Y-100845853D01*
X190759772Y-100781703D01*
X190924184Y-100749000D01*
X191091816Y-100749000D01*
X191256228Y-100781703D01*
X191256228Y-100781703D01*
G37*
G36*
X193714823Y-100761313D02*
G01*
X193845380Y-100800917D01*
X193849701Y-100802228D01*
X193875242Y-100809976D01*
X193942361Y-100845852D01*
X194023078Y-100888996D01*
X194152659Y-100995341D01*
X194259004Y-101124922D01*
X194259005Y-101124924D01*
X194338024Y-101272758D01*
X194386687Y-101433177D01*
X194403117Y-101600000D01*
X194386687Y-101766823D01*
X194338024Y-101927242D01*
X194297477Y-102003100D01*
X194259004Y-102075078D01*
X194152659Y-102204659D01*
X194023078Y-102311004D01*
X194023076Y-102311005D01*
X193875242Y-102390024D01*
X193714823Y-102438687D01*
X193589804Y-102451000D01*
X193506196Y-102451000D01*
X193381177Y-102438687D01*
X193220758Y-102390024D01*
X193072924Y-102311005D01*
X193072922Y-102311004D01*
X192943341Y-102204659D01*
X192836996Y-102075078D01*
X192798523Y-102003100D01*
X192757976Y-101927242D01*
X192709313Y-101766823D01*
X192692883Y-101600000D01*
X192709313Y-101433177D01*
X192757976Y-101272758D01*
X192836995Y-101124924D01*
X192836996Y-101124922D01*
X192943341Y-100995341D01*
X193072922Y-100888996D01*
X193153639Y-100845852D01*
X193220758Y-100809976D01*
X193246300Y-100802228D01*
X193250620Y-100800917D01*
X193381177Y-100761313D01*
X193506196Y-100749000D01*
X193589804Y-100749000D01*
X193714823Y-100761313D01*
X193714823Y-100761313D01*
G37*
G36*
X182424279Y-99663009D02*
G01*
X182494127Y-99691941D01*
X182592908Y-99732857D01*
X182592909Y-99732858D01*
X182744673Y-99834263D01*
X182873737Y-99963327D01*
X182873738Y-99963329D01*
X182975143Y-100115092D01*
X182989975Y-100150900D01*
X183044991Y-100283721D01*
X183080600Y-100462738D01*
X183080600Y-100645262D01*
X183044991Y-100824279D01*
X183018185Y-100888995D01*
X182975143Y-100992908D01*
X182975142Y-100992909D01*
X182873737Y-101144673D01*
X182744673Y-101273737D01*
X182693173Y-101308148D01*
X182592908Y-101375143D01*
X182520826Y-101405000D01*
X182424279Y-101444991D01*
X182245262Y-101480600D01*
X182062738Y-101480600D01*
X181883721Y-101444991D01*
X181787174Y-101405000D01*
X181715092Y-101375143D01*
X181614827Y-101308148D01*
X181563327Y-101273737D01*
X181434263Y-101144673D01*
X181332858Y-100992909D01*
X181332857Y-100992908D01*
X181289815Y-100888995D01*
X181263009Y-100824279D01*
X181227400Y-100645262D01*
X181227400Y-100462738D01*
X181263009Y-100283721D01*
X181318025Y-100150900D01*
X181332857Y-100115092D01*
X181434262Y-99963329D01*
X181434263Y-99963327D01*
X181563327Y-99834263D01*
X181715091Y-99732858D01*
X181715092Y-99732857D01*
X181813873Y-99691941D01*
X181883721Y-99663009D01*
X182062738Y-99627400D01*
X182245262Y-99627400D01*
X182424279Y-99663009D01*
X182424279Y-99663009D01*
G37*
G36*
X179424279Y-99663009D02*
G01*
X179494127Y-99691941D01*
X179592908Y-99732857D01*
X179592909Y-99732858D01*
X179744673Y-99834263D01*
X179873737Y-99963327D01*
X179873738Y-99963329D01*
X179975143Y-100115092D01*
X179989975Y-100150900D01*
X180044991Y-100283721D01*
X180080600Y-100462738D01*
X180080600Y-100645262D01*
X180044991Y-100824279D01*
X180018185Y-100888995D01*
X179975143Y-100992908D01*
X179975142Y-100992909D01*
X179873737Y-101144673D01*
X179744673Y-101273737D01*
X179693173Y-101308148D01*
X179592908Y-101375143D01*
X179520826Y-101405000D01*
X179424279Y-101444991D01*
X179245262Y-101480600D01*
X179062738Y-101480600D01*
X178883721Y-101444991D01*
X178787174Y-101405000D01*
X178715092Y-101375143D01*
X178614827Y-101308148D01*
X178563327Y-101273737D01*
X178434263Y-101144673D01*
X178332858Y-100992909D01*
X178332857Y-100992908D01*
X178289815Y-100888995D01*
X178263009Y-100824279D01*
X178227400Y-100645262D01*
X178227400Y-100462738D01*
X178263009Y-100283721D01*
X178318025Y-100150900D01*
X178332857Y-100115092D01*
X178434262Y-99963329D01*
X178434263Y-99963327D01*
X178563327Y-99834263D01*
X178715091Y-99732858D01*
X178715092Y-99732857D01*
X178813873Y-99691941D01*
X178883721Y-99663009D01*
X179062738Y-99627400D01*
X179245262Y-99627400D01*
X179424279Y-99663009D01*
X179424279Y-99663009D01*
G37*
G36*
X170924279Y-99663009D02*
G01*
X170994127Y-99691941D01*
X171092908Y-99732857D01*
X171092909Y-99732858D01*
X171244673Y-99834263D01*
X171373737Y-99963327D01*
X171373738Y-99963329D01*
X171475143Y-100115092D01*
X171489975Y-100150900D01*
X171544991Y-100283721D01*
X171580600Y-100462738D01*
X171580600Y-100645262D01*
X171544991Y-100824279D01*
X171518185Y-100888995D01*
X171475143Y-100992908D01*
X171475142Y-100992909D01*
X171373737Y-101144673D01*
X171244673Y-101273737D01*
X171193173Y-101308148D01*
X171092908Y-101375143D01*
X171020826Y-101405000D01*
X170924279Y-101444991D01*
X170745262Y-101480600D01*
X170562738Y-101480600D01*
X170383721Y-101444991D01*
X170287174Y-101405000D01*
X170215092Y-101375143D01*
X170114827Y-101308148D01*
X170063327Y-101273737D01*
X169934263Y-101144673D01*
X169832858Y-100992909D01*
X169832857Y-100992908D01*
X169789815Y-100888995D01*
X169763009Y-100824279D01*
X169727400Y-100645262D01*
X169727400Y-100462738D01*
X169763009Y-100283721D01*
X169818025Y-100150900D01*
X169832857Y-100115092D01*
X169934262Y-99963329D01*
X169934263Y-99963327D01*
X170063327Y-99834263D01*
X170215091Y-99732858D01*
X170215092Y-99732857D01*
X170313873Y-99691941D01*
X170383721Y-99663009D01*
X170562738Y-99627400D01*
X170745262Y-99627400D01*
X170924279Y-99663009D01*
X170924279Y-99663009D01*
G37*
G36*
X113037228Y-99735703D02*
G01*
X113192100Y-99799853D01*
X113331481Y-99892985D01*
X113450015Y-100011519D01*
X113543147Y-100150900D01*
X113607297Y-100305772D01*
X113640000Y-100470184D01*
X113640000Y-100637816D01*
X113607297Y-100802228D01*
X113543147Y-100957100D01*
X113450015Y-101096481D01*
X113331481Y-101215015D01*
X113192100Y-101308147D01*
X113037228Y-101372297D01*
X112872816Y-101405000D01*
X112705184Y-101405000D01*
X112540772Y-101372297D01*
X112385900Y-101308147D01*
X112246519Y-101215015D01*
X112127985Y-101096481D01*
X112034853Y-100957100D01*
X111970703Y-100802228D01*
X111938000Y-100637816D01*
X111938000Y-100470184D01*
X111970703Y-100305772D01*
X112034853Y-100150900D01*
X112127985Y-100011519D01*
X112246519Y-99892985D01*
X112385900Y-99799853D01*
X112540772Y-99735703D01*
X112705184Y-99703000D01*
X112872816Y-99703000D01*
X113037228Y-99735703D01*
X113037228Y-99735703D01*
G37*
G36*
X109227228Y-99735703D02*
G01*
X109382100Y-99799853D01*
X109521481Y-99892985D01*
X109640015Y-100011519D01*
X109733147Y-100150900D01*
X109797297Y-100305772D01*
X109830000Y-100470184D01*
X109830000Y-100637816D01*
X109797297Y-100802228D01*
X109733147Y-100957100D01*
X109640015Y-101096481D01*
X109521481Y-101215015D01*
X109382100Y-101308147D01*
X109227228Y-101372297D01*
X109062816Y-101405000D01*
X108895184Y-101405000D01*
X108730772Y-101372297D01*
X108575900Y-101308147D01*
X108436519Y-101215015D01*
X108317985Y-101096481D01*
X108224853Y-100957100D01*
X108160703Y-100802228D01*
X108128000Y-100637816D01*
X108128000Y-100470184D01*
X108160703Y-100305772D01*
X108224853Y-100150900D01*
X108317985Y-100011519D01*
X108436519Y-99892985D01*
X108575900Y-99799853D01*
X108730772Y-99735703D01*
X108895184Y-99703000D01*
X109062816Y-99703000D01*
X109227228Y-99735703D01*
X109227228Y-99735703D01*
G37*
G36*
X117482228Y-99735703D02*
G01*
X117637100Y-99799853D01*
X117776481Y-99892985D01*
X117895015Y-100011519D01*
X117988147Y-100150900D01*
X118052297Y-100305772D01*
X118085000Y-100470184D01*
X118085000Y-100637816D01*
X118052297Y-100802228D01*
X117988147Y-100957100D01*
X117895015Y-101096481D01*
X117776481Y-101215015D01*
X117637100Y-101308147D01*
X117482228Y-101372297D01*
X117317816Y-101405000D01*
X117150184Y-101405000D01*
X116985772Y-101372297D01*
X116830900Y-101308147D01*
X116691519Y-101215015D01*
X116572985Y-101096481D01*
X116479853Y-100957100D01*
X116415703Y-100802228D01*
X116383000Y-100637816D01*
X116383000Y-100470184D01*
X116415703Y-100305772D01*
X116479853Y-100150900D01*
X116572985Y-100011519D01*
X116691519Y-99892985D01*
X116830900Y-99799853D01*
X116985772Y-99735703D01*
X117150184Y-99703000D01*
X117317816Y-99703000D01*
X117482228Y-99735703D01*
X117482228Y-99735703D01*
G37*
G36*
X104782228Y-99735703D02*
G01*
X104937100Y-99799853D01*
X105076481Y-99892985D01*
X105195015Y-100011519D01*
X105288147Y-100150900D01*
X105352297Y-100305772D01*
X105385000Y-100470184D01*
X105385000Y-100637816D01*
X105352297Y-100802228D01*
X105288147Y-100957100D01*
X105195015Y-101096481D01*
X105076481Y-101215015D01*
X104937100Y-101308147D01*
X104782228Y-101372297D01*
X104617816Y-101405000D01*
X104450184Y-101405000D01*
X104285772Y-101372297D01*
X104130900Y-101308147D01*
X103991519Y-101215015D01*
X103872985Y-101096481D01*
X103779853Y-100957100D01*
X103715703Y-100802228D01*
X103683000Y-100637816D01*
X103683000Y-100470184D01*
X103715703Y-100305772D01*
X103779853Y-100150900D01*
X103872985Y-100011519D01*
X103991519Y-99892985D01*
X104130900Y-99799853D01*
X104285772Y-99735703D01*
X104450184Y-99703000D01*
X104617816Y-99703000D01*
X104782228Y-99735703D01*
X104782228Y-99735703D01*
G37*
G36*
X157359600Y-100039600D02*
G01*
X155848400Y-100039600D01*
X155848400Y-98528400D01*
X157359600Y-98528400D01*
X157359600Y-100039600D01*
X157359600Y-100039600D01*
G37*
G36*
X185668228Y-95955703D02*
G01*
X185823100Y-96019853D01*
X185962481Y-96112985D01*
X186081015Y-96231519D01*
X186174147Y-96370900D01*
X186238297Y-96525772D01*
X186271000Y-96690184D01*
X186271000Y-96857816D01*
X186238297Y-97022228D01*
X186174147Y-97177100D01*
X186081015Y-97316481D01*
X185962481Y-97435015D01*
X185823100Y-97528147D01*
X185668228Y-97592297D01*
X185503816Y-97625000D01*
X185336184Y-97625000D01*
X185171772Y-97592297D01*
X185016900Y-97528147D01*
X184877519Y-97435015D01*
X184758985Y-97316481D01*
X184665853Y-97177100D01*
X184601703Y-97022228D01*
X184569000Y-96857816D01*
X184569000Y-96690184D01*
X184601703Y-96525772D01*
X184665853Y-96370900D01*
X184758985Y-96231519D01*
X184877519Y-96112985D01*
X185016900Y-96019853D01*
X185171772Y-95955703D01*
X185336184Y-95923000D01*
X185503816Y-95923000D01*
X185668228Y-95955703D01*
X185668228Y-95955703D01*
G37*
G36*
X188168228Y-95955703D02*
G01*
X188323100Y-96019853D01*
X188462481Y-96112985D01*
X188581015Y-96231519D01*
X188674147Y-96370900D01*
X188738297Y-96525772D01*
X188771000Y-96690184D01*
X188771000Y-96857816D01*
X188738297Y-97022228D01*
X188674147Y-97177100D01*
X188581015Y-97316481D01*
X188462481Y-97435015D01*
X188323100Y-97528147D01*
X188168228Y-97592297D01*
X188003816Y-97625000D01*
X187836184Y-97625000D01*
X187671772Y-97592297D01*
X187516900Y-97528147D01*
X187377519Y-97435015D01*
X187258985Y-97316481D01*
X187165853Y-97177100D01*
X187101703Y-97022228D01*
X187069000Y-96857816D01*
X187069000Y-96690184D01*
X187101703Y-96525772D01*
X187165853Y-96370900D01*
X187258985Y-96231519D01*
X187377519Y-96112985D01*
X187516900Y-96019853D01*
X187671772Y-95955703D01*
X187836184Y-95923000D01*
X188003816Y-95923000D01*
X188168228Y-95955703D01*
X188168228Y-95955703D01*
G37*
G36*
X157359600Y-97499600D02*
G01*
X155848400Y-97499600D01*
X155848400Y-95988400D01*
X157359600Y-95988400D01*
X157359600Y-97499600D01*
X157359600Y-97499600D01*
G37*
G36*
X126879600Y-97499600D02*
G01*
X125368400Y-97499600D01*
X125368400Y-95988400D01*
X126879600Y-95988400D01*
X126879600Y-97499600D01*
X126879600Y-97499600D01*
G37*
G36*
X168151823Y-95702313D02*
G01*
X168312242Y-95750976D01*
X168444906Y-95821886D01*
X168460078Y-95829996D01*
X168589659Y-95936341D01*
X168696004Y-96065922D01*
X168696005Y-96065924D01*
X168775024Y-96213758D01*
X168823687Y-96374177D01*
X168840117Y-96541000D01*
X168823687Y-96707823D01*
X168775024Y-96868242D01*
X168704114Y-97000906D01*
X168696004Y-97016078D01*
X168589659Y-97145659D01*
X168460078Y-97252004D01*
X168460076Y-97252005D01*
X168312242Y-97331024D01*
X168151823Y-97379687D01*
X168026804Y-97392000D01*
X167943196Y-97392000D01*
X167818177Y-97379687D01*
X167657758Y-97331024D01*
X167509924Y-97252005D01*
X167509922Y-97252004D01*
X167380341Y-97145659D01*
X167273996Y-97016078D01*
X167265886Y-97000906D01*
X167194976Y-96868242D01*
X167146313Y-96707823D01*
X167129883Y-96541000D01*
X167146313Y-96374177D01*
X167194976Y-96213758D01*
X167273995Y-96065924D01*
X167273996Y-96065922D01*
X167380341Y-95936341D01*
X167509922Y-95829996D01*
X167525094Y-95821886D01*
X167657758Y-95750976D01*
X167818177Y-95702313D01*
X167943196Y-95690000D01*
X168026804Y-95690000D01*
X168151823Y-95702313D01*
X168151823Y-95702313D01*
G37*
G36*
X160531823Y-95702313D02*
G01*
X160692242Y-95750976D01*
X160824906Y-95821886D01*
X160840078Y-95829996D01*
X160969659Y-95936341D01*
X161076004Y-96065922D01*
X161076005Y-96065924D01*
X161155024Y-96213758D01*
X161203687Y-96374177D01*
X161220117Y-96541000D01*
X161203687Y-96707823D01*
X161155024Y-96868242D01*
X161084114Y-97000906D01*
X161076004Y-97016078D01*
X160969659Y-97145659D01*
X160840078Y-97252004D01*
X160840076Y-97252005D01*
X160692242Y-97331024D01*
X160531823Y-97379687D01*
X160406804Y-97392000D01*
X160323196Y-97392000D01*
X160198177Y-97379687D01*
X160037758Y-97331024D01*
X159889924Y-97252005D01*
X159889922Y-97252004D01*
X159760341Y-97145659D01*
X159653996Y-97016078D01*
X159645886Y-97000906D01*
X159574976Y-96868242D01*
X159526313Y-96707823D01*
X159509883Y-96541000D01*
X159526313Y-96374177D01*
X159574976Y-96213758D01*
X159653995Y-96065924D01*
X159653996Y-96065922D01*
X159760341Y-95936341D01*
X159889922Y-95829996D01*
X159905094Y-95821886D01*
X160037758Y-95750976D01*
X160198177Y-95702313D01*
X160323196Y-95690000D01*
X160406804Y-95690000D01*
X160531823Y-95702313D01*
X160531823Y-95702313D01*
G37*
G36*
X111859616Y-93433393D02*
G01*
X111956125Y-93452590D01*
X111989052Y-93466229D01*
X112228852Y-93565557D01*
X112277261Y-93597903D01*
X112474302Y-93729561D01*
X112683039Y-93938298D01*
X112770371Y-94069000D01*
X112847043Y-94183748D01*
X112960010Y-94456476D01*
X113017600Y-94745999D01*
X113017600Y-95041201D01*
X112960010Y-95330724D01*
X112847043Y-95603452D01*
X112847042Y-95603453D01*
X112683039Y-95848902D01*
X112474302Y-96057639D01*
X112391470Y-96112985D01*
X112228852Y-96221643D01*
X112069092Y-96287817D01*
X111956125Y-96334610D01*
X111859616Y-96353807D01*
X111666601Y-96392200D01*
X111371399Y-96392200D01*
X111178384Y-96353807D01*
X111081875Y-96334610D01*
X110968908Y-96287817D01*
X110809148Y-96221643D01*
X110646530Y-96112985D01*
X110563698Y-96057639D01*
X110354961Y-95848902D01*
X110190958Y-95603453D01*
X110190957Y-95603452D01*
X110077990Y-95330724D01*
X110020400Y-95041201D01*
X110020400Y-94745999D01*
X110077990Y-94456476D01*
X110190957Y-94183748D01*
X110267629Y-94069000D01*
X110354961Y-93938298D01*
X110563698Y-93729561D01*
X110760739Y-93597903D01*
X110809148Y-93565557D01*
X111048948Y-93466229D01*
X111081875Y-93452590D01*
X111178384Y-93433393D01*
X111371399Y-93395000D01*
X111666601Y-93395000D01*
X111859616Y-93433393D01*
X111859616Y-93433393D01*
G37*
G36*
X157359600Y-94959200D02*
G01*
X155848400Y-94959200D01*
X155848400Y-93448000D01*
X157359600Y-93448000D01*
X157359600Y-94959200D01*
X157359600Y-94959200D01*
G37*
G36*
X168151823Y-93162313D02*
G01*
X168312242Y-93210976D01*
X168379361Y-93246852D01*
X168460078Y-93289996D01*
X168589659Y-93396341D01*
X168696004Y-93525922D01*
X168696005Y-93525924D01*
X168775024Y-93673758D01*
X168823687Y-93834177D01*
X168840117Y-94001000D01*
X168823687Y-94167823D01*
X168775024Y-94328242D01*
X168734477Y-94404100D01*
X168696004Y-94476078D01*
X168589659Y-94605659D01*
X168460078Y-94712004D01*
X168460076Y-94712005D01*
X168312242Y-94791024D01*
X168151823Y-94839687D01*
X168026804Y-94852000D01*
X167943196Y-94852000D01*
X167818177Y-94839687D01*
X167657758Y-94791024D01*
X167509924Y-94712005D01*
X167509922Y-94712004D01*
X167380341Y-94605659D01*
X167273996Y-94476078D01*
X167235523Y-94404100D01*
X167194976Y-94328242D01*
X167146313Y-94167823D01*
X167129883Y-94001000D01*
X167146313Y-93834177D01*
X167194976Y-93673758D01*
X167273995Y-93525924D01*
X167273996Y-93525922D01*
X167380341Y-93396341D01*
X167509922Y-93289996D01*
X167590639Y-93246852D01*
X167657758Y-93210976D01*
X167818177Y-93162313D01*
X167943196Y-93150000D01*
X168026804Y-93150000D01*
X168151823Y-93162313D01*
X168151823Y-93162313D01*
G37*
G36*
X194609228Y-93182703D02*
G01*
X194764100Y-93246853D01*
X194903481Y-93339985D01*
X195022015Y-93458519D01*
X195115147Y-93597900D01*
X195179297Y-93752772D01*
X195212000Y-93917184D01*
X195212000Y-94084816D01*
X195179297Y-94249228D01*
X195115147Y-94404100D01*
X195022015Y-94543481D01*
X194903481Y-94662015D01*
X194764100Y-94755147D01*
X194609228Y-94819297D01*
X194444816Y-94852000D01*
X194277184Y-94852000D01*
X194112772Y-94819297D01*
X193957900Y-94755147D01*
X193818519Y-94662015D01*
X193699985Y-94543481D01*
X193606853Y-94404100D01*
X193542703Y-94249228D01*
X193510000Y-94084816D01*
X193510000Y-93917184D01*
X193542703Y-93752772D01*
X193606853Y-93597900D01*
X193699985Y-93458519D01*
X193818519Y-93339985D01*
X193957900Y-93246853D01*
X194112772Y-93182703D01*
X194277184Y-93150000D01*
X194444816Y-93150000D01*
X194609228Y-93182703D01*
X194609228Y-93182703D01*
G37*
G36*
X192712000Y-94852000D02*
G01*
X191010000Y-94852000D01*
X191010000Y-93150000D01*
X192712000Y-93150000D01*
X192712000Y-94852000D01*
X192712000Y-94852000D01*
G37*
G36*
X160531823Y-93162313D02*
G01*
X160692242Y-93210976D01*
X160759361Y-93246852D01*
X160840078Y-93289996D01*
X160969659Y-93396341D01*
X161076004Y-93525922D01*
X161076005Y-93525924D01*
X161155024Y-93673758D01*
X161203687Y-93834177D01*
X161220117Y-94001000D01*
X161203687Y-94167823D01*
X161155024Y-94328242D01*
X161114477Y-94404100D01*
X161076004Y-94476078D01*
X160969659Y-94605659D01*
X160840078Y-94712004D01*
X160840076Y-94712005D01*
X160692242Y-94791024D01*
X160531823Y-94839687D01*
X160406804Y-94852000D01*
X160323196Y-94852000D01*
X160198177Y-94839687D01*
X160037758Y-94791024D01*
X159889924Y-94712005D01*
X159889922Y-94712004D01*
X159760341Y-94605659D01*
X159653996Y-94476078D01*
X159615523Y-94404100D01*
X159574976Y-94328242D01*
X159526313Y-94167823D01*
X159509883Y-94001000D01*
X159526313Y-93834177D01*
X159574976Y-93673758D01*
X159653995Y-93525924D01*
X159653996Y-93525922D01*
X159760341Y-93396341D01*
X159889922Y-93289996D01*
X159970639Y-93246852D01*
X160037758Y-93210976D01*
X160198177Y-93162313D01*
X160323196Y-93150000D01*
X160406804Y-93150000D01*
X160531823Y-93162313D01*
X160531823Y-93162313D01*
G37*
G36*
X188168228Y-92399703D02*
G01*
X188323100Y-92463853D01*
X188462481Y-92556985D01*
X188581015Y-92675519D01*
X188674147Y-92814900D01*
X188738297Y-92969772D01*
X188771000Y-93134184D01*
X188771000Y-93301816D01*
X188738297Y-93466228D01*
X188674147Y-93621100D01*
X188581015Y-93760481D01*
X188462481Y-93879015D01*
X188323100Y-93972147D01*
X188168228Y-94036297D01*
X188003816Y-94069000D01*
X187836184Y-94069000D01*
X187671772Y-94036297D01*
X187516900Y-93972147D01*
X187377519Y-93879015D01*
X187258985Y-93760481D01*
X187165853Y-93621100D01*
X187101703Y-93466228D01*
X187069000Y-93301816D01*
X187069000Y-93134184D01*
X187101703Y-92969772D01*
X187165853Y-92814900D01*
X187258985Y-92675519D01*
X187377519Y-92556985D01*
X187516900Y-92463853D01*
X187671772Y-92399703D01*
X187836184Y-92367000D01*
X188003816Y-92367000D01*
X188168228Y-92399703D01*
X188168228Y-92399703D01*
G37*
G36*
X185668228Y-92399703D02*
G01*
X185823100Y-92463853D01*
X185962481Y-92556985D01*
X186081015Y-92675519D01*
X186174147Y-92814900D01*
X186238297Y-92969772D01*
X186271000Y-93134184D01*
X186271000Y-93301816D01*
X186238297Y-93466228D01*
X186174147Y-93621100D01*
X186081015Y-93760481D01*
X185962481Y-93879015D01*
X185823100Y-93972147D01*
X185668228Y-94036297D01*
X185503816Y-94069000D01*
X185336184Y-94069000D01*
X185171772Y-94036297D01*
X185016900Y-93972147D01*
X184877519Y-93879015D01*
X184758985Y-93760481D01*
X184665853Y-93621100D01*
X184601703Y-93466228D01*
X184569000Y-93301816D01*
X184569000Y-93134184D01*
X184601703Y-92969772D01*
X184665853Y-92814900D01*
X184758985Y-92675519D01*
X184877519Y-92556985D01*
X185016900Y-92463853D01*
X185171772Y-92399703D01*
X185336184Y-92367000D01*
X185503816Y-92367000D01*
X185668228Y-92399703D01*
X185668228Y-92399703D01*
G37*
G36*
X104789279Y-92002609D02*
G01*
X104859127Y-92031541D01*
X104957908Y-92072457D01*
X104957909Y-92072458D01*
X105109673Y-92173863D01*
X105238737Y-92302927D01*
X105238738Y-92302929D01*
X105340143Y-92454692D01*
X105381059Y-92553473D01*
X105409991Y-92623321D01*
X105445600Y-92802338D01*
X105445600Y-92984862D01*
X105415898Y-93134185D01*
X105409991Y-93163878D01*
X105340143Y-93332508D01*
X105340142Y-93332509D01*
X105238737Y-93484273D01*
X105109673Y-93613337D01*
X105033275Y-93664384D01*
X104957908Y-93714743D01*
X104866099Y-93752771D01*
X104789279Y-93784591D01*
X104610262Y-93820200D01*
X104427738Y-93820200D01*
X104248721Y-93784591D01*
X104171901Y-93752771D01*
X104080092Y-93714743D01*
X104004725Y-93664384D01*
X103928327Y-93613337D01*
X103799263Y-93484273D01*
X103697858Y-93332509D01*
X103697857Y-93332508D01*
X103628009Y-93163878D01*
X103622103Y-93134185D01*
X103592400Y-92984862D01*
X103592400Y-92802338D01*
X103628009Y-92623321D01*
X103656941Y-92553473D01*
X103697857Y-92454692D01*
X103799262Y-92302929D01*
X103799263Y-92302927D01*
X103928327Y-92173863D01*
X104080091Y-92072458D01*
X104080092Y-92072457D01*
X104178873Y-92031541D01*
X104248721Y-92002609D01*
X104427738Y-91967000D01*
X104610262Y-91967000D01*
X104789279Y-92002609D01*
X104789279Y-92002609D01*
G37*
G36*
X126879600Y-92419200D02*
G01*
X125368400Y-92419200D01*
X125368400Y-90908000D01*
X126879600Y-90908000D01*
X126879600Y-92419200D01*
X126879600Y-92419200D01*
G37*
G36*
X157359600Y-92419200D02*
G01*
X155848400Y-92419200D01*
X155848400Y-90908000D01*
X157359600Y-90908000D01*
X157359600Y-92419200D01*
X157359600Y-92419200D01*
G37*
G36*
X160531823Y-90622313D02*
G01*
X160692242Y-90670976D01*
X160824906Y-90741886D01*
X160840078Y-90749996D01*
X160969659Y-90856341D01*
X161076004Y-90985922D01*
X161076005Y-90985924D01*
X161155024Y-91133758D01*
X161203687Y-91294177D01*
X161220117Y-91461000D01*
X161203687Y-91627823D01*
X161155024Y-91788242D01*
X161084114Y-91920906D01*
X161076004Y-91936078D01*
X160969659Y-92065659D01*
X160840078Y-92172004D01*
X160840076Y-92172005D01*
X160692242Y-92251024D01*
X160531823Y-92299687D01*
X160406804Y-92312000D01*
X160323196Y-92312000D01*
X160198177Y-92299687D01*
X160037758Y-92251024D01*
X159889924Y-92172005D01*
X159889922Y-92172004D01*
X159760341Y-92065659D01*
X159653996Y-91936078D01*
X159645886Y-91920906D01*
X159574976Y-91788242D01*
X159526313Y-91627823D01*
X159509883Y-91461000D01*
X159526313Y-91294177D01*
X159574976Y-91133758D01*
X159653995Y-90985924D01*
X159653996Y-90985922D01*
X159760341Y-90856341D01*
X159889922Y-90749996D01*
X159905094Y-90741886D01*
X160037758Y-90670976D01*
X160198177Y-90622313D01*
X160323196Y-90610000D01*
X160406804Y-90610000D01*
X160531823Y-90622313D01*
X160531823Y-90622313D01*
G37*
G36*
X168151823Y-90622313D02*
G01*
X168312242Y-90670976D01*
X168444906Y-90741886D01*
X168460078Y-90749996D01*
X168589659Y-90856341D01*
X168696004Y-90985922D01*
X168696005Y-90985924D01*
X168775024Y-91133758D01*
X168823687Y-91294177D01*
X168840117Y-91461000D01*
X168823687Y-91627823D01*
X168775024Y-91788242D01*
X168704114Y-91920906D01*
X168696004Y-91936078D01*
X168589659Y-92065659D01*
X168460078Y-92172004D01*
X168460076Y-92172005D01*
X168312242Y-92251024D01*
X168151823Y-92299687D01*
X168026804Y-92312000D01*
X167943196Y-92312000D01*
X167818177Y-92299687D01*
X167657758Y-92251024D01*
X167509924Y-92172005D01*
X167509922Y-92172004D01*
X167380341Y-92065659D01*
X167273996Y-91936078D01*
X167265886Y-91920906D01*
X167194976Y-91788242D01*
X167146313Y-91627823D01*
X167129883Y-91461000D01*
X167146313Y-91294177D01*
X167194976Y-91133758D01*
X167273995Y-90985924D01*
X167273996Y-90985922D01*
X167380341Y-90856341D01*
X167509922Y-90749996D01*
X167525094Y-90741886D01*
X167657758Y-90670976D01*
X167818177Y-90622313D01*
X167943196Y-90610000D01*
X168026804Y-90610000D01*
X168151823Y-90622313D01*
X168151823Y-90622313D01*
G37*
G36*
X182424279Y-89502609D02*
G01*
X182479926Y-89525659D01*
X182592908Y-89572457D01*
X182592909Y-89572458D01*
X182744673Y-89673863D01*
X182873737Y-89802927D01*
X182873738Y-89802929D01*
X182975143Y-89954692D01*
X183016059Y-90053473D01*
X183044991Y-90123321D01*
X183080600Y-90302338D01*
X183080600Y-90484862D01*
X183044991Y-90663879D01*
X183042051Y-90670976D01*
X182975143Y-90832508D01*
X182975142Y-90832509D01*
X182873737Y-90984273D01*
X182744673Y-91113337D01*
X182714106Y-91133761D01*
X182592908Y-91214743D01*
X182494127Y-91255659D01*
X182424279Y-91284591D01*
X182245262Y-91320200D01*
X182062738Y-91320200D01*
X181883721Y-91284591D01*
X181813873Y-91255659D01*
X181715092Y-91214743D01*
X181593894Y-91133761D01*
X181563327Y-91113337D01*
X181434263Y-90984273D01*
X181332858Y-90832509D01*
X181332857Y-90832508D01*
X181265949Y-90670976D01*
X181263009Y-90663879D01*
X181227400Y-90484862D01*
X181227400Y-90302338D01*
X181263009Y-90123321D01*
X181291941Y-90053473D01*
X181332857Y-89954692D01*
X181434262Y-89802929D01*
X181434263Y-89802927D01*
X181563327Y-89673863D01*
X181715091Y-89572458D01*
X181715092Y-89572457D01*
X181828074Y-89525659D01*
X181883721Y-89502609D01*
X182062738Y-89467000D01*
X182245262Y-89467000D01*
X182424279Y-89502609D01*
X182424279Y-89502609D01*
G37*
G36*
X170924279Y-89502609D02*
G01*
X170979926Y-89525659D01*
X171092908Y-89572457D01*
X171092909Y-89572458D01*
X171244673Y-89673863D01*
X171373737Y-89802927D01*
X171373738Y-89802929D01*
X171475143Y-89954692D01*
X171516059Y-90053473D01*
X171544991Y-90123321D01*
X171580600Y-90302338D01*
X171580600Y-90484862D01*
X171544991Y-90663879D01*
X171542051Y-90670976D01*
X171475143Y-90832508D01*
X171475142Y-90832509D01*
X171373737Y-90984273D01*
X171244673Y-91113337D01*
X171214106Y-91133761D01*
X171092908Y-91214743D01*
X170994127Y-91255659D01*
X170924279Y-91284591D01*
X170745262Y-91320200D01*
X170562738Y-91320200D01*
X170383721Y-91284591D01*
X170313873Y-91255659D01*
X170215092Y-91214743D01*
X170093894Y-91133761D01*
X170063327Y-91113337D01*
X169934263Y-90984273D01*
X169832858Y-90832509D01*
X169832857Y-90832508D01*
X169765949Y-90670976D01*
X169763009Y-90663879D01*
X169727400Y-90484862D01*
X169727400Y-90302338D01*
X169763009Y-90123321D01*
X169791941Y-90053473D01*
X169832857Y-89954692D01*
X169934262Y-89802929D01*
X169934263Y-89802927D01*
X170063327Y-89673863D01*
X170215091Y-89572458D01*
X170215092Y-89572457D01*
X170328074Y-89525659D01*
X170383721Y-89502609D01*
X170562738Y-89467000D01*
X170745262Y-89467000D01*
X170924279Y-89502609D01*
X170924279Y-89502609D01*
G37*
G36*
X179424279Y-89502609D02*
G01*
X179479926Y-89525659D01*
X179592908Y-89572457D01*
X179592909Y-89572458D01*
X179744673Y-89673863D01*
X179873737Y-89802927D01*
X179873738Y-89802929D01*
X179975143Y-89954692D01*
X180016059Y-90053473D01*
X180044991Y-90123321D01*
X180080600Y-90302338D01*
X180080600Y-90484862D01*
X180044991Y-90663879D01*
X180042051Y-90670976D01*
X179975143Y-90832508D01*
X179975142Y-90832509D01*
X179873737Y-90984273D01*
X179744673Y-91113337D01*
X179714106Y-91133761D01*
X179592908Y-91214743D01*
X179494127Y-91255659D01*
X179424279Y-91284591D01*
X179245262Y-91320200D01*
X179062738Y-91320200D01*
X178883721Y-91284591D01*
X178813873Y-91255659D01*
X178715092Y-91214743D01*
X178593894Y-91133761D01*
X178563327Y-91113337D01*
X178434263Y-90984273D01*
X178332858Y-90832509D01*
X178332857Y-90832508D01*
X178265949Y-90670976D01*
X178263009Y-90663879D01*
X178227400Y-90484862D01*
X178227400Y-90302338D01*
X178263009Y-90123321D01*
X178291941Y-90053473D01*
X178332857Y-89954692D01*
X178434262Y-89802929D01*
X178434263Y-89802927D01*
X178563327Y-89673863D01*
X178715091Y-89572458D01*
X178715092Y-89572457D01*
X178828074Y-89525659D01*
X178883721Y-89502609D01*
X179062738Y-89467000D01*
X179245262Y-89467000D01*
X179424279Y-89502609D01*
X179424279Y-89502609D01*
G37*
G36*
X104789279Y-89502609D02*
G01*
X104844926Y-89525659D01*
X104957908Y-89572457D01*
X104957909Y-89572458D01*
X105109673Y-89673863D01*
X105238737Y-89802927D01*
X105238738Y-89802929D01*
X105340143Y-89954692D01*
X105381059Y-90053473D01*
X105409991Y-90123321D01*
X105445600Y-90302338D01*
X105445600Y-90484862D01*
X105409991Y-90663879D01*
X105407051Y-90670976D01*
X105340143Y-90832508D01*
X105340142Y-90832509D01*
X105238737Y-90984273D01*
X105109673Y-91113337D01*
X105079106Y-91133761D01*
X104957908Y-91214743D01*
X104859127Y-91255659D01*
X104789279Y-91284591D01*
X104610262Y-91320200D01*
X104427738Y-91320200D01*
X104248721Y-91284591D01*
X104178873Y-91255659D01*
X104080092Y-91214743D01*
X103958894Y-91133761D01*
X103928327Y-91113337D01*
X103799263Y-90984273D01*
X103697858Y-90832509D01*
X103697857Y-90832508D01*
X103630949Y-90670976D01*
X103628009Y-90663879D01*
X103592400Y-90484862D01*
X103592400Y-90302338D01*
X103628009Y-90123321D01*
X103656941Y-90053473D01*
X103697857Y-89954692D01*
X103799262Y-89802929D01*
X103799263Y-89802927D01*
X103928327Y-89673863D01*
X104080091Y-89572458D01*
X104080092Y-89572457D01*
X104193074Y-89525659D01*
X104248721Y-89502609D01*
X104427738Y-89467000D01*
X104610262Y-89467000D01*
X104789279Y-89502609D01*
X104789279Y-89502609D01*
G37*
G36*
X157359600Y-89879200D02*
G01*
X155848400Y-89879200D01*
X155848400Y-88368000D01*
X157359600Y-88368000D01*
X157359600Y-89879200D01*
X157359600Y-89879200D01*
G37*
G36*
X160531823Y-88082313D02*
G01*
X160692242Y-88130976D01*
X160824906Y-88201886D01*
X160840078Y-88209996D01*
X160969659Y-88316341D01*
X161076004Y-88445922D01*
X161076005Y-88445924D01*
X161155024Y-88593758D01*
X161203687Y-88754177D01*
X161220117Y-88921000D01*
X161203687Y-89087823D01*
X161155024Y-89248242D01*
X161084114Y-89380906D01*
X161076004Y-89396078D01*
X160969659Y-89525659D01*
X160840078Y-89632004D01*
X160840076Y-89632005D01*
X160692242Y-89711024D01*
X160531823Y-89759687D01*
X160406804Y-89772000D01*
X160323196Y-89772000D01*
X160198177Y-89759687D01*
X160037758Y-89711024D01*
X159889924Y-89632005D01*
X159889922Y-89632004D01*
X159760341Y-89525659D01*
X159653996Y-89396078D01*
X159645886Y-89380906D01*
X159574976Y-89248242D01*
X159526313Y-89087823D01*
X159509883Y-88921000D01*
X159526313Y-88754177D01*
X159574976Y-88593758D01*
X159653995Y-88445924D01*
X159653996Y-88445922D01*
X159760341Y-88316341D01*
X159889922Y-88209996D01*
X159905094Y-88201886D01*
X160037758Y-88130976D01*
X160198177Y-88082313D01*
X160323196Y-88070000D01*
X160406804Y-88070000D01*
X160531823Y-88082313D01*
X160531823Y-88082313D01*
G37*
G36*
X168836000Y-89772000D02*
G01*
X167134000Y-89772000D01*
X167134000Y-88070000D01*
X168836000Y-88070000D01*
X168836000Y-89772000D01*
X168836000Y-89772000D01*
G37*
G36*
X105445600Y-88820200D02*
G01*
X103592400Y-88820200D01*
X103592400Y-86967000D01*
X105445600Y-86967000D01*
X105445600Y-88820200D01*
X105445600Y-88820200D01*
G37*
G36*
X188558473Y-87179538D02*
G01*
X188686049Y-87232382D01*
X188800859Y-87309095D01*
X188898505Y-87406741D01*
X188975218Y-87521551D01*
X189028062Y-87649127D01*
X189055000Y-87784556D01*
X189055000Y-87922644D01*
X189028062Y-88058073D01*
X188975218Y-88185649D01*
X188898505Y-88300459D01*
X188800859Y-88398105D01*
X188686049Y-88474818D01*
X188558473Y-88527662D01*
X188423044Y-88554600D01*
X188284956Y-88554600D01*
X188149527Y-88527662D01*
X188021951Y-88474818D01*
X187907141Y-88398105D01*
X187809495Y-88300459D01*
X187732782Y-88185649D01*
X187679938Y-88058073D01*
X187653000Y-87922644D01*
X187653000Y-87784556D01*
X187679938Y-87649127D01*
X187732782Y-87521551D01*
X187809495Y-87406741D01*
X187907141Y-87309095D01*
X188021951Y-87232382D01*
X188149527Y-87179538D01*
X188284956Y-87152600D01*
X188423044Y-87152600D01*
X188558473Y-87179538D01*
X188558473Y-87179538D01*
G37*
G36*
X187288473Y-85909538D02*
G01*
X187416049Y-85962382D01*
X187530859Y-86039095D01*
X187628505Y-86136741D01*
X187705218Y-86251551D01*
X187758062Y-86379127D01*
X187785000Y-86514556D01*
X187785000Y-86652644D01*
X187758062Y-86788073D01*
X187705218Y-86915649D01*
X187628505Y-87030459D01*
X187530859Y-87128105D01*
X187416049Y-87204818D01*
X187288473Y-87257662D01*
X187153044Y-87284600D01*
X187014956Y-87284600D01*
X186879527Y-87257662D01*
X186751951Y-87204818D01*
X186709444Y-87176416D01*
X186687833Y-87164865D01*
X186664384Y-87157752D01*
X186639998Y-87155350D01*
X186615612Y-87157752D01*
X186592163Y-87164865D01*
X186570553Y-87176417D01*
X186551611Y-87191962D01*
X186536066Y-87210904D01*
X186524515Y-87232515D01*
X186517402Y-87255964D01*
X186515000Y-87280349D01*
X186515000Y-88554600D01*
X185113000Y-88554600D01*
X185113000Y-87152600D01*
X186387251Y-87152600D01*
X186411637Y-87150198D01*
X186435086Y-87143085D01*
X186456697Y-87131534D01*
X186475639Y-87115989D01*
X186491184Y-87097047D01*
X186502735Y-87075436D01*
X186509848Y-87051987D01*
X186512250Y-87027601D01*
X186509848Y-87003215D01*
X186502735Y-86979766D01*
X186491184Y-86958156D01*
X186462782Y-86915649D01*
X186409938Y-86788073D01*
X186383000Y-86652644D01*
X186383000Y-86514556D01*
X186409938Y-86379127D01*
X186462782Y-86251551D01*
X186539495Y-86136741D01*
X186637141Y-86039095D01*
X186751951Y-85962382D01*
X186879527Y-85909538D01*
X187014956Y-85882600D01*
X187153044Y-85882600D01*
X187288473Y-85909538D01*
X187288473Y-85909538D01*
G37*
G36*
X195252000Y-88502000D02*
G01*
X193550000Y-88502000D01*
X193550000Y-86800000D01*
X195252000Y-86800000D01*
X195252000Y-88502000D01*
X195252000Y-88502000D01*
G37*
G36*
X192149228Y-86832703D02*
G01*
X192304100Y-86896853D01*
X192443481Y-86989985D01*
X192562015Y-87108519D01*
X192655147Y-87247900D01*
X192719297Y-87402772D01*
X192752000Y-87567184D01*
X192752000Y-87734816D01*
X192719297Y-87899228D01*
X192655147Y-88054100D01*
X192562015Y-88193481D01*
X192443481Y-88312015D01*
X192304100Y-88405147D01*
X192149228Y-88469297D01*
X191984816Y-88502000D01*
X191817184Y-88502000D01*
X191652772Y-88469297D01*
X191497900Y-88405147D01*
X191358519Y-88312015D01*
X191239985Y-88193481D01*
X191146853Y-88054100D01*
X191082703Y-87899228D01*
X191050000Y-87734816D01*
X191050000Y-87567184D01*
X191082703Y-87402772D01*
X191146853Y-87247900D01*
X191239985Y-87108519D01*
X191358519Y-86989985D01*
X191497900Y-86896853D01*
X191652772Y-86832703D01*
X191817184Y-86800000D01*
X191984816Y-86800000D01*
X192149228Y-86832703D01*
X192149228Y-86832703D01*
G37*
G36*
X111837454Y-84428985D02*
G01*
X111956125Y-84452590D01*
X112069092Y-84499383D01*
X112228852Y-84565557D01*
X112228853Y-84565558D01*
X112474302Y-84729561D01*
X112683039Y-84938298D01*
X112728399Y-85006185D01*
X112847043Y-85183748D01*
X112911030Y-85338228D01*
X112960010Y-85456475D01*
X112967295Y-85493100D01*
X112995020Y-85632480D01*
X113017600Y-85746001D01*
X113017600Y-86041199D01*
X112960010Y-86330725D01*
X112939961Y-86379127D01*
X112847043Y-86603452D01*
X112847042Y-86603453D01*
X112683039Y-86848902D01*
X112474302Y-87057639D01*
X112346422Y-87143085D01*
X112228852Y-87221643D01*
X112069092Y-87287817D01*
X111956125Y-87334610D01*
X111933049Y-87339200D01*
X111666601Y-87392200D01*
X111371399Y-87392200D01*
X111104951Y-87339200D01*
X111081875Y-87334610D01*
X110968908Y-87287817D01*
X110809148Y-87221643D01*
X110691578Y-87143085D01*
X110563698Y-87057639D01*
X110354961Y-86848902D01*
X110190958Y-86603453D01*
X110190957Y-86603452D01*
X110098039Y-86379127D01*
X110077990Y-86330725D01*
X110020400Y-86041199D01*
X110020400Y-85746001D01*
X110042981Y-85632480D01*
X110070705Y-85493100D01*
X110077990Y-85456475D01*
X110126970Y-85338228D01*
X110190957Y-85183748D01*
X110309601Y-85006185D01*
X110354961Y-84938298D01*
X110563698Y-84729561D01*
X110809147Y-84565558D01*
X110809148Y-84565557D01*
X110968908Y-84499383D01*
X111081875Y-84452590D01*
X111200546Y-84428985D01*
X111371399Y-84395000D01*
X111666601Y-84395000D01*
X111837454Y-84428985D01*
X111837454Y-84428985D01*
G37*
G36*
X157359600Y-87339200D02*
G01*
X155848400Y-87339200D01*
X155848400Y-85828000D01*
X157359600Y-85828000D01*
X157359600Y-87339200D01*
X157359600Y-87339200D01*
G37*
G36*
X126879600Y-87339200D02*
G01*
X125368400Y-87339200D01*
X125368400Y-85828000D01*
X126879600Y-85828000D01*
X126879600Y-87339200D01*
X126879600Y-87339200D01*
G37*
G36*
X165816228Y-84271703D02*
G01*
X165971100Y-84335853D01*
X166110481Y-84428985D01*
X166229015Y-84547519D01*
X166322147Y-84686900D01*
X166386297Y-84841772D01*
X166419000Y-85006184D01*
X166419000Y-85173816D01*
X166386297Y-85338228D01*
X166322147Y-85493100D01*
X166229015Y-85632481D01*
X166110481Y-85751015D01*
X165971100Y-85844147D01*
X165816228Y-85908297D01*
X165651816Y-85941000D01*
X165484184Y-85941000D01*
X165319772Y-85908297D01*
X165164900Y-85844147D01*
X165025519Y-85751015D01*
X164906985Y-85632481D01*
X164813853Y-85493100D01*
X164749703Y-85338228D01*
X164717000Y-85173816D01*
X164717000Y-85006184D01*
X164749703Y-84841772D01*
X164813853Y-84686900D01*
X164906985Y-84547519D01*
X165025519Y-84428985D01*
X165164900Y-84335853D01*
X165319772Y-84271703D01*
X165484184Y-84239000D01*
X165651816Y-84239000D01*
X165816228Y-84271703D01*
X165816228Y-84271703D01*
G37*
G36*
X163316228Y-84271703D02*
G01*
X163471100Y-84335853D01*
X163610481Y-84428985D01*
X163729015Y-84547519D01*
X163822147Y-84686900D01*
X163886297Y-84841772D01*
X163919000Y-85006184D01*
X163919000Y-85173816D01*
X163886297Y-85338228D01*
X163822147Y-85493100D01*
X163729015Y-85632481D01*
X163610481Y-85751015D01*
X163471100Y-85844147D01*
X163316228Y-85908297D01*
X163151816Y-85941000D01*
X162984184Y-85941000D01*
X162819772Y-85908297D01*
X162664900Y-85844147D01*
X162525519Y-85751015D01*
X162406985Y-85632481D01*
X162313853Y-85493100D01*
X162249703Y-85338228D01*
X162217000Y-85173816D01*
X162217000Y-85006184D01*
X162249703Y-84841772D01*
X162313853Y-84686900D01*
X162406985Y-84547519D01*
X162525519Y-84428985D01*
X162664900Y-84335853D01*
X162819772Y-84271703D01*
X162984184Y-84239000D01*
X163151816Y-84239000D01*
X163316228Y-84271703D01*
X163316228Y-84271703D01*
G37*
M02*
