M48
; DRILL file {KiCad 5.1.4-e60b266~84~ubuntu18.04.1} date Mon 21 Oct 2019 00:40:38 BST
; FORMAT={-:-/ absolute / inch / decimal}
; #@! TF.CreationDate,2019-10-21T00:40:38+01:00
; #@! TF.GenerationSoftware,Kicad,Pcbnew,5.1.4-e60b266~84~ubuntu18.04.1
; #@! TF.FileFunction,Plated,1,2,PTH
FMAT,2
INCH
T1C0.0157
T2C0.0295
T3C0.0315
T4C0.0400
T5C0.0433
T6C0.0827
%
G90
G05
T1
X6.38Y-4.053
T2
X7.3155Y-3.4588
X7.3655Y-3.4088
X7.4155Y-3.4588
T3
X4.9655Y-3.8088
X4.9655Y-4.0088
X6.1655Y-3.8088
X6.1655Y-3.9088
X6.1655Y-4.0088
X6.1655Y-4.1088
X6.42Y-3.35
X6.5184Y-3.35
X6.43Y-4.72
X6.5284Y-4.72
X7.5552Y-3.4508
X7.6536Y-3.4508
X6.43Y-4.27
X6.5284Y-4.27
X4.6155Y-3.9588
X4.6155Y-4.0588
X6.43Y-4.57
X6.53Y-4.57
X4.6155Y-4.3538
X4.6155Y-4.4538
X4.2905Y-4.3538
X4.2905Y-4.4538
X7.3Y-3.67
X7.3984Y-3.67
X6.3136Y-3.5008
X6.3136Y-3.6008
X6.3136Y-3.7008
X6.3136Y-3.8008
X6.6136Y-3.5008
X6.6136Y-3.6008
X6.6136Y-3.7008
X6.6136Y-3.8008
X7.5536Y-3.7008
X7.652Y-3.7008
X7.52Y-4.0
X7.62Y-4.0
X6.4123Y-4.86
X6.5123Y-4.86
X4.9655Y-3.4088
X4.9655Y-3.6088
X6.1655Y-3.4088
X6.1655Y-3.5088
X6.1655Y-3.6088
X6.1655Y-3.7088
X4.1155Y-3.9588
X4.1155Y-4.0588
X4.4405Y-3.9588
X4.4405Y-4.0588
X7.3Y-3.81
X7.3984Y-3.81
X7.3Y-4.0
X7.4Y-4.0
X6.43Y-4.42
X6.53Y-4.42
X4.9655Y-4.2088
X4.9655Y-4.4088
X6.1655Y-4.2088
X6.1655Y-4.3088
X6.1655Y-4.4088
X6.1655Y-4.5088
X7.2936Y-4.1308
X7.3936Y-4.1308
X4.4405Y-4.3538
X4.4405Y-4.4538
X4.1155Y-4.3538
X4.1155Y-4.4538
X6.43Y-4.11
X6.5284Y-4.11
X4.9655Y-4.6088
X4.9655Y-4.8088
X6.1655Y-4.6088
X6.1655Y-4.7088
X6.1655Y-4.8088
X6.1655Y-4.9088
X7.5036Y-4.1308
X7.6036Y-4.1308
X4.2905Y-3.9588
X4.2905Y-4.0588
T4
X7.3855Y-4.3838
X7.3855Y-4.5838
X7.3855Y-4.7838
X7.3955Y-4.4838
X7.3955Y-4.6838
X7.4855Y-4.3838
X7.4855Y-4.5838
X7.4855Y-4.7838
X7.4955Y-4.4838
X7.4955Y-4.6838
T5
X6.7187Y-4.3588
X7.0533Y-4.3588
X7.1714Y-4.3588
X4.1937Y-4.7588
X4.5283Y-4.7588
X4.6464Y-4.7588
X6.7187Y-3.9588
X7.0533Y-3.9588
X7.1714Y-3.9588
X4.1149Y-3.4604
X4.1149Y-3.5588
X4.1149Y-3.6572
X6.7187Y-3.5588
X7.0533Y-3.5588
X7.1714Y-3.5588
X6.7187Y-4.7588
X7.0533Y-4.7588
X7.1714Y-4.7588
T6
X4.3905Y-3.3816
X4.3905Y-3.736
T0
M30
